# https://github.com/mikedh/trimesh

o A.obj
v 5.61694904 -0.54841940 10.35094940
v 5.61694904 -0.50722845 8.58192243
v 5.61694904 6.10253657 -9.61555774
v 5.61694904 8.80404701 -9.61555650
v 5.61694904 1.19320932 10.35094940
v -5.61694949 6.10253657 -9.61555774
v -5.61694949 -0.50722845 8.58192243
v -5.61694949 -0.54841940 10.35094940
v -5.61694949 1.19320932 10.35094940
v -5.61694949 8.80404701 -9.61555650
v 5.61694904 -8.76264477 -9.61555899
v 5.61694904 -6.04741149 -9.61555774
v 5.61694904 0.57609383 8.58192243
v 5.61694904 0.61722238 10.35094940
v 5.61694904 -1.12434394 10.35094940
v -5.61694949 0.57609383 8.58192243
v -5.61694824 -6.04741149 -9.61555774
v -5.61694824 -8.76264477 -9.61555899
v -5.61694949 -1.12434394 10.35094940
v -5.61694949 0.61722238 10.35094940
v 5.61694904 5.51286923 -2.22408939
v 5.61694904 -5.70459160 -2.22409063
v 5.61694904 -5.70459160 -4.39080884
v 5.61694904 5.51286923 -4.39080760
v -5.61694824 -5.70459160 -4.39080884
v -5.61694824 -5.70459160 -2.22409063
v -5.61694949 5.51286923 -2.22408939
v -5.61694949 5.51286923 -4.39080760
v 5.61694904 -0.52782393 9.46643591
v 5.61694904 2.79765406 -0.51681765
v 5.61694904 2.77705858 0.36769583
v 5.61694904 7.45329179 -9.61555711
v 5.61694904 4.12781380 0.36769645
v 5.61694904 0.32239495 10.35094940
v 5.61694904 4.99862817 0.36769645
v -0.00000022 6.10253657 -9.61555774
v -0.00000022 2.79765406 -0.51681765
v -0.00000022 -0.50722845 8.58192243
v -5.61694949 2.79765406 -0.51681765
v -0.00000022 -0.52782393 9.46643591
v -0.00000022 -0.54841940 10.35094940
v -5.61694949 -0.52782393 9.46643591
v -5.61694949 2.77705858 0.36769583
v -0.00000022 0.32239495 10.35094940
v -5.61694949 0.32239495 10.35094940
v -0.00000022 1.19320932 10.35094940
v -0.00000022 4.99862817 0.36769645
v -0.00000022 8.80404701 -9.61555650
v -5.61694949 4.99862817 0.36769645
v -5.61694949 7.45329179 -9.61555711
v -5.61694949 4.12781380 0.36769645
v -0.00000022 7.45329179 -9.61555711
v 5.61694904 -7.40502813 -9.61555837
v 5.61694904 -2.73565883 -0.51681765
v 5.61694904 -4.09327547 -0.51681828
v 5.61694904 -4.07271119 0.36769520
v 5.61694904 0.59665810 9.46643591
v 5.61694904 -4.94349435 0.36769520
v 5.61694904 -0.25356078 10.35094940
v -0.00000022 0.57609383 8.58192243
v -0.00000022 -2.73565883 -0.51681765
v 0.00000040 -7.40502813 -9.61555837
v 0.00000040 -6.04741149 -9.61555774
v -5.61694886 -2.73565883 -0.51681765
v 0.00000040 -8.76264477 -9.61555899
v 0.00000040 -4.94349435 0.36769520
v -5.61694886 -4.09327547 -0.51681828
v -5.61694824 -7.40502813 -9.61555837
v -5.61694886 -4.94349435 0.36769520
v -0.00000022 -0.25356078 10.35094940
v -0.00000022 -1.12434394 10.35094940
v -0.00000022 0.61722238 10.35094940
v -5.61694949 -0.25356078 10.35094940
v -0.00000022 0.59665810 9.46643591
v -5.61694949 0.59665810 9.46643591
v -5.61694886 -4.07271119 0.36769520
v 5.61694904 -0.09586119 -2.22409000
v 5.61694904 -5.70459160 -3.30744973
v 5.61694904 -0.09586119 -3.30744911
v 5.61694904 5.51286923 -3.30744849
v 5.61694904 -0.09586119 -4.39080821
v 0.00000040 -5.70459160 -3.30744973
v 0.00000040 -5.70459160 -4.39080884
v 0.00000040 -5.70459160 -2.22409063
v -5.61694824 -5.70459160 -3.30744973
v 0.00000040 -0.09586119 -2.22409000
v -0.00000022 5.51286923 -2.22408939
v -0.00000022 5.51286923 -3.30744849
v -5.61694886 -0.09586119 -2.22409000
v -5.61694886 -0.09586119 -3.30744911
v -5.61694886 -0.09586119 -4.39080821
v -5.61694949 5.51286923 -3.30744849
v -0.00000022 5.51286923 -4.39080760
v -0.00000022 -0.09586119 -4.39080821
v 5.61694904 -0.53812167 9.90869265
v 5.61694904 -0.51752619 9.02417917
v 5.61694904 1.14521280 4.03255238
v 5.61694904 4.45009531 -5.06618770
v 5.61694904 1.11431959 5.35932261
v 5.61694904 4.43979757 -4.62393096
v 5.61694904 1.12461733 4.91706587
v 5.61694904 1.13491506 4.47480912
v 5.61694904 2.78735632 -0.07456091
v 5.61694904 6.77791417 -9.61555743
v 5.61694904 8.12866940 -9.61555681
v 5.61694904 1.78969720 5.35932292
v 5.61694904 6.46593041 -4.62393002
v 5.61694904 3.45243619 0.36769613
v 5.61694904 5.11517518 -4.62393064
v 5.61694904 5.79055279 -4.62393034
v 5.61694904 -0.11301223 10.35094940
v 5.61694904 0.75780214 10.35094940
v 5.61694904 6.90133760 -4.62393002
v 5.61694904 3.09591875 5.35932292
v 5.61694904 2.22510438 5.35932292
v 5.61694904 4.56322098 0.36769645
v 5.61694904 2.66051157 5.35932292
v 2.80847441 6.10253657 -9.61555774
v -2.80847485 6.10253657 -9.61555774
v 2.80847441 1.14521280 4.03255238
v -2.80847485 4.45009531 -5.06618770
v 2.80847441 2.79765406 -0.51681765
v 2.80847441 4.45009531 -5.06618770
v -0.00000022 4.45009531 -5.06618770
v 2.80847441 -0.50722845 8.58192243
v -2.80847485 -0.50722845 8.58192243
v -0.00000022 1.14521280 4.03255238
v -5.61694949 4.45009531 -5.06618770
v -5.61694949 1.14521280 4.03255238
v -2.80847485 2.79765406 -0.51681765
v -2.80847485 1.14521280 4.03255238
v 2.80847441 -0.53812167 9.90869265
v -2.80847485 -0.51752619 9.02417917
v 2.80847441 -0.52782393 9.46643591
v 2.80847441 -0.51752619 9.02417917
v -0.00000022 -0.51752619 9.02417917
v 2.80847441 -0.54841940 10.35094940
v -2.80847485 -0.54841940 10.35094940
v -0.00000022 -0.53812167 9.90869265
v -5.61694949 -0.51752619 9.02417917
v -5.61694949 -0.53812167 9.90869265
v -2.80847485 -0.52782393 9.46643591
v -2.80847485 -0.53812167 9.90869265
v -5.61694949 4.43979757 -4.62393096
v -5.61694949 1.11431959 5.35932261
v -5.61694949 2.78735632 -0.07456091
v -5.61694949 1.13491506 4.47480912
v -5.61694949 1.12461733 4.91706587
v 2.80847441 -0.11301223 10.35094940
v 2.80847441 0.75780214 10.35094940
v -2.80847485 -0.11301223 10.35094940
v 2.80847441 0.32239495 10.35094940
v -0.00000022 -0.11301223 10.35094940
v -5.61694949 -0.11301223 10.35094940
v -5.61694949 0.75780214 10.35094940
v 2.80847441 1.19320932 10.35094940
v -2.80847485 1.19320932 10.35094940
v -0.00000022 0.75780214 10.35094940
v -2.80847485 0.32239495 10.35094940
v -2.80847485 0.75780214 10.35094940
v 2.80847441 6.90133760 -4.62393002
v -2.80847485 3.09591875 5.35932292
v 2.80847441 4.99862817 0.36769645
v 2.80847441 3.09591875 5.35932292
v -0.00000022 3.09591875 5.35932292
v 2.80847441 8.80404701 -9.61555650
v -2.80847485 8.80404701 -9.61555650
v -0.00000022 6.90133760 -4.62393002
v -5.61694949 3.09591875 5.35932292
v -5.61694949 6.90133760 -4.62393002
v -2.80847485 4.99862817 0.36769645
v -2.80847485 6.90133760 -4.62393002
v -5.61694949 6.77791417 -9.61555743
v -5.61694949 8.12866940 -9.61555681
v -5.61694949 5.11517518 -4.62393064
v -5.61694949 1.78969720 5.35932292
v -5.61694949 6.46593041 -4.62393002
v -5.61694949 3.45243619 0.36769613
v -5.61694949 2.22510438 5.35932292
v -5.61694949 5.79055279 -4.62393034
v -5.61694949 2.66051157 5.35932292
v -5.61694949 4.56322098 0.36769645
v 2.80847441 6.77791417 -9.61555743
v -2.80847485 8.12866940 -9.61555681
v 2.80847441 7.45329179 -9.61555711
v -0.00000022 6.77791417 -9.61555743
v 2.80847441 8.12866940 -9.61555681
v -0.00000022 8.12866940 -9.61555681
v -2.80847485 6.77791417 -9.61555743
v -2.80847485 7.45329179 -9.61555711
v 5.61694904 -8.08383645 -9.61555867
v 5.61694904 -6.72621981 -9.61555806
v 5.61694904 -4.39153516 -5.06618770
v 5.61694904 -1.07978250 4.03255238
v 5.61694904 -6.42796012 -5.06618864
v 5.61694904 -1.75859081 4.03255208
v 5.61694904 -5.74915180 -5.06618833
v 5.61694904 -5.07034347 -5.06618801
v 5.61694904 -3.41446714 -0.51681797
v 5.61694904 -6.41767798 -4.62393190
v 5.61694904 -1.72774440 5.35932230
v 5.61694904 -4.08299333 -0.07456154
v 5.61694904 0.58637597 9.02417917
v 5.61694904 0.60694024 9.90869265
v 5.61694904 -1.74830868 4.47480882
v 5.61694904 -1.73802654 4.91706556
v 5.61694904 -6.85306955 -4.62393190
v 5.61694904 -3.03391914 5.35932230
v 5.61694904 0.18183081 10.35094940
v 5.61694904 -0.68895236 10.35094940
v 5.61694904 -4.50810277 0.36769520
v 5.61694904 -2.16313598 5.35932230
v 5.61694904 -2.59852757 5.35932230
v 2.80847441 0.57609383 8.58192243
v -2.80847485 0.57609383 8.58192243
v 2.80847441 -4.39153516 -5.06618770
v -2.80847485 -1.07978250 4.03255238
v 2.80847441 -2.73565883 -0.51681765
v 2.80847441 -1.07978250 4.03255238
v -0.00000022 -1.07978250 4.03255238
v 2.80847472 -8.08383645 -9.61555867
v -2.80847392 -6.72621981 -9.61555806
v 2.80847472 -7.40502813 -9.61555837
v 2.80847472 -6.04741149 -9.61555774
v -2.80847392 -6.04741149 -9.61555774
v 2.80847472 -6.72621981 -9.61555806
v 0.00000040 -6.72621981 -9.61555806
v -5.61694917 -1.07978250 4.03255238
v -5.61694854 -4.39153516 -5.06618770
v 0.00000009 -4.39153516 -5.06618770
v -2.80847454 -2.73565883 -0.51681765
v -2.80847423 -4.39153516 -5.06618770
v 2.80847472 -8.76264477 -9.61555899
v -2.80847392 -8.76264477 -9.61555899
v 2.80847472 -6.85306955 -4.62393190
v 2.80847472 -3.03391914 5.35932230
v -2.80847392 -6.85306955 -4.62393190
v 2.80847472 -4.94349435 0.36769520
v 0.00000040 -6.85306955 -4.62393190
v -5.61694917 -1.75859081 4.03255208
v -5.61694854 -6.42796012 -5.06618864
v -5.61694886 -3.41446714 -0.51681797
v -5.61694824 -6.72621981 -9.61555806
v -5.61694824 -8.08383645 -9.61555867
v -5.61694854 -5.07034347 -5.06618801
v -5.61694854 -5.74915180 -5.06618833
v 0.00000040 -8.08383645 -9.61555867
v -2.80847392 -7.40502813 -9.61555837
v -2.80847392 -8.08383645 -9.61555867
v -5.61694854 -6.85306955 -4.62393190
v -5.61694917 -3.03391914 5.35932230
v 2.80847441 0.18183081 10.35094940
v -2.80847485 -0.68895236 10.35094940
v 2.80847441 -0.25356078 10.35094940
v 2.80847441 -1.12434394 10.35094940
v -2.80847485 -1.12434394 10.35094940
v 2.80847441 -0.68895236 10.35094940
v -0.00000022 -0.68895236 10.35094940
v 0.00000009 -3.03391914 5.35932230
v -2.80847423 -4.94349435 0.36769520
v -2.80847454 -3.03391914 5.35932230
v 2.80847441 0.61722238 10.35094940
v -2.80847485 0.61722238 10.35094940
v -0.00000022 0.18183081 10.35094940
v -5.61694949 -0.68895236 10.35094940
v -5.61694949 0.18183081 10.35094940
v -2.80847485 -0.25356078 10.35094940
v -2.80847485 0.18183081 10.35094940
v 2.80847441 0.58637597 9.02417917
v -2.80847485 0.60694024 9.90869265
v 2.80847441 0.59665810 9.46643591
v -0.00000022 0.58637597 9.02417917
v 2.80847441 0.60694024 9.90869265
v -0.00000022 0.60694024 9.90869265
v -5.61694949 0.58637597 9.02417917
v -5.61694949 0.60694024 9.90869265
v -2.80847485 0.58637597 9.02417917
v -2.80847485 0.59665810 9.46643591
v -5.61694917 -1.74830868 4.47480882
v -5.61694854 -6.41767798 -4.62393190
v -5.61694917 -1.72774440 5.35932230
v -5.61694886 -4.08299333 -0.07456154
v -5.61694886 -4.50810277 0.36769520
v -5.61694917 -1.73802654 4.91706556
v -5.61694917 -2.59852757 5.35932230
v -5.61694917 -2.16313598 5.35932230
v 5.61694904 2.70850402 -2.22408970
v 5.61694904 -2.90022639 -2.22409032
v 5.61694904 -5.70459160 -2.76577018
v 5.61694904 -5.70459160 -3.84912929
v 5.61694904 2.70850402 -2.76576925
v 5.61694904 -2.90022639 -3.84912898
v 5.61694904 -0.09586119 -2.76576956
v 5.61694904 -2.90022639 -2.76576987
v 5.61694904 -2.90022639 -3.30744943
v 5.61694904 5.51286923 -2.76576894
v 5.61694904 5.51286923 -3.84912803
v 5.61694904 2.70850402 -3.30744880
v 5.61694904 -2.90022639 -4.39080853
v 5.61694904 2.70850402 -4.39080790
v 5.61694904 -0.09586119 -3.84912866
v 5.61694904 2.70850402 -3.84912835
v 2.80847472 -5.70459160 -2.76577018
v -2.80847392 -5.70459160 -3.84912929
v 2.80847472 -5.70459160 -3.30744973
v 2.80847472 -5.70459160 -4.39080884
v -2.80847392 -5.70459160 -4.39080884
v 2.80847472 -5.70459160 -3.84912929
v 0.00000040 -5.70459160 -3.84912929
v 2.80847472 -5.70459160 -2.22409063
v -2.80847392 -5.70459160 -2.22409063
v 0.00000040 -5.70459160 -2.76577018
v -5.61694824 -5.70459160 -3.84912929
v -5.61694824 -5.70459160 -2.76577018
v -2.80847392 -5.70459160 -3.30744973
v -2.80847392 -5.70459160 -2.76577018
v 2.80847472 2.70850402 -2.22408970
v -2.80847392 -2.90022639 -2.22409032
v 2.80847472 -0.09586119 -2.22409000
v 2.80847472 -2.90022639 -2.22409032
v 0.00000040 -2.90022639 -2.22409032
v 2.80847441 5.51286923 -2.22408939
v -2.80847485 5.51286923 -2.22408939
v 2.80847441 5.51286923 -2.76576894
v 2.80847441 5.51286923 -3.84912803
v -2.80847485 5.51286923 -2.76576894
v 2.80847441 5.51286923 -3.30744849
v -0.00000022 5.51286923 -2.76576894
v 0.00000009 2.70850402 -2.22408970
v -5.61694854 -2.90022639 -2.22409032
v -5.61694917 2.70850402 -2.22408970
v -2.80847423 -0.09586119 -2.22409000
v -2.80847454 2.70850402 -2.22408970
v -5.61694854 -2.90022639 -3.84912898
v -5.61694917 2.70850402 -2.76576925
v -5.61694854 -2.90022639 -3.30744943
v -5.61694854 -2.90022639 -2.76576987
v -5.61694886 -0.09586119 -2.76576956
v -5.61694854 -2.90022639 -4.39080853
v -5.61694917 2.70850402 -4.39080790
v -5.61694886 -0.09586119 -3.84912866
v -5.61694949 5.51286923 -2.76576894
v -5.61694949 5.51286923 -3.84912803
v -5.61694917 2.70850402 -3.30744880
v -5.61694917 2.70850402 -3.84912835
v 2.80847441 5.51286923 -4.39080760
v -2.80847485 5.51286923 -4.39080760
v -0.00000022 5.51286923 -3.84912803
v -2.80847485 5.51286923 -3.30744849
v -2.80847485 5.51286923 -3.84912803
v 2.80847441 -2.90022639 -4.39080853
v -2.80847485 2.70850402 -4.39080790
v 2.80847441 -0.09586119 -4.39080821
v 0.00000009 -2.90022639 -4.39080853
v 2.80847441 2.70850402 -4.39080790
v -0.00000022 2.70850402 -4.39080790
v -2.80847423 -2.90022639 -4.39080853
v -2.80847454 -0.09586119 -4.39080821
v 5.61694904 -0.54327054 10.12982103
v 5.61694904 -0.53297280 9.68756429
v 5.61694904 -0.51237732 8.80305081
v 5.61694904 -0.52267505 9.24530755
v 5.61694904 0.31899219 6.30723741
v 5.61694904 1.97143344 1.75786737
v 5.61694904 5.27631595 -7.34087272
v 5.61694904 3.62387469 -2.79150267
v 5.61694904 0.28295010 7.85513601
v 5.61694904 1.94568909 2.86350922
v 5.61694904 0.28809896 7.63400763
v 5.61694904 5.27116708 -7.11974435
v 5.61694904 3.60842808 -2.12811757
v 5.61694904 0.29839671 7.19175089
v 5.61694904 1.95083795 2.64238084
v 5.61694904 0.29324783 7.41287927
v 5.61694904 1.11946845 5.13819424
v 5.61694904 0.31384331 6.52836578
v 5.61694904 4.44494645 -4.84505933
v 5.61694904 0.30354557 6.97062252
v 5.61694904 1.96628457 1.97899574
v 5.61694904 0.30869445 6.74949415
v 5.61694904 1.12976620 4.69593750
v 5.61694904 1.14006394 4.25368076
v 5.61694904 2.78220745 0.14656746
v 5.61694904 2.79250519 -0.29568929
v 5.61694904 3.61357696 -2.34924593
v 5.61694904 1.95598683 2.42125248
v 5.61694904 3.61872582 -2.57037431
v 5.61694904 1.96113570 2.20012411
v 5.61694904 6.44022538 -9.61555760
v 5.61694904 7.11560298 -9.61555728
v 5.61694904 8.46635820 -9.61555665
v 5.61694904 7.79098059 -9.61555697
v 5.61694904 0.62063890 7.85513615
v 5.61694904 2.95875551 2.86350968
v 5.61694904 1.45200839 5.35932277
v 5.61694904 7.63498871 -7.11974327
v 5.61694904 5.29687211 -2.12811679
v 5.61694904 3.11474739 0.36769598
v 5.61694904 3.79012500 0.36769629
v 5.61694904 2.28337789 2.86350937
v 5.61694904 2.62106670 2.86350953
v 5.61694904 5.60885589 -7.11974420
v 5.61694904 7.29729991 -7.11974341
v 5.61694904 3.94611689 -2.12811741
v 5.61694904 6.28423349 -7.11974388
v 5.61694904 4.77748638 -4.62393081
v 5.61694904 4.28380569 -2.12811725
v 5.61694904 5.94654468 -7.11974404
v 5.61694904 4.95918330 -2.12811694
v 5.61694904 6.62192230 -7.11974373
v 5.61694904 6.12824160 -4.62393018
v 5.61694904 4.62149450 -2.12811711
v 5.61694904 6.95961110 -7.11974358
v 5.61694904 5.45286399 -4.62393050
v 5.61694904 -0.33071582 10.35094940
v 5.61694904 0.10469137 10.35094940
v 5.61694904 0.97550574 10.35094940
v 5.61694904 0.54009855 10.35094940
v 5.61694904 7.85269231 -7.11974327
v 5.61694904 5.94998288 -2.12811679
v 5.61694904 2.14456404 7.85513615
v 5.61694904 4.04727346 2.86350968
v 5.61694904 0.83834249 7.85513615
v 5.61694904 3.17645910 2.86350968
v 5.61694904 1.27374968 7.85513615
v 5.61694904 2.00740078 5.35932292
v 5.61694904 1.05604608 7.85513615
v 5.61694904 6.68363400 -4.62393002
v 5.61694904 1.92686045 7.85513615
v 5.61694904 4.34551740 0.36769645
v 5.61694904 4.78092458 0.36769645
v 5.61694904 5.51457570 -2.12811679
v 5.61694904 3.39416269 2.86350968
v 5.61694904 5.73227930 -2.12811679
v 5.61694904 1.49145327 7.85513615
v 5.61694904 3.82956987 2.86350968
v 5.61694904 1.70915686 7.85513615
v 5.61694904 2.44280797 5.35932292
v 5.61694904 2.87821515 5.35932292
v 5.61694904 3.61186628 2.86350968
v 4.21271173 6.10253657 -9.61555774
v 1.40423710 6.10253657 -9.61555774
v -4.21271216 6.10253657 -9.61555774
v -1.40423754 6.10253657 -9.61555774
v 4.21271173 0.31899219 6.30723741
v 1.40423710 1.97143344 1.75786737
v 4.21271173 1.14521280 4.03255238
v -4.21271216 5.27631595 -7.34087272
v -1.40423754 3.62387469 -2.79150267
v 4.21271173 2.79765406 -0.51681765
v 1.40423710 2.79765406 -0.51681765
v 4.21271173 1.97143344 1.75786737
v 2.80847441 1.97143344 1.75786737
v 4.21271173 5.27631595 -7.34087272
v -2.80847485 5.27631595 -7.34087272
v 4.21271173 3.62387469 -2.79150267
v 1.40423710 5.27631595 -7.34087272
v 4.21271173 4.45009531 -5.06618770
v 2.80847441 3.62387469 -2.79150267
v 2.80847441 5.27631595 -7.34087272
v -0.00000022 3.62387469 -2.79150267
v -0.00000022 5.27631595 -7.34087272
v -1.40423754 4.45009531 -5.06618770
v 1.40423710 3.62387469 -2.79150267
v -1.40423754 5.27631595 -7.34087272
v 1.40423710 4.45009531 -5.06618770
v 4.21271173 -0.50722845 8.58192243
v 1.40423710 -0.50722845 8.58192243
v 2.80847441 0.31899219 6.30723741
v -4.21271216 -0.50722845 8.58192243
v -1.40423754 -0.50722845 8.58192243
v -0.00000022 1.97143344 1.75786737
v -0.00000022 0.31899219 6.30723741
v 1.40423710 1.14521280 4.03255238
v 1.40423710 0.31899219 6.30723741
v -5.61694949 5.27631595 -7.34087272
v -5.61694949 3.62387469 -2.79150267
v -4.21271216 4.45009531 -5.06618770
v -5.61694949 0.31899219 6.30723741
v -5.61694949 1.97143344 1.75786737
v -4.21271216 0.31899219 6.30723741
v -1.40423754 2.79765406 -0.51681765
v -4.21271216 2.79765406 -0.51681765
v -2.80847485 3.62387469 -2.79150267
v -1.40423754 1.97143344 1.75786737
v -4.21271216 3.62387469 -2.79150267
v -1.40423754 0.31899219 6.30723741
v -4.21271216 1.97143344 1.75786737
v -2.80847485 0.31899219 6.30723741
v -1.40423754 1.14521280 4.03255238
v -4.21271216 1.14521280 4.03255238
v -2.80847485 1.97143344 1.75786737
v 4.21271173 -0.54327054 10.12982103
v 1.40423710 -0.53297280 9.68756429
v 4.21271173 -0.53812167 9.90869265
v -4.21271216 -0.51237732 8.80305081
v -1.40423754 -0.52267505 9.24530755
v 4.21271173 -0.52782393 9.46643591
v 1.40423710 -0.52782393 9.46643591
v 4.21271173 -0.53297280 9.68756429
v 2.80847441 -0.53297280 9.68756429
v 4.21271173 -0.51237732 8.80305081
v -2.80847485 -0.51237732 8.80305081
v 4.21271173 -0.52267505 9.24530755
v 1.40423710 -0.51237732 8.80305081
v 4.21271173 -0.51752619 9.02417917
v 2.80847441 -0.52267505 9.24530755
v 2.80847441 -0.51237732 8.80305081
v -0.00000022 -0.52267505 9.24530755
v -0.00000022 -0.51237732 8.80305081
v -1.40423754 -0.51752619 9.02417917
v 1.40423710 -0.52267505 9.24530755
v -1.40423754 -0.51237732 8.80305081
v 1.40423710 -0.51752619 9.02417917
v 4.21271173 -0.54841940 10.35094940
v 1.40423710 -0.54841940 10.35094940
v 2.80847441 -0.54327054 10.12982103
v -4.21271216 -0.54841940 10.35094940
v -1.40423754 -0.54841940 10.35094940
v -0.00000022 -0.53297280 9.68756429
v -0.00000022 -0.54327054 10.12982103
v 1.40423710 -0.53812167 9.90869265
v 1.40423710 -0.54327054 10.12982103
v -5.61694949 -0.51237732 8.80305081
v -5.61694949 -0.52267505 9.24530755
v -4.21271216 -0.51752619 9.02417917
v -5.61694949 -0.54327054 10.12982103
v -5.61694949 -0.53297280 9.68756429
v -4.21271216 -0.54327054 10.12982103
v -1.40423754 -0.52782393 9.46643591
v -4.21271216 -0.52782393 9.46643591
v -2.80847485 -0.52267505 9.24530755
v -1.40423754 -0.53297280 9.68756429
v -4.21271216 -0.52267505 9.24530755
v -1.40423754 -0.54327054 10.12982103
v -4.21271216 -0.53297280 9.68756429
v -2.80847485 -0.54327054 10.12982103
v -1.40423754 -0.53812167 9.90869265
v -4.21271216 -0.53812167 9.90869265
v -2.80847485 -0.53297280 9.68756429
v -5.61694949 5.27116708 -7.11974435
v -5.61694949 3.60842808 -2.12811757
v -5.61694949 4.44494645 -4.84505933
v -5.61694949 0.28295010 7.85513601
v -5.61694949 1.94568909 2.86350922
v -5.61694949 2.79250519 -0.29568929
v -5.61694949 2.78220745 0.14656746
v -5.61694949 3.61872582 -2.57037431
v -5.61694949 3.61357696 -2.34924593
v -5.61694949 0.31384331 6.52836578
v -5.61694949 0.28809896 7.63400763
v -5.61694949 1.96628457 1.97899574
v -5.61694949 0.30354557 6.97062252
v -5.61694949 1.14006394 4.25368076
v -5.61694949 1.96113570 2.20012411
v -5.61694949 0.30869445 6.74949415
v -5.61694949 1.95083795 2.64238084
v -5.61694949 0.29839671 7.19175089
v -5.61694949 1.11946845 5.13819424
v -5.61694949 1.95598683 2.42125248
v -5.61694949 0.29324783 7.41287927
v -5.61694949 1.12976620 4.69593750
v 4.21271173 -0.33071582 10.35094940
v 4.21271173 0.10469137 10.35094940
v 1.40423710 -0.33071582 10.35094940
v 4.21271173 -0.11301223 10.35094940
v 2.80847441 -0.33071582 10.35094940
v 4.21271173 0.97550574 10.35094940
v 1.40423710 0.54009855 10.35094940
v 4.21271173 0.75780214 10.35094940
v -4.21271216 -0.33071582 10.35094940
v -1.40423754 0.10469137 10.35094940
v -2.80847485 -0.33071582 10.35094940
v 4.21271173 0.32239495 10.35094940
v 1.40423710 0.32239495 10.35094940
v 4.21271173 0.54009855 10.35094940
v 2.80847441 0.10469137 10.35094940
v 2.80847441 0.54009855 10.35094940
v -0.00000022 -0.33071582 10.35094940
v -0.00000022 0.10469137 10.35094940
v -1.40423754 -0.33071582 10.35094940
v 1.40423710 -0.11301223 10.35094940
v -1.40423754 -0.11301223 10.35094940
v 1.40423710 0.10469137 10.35094940
v -5.61694949 -0.33071582 10.35094940
v -5.61694949 0.10469137 10.35094940
v -5.61694949 0.97550574 10.35094940
v -5.61694949 0.54009855 10.35094940
v 4.21271173 1.19320932 10.35094940
v 1.40423710 1.19320932 10.35094940
v 2.80847441 0.97550574 10.35094940
v -4.21271216 1.19320932 10.35094940
v -1.40423754 1.19320932 10.35094940
v -0.00000022 0.54009855 10.35094940
v -0.00000022 0.97550574 10.35094940
v 1.40423710 0.75780214 10.35094940
v 1.40423710 0.97550574 10.35094940
v -4.21271216 -0.11301223 10.35094940
v -4.21271216 0.97550574 10.35094940
v -1.40423754 0.32239495 10.35094940
v -4.21271216 0.32239495 10.35094940
v -2.80847485 0.10469137 10.35094940
v -1.40423754 0.54009855 10.35094940
v -4.21271216 0.10469137 10.35094940
v -1.40423754 0.97550574 10.35094940
v -4.21271216 0.54009855 10.35094940
v -2.80847485 0.97550574 10.35094940
v -1.40423754 0.75780214 10.35094940
v -4.21271216 0.75780214 10.35094940
v -2.80847485 0.54009855 10.35094940
v 4.21271173 7.85269231 -7.11974327
v 1.40423710 5.94998288 -2.12811679
v 4.21271173 6.90133760 -4.62393002
v -4.21271216 2.14456404 7.85513615
v -1.40423754 4.04727346 2.86350968
v 4.21271173 4.99862817 0.36769645
v 1.40423710 4.99862817 0.36769645
v 4.21271173 5.94998288 -2.12811679
v 2.80847441 5.94998288 -2.12811679
v 4.21271173 2.14456404 7.85513615
v -2.80847485 2.14456404 7.85513615
v 4.21271173 4.04727346 2.86350968
v 1.40423710 2.14456404 7.85513615
v 4.21271173 3.09591875 5.35932292
v 2.80847441 4.04727346 2.86350968
v 2.80847441 2.14456404 7.85513615
v -0.00000022 4.04727346 2.86350968
v -0.00000022 2.14456404 7.85513615
v -1.40423754 3.09591875 5.35932292
v 1.40423710 4.04727346 2.86350968
v -1.40423754 2.14456404 7.85513615
v 1.40423710 3.09591875 5.35932292
v 4.21271173 8.80404701 -9.61555650
v 1.40423710 8.80404701 -9.61555650
v 2.80847441 7.85269231 -7.11974327
v -4.21271216 8.80404701 -9.61555650
v -1.40423754 8.80404701 -9.61555650
v -0.00000022 5.94998288 -2.12811679
v -0.00000022 7.85269231 -7.11974327
v 1.40423710 6.90133760 -4.62393002
v 1.40423710 7.85269231 -7.11974327
v -5.61694949 2.14456404 7.85513615
v -5.61694949 4.04727346 2.86350968
v -4.21271216 3.09591875 5.35932292
v -5.61694949 7.85269231 -7.11974327
v -5.61694949 5.94998288 -2.12811679
v -4.21271216 7.85269231 -7.11974327
v -1.40423754 4.99862817 0.36769645
v -4.21271216 4.99862817 0.36769645
v -2.80847485 4.04727346 2.86350968
v -1.40423754 5.94998288 -2.12811679
v -4.21271216 4.04727346 2.86350968
v -1.40423754 7.85269231 -7.11974327
v -4.21271216 5.94998288 -2.12811679
v -2.80847485 7.85269231 -7.11974327
v -1.40423754 6.90133760 -4.62393002
v -4.21271216 6.90133760 -4.62393002
v -2.80847485 5.94998288 -2.12811679
v -5.61694949 6.44022538 -9.61555760
v -5.61694949 7.11560298 -9.61555728
v -5.61694949 5.60885589 -7.11974420
v -5.61694949 8.46635820 -9.61555665
v -5.61694949 7.79098059 -9.61555697
v -5.61694949 3.94611689 -2.12811741
v -5.61694949 6.28423349 -7.11974388
v -5.61694949 4.77748638 -4.62393081
v -5.61694949 5.94654468 -7.11974404
v -5.61694949 0.62063890 7.85513615
v -5.61694949 2.95875551 2.86350968
v -5.61694949 1.45200839 5.35932277
v -5.61694949 0.83834249 7.85513615
v -5.61694949 7.63498871 -7.11974327
v -5.61694949 5.29687211 -2.12811679
v -5.61694949 7.29729991 -7.11974341
v -5.61694949 3.11474739 0.36769598
v -5.61694949 3.79012500 0.36769629
v -5.61694949 2.28337789 2.86350937
v -5.61694949 4.28380569 -2.12811725
v -5.61694949 2.62106670 2.86350953
v -5.61694949 1.27374968 7.85513615
v -5.61694949 3.17645910 2.86350968
v -5.61694949 1.05604608 7.85513615
v -5.61694949 2.00740078 5.35932292
v -5.61694949 6.62192230 -7.11974373
v -5.61694949 4.95918330 -2.12811694
v -5.61694949 6.95961110 -7.11974358
v -5.61694949 5.45286399 -4.62393050
v -5.61694949 6.12824160 -4.62393018
v -5.61694949 4.62149450 -2.12811711
v -5.61694949 1.92686045 7.85513615
v -5.61694949 6.68363400 -4.62393002
v -5.61694949 1.49145327 7.85513615
v -5.61694949 3.82956987 2.86350968
v -5.61694949 1.70915686 7.85513615
v -5.61694949 2.44280797 5.35932292
v -5.61694949 2.87821515 5.35932292
v -5.61694949 4.34551740 0.36769645
v -5.61694949 4.78092458 0.36769645
v -5.61694949 5.51457570 -2.12811679
v -5.61694949 3.39416269 2.86350968
v -5.61694949 5.73227930 -2.12811679
v -5.61694949 3.61186628 2.86350968
v 4.21271173 6.44022538 -9.61555760
v 1.40423710 7.11560298 -9.61555728
v 4.21271173 6.77791417 -9.61555743
v 2.80847441 6.44022538 -9.61555760
v -4.21271216 8.46635820 -9.61555665
v -1.40423754 7.79098059 -9.61555697
v 4.21271173 7.45329179 -9.61555711
v 1.40423710 7.45329179 -9.61555711
v 4.21271173 7.11560298 -9.61555728
v 2.80847441 7.11560298 -9.61555728
v -0.00000022 6.44022538 -9.61555760
v -0.00000022 7.11560298 -9.61555728
v 1.40423710 6.44022538 -9.61555760
v 1.40423710 6.77791417 -9.61555743
v 4.21271173 8.46635820 -9.61555665
v -2.80847485 8.46635820 -9.61555665
v 4.21271173 7.79098059 -9.61555697
v 1.40423710 8.46635820 -9.61555665
v 4.21271173 8.12866940 -9.61555681
v 2.80847441 7.79098059 -9.61555697
v 2.80847441 8.46635820 -9.61555665
v -0.00000022 7.79098059 -9.61555697
v -0.00000022 8.46635820 -9.61555665
v -1.40423754 8.12866940 -9.61555681
v 1.40423710 7.79098059 -9.61555697
v -1.40423754 8.46635820 -9.61555665
v 1.40423710 8.12866940 -9.61555681
v -4.21271216 6.44022538 -9.61555760
v -4.21271216 8.12866940 -9.61555681
v -1.40423754 6.44022538 -9.61555760
v -4.21271216 7.11560298 -9.61555728
v -2.80847485 6.44022538 -9.61555760
v -1.40423754 6.77791417 -9.61555743
v -4.21271216 6.77791417 -9.61555743
v -1.40423754 7.45329179 -9.61555711
v -4.21271216 7.45329179 -9.61555711
v -2.80847485 7.79098059 -9.61555697
v -1.40423754 7.11560298 -9.61555728
v -4.21271216 7.79098059 -9.61555697
v -2.80847485 7.11560298 -9.61555728
v 5.61694904 -8.42324061 -9.61555884
v 5.61694904 -7.74443229 -9.61555853
v 5.61694904 -6.38681565 -9.61555790
v 5.61694904 -7.06562396 -9.61555821
v 5.61694904 -5.21947332 -7.34087272
v 5.61694904 -3.56359699 -2.79150267
v 5.61694904 -0.25184433 6.30723741
v 5.61694904 -1.90772066 1.75786737
v 5.61694904 -7.59530243 -7.34087382
v 5.61694904 -5.26061778 -2.79150346
v 5.61694904 -7.25589827 -7.34087365
v 5.61694904 -0.59124849 6.30723725
v 5.61694904 -2.92593314 1.75786689
v 5.61694904 -6.57708996 -7.34087335
v 5.61694904 -4.92121363 -2.79150330
v 5.61694904 -6.91649412 -7.34087351
v 5.61694904 -6.08855596 -5.06618848
v 5.61694904 -5.55887748 -7.34087288
v 5.61694904 -1.41918665 4.03255223
v 5.61694904 -6.23768580 -7.34087319
v 5.61694904 -3.90300115 -2.79150284
v 5.61694904 -5.89828164 -7.34087303
v 5.61694904 -5.40974763 -5.06618817
v 5.61694904 -4.73093932 -5.06618787
v 5.61694904 -3.75387130 -0.51681813
v 5.61694904 -3.07506299 -0.51681782
v 5.61694904 -2.58652898 1.75786706
v 5.61694904 -4.58180947 -2.79150315
v 5.61694904 -2.24712482 1.75786720
v 5.61694904 -4.24240531 -2.79150299
v 5.61694904 -7.59016136 -7.11974544
v 5.61694904 -5.24519457 -2.12811835
v 5.61694904 -6.42281905 -4.84506026
v 5.61694904 -0.55526100 7.85513584
v 5.61694904 -2.90022779 2.86350875
v 5.61694904 -4.08813440 -0.29568990
v 5.61694904 -4.07785226 0.14656684
v 5.61694904 -5.25547671 -2.57037510
v 5.61694904 -5.25033564 -2.34924672
v 5.61694904 0.58123490 8.80305081
v 5.61694904 0.59151704 9.24530755
v 5.61694904 -0.58610742 6.52836561
v 5.61694904 0.61208131 10.12982103
v 5.61694904 0.60179917 9.68756429
v 5.61694904 -0.56040207 7.63400747
v 5.61694904 -2.92079207 1.97899526
v 5.61694904 -0.57582528 6.97062236
v 5.61694904 -1.75344974 4.25368045
v 5.61694904 -2.91565100 2.20012363
v 5.61694904 -0.58096635 6.74949399
v 5.61694904 -2.90536886 2.64238037
v 5.61694904 -0.57068421 7.19175073
v 5.61694904 -1.73288547 5.13819393
v 5.61694904 -2.91050993 2.42125201
v 5.61694904 -0.56554314 7.41287910
v 5.61694904 -1.74316761 4.69593719
v 5.61694904 -7.80785716 -7.11974544
v 5.61694904 -5.89828195 -2.12811835
v 5.61694904 -2.07913154 7.85513584
v 5.61694904 -3.98870674 2.86350875
v 5.61694904 0.39952659 10.35094940
v 5.61694904 -0.03586499 10.35094940
v 5.61694904 -0.90664815 10.35094940
v 5.61694904 -0.47125657 10.35094940
v 5.61694904 -6.63537377 -4.62393190
v 5.61694904 -4.29040699 0.36769520
v 5.61694904 -4.72579856 0.36769520
v 5.61694904 -5.46289037 -2.12811835
v 5.61694904 -5.68058616 -2.12811835
v 5.61694904 -0.77295679 7.85513584
v 5.61694904 -1.86143575 7.85513584
v 5.61694904 -3.11792358 2.86350875
v 5.61694904 -1.20834838 7.85513584
v 5.61694904 -1.94544020 5.35932230
v 5.61694904 -3.33561937 2.86350875
v 5.61694904 -0.99065259 7.85513584
v 5.61694904 -3.77101095 2.86350875
v 5.61694904 -1.42604416 7.85513584
v 5.61694904 -2.81622336 5.35932230
v 5.61694904 -3.55331517 2.86350875
v 5.61694904 -1.64373996 7.85513584
v 5.61694904 -2.38083177 5.35932230
v 4.21271173 0.57609383 8.58192243
v 1.40423710 0.57609383 8.58192243
v -4.21271216 0.57609383 8.58192243
v -1.40423754 0.57609383 8.58192243
v 4.21271173 -5.21947332 -7.34087272
v 1.40423710 -3.56359699 -2.79150267
v 4.21271173 -4.39153516 -5.06618770
v -4.21271216 -0.25184433 6.30723741
v -1.40423754 -1.90772066 1.75786737
v 4.21271173 -2.73565883 -0.51681765
v 1.40423710 -2.73565883 -0.51681765
v 4.21271173 -3.56359699 -2.79150267
v 2.80847441 -3.56359699 -2.79150267
v 4.21271173 -0.25184433 6.30723741
v -2.80847485 -0.25184433 6.30723741
v 4.21271173 -1.90772066 1.75786737
v 1.40423710 -0.25184433 6.30723741
v 4.21271173 -1.07978250 4.03255238
v 2.80847441 -1.90772066 1.75786737
v 2.80847441 -0.25184433 6.30723741
v -0.00000022 -1.90772066 1.75786737
v -0.00000022 -0.25184433 6.30723741
v -1.40423754 -1.07978250 4.03255238
v 1.40423710 -1.90772066 1.75786737
v -1.40423754 -0.25184433 6.30723741
v 1.40423710 -1.07978250 4.03255238
v 4.21271189 -8.42324061 -9.61555884
v 1.40423757 -7.74443229 -9.61555853
v 4.21271189 -8.08383645 -9.61555867
v -4.21271107 -6.38681565 -9.61555790
v -1.40423675 -7.06562396 -9.61555821
v 4.21271189 -7.40502813 -9.61555837
v 1.40423757 -7.40502813 -9.61555837
v 4.21271189 -7.74443229 -9.61555853
v 2.80847472 -7.74443229 -9.61555853
v 4.21271189 -6.04741149 -9.61555774
v 1.40423757 -6.04741149 -9.61555774
v 4.21271189 -6.38681565 -9.61555790
v -4.21271107 -6.04741149 -9.61555774
v -1.40423675 -6.04741149 -9.61555774
v -2.80847392 -6.38681565 -9.61555790
v 4.21271189 -7.06562396 -9.61555821
v 1.40423757 -6.38681565 -9.61555790
v 4.21271189 -6.72621981 -9.61555806
v 2.80847472 -7.06562396 -9.61555821
v 2.80847472 -6.38681565 -9.61555790
v 0.00000040 -7.06562396 -9.61555821
v 0.00000040 -6.38681565 -9.61555790
v -1.40423675 -6.72621981 -9.61555806
v 1.40423757 -7.06562396 -9.61555821
v -1.40423675 -6.38681565 -9.61555790
v 1.40423757 -6.72621981 -9.61555806
v -5.61694932 -0.25184433 6.30723741
v -5.61694901 -1.90772066 1.75786737
v -5.61694839 -5.21947332 -7.34087272
v -5.61694870 -3.56359699 -2.79150267
v 2.80847458 -5.21947332 -7.34087272
v -0.00000006 -3.56359699 -2.79150267
v 0.00000026 -5.21947332 -7.34087272
v 1.40423725 -4.39153516 -5.06618770
v 1.40423741 -5.21947332 -7.34087272
v -4.21271201 -1.07978250 4.03255238
v -4.21271123 -5.21947332 -7.34087272
v -1.40423737 -2.73565883 -0.51681765
v -4.21271169 -2.73565883 -0.51681765
v -2.80847469 -1.90772066 1.75786737
v -1.40423722 -3.56359699 -2.79150267
v -4.21271186 -1.90772066 1.75786737
v -1.40423691 -5.21947332 -7.34087272
v -4.21271155 -3.56359699 -2.79150267
v -2.80847406 -5.21947332 -7.34087272
v -1.40423707 -4.39153516 -5.06618770
v -4.21271138 -4.39153516 -5.06618770
v -2.80847438 -3.56359699 -2.79150267
v 4.21271189 -8.76264477 -9.61555899
v 1.40423757 -8.76264477 -9.61555899
v 4.21271189 -7.80785716 -7.11974544
v -4.21271107 -8.76264477 -9.61555899
v -1.40423675 -8.76264477 -9.61555899
v 4.21271189 -5.89828195 -2.12811835
v 1.40423757 -7.80785716 -7.11974544
v 4.21271189 -6.85306955 -4.62393190
v 2.80847472 -7.80785716 -7.11974544
v 4.21271189 -2.07913154 7.85513584
v 1.40423757 -3.98870674 2.86350875
v 4.21271189 -3.03391914 5.35932230
v -4.21271107 -7.80785716 -7.11974544
v -1.40423675 -5.89828195 -2.12811835
v -2.80847392 -7.80785716 -7.11974544
v 4.21271189 -4.94349435 0.36769520
v 1.40423757 -4.94349435 0.36769520
v 4.21271189 -3.98870674 2.86350875
v 2.80847472 -5.89828195 -2.12811835
v 2.80847472 -3.98870674 2.86350875
v 0.00000040 -7.80785716 -7.11974544
v 0.00000040 -5.89828195 -2.12811835
v -1.40423675 -7.80785716 -7.11974544
v 1.40423757 -6.85306955 -4.62393190
v -1.40423675 -6.85306955 -4.62393190
v 1.40423757 -5.89828195 -2.12811835
v -5.61694932 -0.59124849 6.30723725
v -5.61694901 -2.92593314 1.75786689
v -5.61694917 -1.41918665 4.03255223
v -5.61694839 -7.59530243 -7.34087382
v -5.61694870 -5.26061778 -2.79150346
v -5.61694886 -3.07506299 -0.51681782
v -5.61694886 -3.75387130 -0.51681813
v -5.61694901 -2.24712482 1.75786720
v -5.61694901 -2.58652898 1.75786706
v -5.61694824 -6.38681565 -9.61555790
v -5.61694824 -7.06562396 -9.61555821
v -5.61694839 -5.55887748 -7.34087288
v -5.61694824 -8.42324061 -9.61555884
v -5.61694824 -7.74443229 -9.61555853
v -5.61694839 -7.25589827 -7.34087365
v -5.61694870 -3.90300115 -2.79150284
v -5.61694839 -6.23768580 -7.34087319
v -5.61694854 -4.73093932 -5.06618787
v -5.61694870 -4.24240531 -2.79150299
v -5.61694839 -5.89828164 -7.34087303
v -5.61694870 -4.92121363 -2.79150330
v -5.61694839 -6.57708996 -7.34087335
v -5.61694854 -6.08855596 -5.06618848
v -5.61694870 -4.58180947 -2.79150315
v -5.61694839 -6.91649412 -7.34087351
v -5.61694854 -5.40974763 -5.06618817
v 2.80847472 -8.42324061 -9.61555884
v 0.00000040 -7.74443229 -9.61555853
v 0.00000040 -8.42324061 -9.61555884
v 1.40423757 -8.08383645 -9.61555867
v 1.40423757 -8.42324061 -9.61555884
v -4.21271107 -6.72621981 -9.61555806
v -4.21271107 -8.42324061 -9.61555884
v -1.40423675 -7.40502813 -9.61555837
v -4.21271107 -7.40502813 -9.61555837
v -2.80847392 -7.06562396 -9.61555821
v -1.40423675 -7.74443229 -9.61555853
v -4.21271107 -7.06562396 -9.61555821
v -1.40423675 -8.42324061 -9.61555884
v -4.21271107 -7.74443229 -9.61555853
v -2.80847392 -8.42324061 -9.61555884
v -1.40423675 -8.08383645 -9.61555867
v -4.21271107 -8.08383645 -9.61555867
v -2.80847392 -7.74443229 -9.61555853
v -5.61694839 -7.80785716 -7.11974544
v -5.61694870 -5.89828195 -2.12811835
v -5.61694932 -2.07913154 7.85513584
v -5.61694901 -3.98870674 2.86350875
v 4.21271173 0.39952659 10.35094940
v 1.40423710 -0.03586499 10.35094940
v 4.21271173 0.18183081 10.35094940
v -4.21271216 -0.90664815 10.35094940
v -1.40423754 -0.47125657 10.35094940
v 4.21271173 -0.25356078 10.35094940
v 1.40423710 -0.25356078 10.35094940
v 4.21271173 -0.03586499 10.35094940
v 2.80847441 -0.03586499 10.35094940
v 4.21271173 -1.12434394 10.35094940
v 1.40423710 -1.12434394 10.35094940
v 4.21271173 -0.90664815 10.35094940
v -4.21271216 -1.12434394 10.35094940
v -1.40423754 -1.12434394 10.35094940
v -2.80847485 -0.90664815 10.35094940
v 4.21271173 -0.47125657 10.35094940
v 1.40423710 -0.90664815 10.35094940
v 4.21271173 -0.68895236 10.35094940
v 2.80847441 -0.47125657 10.35094940
v 2.80847441 -0.90664815 10.35094940
v -0.00000022 -0.47125657 10.35094940
v -0.00000022 -0.90664815 10.35094940
v -1.40423754 -0.68895236 10.35094940
v 1.40423710 -0.47125657 10.35094940
v -1.40423754 -0.90664815 10.35094940
v 1.40423710 -0.68895236 10.35094940
v 2.80847458 -2.07913154 7.85513584
v 0.00000026 -3.98870674 2.86350875
v -0.00000006 -2.07913154 7.85513584
v 1.40423741 -3.03391914 5.35932230
v 1.40423725 -2.07913154 7.85513584
v -4.21271123 -6.85306955 -4.62393190
v -4.21271201 -2.07913154 7.85513584
v -1.40423691 -4.94349435 0.36769520
v -4.21271155 -4.94349435 0.36769520
v -2.80847406 -5.89828195 -2.12811835
v -1.40423707 -3.98870674 2.86350875
v -4.21271138 -5.89828195 -2.12811835
v -1.40423737 -2.07913154 7.85513584
v -4.21271169 -3.98870674 2.86350875
v -2.80847469 -2.07913154 7.85513584
v -1.40423722 -3.03391914 5.35932230
v -4.21271186 -3.03391914 5.35932230
v -2.80847438 -3.98870674 2.86350875
v 4.21271173 0.61722238 10.35094940
v 1.40423710 0.61722238 10.35094940
v 2.80847441 0.39952659 10.35094940
v -4.21271216 0.61722238 10.35094940
v -1.40423754 0.61722238 10.35094940
v -0.00000022 -0.03586499 10.35094940
v -0.00000022 0.39952659 10.35094940
v 1.40423710 0.18183081 10.35094940
v 1.40423710 0.39952659 10.35094940
v -5.61694949 -0.90664815 10.35094940
v -5.61694949 -0.47125657 10.35094940
v -4.21271216 -0.68895236 10.35094940
v -5.61694949 0.39952659 10.35094940
v -5.61694949 -0.03586499 10.35094940
v -4.21271216 0.39952659 10.35094940
v -1.40423754 -0.25356078 10.35094940
v -4.21271216 -0.25356078 10.35094940
v -2.80847485 -0.47125657 10.35094940
v -1.40423754 -0.03586499 10.35094940
v -4.21271216 -0.47125657 10.35094940
v -1.40423754 0.39952659 10.35094940
v -4.21271216 -0.03586499 10.35094940
v -2.80847485 0.39952659 10.35094940
v -1.40423754 0.18183081 10.35094940
v -4.21271216 0.18183081 10.35094940
v -2.80847485 -0.03586499 10.35094940
v 4.21271173 0.58123490 8.80305081
v 1.40423710 0.59151704 9.24530755
v 4.21271173 0.58637597 9.02417917
v 2.80847441 0.58123490 8.80305081
v -4.21271216 0.61208131 10.12982103
v -1.40423754 0.60179917 9.68756429
v 4.21271173 0.59665810 9.46643591
v 1.40423710 0.59665810 9.46643591
v 4.21271173 0.59151704 9.24530755
v 2.80847441 0.59151704 9.24530755
v -0.00000022 0.58123490 8.80305081
v -0.00000022 0.59151704 9.24530755
v 1.40423710 0.58123490 8.80305081
v 1.40423710 0.58637597 9.02417917
v 4.21271173 0.61208131 10.12982103
v -2.80847485 0.61208131 10.12982103
v 4.21271173 0.60179917 9.68756429
v 1.40423710 0.61208131 10.12982103
v 4.21271173 0.60694024 9.90869265
v 2.80847441 0.60179917 9.68756429
v 2.80847441 0.61208131 10.12982103
v -0.00000022 0.60179917 9.68756429
v -0.00000022 0.61208131 10.12982103
v -1.40423754 0.60694024 9.90869265
v 1.40423710 0.60179917 9.68756429
v -1.40423754 0.61208131 10.12982103
v 1.40423710 0.60694024 9.90869265
v -5.61694949 0.58123490 8.80305081
v -5.61694949 0.59151704 9.24530755
v -4.21271216 0.58123490 8.80305081
v -5.61694949 0.61208131 10.12982103
v -5.61694949 0.60179917 9.68756429
v -4.21271216 0.60694024 9.90869265
v -1.40423754 0.58123490 8.80305081
v -4.21271216 0.59151704 9.24530755
v -2.80847485 0.58123490 8.80305081
v -1.40423754 0.58637597 9.02417917
v -4.21271216 0.58637597 9.02417917
v -1.40423754 0.59665810 9.46643591
v -4.21271216 0.59665810 9.46643591
v -2.80847485 0.60179917 9.68756429
v -1.40423754 0.59151704 9.24530755
v -4.21271216 0.60179917 9.68756429
v -2.80847485 0.59151704 9.24530755
v -5.61694932 -0.58610742 6.52836561
v -5.61694901 -2.92079207 1.97899526
v -5.61694932 -0.57582528 6.97062236
v -5.61694917 -1.75344974 4.25368045
v -5.61694932 -0.58096635 6.74949399
v -5.61694839 -7.59016136 -7.11974544
v -5.61694870 -5.24519457 -2.12811835
v -5.61694854 -6.42281905 -4.84506026
v -5.61694854 -6.63537377 -4.62393190
v -5.61694932 -0.55526100 7.85513584
v -5.61694901 -2.90022779 2.86350875
v -5.61694932 -0.56040207 7.63400747
v -5.61694886 -4.08813440 -0.29568990
v -5.61694886 -4.07785226 0.14656684
v -5.61694870 -5.25547671 -2.57037510
v -5.61694901 -2.91565100 2.20012363
v -5.61694870 -5.25033564 -2.34924672
v -5.61694886 -4.72579856 0.36769520
v -5.61694886 -4.29040699 0.36769520
v -5.61694870 -5.68058616 -2.12811835
v -5.61694870 -5.46289037 -2.12811835
v -5.61694932 -0.57068421 7.19175073
v -5.61694901 -2.90536886 2.64238037
v -5.61694932 -0.56554314 7.41287910
v -5.61694917 -1.74316761 4.69593719
v -5.61694917 -1.73288547 5.13819393
v -5.61694901 -2.91050993 2.42125201
v -5.61694932 -1.86143575 7.85513584
v -5.61694932 -0.77295679 7.85513584
v -5.61694901 -3.77101095 2.86350875
v -5.61694932 -1.42604416 7.85513584
v -5.61694917 -2.81622336 5.35932230
v -5.61694901 -3.55331517 2.86350875
v -5.61694932 -1.64373996 7.85513584
v -5.61694901 -3.11792358 2.86350875
v -5.61694932 -1.20834838 7.85513584
v -5.61694917 -1.94544020 5.35932230
v -5.61694901 -3.33561937 2.86350875
v -5.61694932 -0.99065259 7.85513584
v -5.61694917 -2.38083177 5.35932230
v 5.61694904 4.11068664 -2.22408954
v 5.61694904 1.30632143 -2.22408986
v 5.61694904 -4.30240899 -2.22409049
v 5.61694904 -1.49804378 -2.22409017
v 5.61694904 -5.70459160 -2.49493042
v 5.61694904 -5.70459160 -3.03660997
v 5.61694904 -5.70459160 -4.11996907
v 5.61694904 -5.70459160 -3.57828952
v 5.61694904 4.11068664 -2.49492932
v 5.61694904 1.30632143 -3.03660918
v 5.61694904 2.70850402 -2.49492948
v 5.61694904 -4.30240899 -4.11996891
v 5.61694904 -1.49804378 -3.57828905
v 5.61694904 -0.09586119 -2.49492979
v 5.61694904 -0.09586119 -3.03660934
v 5.61694904 1.30632143 -2.49492963
v 5.61694904 1.30632143 -2.76576941
v 5.61694904 -4.30240899 -2.49493025
v 5.61694904 -4.30240899 -3.84912914
v 5.61694904 -1.49804378 -2.49492994
v 5.61694904 -4.30240899 -3.03660980
v 5.61694904 -2.90022639 -2.49493010
v 5.61694904 -1.49804378 -2.76576972
v 5.61694904 -4.30240899 -2.76577004
v 5.61694904 -1.49804378 -3.30744927
v 5.61694904 -4.30240899 -3.30744959
v 5.61694904 -2.90022639 -3.57828920
v 5.61694904 -1.49804378 -3.03660950
v 5.61694904 -4.30240899 -3.57828936
v 5.61694904 -2.90022639 -3.03660965
v 5.61694904 5.51286923 -2.49492916
v 5.61694904 5.51286923 -3.03660872
v 5.61694904 4.11068664 -2.76576909
v 5.61694904 5.51286923 -4.11996782
v 5.61694904 5.51286923 -3.57828827
v 5.61694904 1.30632143 -3.30744896
v 5.61694904 4.11068664 -3.30744865
v 5.61694904 2.70850402 -3.03660903
v 5.61694904 4.11068664 -3.03660887
v 5.61694904 -4.30240899 -4.39080868
v 5.61694904 -1.49804378 -4.39080838
v 5.61694904 -2.90022639 -4.11996875
v 5.61694904 4.11068664 -4.39080775
v 5.61694904 1.30632143 -4.39080807
v 5.61694904 4.11068664 -4.11996797
v 5.61694904 -0.09586119 -3.57828889
v 5.61694904 -0.09586119 -4.11996845
v 5.61694904 -1.49804378 -3.84912882
v 5.61694904 1.30632143 -3.57828873
v 5.61694904 -1.49804378 -4.11996860
v 5.61694904 4.11068664 -3.57828842
v 5.61694904 1.30632143 -4.11996828
v 5.61694904 4.11068664 -3.84912820
v 5.61694904 2.70850402 -3.57828859
v 5.61694904 2.70850402 -4.11996814
v 5.61694904 1.30632143 -3.84912852
v 4.21271189 -5.70459160 -2.49493042
v 1.40423757 -5.70459160 -3.03660997
v 4.21271189 -5.70459160 -2.76577018
v -4.21271107 -5.70459160 -4.11996907
v -1.40423675 -5.70459160 -3.57828952
v 4.21271189 -5.70459160 -3.30744973
v 1.40423757 -5.70459160 -3.30744973
v 4.21271189 -5.70459160 -3.03660997
v 2.80847472 -5.70459160 -3.03660997
v 4.21271189 -5.70459160 -4.39080884
v 1.40423757 -5.70459160 -4.39080884
v 4.21271189 -5.70459160 -4.11996907
v -4.21271107 -5.70459160 -4.39080884
v -1.40423675 -5.70459160 -4.39080884
v -2.80847392 -5.70459160 -4.11996907
v 4.21271189 -5.70459160 -3.57828952
v 1.40423757 -5.70459160 -4.11996907
v 4.21271189 -5.70459160 -3.84912929
v 2.80847472 -5.70459160 -3.57828952
v 2.80847472 -5.70459160 -4.11996907
v 0.00000040 -5.70459160 -3.57828952
v 0.00000040 -5.70459160 -4.11996907
v -1.40423675 -5.70459160 -3.84912929
v 1.40423757 -5.70459160 -3.57828952
v -1.40423675 -5.70459160 -4.11996907
v 1.40423757 -5.70459160 -3.84912929
v 4.21271189 -5.70459160 -2.22409063
v 1.40423757 -5.70459160 -2.22409063
v 2.80847472 -5.70459160 -2.49493042
v -4.21271107 -5.70459160 -2.22409063
v -1.40423675 -5.70459160 -2.22409063
v 0.00000040 -5.70459160 -3.03660997
v 0.00000040 -5.70459160 -2.49493042
v 1.40423757 -5.70459160 -2.76577018
v 1.40423757 -5.70459160 -2.49493042
v -5.61694824 -5.70459160 -4.11996907
v -5.61694824 -5.70459160 -3.57828952
v -4.21271107 -5.70459160 -3.84912929
v -5.61694824 -5.70459160 -2.49493042
v -5.61694824 -5.70459160 -3.03660997
v -4.21271107 -5.70459160 -2.49493042
v -1.40423675 -5.70459160 -3.30744973
v -4.21271107 -5.70459160 -3.30744973
v -2.80847392 -5.70459160 -3.57828952
v -1.40423675 -5.70459160 -3.03660997
v -4.21271107 -5.70459160 -3.57828952
v -1.40423675 -5.70459160 -2.49493042
v -4.21271107 -5.70459160 -3.03660997
v -2.80847392 -5.70459160 -2.49493042
v -1.40423675 -5.70459160 -2.76577018
v -4.21271107 -5.70459160 -2.76577018
v -2.80847392 -5.70459160 -3.03660997
v 4.21271189 4.11068664 -2.22408954
v 1.40423757 1.30632143 -2.22408986
v 4.21271189 2.70850402 -2.22408970
v -4.21271107 -4.30240899 -2.22409049
v -1.40423675 -1.49804378 -2.22409017
v 4.21271189 -0.09586119 -2.22409000
v 1.40423757 -0.09586119 -2.22409000
v 4.21271189 1.30632143 -2.22408986
v 2.80847472 1.30632143 -2.22408986
v 4.21271189 -4.30240899 -2.22409049
v -2.80847392 -4.30240899 -2.22409049
v 4.21271189 -1.49804378 -2.22409017
v 1.40423757 -4.30240899 -2.22409049
v 4.21271189 -2.90022639 -2.22409032
v 2.80847472 -1.49804378 -2.22409017
v 2.80847472 -4.30240899 -2.22409049
v 0.00000040 -1.49804378 -2.22409017
v 0.00000040 -4.30240899 -2.22409049
v -1.40423675 -2.90022639 -2.22409032
v 1.40423757 -1.49804378 -2.22409017
v -1.40423675 -4.30240899 -2.22409049
v 1.40423757 -2.90022639 -2.22409032
v 4.21271173 5.51286923 -2.22408939
v 1.40423710 5.51286923 -2.22408939
v 4.21271173 5.51286923 -2.49492916
v -4.21271216 5.51286923 -2.22408939
v -1.40423754 5.51286923 -2.22408939
v 4.21271173 5.51286923 -3.03660872
v 1.40423710 5.51286923 -2.49492916
v 4.21271173 5.51286923 -2.76576894
v 2.80847441 5.51286923 -2.49492916
v 4.21271173 5.51286923 -4.11996782
v 1.40423710 5.51286923 -3.57828827
v 4.21271173 5.51286923 -3.84912803
v -4.21271216 5.51286923 -2.49492916
v -1.40423754 5.51286923 -3.03660872
v -2.80847485 5.51286923 -2.49492916
v 4.21271173 5.51286923 -3.30744849
v 1.40423710 5.51286923 -3.30744849
v 4.21271173 5.51286923 -3.57828827
v 2.80847441 5.51286923 -3.03660872
v 2.80847441 5.51286923 -3.57828827
v -0.00000022 5.51286923 -2.49492916
v -0.00000022 5.51286923 -3.03660872
v -1.40423754 5.51286923 -2.49492916
v 1.40423710 5.51286923 -2.76576894
v -1.40423754 5.51286923 -2.76576894
v 1.40423710 5.51286923 -3.03660872
v 2.80847458 4.11068664 -2.22408954
v 0.00000026 1.30632143 -2.22408986
v -0.00000006 4.11068664 -2.22408954
v 1.40423741 2.70850402 -2.22408970
v 1.40423725 4.11068664 -2.22408954
v -5.61694839 -4.30240899 -2.22409049
v -5.61694870 -1.49804378 -2.22409017
v -4.21271123 -2.90022639 -2.22409032
v -5.61694932 4.11068664 -2.22408954
v -5.61694901 1.30632143 -2.22408986
v -4.21271201 4.11068664 -2.22408954
v -1.40423691 -0.09586119 -2.22409000
v -4.21271155 -0.09586119 -2.22409000
v -2.80847406 -1.49804378 -2.22409017
v -1.40423707 1.30632143 -2.22408986
v -4.21271138 -1.49804378 -2.22409017
v -1.40423737 4.11068664 -2.22408954
v -4.21271169 1.30632143 -2.22408986
v -2.80847469 4.11068664 -2.22408954
v -1.40423722 2.70850402 -2.22408970
v -4.21271186 2.70850402 -2.22408970
v -2.80847438 1.30632143 -2.22408986
v -5.61694839 -4.30240899 -4.11996891
v -5.61694870 -1.49804378 -3.57828905
v -5.61694839 -4.30240899 -3.84912914
v -5.61694932 4.11068664 -2.49492932
v -5.61694901 1.30632143 -3.03660918
v -5.61694839 -4.30240899 -3.30744959
v -5.61694870 -1.49804378 -3.30744927
v -5.61694839 -4.30240899 -3.57828936
v -5.61694854 -2.90022639 -3.57828920
v -5.61694839 -4.30240899 -2.49493025
v -5.61694917 2.70850402 -2.49492948
v -5.61694839 -4.30240899 -3.03660980
v -5.61694870 -1.49804378 -2.49492994
v -5.61694839 -4.30240899 -2.76577004
v -5.61694854 -2.90022639 -3.03660965
v -5.61694854 -2.90022639 -2.49493010
v -5.61694886 -0.09586119 -3.03660934
v -5.61694886 -0.09586119 -2.49492979
v -5.61694901 1.30632143 -2.76576941
v -5.61694870 -1.49804378 -3.03660950
v -5.61694901 1.30632143 -2.49492963
v -5.61694870 -1.49804378 -2.76576972
v -5.61694839 -4.30240899 -4.39080868
v -5.61694870 -1.49804378 -4.39080838
v -5.61694854 -2.90022639 -4.11996875
v -5.61694932 4.11068664 -4.39080775
v -5.61694901 1.30632143 -4.39080807
v -5.61694886 -0.09586119 -3.57828889
v -5.61694886 -0.09586119 -4.11996845
v -5.61694870 -1.49804378 -3.84912882
v -5.61694870 -1.49804378 -4.11996860
v -5.61694949 5.51286923 -2.49492916
v -5.61694949 5.51286923 -3.03660872
v -5.61694932 4.11068664 -2.76576909
v -5.61694949 5.51286923 -4.11996782
v -5.61694949 5.51286923 -3.57828827
v -5.61694932 4.11068664 -4.11996797
v -5.61694901 1.30632143 -3.30744896
v -5.61694932 4.11068664 -3.30744865
v -5.61694917 2.70850402 -3.03660903
v -5.61694901 1.30632143 -3.57828873
v -5.61694932 4.11068664 -3.03660887
v -5.61694901 1.30632143 -4.11996828
v -5.61694932 4.11068664 -3.57828842
v -5.61694917 2.70850402 -4.11996814
v -5.61694901 1.30632143 -3.84912852
v -5.61694932 4.11068664 -3.84912820
v -5.61694917 2.70850402 -3.57828859
v 4.21271173 5.51286923 -4.39080760
v 1.40423710 5.51286923 -4.39080760
v 2.80847441 5.51286923 -4.11996782
v -4.21271216 5.51286923 -4.39080760
v -1.40423754 5.51286923 -4.39080760
v -0.00000022 5.51286923 -3.57828827
v -0.00000022 5.51286923 -4.11996782
v 1.40423710 5.51286923 -3.84912803
v 1.40423710 5.51286923 -4.11996782
v -4.21271216 5.51286923 -2.76576894
v -4.21271216 5.51286923 -4.11996782
v -1.40423754 5.51286923 -3.30744849
v -4.21271216 5.51286923 -3.30744849
v -2.80847485 5.51286923 -3.03660872
v -1.40423754 5.51286923 -3.57828827
v -4.21271216 5.51286923 -3.03660872
v -1.40423754 5.51286923 -4.11996782
v -4.21271216 5.51286923 -3.57828827
v -2.80847485 5.51286923 -4.11996782
v -1.40423754 5.51286923 -3.84912803
v -4.21271216 5.51286923 -3.84912803
v -2.80847485 5.51286923 -3.57828827
v 4.21271173 -4.30240899 -4.39080868
v 1.40423710 -1.49804378 -4.39080838
v 4.21271173 -2.90022639 -4.39080853
v 2.80847458 -4.30240899 -4.39080868
v -4.21271216 4.11068664 -4.39080775
v -1.40423754 1.30632143 -4.39080807
v 4.21271173 -0.09586119 -4.39080821
v 1.40423710 -0.09586119 -4.39080821
v 4.21271173 -1.49804378 -4.39080838
v 2.80847441 -1.49804378 -4.39080838
v 0.00000026 -4.30240899 -4.39080868
v -0.00000006 -1.49804378 -4.39080838
v 1.40423741 -4.30240899 -4.39080868
v 1.40423725 -2.90022639 -4.39080853
v 4.21271173 4.11068664 -4.39080775
v -2.80847485 4.11068664 -4.39080775
v 4.21271173 1.30632143 -4.39080807
v 1.40423710 4.11068664 -4.39080775
v 4.21271173 2.70850402 -4.39080790
v 2.80847441 1.30632143 -4.39080807
v 2.80847441 4.11068664 -4.39080775
v -0.00000022 1.30632143 -4.39080807
v -0.00000022 4.11068664 -4.39080775
v -1.40423754 2.70850402 -4.39080790
v 1.40423710 1.30632143 -4.39080807
v -1.40423754 4.11068664 -4.39080775
v 1.40423710 2.70850402 -4.39080790
v -4.21271123 -4.30240899 -4.39080868
v -4.21271201 2.70850402 -4.39080790
v -1.40423691 -4.30240899 -4.39080868
v -4.21271155 -1.49804378 -4.39080838
v -2.80847406 -4.30240899 -4.39080868
v -1.40423707 -2.90022639 -4.39080853
v -4.21271138 -2.90022639 -4.39080853
v -1.40423737 -0.09586119 -4.39080821
v -4.21271169 -0.09586119 -4.39080821
v -2.80847469 1.30632143 -4.39080807
v -1.40423722 -1.49804378 -4.39080838
v -4.21271186 1.30632143 -4.39080807
v -2.80847438 -1.49804378 -4.39080838
f 1 359 367
f 359 95 369
f 367 369 99
f 359 369 367
f 95 360 374
f 360 29 372
f 374 372 101
f 360 372 374
f 99 375 368
f 375 101 373
f 368 373 31
f 375 373 368
f 95 374 369
f 374 101 375
f 369 375 99
f 374 375 369
f 29 362 378
f 362 96 380
f 378 380 102
f 362 380 378
f 96 361 376
f 361 2 363
f 376 363 97
f 361 363 376
f 102 382 379
f 382 97 364
f 379 364 30
f 382 364 379
f 96 376 380
f 376 97 382
f 380 382 102
f 376 382 380
f 31 383 371
f 383 103 385
f 371 385 100
f 383 385 371
f 103 384 387
f 384 30 366
f 387 366 98
f 384 366 387
f 100 377 370
f 377 98 365
f 370 365 3
f 377 365 370
f 103 387 385
f 387 98 377
f 385 377 100
f 387 377 385
f 29 378 372
f 378 102 381
f 372 381 101
f 378 381 372
f 102 379 388
f 379 30 384
f 388 384 103
f 379 384 388
f 101 386 373
f 386 103 383
f 373 383 31
f 386 383 373
f 102 388 381
f 388 103 386
f 381 386 101
f 388 386 381
f 4 419 396
f 419 113 428
f 396 428 107
f 419 428 396
f 113 420 434
f 420 35 431
f 434 431 116
f 420 431 434
f 107 432 397
f 432 116 430
f 397 430 33
f 432 430 397
f 113 434 428
f 434 116 432
f 428 432 107
f 434 432 428
f 35 422 436
f 422 114 439
f 436 439 117
f 422 439 436
f 114 421 429
f 421 5 417
f 429 417 112
f 421 417 429
f 117 437 435
f 437 112 418
f 435 418 34
f 437 418 435
f 114 429 439
f 429 112 437
f 439 437 117
f 429 437 439
f 33 424 394
f 424 115 426
f 394 426 106
f 424 426 394
f 115 425 427
f 425 34 416
f 427 416 111
f 425 416 427
f 106 423 393
f 423 111 415
f 393 415 1
f 423 415 393
f 115 427 426
f 427 111 423
f 426 423 106
f 427 423 426
f 35 436 431
f 436 117 440
f 431 440 116
f 436 440 431
f 117 435 438
f 435 34 425
f 438 425 115
f 435 425 438
f 116 433 430
f 433 115 424
f 430 424 33
f 433 424 430
f 117 438 440
f 438 115 433
f 440 433 116
f 438 433 440
f 1 367 393
f 367 99 395
f 393 395 106
f 367 395 393
f 99 368 400
f 368 31 398
f 400 398 108
f 368 398 400
f 106 401 394
f 401 108 399
f 394 399 33
f 401 399 394
f 99 400 395
f 400 108 401
f 395 401 106
f 400 401 395
f 31 371 404
f 371 100 406
f 404 406 109
f 371 406 404
f 100 370 402
f 370 3 389
f 402 389 104
f 370 389 402
f 109 408 405
f 408 104 390
f 405 390 32
f 408 390 405
f 100 402 406
f 402 104 408
f 406 408 109
f 402 408 406
f 33 409 397
f 409 110 411
f 397 411 107
f 409 411 397
f 110 410 413
f 410 32 392
f 413 392 105
f 410 392 413
f 107 403 396
f 403 105 391
f 396 391 4
f 403 391 396
f 110 413 411
f 413 105 403
f 411 403 107
f 413 403 411
f 31 404 398
f 404 109 407
f 398 407 108
f 404 407 398
f 109 405 414
f 405 32 410
f 414 410 110
f 405 410 414
f 108 412 399
f 412 110 409
f 399 409 33
f 412 409 399
f 109 414 407
f 414 110 412
f 407 412 108
f 414 412 407
f 6 476 541
f 476 128 543
f 541 543 144
f 476 543 541
f 128 477 548
f 477 39 546
f 548 546 146
f 477 546 548
f 144 549 542
f 549 146 547
f 542 547 43
f 549 547 542
f 128 548 543
f 548 146 549
f 543 549 144
f 548 549 543
f 39 480 552
f 480 129 554
f 552 554 147
f 480 554 552
f 129 479 550
f 479 7 524
f 550 524 140
f 479 524 550
f 147 556 553
f 556 140 525
f 553 525 42
f 556 525 553
f 129 550 554
f 550 140 556
f 554 556 147
f 550 556 554
f 43 557 545
f 557 148 559
f 545 559 145
f 557 559 545
f 148 558 561
f 558 42 528
f 561 528 141
f 558 528 561
f 145 551 544
f 551 141 527
f 544 527 8
f 551 527 544
f 148 561 559
f 561 141 551
f 559 551 145
f 561 551 559
f 39 552 546
f 552 147 555
f 546 555 146
f 552 555 546
f 147 553 562
f 553 42 558
f 562 558 148
f 553 558 562
f 146 560 547
f 560 148 557
f 547 557 43
f 560 557 547
f 147 562 555
f 562 148 560
f 555 560 146
f 562 560 555
f 8 585 668
f 585 154 671
f 668 671 176
f 585 671 668
f 154 586 682
f 586 45 680
f 682 680 179
f 586 680 682
f 176 683 669
f 683 179 681
f 669 681 51
f 683 681 669
f 154 682 671
f 682 179 683
f 671 683 176
f 682 683 671
f 45 588 692
f 588 155 694
f 692 694 181
f 588 694 692
f 155 587 690
f 587 9 642
f 690 642 169
f 587 642 690
f 181 696 693
f 696 169 643
f 693 643 49
f 696 643 693
f 155 690 694
f 690 169 696
f 694 696 181
f 690 696 694
f 51 697 673
f 697 182 699
f 673 699 177
f 697 699 673
f 182 698 701
f 698 49 646
f 701 646 170
f 698 646 701
f 177 691 672
f 691 170 645
f 672 645 10
f 691 645 672
f 182 701 699
f 701 170 691
f 699 691 177
f 701 691 699
f 45 692 680
f 692 181 695
f 680 695 179
f 692 695 680
f 181 693 702
f 693 49 698
f 702 698 182
f 693 698 702
f 179 700 681
f 700 182 697
f 681 697 51
f 700 697 681
f 181 702 695
f 702 182 700
f 695 700 179
f 702 700 695
f 10 662 672
f 662 174 674
f 672 674 177
f 662 674 672
f 174 663 686
f 663 50 684
f 686 684 180
f 663 684 686
f 177 688 673
f 688 180 685
f 673 685 51
f 688 685 673
f 174 686 674
f 686 180 688
f 674 688 177
f 686 688 674
f 50 660 665
f 660 173 667
f 665 667 175
f 660 667 665
f 173 659 661
f 659 6 541
f 661 541 144
f 659 541 661
f 175 666 664
f 666 144 542
f 664 542 43
f 666 542 664
f 173 661 667
f 661 144 666
f 667 666 175
f 661 666 667
f 51 676 669
f 676 178 679
f 669 679 176
f 676 679 669
f 178 675 677
f 675 43 545
f 677 545 145
f 675 545 677
f 176 670 668
f 670 145 544
f 668 544 8
f 670 544 668
f 178 677 679
f 677 145 670
f 679 670 176
f 677 670 679
f 50 665 684
f 665 175 687
f 684 687 180
f 665 687 684
f 175 664 678
f 664 43 675
f 678 675 178
f 664 675 678
f 180 689 685
f 689 178 676
f 685 676 51
f 689 676 685
f 175 678 687
f 678 178 689
f 687 689 180
f 678 689 687
f 1 415 515
f 415 111 563
f 515 563 137
f 415 563 515
f 111 416 566
f 416 34 564
f 566 564 149
f 416 564 566
f 137 567 516
f 567 149 565
f 516 565 41
f 567 565 516
f 111 566 563
f 566 149 567
f 563 567 137
f 566 567 563
f 34 418 574
f 418 112 576
f 574 576 152
f 418 576 574
f 112 417 570
f 417 5 568
f 570 568 150
f 417 568 570
f 152 578 575
f 578 150 569
f 575 569 44
f 578 569 575
f 112 570 576
f 570 150 578
f 576 578 152
f 570 578 576
f 41 579 519
f 579 153 581
f 519 581 138
f 579 581 519
f 153 580 583
f 580 44 572
f 583 572 151
f 580 572 583
f 138 573 518
f 573 151 571
f 518 571 8
f 573 571 518
f 153 583 581
f 583 151 573
f 581 573 138
f 583 573 581
f 34 574 564
f 574 152 577
f 564 577 149
f 574 577 564
f 152 575 584
f 575 44 580
f 584 580 153
f 575 580 584
f 149 582 565
f 582 153 579
f 565 579 41
f 582 579 565
f 152 584 577
f 584 153 582
f 577 582 149
f 584 582 577
f 5 589 568
f 589 156 591
f 568 591 150
f 589 591 568
f 156 590 597
f 590 46 595
f 597 595 158
f 590 595 597
f 150 596 569
f 596 158 594
f 569 594 44
f 596 594 569
f 156 597 591
f 597 158 596
f 591 596 150
f 597 596 591
f 46 593 605
f 593 157 607
f 605 607 160
f 593 607 605
f 157 592 599
f 592 9 587
f 599 587 155
f 592 587 599
f 160 609 606
f 609 155 588
f 606 588 45
f 609 588 606
f 157 599 607
f 599 155 609
f 607 609 160
f 599 609 607
f 44 600 572
f 600 159 602
f 572 602 151
f 600 602 572
f 159 601 604
f 601 45 586
f 604 586 154
f 601 586 604
f 151 598 571
f 598 154 585
f 571 585 8
f 598 585 571
f 159 604 602
f 604 154 598
f 602 598 151
f 604 598 602
f 46 605 595
f 605 160 608
f 595 608 158
f 605 608 595
f 160 606 610
f 606 45 601
f 610 601 159
f 606 601 610
f 158 603 594
f 603 159 600
f 594 600 44
f 603 600 594
f 160 610 608
f 610 159 603
f 608 603 158
f 610 603 608
f 5 421 589
f 421 114 620
f 589 620 156
f 421 620 589
f 114 422 624
f 422 35 622
f 624 622 164
f 422 622 624
f 156 626 590
f 626 164 623
f 590 623 46
f 626 623 590
f 114 624 620
f 624 164 626
f 620 626 156
f 624 626 620
f 35 420 616
f 420 113 618
f 616 618 163
f 420 618 616
f 113 419 613
f 419 4 611
f 613 611 161
f 419 611 613
f 163 619 617
f 619 161 612
f 617 612 47
f 619 612 617
f 113 613 618
f 613 161 619
f 618 619 163
f 613 619 618
f 46 628 593
f 628 165 631
f 593 631 157
f 628 631 593
f 165 627 629
f 627 47 615
f 629 615 162
f 627 615 629
f 157 621 592
f 621 162 614
f 592 614 9
f 621 614 592
f 165 629 631
f 629 162 621
f 631 621 157
f 629 621 631
f 35 616 622
f 616 163 625
f 622 625 164
f 616 625 622
f 163 617 630
f 617 47 627
f 630 627 165
f 617 627 630
f 164 632 623
f 632 165 628
f 623 628 46
f 632 628 623
f 163 630 625
f 630 165 632
f 625 632 164
f 630 632 625
f 4 633 611
f 633 166 635
f 611 635 161
f 633 635 611
f 166 634 641
f 634 48 639
f 641 639 168
f 634 639 641
f 161 640 612
f 640 168 638
f 612 638 47
f 640 638 612
f 166 641 635
f 641 168 640
f 635 640 161
f 641 640 635
f 48 637 653
f 637 167 655
f 653 655 172
f 637 655 653
f 167 636 647
f 636 10 645
f 647 645 170
f 636 645 647
f 172 657 654
f 657 170 646
f 654 646 49
f 657 646 654
f 167 647 655
f 647 170 657
f 655 657 172
f 647 657 655
f 47 648 615
f 648 171 650
f 615 650 162
f 648 650 615
f 171 649 652
f 649 49 643
f 652 643 169
f 649 643 652
f 162 644 614
f 644 169 642
f 614 642 9
f 644 642 614
f 171 652 650
f 652 169 644
f 650 644 162
f 652 644 650
f 48 653 639
f 653 172 656
f 639 656 168
f 653 656 639
f 172 654 658
f 654 49 649
f 658 649 171
f 654 649 658
f 168 651 638
f 651 171 648
f 638 648 47
f 651 648 638
f 172 658 656
f 658 171 651
f 656 651 168
f 658 651 656
f 4 391 633
f 391 105 717
f 633 717 166
f 391 717 633
f 105 392 721
f 392 32 719
f 721 719 187
f 392 719 721
f 166 723 634
f 723 187 720
f 634 720 48
f 723 720 634
f 105 721 717
f 721 187 723
f 717 723 166
f 721 723 717
f 32 390 709
f 390 104 711
f 709 711 185
f 390 711 709
f 104 389 705
f 389 3 703
f 705 703 183
f 389 703 705
f 185 712 710
f 712 183 704
f 710 704 52
f 712 704 710
f 104 705 711
f 705 183 712
f 711 712 185
f 705 712 711
f 48 725 637
f 725 188 728
f 637 728 167
f 725 728 637
f 188 724 726
f 724 52 708
f 726 708 184
f 724 708 726
f 167 718 636
f 718 184 707
f 636 707 10
f 718 707 636
f 188 726 728
f 726 184 718
f 728 718 167
f 726 718 728
f 32 709 719
f 709 185 722
f 719 722 187
f 709 722 719
f 185 710 727
f 710 52 724
f 727 724 188
f 710 724 727
f 187 729 720
f 729 188 725
f 720 725 48
f 729 725 720
f 185 727 722
f 727 188 729
f 722 729 187
f 727 729 722
f 3 441 703
f 441 118 706
f 703 706 183
f 441 706 703
f 118 442 715
f 442 36 713
f 715 713 186
f 442 713 715
f 183 716 704
f 716 186 714
f 704 714 52
f 716 714 704
f 118 715 706
f 715 186 716
f 706 716 183
f 715 716 706
f 36 444 732
f 444 119 734
f 732 734 189
f 444 734 732
f 119 443 730
f 443 6 659
f 730 659 173
f 443 659 730
f 189 736 733
f 736 173 660
f 733 660 50
f 736 660 733
f 119 730 734
f 730 173 736
f 734 736 189
f 730 736 734
f 52 737 708
f 737 190 739
f 708 739 184
f 737 739 708
f 190 738 741
f 738 50 663
f 741 663 174
f 738 663 741
f 184 731 707
f 731 174 662
f 707 662 10
f 731 662 707
f 190 741 739
f 741 174 731
f 739 731 184
f 741 731 739
f 36 732 713
f 732 189 735
f 713 735 186
f 732 735 713
f 189 733 742
f 733 50 738
f 742 738 190
f 733 738 742
f 186 740 714
f 740 190 737
f 714 737 52
f 740 737 714
f 189 742 735
f 742 190 740
f 735 740 186
f 742 740 735
f 3 365 441
f 365 98 454
f 441 454 118
f 365 454 441
f 98 366 458
f 366 30 456
f 458 456 123
f 366 456 458
f 118 460 442
f 460 123 457
f 442 457 36
f 460 457 442
f 98 458 454
f 458 123 460
f 454 460 118
f 458 460 454
f 30 364 450
f 364 97 452
f 450 452 122
f 364 452 450
f 97 363 447
f 363 2 445
f 447 445 120
f 363 445 447
f 122 453 451
f 453 120 446
f 451 446 37
f 453 446 451
f 97 447 452
f 447 120 453
f 452 453 122
f 447 453 452
f 36 462 444
f 462 124 465
f 444 465 119
f 462 465 444
f 124 461 463
f 461 37 449
f 463 449 121
f 461 449 463
f 119 455 443
f 455 121 448
f 443 448 6
f 455 448 443
f 124 463 465
f 463 121 455
f 465 455 119
f 463 455 465
f 30 450 456
f 450 122 459
f 456 459 123
f 450 459 456
f 122 451 464
f 451 37 461
f 464 461 124
f 451 461 464
f 123 466 457
f 466 124 462
f 457 462 36
f 466 462 457
f 122 464 459
f 464 124 466
f 459 466 123
f 464 466 459
f 2 467 445
f 467 125 469
f 445 469 120
f 467 469 445
f 125 468 475
f 468 38 473
f 475 473 127
f 468 473 475
f 120 474 446
f 474 127 472
f 446 472 37
f 474 472 446
f 125 475 469
f 475 127 474
f 469 474 120
f 475 474 469
f 38 471 487
f 471 126 489
f 487 489 131
f 471 489 487
f 126 470 481
f 470 7 479
f 481 479 129
f 470 479 481
f 131 491 488
f 491 129 480
f 488 480 39
f 491 480 488
f 126 481 489
f 481 129 491
f 489 491 131
f 481 491 489
f 37 482 449
f 482 130 484
f 449 484 121
f 482 484 449
f 130 483 486
f 483 39 477
f 486 477 128
f 483 477 486
f 121 478 448
f 478 128 476
f 448 476 6
f 478 476 448
f 130 486 484
f 486 128 478
f 484 478 121
f 486 478 484
f 38 487 473
f 487 131 490
f 473 490 127
f 487 490 473
f 131 488 492
f 488 39 483
f 492 483 130
f 488 483 492
f 127 485 472
f 485 130 482
f 472 482 37
f 485 482 472
f 131 492 490
f 492 130 485
f 490 485 127
f 492 485 490
f 2 361 467
f 361 96 502
f 467 502 125
f 361 502 467
f 96 362 506
f 362 29 504
f 506 504 135
f 362 504 506
f 125 508 468
f 508 135 505
f 468 505 38
f 508 505 468
f 96 506 502
f 506 135 508
f 502 508 125
f 506 508 502
f 29 360 498
f 360 95 500
f 498 500 134
f 360 500 498
f 95 359 495
f 359 1 493
f 495 493 132
f 359 493 495
f 134 501 499
f 501 132 494
f 499 494 40
f 501 494 499
f 95 495 500
f 495 132 501
f 500 501 134
f 495 501 500
f 38 510 471
f 510 136 513
f 471 513 126
f 510 513 471
f 136 509 511
f 509 40 497
f 511 497 133
f 509 497 511
f 126 503 470
f 503 133 496
f 470 496 7
f 503 496 470
f 136 511 513
f 511 133 503
f 513 503 126
f 511 503 513
f 29 498 504
f 498 134 507
f 504 507 135
f 498 507 504
f 134 499 512
f 499 40 509
f 512 509 136
f 499 509 512
f 135 514 505
f 514 136 510
f 505 510 38
f 514 510 505
f 134 512 507
f 512 136 514
f 507 514 135
f 512 514 507
f 1 515 493
f 515 137 517
f 493 517 132
f 515 517 493
f 137 516 523
f 516 41 521
f 523 521 139
f 516 521 523
f 132 522 494
f 522 139 520
f 494 520 40
f 522 520 494
f 137 523 517
f 523 139 522
f 517 522 132
f 523 522 517
f 41 519 535
f 519 138 537
f 535 537 143
f 519 537 535
f 138 518 529
f 518 8 527
f 529 527 141
f 518 527 529
f 143 539 536
f 539 141 528
f 536 528 42
f 539 528 536
f 138 529 537
f 529 141 539
f 537 539 143
f 529 539 537
f 40 530 497
f 530 142 532
f 497 532 133
f 530 532 497
f 142 531 534
f 531 42 525
f 534 525 140
f 531 525 534
f 133 526 496
f 526 140 524
f 496 524 7
f 526 524 496
f 142 534 532
f 534 140 526
f 532 526 133
f 534 526 532
f 41 535 521
f 535 143 538
f 521 538 139
f 535 538 521
f 143 536 540
f 536 42 531
f 540 531 142
f 536 531 540
f 139 533 520
f 533 142 530
f 520 530 40
f 533 530 520
f 143 540 538
f 540 142 533
f 538 533 139
f 540 533 538
f 11 743 751
f 743 191 753
f 751 753 195
f 743 753 751
f 191 744 758
f 744 53 756
f 758 756 197
f 744 756 758
f 195 759 752
f 759 197 757
f 752 757 55
f 759 757 752
f 191 758 753
f 758 197 759
f 753 759 195
f 758 759 753
f 53 746 762
f 746 192 764
f 762 764 198
f 746 764 762
f 192 745 760
f 745 12 747
f 760 747 193
f 745 747 760
f 198 766 763
f 766 193 748
f 763 748 54
f 766 748 763
f 192 760 764
f 760 193 766
f 764 766 198
f 760 766 764
f 55 767 755
f 767 199 769
f 755 769 196
f 767 769 755
f 199 768 771
f 768 54 750
f 771 750 194
f 768 750 771
f 196 761 754
f 761 194 749
f 754 749 13
f 761 749 754
f 199 771 769
f 771 194 761
f 769 761 196
f 771 761 769
f 53 762 756
f 762 198 765
f 756 765 197
f 762 765 756
f 198 763 772
f 763 54 768
f 772 768 199
f 763 768 772
f 197 770 757
f 770 199 767
f 757 767 55
f 770 767 757
f 198 772 765
f 772 199 770
f 765 770 197
f 772 770 765
f 14 803 776
f 803 209 812
f 776 812 201
f 803 812 776
f 209 804 818
f 804 59 815
f 818 815 212
f 804 815 818
f 201 816 777
f 816 212 814
f 777 814 56
f 816 814 777
f 209 818 812
f 818 212 816
f 812 816 201
f 818 816 812
f 59 806 820
f 806 210 823
f 820 823 213
f 806 823 820
f 210 805 813
f 805 15 801
f 813 801 208
f 805 801 813
f 213 821 819
f 821 208 802
f 819 802 58
f 821 802 819
f 210 813 823
f 813 208 821
f 823 821 213
f 813 821 823
f 56 808 774
f 808 211 810
f 774 810 200
f 808 810 774
f 211 809 811
f 809 58 800
f 811 800 207
f 809 800 811
f 200 807 773
f 807 207 799
f 773 799 11
f 807 799 773
f 211 811 810
f 811 207 807
f 810 807 200
f 811 807 810
f 59 820 815
f 820 213 824
f 815 824 212
f 820 824 815
f 213 819 822
f 819 58 809
f 822 809 211
f 819 809 822
f 212 817 814
f 817 211 808
f 814 808 56
f 817 808 814
f 213 822 824
f 822 211 817
f 824 817 212
f 822 817 824
f 11 751 773
f 751 195 775
f 773 775 200
f 751 775 773
f 195 752 780
f 752 55 778
f 780 778 202
f 752 778 780
f 200 781 774
f 781 202 779
f 774 779 56
f 781 779 774
f 195 780 775
f 780 202 781
f 775 781 200
f 780 781 775
f 55 755 788
f 755 196 790
f 788 790 205
f 755 790 788
f 196 754 784
f 754 13 782
f 784 782 203
f 754 782 784
f 205 792 789
f 792 203 783
f 789 783 57
f 792 783 789
f 196 784 790
f 784 203 792
f 790 792 205
f 784 792 790
f 56 793 777
f 793 206 795
f 777 795 201
f 793 795 777
f 206 794 797
f 794 57 786
f 797 786 204
f 794 786 797
f 201 787 776
f 787 204 785
f 776 785 14
f 787 785 776
f 206 797 795
f 797 204 787
f 795 787 201
f 797 787 795
f 55 788 778
f 788 205 791
f 778 791 202
f 788 791 778
f 205 789 798
f 789 57 794
f 798 794 206
f 789 794 798
f 202 796 779
f 796 206 793
f 779 793 56
f 796 793 779
f 205 798 791
f 798 206 796
f 791 796 202
f 798 796 791
f 16 877 925
f 877 228 927
f 925 927 240
f 877 927 925
f 228 878 932
f 878 64 930
f 932 930 242
f 878 930 932
f 240 933 926
f 933 242 931
f 926 931 67
f 933 931 926
f 228 932 927
f 932 242 933
f 927 933 240
f 932 933 927
f 64 880 940
f 880 229 942
f 940 942 245
f 880 942 940
f 229 879 936
f 879 17 934
f 936 934 243
f 879 934 936
f 245 944 941
f 944 243 935
f 941 935 68
f 944 935 941
f 229 936 942
f 936 243 944
f 942 944 245
f 936 944 942
f 67 945 929
f 945 246 947
f 929 947 241
f 945 947 929
f 246 946 949
f 946 68 938
f 949 938 244
f 946 938 949
f 241 939 928
f 939 244 937
f 928 937 18
f 939 937 928
f 246 949 947
f 949 244 939
f 947 939 241
f 949 939 947
f 64 940 930
f 940 245 943
f 930 943 242
f 940 943 930
f 245 941 950
f 941 68 946
f 950 946 246
f 941 946 950
f 242 948 931
f 948 246 945
f 931 945 67
f 948 945 931
f 245 950 943
f 950 246 948
f 943 948 242
f 950 948 943
f 18 969 1092
f 969 250 1095
f 1092 1095 280
f 969 1095 1092
f 250 970 1106
f 970 69 1104
f 1106 1104 283
f 970 1104 1106
f 280 1107 1093
f 1107 283 1105
f 1093 1105 76
f 1107 1105 1093
f 250 1106 1095
f 1106 283 1107
f 1095 1107 280
f 1106 1107 1095
f 69 972 1116
f 972 251 1118
f 1116 1118 285
f 972 1118 1116
f 251 971 1114
f 971 19 1026
f 1114 1026 265
f 971 1026 1114
f 285 1120 1117
f 1120 265 1027
f 1117 1027 73
f 1120 1027 1117
f 251 1114 1118
f 1114 265 1120
f 1118 1120 285
f 1114 1120 1118
f 76 1121 1097
f 1121 286 1123
f 1097 1123 281
f 1121 1123 1097
f 286 1122 1125
f 1122 73 1030
f 1125 1030 266
f 1122 1030 1125
f 281 1115 1096
f 1115 266 1029
f 1096 1029 20
f 1115 1029 1096
f 286 1125 1123
f 1125 266 1115
f 1123 1115 281
f 1125 1115 1123
f 69 1116 1104
f 1116 285 1119
f 1104 1119 283
f 1116 1119 1104
f 285 1117 1126
f 1117 73 1122
f 1126 1122 286
f 1117 1122 1126
f 283 1124 1105
f 1124 286 1121
f 1105 1121 76
f 1124 1121 1105
f 285 1126 1119
f 1126 286 1124
f 1119 1124 283
f 1126 1124 1119
f 20 1073 1096
f 1073 276 1098
f 1096 1098 281
f 1073 1098 1096
f 276 1074 1110
f 1074 75 1108
f 1110 1108 284
f 1074 1108 1110
f 281 1112 1097
f 1112 284 1109
f 1097 1109 76
f 1112 1109 1097
f 276 1110 1098
f 1110 284 1112
f 1098 1112 281
f 1110 1112 1098
f 75 1071 1089
f 1071 275 1091
f 1089 1091 279
f 1071 1091 1089
f 275 1070 1087
f 1070 16 925
f 1087 925 240
f 1070 925 1087
f 279 1090 1088
f 1090 240 926
f 1088 926 67
f 1090 926 1088
f 275 1087 1091
f 1087 240 1090
f 1091 1090 279
f 1087 1090 1091
f 76 1100 1093
f 1100 282 1103
f 1093 1103 280
f 1100 1103 1093
f 282 1099 1101
f 1099 67 929
f 1101 929 241
f 1099 929 1101
f 280 1094 1092
f 1094 241 928
f 1092 928 18
f 1094 928 1092
f 282 1101 1103
f 1101 241 1094
f 1103 1094 280
f 1101 1094 1103
f 75 1089 1108
f 1089 279 1111
f 1108 1111 284
f 1089 1111 1108
f 279 1088 1102
f 1088 67 1099
f 1102 1099 282
f 1088 1099 1102
f 284 1113 1109
f 1113 282 1100
f 1109 1100 76
f 1113 1100 1109
f 279 1102 1111
f 1102 282 1113
f 1111 1113 284
f 1102 1113 1111
f 11 799 899
f 799 207 901
f 899 901 233
f 799 901 899
f 207 800 906
f 800 58 904
f 906 904 235
f 800 904 906
f 233 907 900
f 907 235 905
f 900 905 65
f 907 905 900
f 207 906 901
f 906 235 907
f 901 907 233
f 906 907 901
f 58 802 914
f 802 208 916
f 914 916 238
f 802 916 914
f 208 801 910
f 801 15 908
f 910 908 236
f 801 908 910
f 238 918 915
f 918 236 909
f 915 909 66
f 918 909 915
f 208 910 916
f 910 236 918
f 916 918 238
f 910 918 916
f 65 919 903
f 919 239 921
f 903 921 234
f 919 921 903
f 239 920 923
f 920 66 912
f 923 912 237
f 920 912 923
f 234 913 902
f 913 237 911
f 902 911 18
f 913 911 902
f 239 923 921
f 923 237 913
f 921 913 234
f 923 913 921
f 58 914 904
f 914 238 917
f 904 917 235
f 914 917 904
f 238 915 924
f 915 66 920
f 924 920 239
f 915 920 924
f 235 922 905
f 922 239 919
f 905 919 65
f 922 919 905
f 238 924 917
f 924 239 922
f 917 922 235
f 924 922 917
f 15 982 908
f 982 255 999
f 908 999 236
f 982 999 908
f 255 983 1003
f 983 71 1001
f 1003 1001 259
f 983 1001 1003
f 236 1002 909
f 1002 259 1000
f 909 1000 66
f 1002 1000 909
f 255 1003 999
f 1003 259 1002
f 999 1002 236
f 1003 1002 999
f 71 986 1011
f 986 256 1013
f 1011 1013 261
f 986 1013 1011
f 256 985 1005
f 985 19 971
f 1005 971 251
f 985 971 1005
f 261 1015 1012
f 1015 251 972
f 1012 972 69
f 1015 972 1012
f 256 1005 1013
f 1005 251 1015
f 1013 1015 261
f 1005 1015 1013
f 66 1006 912
f 1006 260 1008
f 912 1008 237
f 1006 1008 912
f 260 1007 1010
f 1007 69 970
f 1010 970 250
f 1007 970 1010
f 237 1004 911
f 1004 250 969
f 911 969 18
f 1004 969 911
f 260 1010 1008
f 1010 250 1004
f 1008 1004 237
f 1010 1004 1008
f 71 1011 1001
f 1011 261 1014
f 1001 1014 259
f 1011 1014 1001
f 261 1012 1016
f 1012 69 1007
f 1016 1007 260
f 1012 1007 1016
f 259 1009 1000
f 1009 260 1006
f 1000 1006 66
f 1009 1006 1000
f 261 1016 1014
f 1016 260 1009
f 1014 1009 259
f 1016 1009 1014
f 15 805 982
f 805 210 984
f 982 984 255
f 805 984 982
f 210 806 990
f 806 59 988
f 990 988 257
f 806 988 990
f 255 992 983
f 992 257 989
f 983 989 71
f 992 989 983
f 210 990 984
f 990 257 992
f 984 992 255
f 990 992 984
f 59 804 978
f 804 209 980
f 978 980 254
f 804 980 978
f 209 803 975
f 803 14 973
f 975 973 252
f 803 973 975
f 254 981 979
f 981 252 974
f 979 974 70
f 981 974 979
f 209 975 980
f 975 252 981
f 980 981 254
f 975 981 980
f 71 994 986
f 994 258 997
f 986 997 256
f 994 997 986
f 258 993 995
f 993 70 977
f 995 977 253
f 993 977 995
f 256 987 985
f 987 253 976
f 985 976 19
f 987 976 985
f 258 995 997
f 995 253 987
f 997 987 256
f 995 987 997
f 59 978 988
f 978 254 991
f 988 991 257
f 978 991 988
f 254 979 996
f 979 70 993
f 996 993 258
f 979 993 996
f 257 998 989
f 998 258 994
f 989 994 71
f 998 994 989
f 254 996 991
f 996 258 998
f 991 998 257
f 996 998 991
f 14 1017 973
f 1017 262 1019
f 973 1019 252
f 1017 1019 973
f 262 1018 1025
f 1018 72 1023
f 1025 1023 264
f 1018 1023 1025
f 252 1024 974
f 1024 264 1022
f 974 1022 70
f 1024 1022 974
f 262 1025 1019
f 1025 264 1024
f 1019 1024 252
f 1025 1024 1019
f 72 1021 1037
f 1021 263 1039
f 1037 1039 268
f 1021 1039 1037
f 263 1020 1031
f 1020 20 1029
f 1031 1029 266
f 1020 1029 1031
f 268 1041 1038
f 1041 266 1030
f 1038 1030 73
f 1041 1030 1038
f 263 1031 1039
f 1031 266 1041
f 1039 1041 268
f 1031 1041 1039
f 70 1032 977
f 1032 267 1034
f 977 1034 253
f 1032 1034 977
f 267 1033 1036
f 1033 73 1027
f 1036 1027 265
f 1033 1027 1036
f 253 1028 976
f 1028 265 1026
f 976 1026 19
f 1028 1026 976
f 267 1036 1034
f 1036 265 1028
f 1034 1028 253
f 1036 1028 1034
f 72 1037 1023
f 1037 268 1040
f 1023 1040 264
f 1037 1040 1023
f 268 1038 1042
f 1038 73 1033
f 1042 1033 267
f 1038 1033 1042
f 264 1035 1022
f 1035 267 1032
f 1022 1032 70
f 1035 1032 1022
f 268 1042 1040
f 1042 267 1035
f 1040 1035 264
f 1042 1035 1040
f 14 785 1017
f 785 204 1057
f 1017 1057 262
f 785 1057 1017
f 204 786 1061
f 786 57 1059
f 1061 1059 273
f 786 1059 1061
f 262 1063 1018
f 1063 273 1060
f 1018 1060 72
f 1063 1060 1018
f 204 1061 1057
f 1061 273 1063
f 1057 1063 262
f 1061 1063 1057
f 57 783 1049
f 783 203 1051
f 1049 1051 271
f 783 1051 1049
f 203 782 1045
f 782 13 1043
f 1045 1043 269
f 782 1043 1045
f 271 1052 1050
f 1052 269 1044
f 1050 1044 74
f 1052 1044 1050
f 203 1045 1051
f 1045 269 1052
f 1051 1052 271
f 1045 1052 1051
f 72 1065 1021
f 1065 274 1068
f 1021 1068 263
f 1065 1068 1021
f 274 1064 1066
f 1064 74 1048
f 1066 1048 270
f 1064 1048 1066
f 263 1058 1020
f 1058 270 1047
f 1020 1047 20
f 1058 1047 1020
f 274 1066 1068
f 1066 270 1058
f 1068 1058 263
f 1066 1058 1068
f 57 1049 1059
f 1049 271 1062
f 1059 1062 273
f 1049 1062 1059
f 271 1050 1067
f 1050 74 1064
f 1067 1064 274
f 1050 1064 1067
f 273 1069 1060
f 1069 274 1065
f 1060 1065 72
f 1069 1065 1060
f 271 1067 1062
f 1067 274 1069
f 1062 1069 273
f 1067 1069 1062
f 13 825 1043
f 825 214 1046
f 1043 1046 269
f 825 1046 1043
f 214 826 1055
f 826 60 1053
f 1055 1053 272
f 826 1053 1055
f 269 1056 1044
f 1056 272 1054
f 1044 1054 74
f 1056 1054 1044
f 214 1055 1046
f 1055 272 1056
f 1046 1056 269
f 1055 1056 1046
f 60 828 1076
f 828 215 1078
f 1076 1078 277
f 828 1078 1076
f 215 827 1072
f 827 16 1070
f 1072 1070 275
f 827 1070 1072
f 277 1080 1077
f 1080 275 1071
f 1077 1071 75
f 1080 1071 1077
f 215 1072 1078
f 1072 275 1080
f 1078 1080 277
f 1072 1080 1078
f 74 1081 1048
f 1081 278 1083
f 1048 1083 270
f 1081 1083 1048
f 278 1082 1085
f 1082 75 1074
f 1085 1074 276
f 1082 1074 1085
f 270 1075 1047
f 1075 276 1073
f 1047 1073 20
f 1075 1073 1047
f 278 1085 1083
f 1085 276 1075
f 1083 1075 270
f 1085 1075 1083
f 60 1076 1053
f 1076 277 1079
f 1053 1079 272
f 1076 1079 1053
f 277 1077 1086
f 1077 75 1082
f 1086 1082 278
f 1077 1082 1086
f 272 1084 1054
f 1084 278 1081
f 1054 1081 74
f 1084 1081 1054
f 277 1086 1079
f 1086 278 1084
f 1079 1084 272
f 1086 1084 1079
f 13 749 825
f 749 194 838
f 825 838 214
f 749 838 825
f 194 750 842
f 750 54 840
f 842 840 219
f 750 840 842
f 214 844 826
f 844 219 841
f 826 841 60
f 844 841 826
f 194 842 838
f 842 219 844
f 838 844 214
f 842 844 838
f 54 748 834
f 748 193 836
f 834 836 218
f 748 836 834
f 193 747 831
f 747 12 829
f 831 829 216
f 747 829 831
f 218 837 835
f 837 216 830
f 835 830 61
f 837 830 835
f 193 831 836
f 831 216 837
f 836 837 218
f 831 837 836
f 60 846 828
f 846 220 849
f 828 849 215
f 846 849 828
f 220 845 847
f 845 61 833
f 847 833 217
f 845 833 847
f 215 839 827
f 839 217 832
f 827 832 16
f 839 832 827
f 220 847 849
f 847 217 839
f 849 839 215
f 847 839 849
f 54 834 840
f 834 218 843
f 840 843 219
f 834 843 840
f 218 835 848
f 835 61 845
f 848 845 220
f 835 845 848
f 219 850 841
f 850 220 846
f 841 846 60
f 850 846 841
f 218 848 843
f 848 220 850
f 843 850 219
f 848 850 843
f 12 860 829
f 860 224 881
f 829 881 216
f 860 881 829
f 224 861 885
f 861 63 883
f 885 883 230
f 861 883 885
f 216 884 830
f 884 230 882
f 830 882 61
f 884 882 830
f 224 885 881
f 885 230 884
f 881 884 216
f 885 884 881
f 63 864 893
f 864 225 895
f 893 895 232
f 864 895 893
f 225 863 887
f 863 17 879
f 887 879 229
f 863 879 887
f 232 897 894
f 897 229 880
f 894 880 64
f 897 880 894
f 225 887 895
f 887 229 897
f 895 897 232
f 887 897 895
f 61 888 833
f 888 231 890
f 833 890 217
f 888 890 833
f 231 889 892
f 889 64 878
f 892 878 228
f 889 878 892
f 217 886 832
f 886 228 877
f 832 877 16
f 886 877 832
f 231 892 890
f 892 228 886
f 890 886 217
f 892 886 890
f 63 893 883
f 893 232 896
f 883 896 230
f 893 896 883
f 232 894 898
f 894 64 889
f 898 889 231
f 894 889 898
f 230 891 882
f 891 231 888
f 882 888 61
f 891 888 882
f 232 898 896
f 898 231 891
f 896 891 230
f 898 891 896
f 12 745 860
f 745 192 862
f 860 862 224
f 745 862 860
f 192 746 868
f 746 53 866
f 868 866 226
f 746 866 868
f 224 870 861
f 870 226 867
f 861 867 63
f 870 867 861
f 192 868 862
f 868 226 870
f 862 870 224
f 868 870 862
f 53 744 856
f 744 191 858
f 856 858 223
f 744 858 856
f 191 743 853
f 743 11 851
f 853 851 221
f 743 851 853
f 223 859 857
f 859 221 852
f 857 852 62
f 859 852 857
f 191 853 858
f 853 221 859
f 858 859 223
f 853 859 858
f 63 872 864
f 872 227 875
f 864 875 225
f 872 875 864
f 227 871 873
f 871 62 855
f 873 855 222
f 871 855 873
f 225 865 863
f 865 222 854
f 863 854 17
f 865 854 863
f 227 873 875
f 873 222 865
f 875 865 225
f 873 865 875
f 53 856 866
f 856 223 869
f 866 869 226
f 856 869 866
f 223 857 874
f 857 62 871
f 874 871 227
f 857 871 874
f 226 876 867
f 876 227 872
f 867 872 63
f 876 872 867
f 223 874 869
f 874 227 876
f 869 876 226
f 874 876 869
f 11 899 851
f 899 233 951
f 851 951 221
f 899 951 851
f 233 900 955
f 900 65 953
f 955 953 247
f 900 953 955
f 221 954 852
f 954 247 952
f 852 952 62
f 954 952 852
f 233 955 951
f 955 247 954
f 951 954 221
f 955 954 951
f 65 903 963
f 903 234 965
f 963 965 249
f 903 965 963
f 234 902 957
f 902 18 937
f 957 937 244
f 902 937 957
f 249 967 964
f 967 244 938
f 964 938 68
f 967 938 964
f 234 957 965
f 957 244 967
f 965 967 249
f 957 967 965
f 62 958 855
f 958 248 960
f 855 960 222
f 958 960 855
f 248 959 962
f 959 68 935
f 962 935 243
f 959 935 962
f 222 956 854
f 956 243 934
f 854 934 17
f 956 934 854
f 248 962 960
f 962 243 956
f 960 956 222
f 962 956 960
f 65 963 953
f 963 249 966
f 953 966 247
f 963 966 953
f 249 964 968
f 964 68 959
f 968 959 248
f 964 959 968
f 247 961 952
f 961 248 958
f 952 958 62
f 961 958 952
f 249 968 966
f 968 248 961
f 966 961 247
f 968 961 966
f 21 1127 1135
f 1127 287 1137
f 1135 1137 291
f 1127 1137 1135
f 287 1128 1142
f 1128 77 1140
f 1142 1140 293
f 1128 1140 1142
f 291 1143 1136
f 1143 293 1141
f 1136 1141 79
f 1143 1141 1136
f 287 1142 1137
f 1142 293 1143
f 1137 1143 291
f 1142 1143 1137
f 77 1130 1146
f 1130 288 1148
f 1146 1148 294
f 1130 1148 1146
f 288 1129 1144
f 1129 22 1131
f 1144 1131 289
f 1129 1131 1144
f 294 1150 1147
f 1150 289 1132
f 1147 1132 78
f 1150 1132 1147
f 288 1144 1148
f 1144 289 1150
f 1148 1150 294
f 1144 1150 1148
f 79 1151 1139
f 1151 295 1153
f 1139 1153 292
f 1151 1153 1139
f 295 1152 1155
f 1152 78 1134
f 1155 1134 290
f 1152 1134 1155
f 292 1145 1138
f 1145 290 1133
f 1138 1133 23
f 1145 1133 1138
f 295 1155 1153
f 1155 290 1145
f 1153 1145 292
f 1155 1145 1153
f 77 1146 1140
f 1146 294 1149
f 1140 1149 293
f 1146 1149 1140
f 294 1147 1156
f 1147 78 1152
f 1156 1152 295
f 1147 1152 1156
f 293 1154 1141
f 1154 295 1151
f 1141 1151 79
f 1154 1151 1141
f 294 1156 1149
f 1156 295 1154
f 1149 1154 293
f 1156 1154 1149
f 23 1166 1138
f 1166 299 1168
f 1138 1168 292
f 1166 1168 1138
f 299 1167 1176
f 1167 81 1173
f 1176 1173 301
f 1167 1173 1176
f 292 1174 1139
f 1174 301 1172
f 1139 1172 79
f 1174 1172 1139
f 299 1176 1168
f 1176 301 1174
f 1168 1174 292
f 1176 1174 1168
f 81 1170 1178
f 1170 300 1181
f 1178 1181 302
f 1170 1181 1178
f 300 1169 1171
f 1169 24 1160
f 1171 1160 297
f 1169 1160 1171
f 302 1179 1177
f 1179 297 1161
f 1177 1161 80
f 1179 1161 1177
f 300 1171 1181
f 1171 297 1179
f 1181 1179 302
f 1171 1179 1181
f 79 1162 1136
f 1162 298 1164
f 1136 1164 291
f 1162 1164 1136
f 298 1163 1165
f 1163 80 1158
f 1165 1158 296
f 1163 1158 1165
f 291 1159 1135
f 1159 296 1157
f 1135 1157 21
f 1159 1157 1135
f 298 1165 1164
f 1165 296 1159
f 1164 1159 291
f 1165 1159 1164
f 81 1178 1173
f 1178 302 1182
f 1173 1182 301
f 1178 1182 1173
f 302 1177 1180
f 1177 80 1163
f 1180 1163 298
f 1177 1163 1180
f 301 1175 1172
f 1175 298 1162
f 1172 1162 79
f 1175 1162 1172
f 302 1180 1182
f 1180 298 1175
f 1182 1175 301
f 1180 1175 1182
f 25 1218 1305
f 1218 313 1307
f 1305 1307 334
f 1218 1307 1305
f 313 1219 1312
f 1219 85 1310
f 1312 1310 336
f 1219 1310 1312
f 334 1313 1306
f 1313 336 1311
f 1306 1311 90
f 1313 1311 1306
f 313 1312 1307
f 1312 336 1313
f 1307 1313 334
f 1312 1313 1307
f 85 1222 1316
f 1222 314 1318
f 1316 1318 337
f 1222 1318 1316
f 314 1221 1314
f 1221 26 1288
f 1314 1288 330
f 1221 1288 1314
f 337 1320 1317
f 1320 330 1289
f 1317 1289 89
f 1320 1289 1317
f 314 1314 1318
f 1314 330 1320
f 1318 1320 337
f 1314 1320 1318
f 90 1321 1309
f 1321 338 1323
f 1309 1323 335
f 1321 1323 1309
f 338 1322 1325
f 1322 89 1292
f 1325 1292 331
f 1322 1292 1325
f 335 1315 1308
f 1315 331 1291
f 1308 1291 27
f 1315 1291 1308
f 338 1325 1323
f 1325 331 1315
f 1323 1315 335
f 1325 1315 1323
f 85 1316 1310
f 1316 337 1319
f 1310 1319 336
f 1316 1319 1310
f 337 1317 1326
f 1317 89 1322
f 1326 1322 338
f 1317 1322 1326
f 336 1324 1311
f 1324 338 1321
f 1311 1321 90
f 1324 1321 1311
f 337 1326 1319
f 1326 338 1324
f 1319 1324 336
f 1326 1324 1319
f 27 1336 1308
f 1336 342 1338
f 1308 1338 335
f 1336 1338 1308
f 342 1337 1346
f 1337 92 1343
f 1346 1343 344
f 1337 1343 1346
f 335 1344 1309
f 1344 344 1342
f 1309 1342 90
f 1344 1342 1309
f 342 1346 1338
f 1346 344 1344
f 1338 1344 335
f 1346 1344 1338
f 92 1340 1348
f 1340 343 1351
f 1348 1351 345
f 1340 1351 1348
f 343 1339 1341
f 1339 28 1330
f 1341 1330 340
f 1339 1330 1341
f 345 1349 1347
f 1349 340 1331
f 1347 1331 91
f 1349 1331 1347
f 343 1341 1351
f 1341 340 1349
f 1351 1349 345
f 1341 1349 1351
f 90 1332 1306
f 1332 341 1334
f 1306 1334 334
f 1332 1334 1306
f 341 1333 1335
f 1333 91 1328
f 1335 1328 339
f 1333 1328 1335
f 334 1329 1305
f 1329 339 1327
f 1305 1327 25
f 1329 1327 1305
f 341 1335 1334
f 1335 339 1329
f 1334 1329 334
f 1335 1329 1334
f 92 1348 1343
f 1348 345 1352
f 1343 1352 344
f 1348 1352 1343
f 345 1347 1350
f 1347 91 1333
f 1350 1333 341
f 1347 1333 1350
f 344 1345 1342
f 1345 341 1332
f 1342 1332 90
f 1345 1332 1342
f 345 1350 1352
f 1350 341 1345
f 1352 1345 344
f 1350 1345 1352
f 21 1157 1257
f 1157 296 1259
f 1257 1259 322
f 1157 1259 1257
f 296 1158 1264
f 1158 80 1262
f 1264 1262 324
f 1158 1262 1264
f 322 1265 1258
f 1265 324 1263
f 1258 1263 87
f 1265 1263 1258
f 296 1264 1259
f 1264 324 1265
f 1259 1265 322
f 1264 1265 1259
f 80 1161 1272
f 1161 297 1274
f 1272 1274 327
f 1161 1274 1272
f 297 1160 1268
f 1160 24 1266
f 1268 1266 325
f 1160 1266 1268
f 327 1276 1273
f 1276 325 1267
f 1273 1267 88
f 1276 1267 1273
f 297 1268 1274
f 1268 325 1276
f 1274 1276 327
f 1268 1276 1274
f 87 1277 1261
f 1277 328 1279
f 1261 1279 323
f 1277 1279 1261
f 328 1278 1281
f 1278 88 1270
f 1281 1270 326
f 1278 1270 1281
f 323 1271 1260
f 1271 326 1269
f 1260 1269 27
f 1271 1269 1260
f 328 1281 1279
f 1281 326 1271
f 1279 1271 323
f 1281 1271 1279
f 80 1272 1262
f 1272 327 1275
f 1262 1275 324
f 1272 1275 1262
f 327 1273 1282
f 1273 88 1278
f 1282 1278 328
f 1273 1278 1282
f 324 1280 1263
f 1280 328 1277
f 1263 1277 87
f 1280 1277 1263
f 327 1282 1275
f 1282 328 1280
f 1275 1280 324
f 1282 1280 1275
f 24 1353 1266
f 1353 346 1355
f 1266 1355 325
f 1353 1355 1266
f 346 1354 1361
f 1354 93 1359
f 1361 1359 348
f 1354 1359 1361
f 325 1360 1267
f 1360 348 1358
f 1267 1358 88
f 1360 1358 1267
f 346 1361 1355
f 1361 348 1360
f 1355 1360 325
f 1361 1360 1355
f 93 1357 1369
f 1357 347 1371
f 1369 1371 350
f 1357 1371 1369
f 347 1356 1363
f 1356 28 1339
f 1363 1339 343
f 1356 1339 1363
f 350 1373 1370
f 1373 343 1340
f 1370 1340 92
f 1373 1340 1370
f 347 1363 1371
f 1363 343 1373
f 1371 1373 350
f 1363 1373 1371
f 88 1364 1270
f 1364 349 1366
f 1270 1366 326
f 1364 1366 1270
f 349 1365 1368
f 1365 92 1337
f 1368 1337 342
f 1365 1337 1368
f 326 1362 1269
f 1362 342 1336
f 1269 1336 27
f 1362 1336 1269
f 349 1368 1366
f 1368 342 1362
f 1366 1362 326
f 1368 1362 1366
f 93 1369 1359
f 1369 350 1372
f 1359 1372 348
f 1369 1372 1359
f 350 1370 1374
f 1370 92 1365
f 1374 1365 349
f 1370 1365 1374
f 348 1367 1358
f 1367 349 1364
f 1358 1364 88
f 1367 1364 1358
f 350 1374 1372
f 1374 349 1367
f 1372 1367 348
f 1374 1367 1372
f 24 1169 1353
f 1169 300 1389
f 1353 1389 346
f 1169 1389 1353
f 300 1170 1393
f 1170 81 1391
f 1393 1391 355
f 1170 1391 1393
f 346 1395 1354
f 1395 355 1392
f 1354 1392 93
f 1395 1392 1354
f 300 1393 1389
f 1393 355 1395
f 1389 1395 346
f 1393 1395 1389
f 81 1167 1381
f 1167 299 1383
f 1381 1383 353
f 1167 1383 1381
f 299 1166 1377
f 1166 23 1375
f 1377 1375 351
f 1166 1375 1377
f 353 1384 1382
f 1384 351 1376
f 1382 1376 94
f 1384 1376 1382
f 299 1377 1383
f 1377 351 1384
f 1383 1384 353
f 1377 1384 1383
f 93 1397 1357
f 1397 356 1400
f 1357 1400 347
f 1397 1400 1357
f 356 1396 1398
f 1396 94 1380
f 1398 1380 352
f 1396 1380 1398
f 347 1390 1356
f 1390 352 1379
f 1356 1379 28
f 1390 1379 1356
f 356 1398 1400
f 1398 352 1390
f 1400 1390 347
f 1398 1390 1400
f 81 1381 1391
f 1381 353 1394
f 1391 1394 355
f 1381 1394 1391
f 353 1382 1399
f 1382 94 1396
f 1399 1396 356
f 1382 1396 1399
f 355 1401 1392
f 1401 356 1397
f 1392 1397 93
f 1401 1397 1392
f 353 1399 1394
f 1399 356 1401
f 1394 1401 355
f 1399 1401 1394
f 23 1192 1375
f 1192 306 1378
f 1375 1378 351
f 1192 1378 1375
f 306 1193 1387
f 1193 83 1385
f 1387 1385 354
f 1193 1385 1387
f 351 1388 1376
f 1388 354 1386
f 1376 1386 94
f 1388 1386 1376
f 306 1387 1378
f 1387 354 1388
f 1378 1388 351
f 1387 1388 1378
f 83 1196 1404
f 1196 307 1406
f 1404 1406 357
f 1196 1406 1404
f 307 1195 1402
f 1195 25 1327
f 1402 1327 339
f 1195 1327 1402
f 357 1408 1405
f 1408 339 1328
f 1405 1328 91
f 1408 1328 1405
f 307 1402 1406
f 1402 339 1408
f 1406 1408 357
f 1402 1408 1406
f 94 1409 1380
f 1409 358 1411
f 1380 1411 352
f 1409 1411 1380
f 358 1410 1413
f 1410 91 1331
f 1413 1331 340
f 1410 1331 1413
f 352 1403 1379
f 1403 340 1330
f 1379 1330 28
f 1403 1330 1379
f 358 1413 1411
f 1413 340 1403
f 1411 1403 352
f 1413 1403 1411
f 83 1404 1385
f 1404 357 1407
f 1385 1407 354
f 1404 1407 1385
f 357 1405 1414
f 1405 91 1410
f 1414 1410 358
f 1405 1410 1414
f 354 1412 1386
f 1412 358 1409
f 1386 1409 94
f 1412 1409 1386
f 357 1414 1407
f 1414 358 1412
f 1407 1412 354
f 1414 1412 1407
f 23 1133 1192
f 1133 290 1194
f 1192 1194 306
f 1133 1194 1192
f 290 1134 1200
f 1134 78 1198
f 1200 1198 308
f 1134 1198 1200
f 306 1202 1193
f 1202 308 1199
f 1193 1199 83
f 1202 1199 1193
f 290 1200 1194
f 1200 308 1202
f 1194 1202 306
f 1200 1202 1194
f 78 1132 1188
f 1132 289 1190
f 1188 1190 305
f 1132 1190 1188
f 289 1131 1185
f 1131 22 1183
f 1185 1183 303
f 1131 1183 1185
f 305 1191 1189
f 1191 303 1184
f 1189 1184 82
f 1191 1184 1189
f 289 1185 1190
f 1185 303 1191
f 1190 1191 305
f 1185 1191 1190
f 83 1204 1196
f 1204 309 1207
f 1196 1207 307
f 1204 1207 1196
f 309 1203 1205
f 1203 82 1187
f 1205 1187 304
f 1203 1187 1205
f 307 1197 1195
f 1197 304 1186
f 1195 1186 25
f 1197 1186 1195
f 309 1205 1207
f 1205 304 1197
f 1207 1197 307
f 1205 1197 1207
f 78 1188 1198
f 1188 305 1201
f 1198 1201 308
f 1188 1201 1198
f 305 1189 1206
f 1189 82 1203
f 1206 1203 309
f 1189 1203 1206
f 308 1208 1199
f 1208 309 1204
f 1199 1204 83
f 1208 1204 1199
f 305 1206 1201
f 1206 309 1208
f 1201 1208 308
f 1206 1208 1201
f 22 1209 1183
f 1209 310 1211
f 1183 1211 303
f 1209 1211 1183
f 310 1210 1217
f 1210 84 1215
f 1217 1215 312
f 1210 1215 1217
f 303 1216 1184
f 1216 312 1214
f 1184 1214 82
f 1216 1214 1184
f 310 1217 1211
f 1217 312 1216
f 1211 1216 303
f 1217 1216 1211
f 84 1213 1229
f 1213 311 1231
f 1229 1231 316
f 1213 1231 1229
f 311 1212 1223
f 1212 26 1221
f 1223 1221 314
f 1212 1221 1223
f 316 1233 1230
f 1233 314 1222
f 1230 1222 85
f 1233 1222 1230
f 311 1223 1231
f 1223 314 1233
f 1231 1233 316
f 1223 1233 1231
f 82 1224 1187
f 1224 315 1226
f 1187 1226 304
f 1224 1226 1187
f 315 1225 1228
f 1225 85 1219
f 1228 1219 313
f 1225 1219 1228
f 304 1220 1186
f 1220 313 1218
f 1186 1218 25
f 1220 1218 1186
f 315 1228 1226
f 1228 313 1220
f 1226 1220 304
f 1228 1220 1226
f 84 1229 1215
f 1229 316 1232
f 1215 1232 312
f 1229 1232 1215
f 316 1230 1234
f 1230 85 1225
f 1234 1225 315
f 1230 1225 1234
f 312 1227 1214
f 1227 315 1224
f 1214 1224 82
f 1227 1224 1214
f 316 1234 1232
f 1234 315 1227
f 1232 1227 312
f 1234 1227 1232
f 22 1129 1209
f 1129 288 1244
f 1209 1244 310
f 1129 1244 1209
f 288 1130 1248
f 1130 77 1246
f 1248 1246 320
f 1130 1246 1248
f 310 1250 1210
f 1250 320 1247
f 1210 1247 84
f 1250 1247 1210
f 288 1248 1244
f 1248 320 1250
f 1244 1250 310
f 1248 1250 1244
f 77 1128 1240
f 1128 287 1242
f 1240 1242 319
f 1128 1242 1240
f 287 1127 1237
f 1127 21 1235
f 1237 1235 317
f 1127 1235 1237
f 319 1243 1241
f 1243 317 1236
f 1241 1236 86
f 1243 1236 1241
f 287 1237 1242
f 1237 317 1243
f 1242 1243 319
f 1237 1243 1242
f 84 1252 1213
f 1252 321 1255
f 1213 1255 311
f 1252 1255 1213
f 321 1251 1253
f 1251 86 1239
f 1253 1239 318
f 1251 1239 1253
f 311 1245 1212
f 1245 318 1238
f 1212 1238 26
f 1245 1238 1212
f 321 1253 1255
f 1253 318 1245
f 1255 1245 311
f 1253 1245 1255
f 77 1240 1246
f 1240 319 1249
f 1246 1249 320
f 1240 1249 1246
f 319 1241 1254
f 1241 86 1251
f 1254 1251 321
f 1241 1251 1254
f 320 1256 1247
f 1256 321 1252
f 1247 1252 84
f 1256 1252 1247
f 319 1254 1249
f 1254 321 1256
f 1249 1256 320
f 1254 1256 1249
f 21 1257 1235
f 1257 322 1283
f 1235 1283 317
f 1257 1283 1235
f 322 1258 1287
f 1258 87 1285
f 1287 1285 329
f 1258 1285 1287
f 317 1286 1236
f 1286 329 1284
f 1236 1284 86
f 1286 1284 1236
f 322 1287 1283
f 1287 329 1286
f 1283 1286 317
f 1287 1286 1283
f 87 1261 1299
f 1261 323 1301
f 1299 1301 333
f 1261 1301 1299
f 323 1260 1293
f 1260 27 1291
f 1293 1291 331
f 1260 1291 1293
f 333 1303 1300
f 1303 331 1292
f 1300 1292 89
f 1303 1292 1300
f 323 1293 1301
f 1293 331 1303
f 1301 1303 333
f 1293 1303 1301
f 86 1294 1239
f 1294 332 1296
f 1239 1296 318
f 1294 1296 1239
f 332 1295 1298
f 1295 89 1289
f 1298 1289 330
f 1295 1289 1298
f 318 1290 1238
f 1290 330 1288
f 1238 1288 26
f 1290 1288 1238
f 332 1298 1296
f 1298 330 1290
f 1296 1290 318
f 1298 1290 1296
f 87 1299 1285
f 1299 333 1302
f 1285 1302 329
f 1299 1302 1285
f 333 1300 1304
f 1300 89 1295
f 1304 1295 332
f 1300 1295 1304
f 329 1297 1284
f 1297 332 1294
f 1284 1294 86
f 1297 1294 1284
f 333 1304 1302
f 1304 332 1297
f 1302 1297 329
f 1304 1297 1302

