# Blender 5.1.1
# www.blender.org
mtllib A.mtl
o sca_A
v -4.500000 -0.811300 -5.996100
v -4.500000 -0.778300 -4.578850
v -4.500000 4.517091 10.000000
v -4.500000 6.681397 9.999999
v -4.500000 0.584000 -5.996100
v 4.500000 4.517091 10.000000
v 4.500000 -0.778300 -4.578850
v 4.500000 -0.811300 -5.996100
v 4.500000 0.584000 -5.996100
v 4.500000 6.681397 9.999999
v -4.500000 -7.392099 10.000001
v -4.500000 -5.216799 10.000000
v -4.500000 0.089600 -4.578850
v -4.500000 0.122550 -5.996100
v -4.500000 -1.272700 -5.996100
v 4.500000 0.089600 -4.578850
v 4.499999 -5.216799 10.000000
v 4.499999 -7.392099 10.000001
v 4.500000 -1.272700 -5.996100
v 4.500000 0.122550 -5.996100
v -4.500000 4.044681 4.078350
v -4.500000 -4.942150 4.078351
v -4.500000 -4.942150 5.814210
v -4.500000 4.044681 5.814209
v 4.499999 -4.942150 5.814210
v 4.499999 -4.942150 4.078351
v 4.500000 4.044681 4.078350
v 4.500000 4.044681 5.814209
vn -1.0000 -0.0000 -0.0000
vn 1.0000 -0.0000 -0.0000
vn -0.0000 -0.0000 -1.0000
vn -0.0000 0.9344 -0.3562
vn -0.0000 -0.0000 1.0000
vn -0.0000 -0.9399 0.3414
vn -0.0000 -0.9997 0.0233
vn -0.0000 -0.9340 -0.3573
vn -0.0000 0.9997 0.0232
vn -0.0000 0.9397 0.3420
vn -0.0000 1.0000 -0.0000
vn -0.0000 -1.0000 -0.0000
s 1
f 1//1 2//1 3//1
f 4//1 5//1 1//1
f 1//1 3//1 4//1
f 6//2 7//2 8//2
f 8//2 9//2 10//2
f 10//2 6//2 8//2
f 1//3 5//3 8//3
f 5//3 9//3 8//3
f 5//4 4//4 9//4
f 4//4 10//4 9//4
f 4//5 3//5 10//5
f 3//5 6//5 10//5
f 3//6 2//6 6//6
f 2//6 7//6 6//6
f 2//7 1//7 7//7
f 1//7 8//7 7//7
f 11//1 12//1 13//1
f 14//1 15//1 11//1
f 11//1 13//1 14//1
f 16//2 17//2 18//2
f 18//2 19//2 20//2
f 20//2 16//2 18//2
f 11//8 15//8 18//8
f 15//8 19//8 18//8
f 15//3 14//3 19//3
f 14//3 20//3 19//3
f 14//9 13//9 20//9
f 13//9 16//9 20//9
f 13//10 12//10 16//10
f 12//10 17//10 16//10
f 12//5 11//5 17//5
f 11//5 18//5 17//5
f 21//1 22//1 23//1
f 23//1 24//1 21//1
f 25//2 26//2 27//2
f 27//2 28//2 25//2
f 21//11 24//11 27//11
f 24//11 28//11 27//11
f 24//5 23//5 28//5
f 23//5 25//5 28//5
f 23//12 22//12 25//12
f 22//12 26//12 25//12
f 22//3 21//3 26//3
f 21//3 27//3 26//3
