# Blender 4.1.1
# www.blender.org
mtllib bread.mtl
o baguette_half
v -2.627708 2.807555 3.729845
v -3.230088 -1.345035 6.316418
v 2.616740 2.807203 3.728820
v 3.210954 -1.344487 6.317811
v -4.116021 1.859126 7.071297
v 4.101099 1.859125 7.071298
v -0.007461 2.945197 10.349267
v -3.214464 -5.134384 -3.131235
v 3.754041 0.782169 -0.106973
v 3.939319 -0.039658 -2.396708
v 3.754041 -0.868342 -4.683949
v -0.007462 -1.039413 8.905628
v -0.005967 3.428190 5.236054
v 3.939318 -1.703742 -6.968743
v -2.369883 2.760931 9.737579
v -1.549243 3.233923 4.703487
v 1.934541 -1.216889 7.928890
v 2.664566 2.099662 1.402732
v 2.354961 2.760924 9.737579
v -4.636541 0.550751 3.371188
v -3.875210 0.164214 7.090446
v 3.860286 0.164210 7.090420
v -0.007461 3.766095 8.608065
v 1.730663 -4.107116 2.174361
v 1.778214 -5.017965 -0.239430
v -3.554632 2.691710 5.389091
v 3.539960 2.691680 5.389025
v 1.537597 3.233804 4.703123
v -1.949465 -1.216687 7.928831
v 1.816937 -5.970177 -2.824171
v 1.837839 -6.841582 -5.245749
v 1.345393 1.660122 -0.697930
v 1.345818 0.889398 -2.868390
v 1.336873 0.105196 -5.038288
v -0.007462 1.236245 10.448894
v -0.002741 2.464432 1.605937
v -0.007462 -3.205570 5.265299
v -2.669544 2.099662 1.402733
v 3.258291 -2.542374 3.807994
v 4.629696 0.550752 3.371188
v 2.231116 0.979055 9.692192
v 2.041944 3.531488 7.814933
v -3.944703 1.596325 2.185556
v -2.056867 3.531509 7.814940
v -2.246040 0.979028 9.692202
v 4.317610 -1.079909 3.658245
v -1.853634 -3.181118 4.565824
v -1.404352 2.374004 1.450950
v 1.399091 2.374005 1.450950
v 3.939319 1.596327 2.185554
v 1.811080 -3.139837 4.671244
v -4.323901 -1.079907 3.658245
v 1.345818 -0.688854 -7.204602
v -4.091432 -1.983956 1.232229
v -4.323901 -2.879948 -1.196720
v -4.091432 -3.768872 -3.628241
v -4.323901 -4.650869 -6.062284
v -0.007462 -7.205367 -5.410315
v -0.006910 -5.255871 -0.054162
v -0.000559 -0.670953 -7.265324
v -0.000003 0.140813 -5.051252
v -0.000559 0.942143 -2.833381
v -0.000340 1.730012 -0.612933
v 4.629696 -3.118089 -6.722322
v 4.378650 -2.199286 -4.199524
v 4.629696 -1.281506 -1.676354
v 4.378650 -0.364774 0.847198
v 3.211762 -5.134384 -3.131235
v 3.102558 -3.420149 1.499930
v -2.646741 -0.937160 -7.094384
v -2.609265 -0.150061 -4.945382
v -2.646741 0.628339 -2.793212
v -2.613847 1.392673 -0.649962
v -3.215852 -3.420161 1.499935
v 2.645307 -0.937160 -7.094385
v 2.609967 -0.150061 -4.945382
v 2.645308 0.628339 -2.793212
v 2.613997 1.392673 -0.649962
v -4.636541 -3.118089 -6.722322
v -4.374796 -2.199286 -4.199524
v -4.636541 -1.281507 -1.676353
v -4.374795 -0.364774 0.847197
v -1.345881 1.660122 -0.697930
v -1.346825 0.889398 -2.868390
v -1.336699 0.105196 -5.038288
v -1.346825 -0.688854 -7.204601
v -1.852415 -5.082989 -0.414057
v -1.829054 -5.972015 -2.829223
v -1.850976 -6.904022 -5.421318
v 4.095284 -1.983956 1.232228
v 4.317609 -2.879951 -1.196720
v 4.095284 -3.768872 -3.628241
v 4.317609 -4.650873 -6.062284
v -3.750187 0.782170 -0.106972
v -3.944703 -0.039659 -2.396708
v -3.750187 -0.868341 -4.683949
v -3.944703 -1.703744 -6.968743
v -3.106760 -6.080791 -5.600130
v -3.084287 -2.541970 3.869831
v -0.007462 -6.663507 -3.891979
v -0.007462 -5.816751 -1.565575
v -0.007462 -5.547211 -2.980978
v -0.005930 -4.684320 1.461967
v -0.006839 -3.800261 3.757593
v -0.006037 -3.549787 2.357730
v 3.097478 -5.998506 -5.384822
v 3.010089 -4.272369 -0.631624
v -3.107192 -4.347763 -0.849442
v -1.829212 -4.102979 2.184983
v -1.838461 -2.970138 3.070627
v 1.737507 -3.855691 0.752810
v -1.836635 -4.852414 -1.922246
v 1.823726 -5.695507 -4.238622
v 0.000202 -4.134270 -7.792397
v 3.097478 -6.356569 -6.368592
v -3.106760 -6.438962 -6.584196
v -3.944703 -2.061889 -7.952737
v 4.317609 -5.008950 -7.046091
v -1.850976 -7.262163 -6.405301
v -1.346825 -1.047104 -8.188885
v -4.636541 -3.476229 -7.706303
v 2.645307 -1.295336 -8.078465
v -2.646741 -1.295365 -8.078546
v 4.629696 -3.476160 -7.706112
v -0.000559 -1.029212 -8.249631
v -0.007462 -7.563453 -6.394149
v -4.323901 -5.009043 -7.046353
v 1.345818 -1.047090 -8.188847
v 1.837839 -7.199636 -6.229490
v 3.939318 -2.061840 -7.952607
v 1.677411 -6.967319 -6.845051
v 2.841594 -6.329716 -7.125074
v -2.806926 -6.302468 -7.188312
v -1.683056 -7.005335 -6.950052
v 3.898789 -4.967505 -7.507644
v -3.908386 -5.010963 -7.610167
v -3.598242 -2.527387 -8.318386
v -4.191189 -3.641609 -7.961810
v -2.485529 -1.876512 -8.502426
v -0.019419 -7.272470 -6.716185
v 0.001015 -1.613716 -8.542475
v -1.296259 -1.639558 -8.517018
v 2.483763 -1.876440 -8.502214
v 1.295236 -1.639549 -8.516977
v 3.592541 -2.526988 -8.318442
v 4.184510 -3.641408 -7.961610
vn -0.0000 -0.2513 0.9679
vn 0.5651 0.4664 0.6805
vn -0.0000 0.5410 0.8410
vn -0.0000 -0.7180 0.6960
vn 0.5386 -0.3099 0.7835
vn 0.4087 -0.7084 0.5755
vn 0.8451 -0.3293 0.4213
vn 0.9108 0.2994 0.2843
vn 0.9918 0.1203 -0.0438
vn 0.7418 0.6405 -0.1988
vn 0.7534 0.6179 -0.2249
vn 0.7459 0.6228 -0.2363
vn 0.9914 0.1239 -0.0425
vn -0.3897 -0.9076 0.1558
vn 0.1884 -0.7903 0.5831
vn -0.2039 -0.8053 0.5566
vn 0.1072 0.9505 -0.2916
vn -0.0000 0.9459 -0.3244
vn -0.0000 0.9590 -0.2834
vn -0.0000 0.9797 0.2006
vn 0.3669 0.9252 0.0969
vn 0.6331 0.7715 -0.0629
vn 0.1520 0.9722 -0.1782
vn -0.0000 0.9863 -0.1652
vn 0.3784 0.8750 -0.3021
vn 0.3671 0.8732 -0.3205
vn -0.9268 -0.3440 0.1511
vn -0.9914 0.1241 -0.0423
vn -0.9157 -0.3821 0.1241
vn 0.1173 0.9348 -0.3353
vn -0.0000 0.9397 -0.3420
vn -0.0000 0.9415 -0.3371
vn -0.9919 0.1164 -0.0506
vn -0.7405 0.6332 -0.2250
vn -0.7495 0.6282 -0.2090
vn -0.9894 0.1442 -0.0154
vn -0.6337 0.7710 -0.0638
vn -0.3280 0.9195 -0.2166
vn -0.3593 0.8841 -0.2987
vn 0.3668 0.8768 -0.3108
vn 0.1160 0.9383 -0.3258
vn -0.1072 0.9504 -0.2918
vn -0.9089 -0.3917 0.1431
vn -0.1159 0.9383 -0.3259
vn 0.3867 0.8666 -0.3154
vn 0.3589 0.8846 -0.2978
vn -0.1518 0.9722 -0.1784
vn -0.9111 0.2991 0.2836
vn -0.3669 0.9252 0.0968
vn -0.5651 0.4664 0.6805
vn -0.1327 -0.9820 0.1341
vn -0.0011 -0.8933 0.4495
vn -0.3761 -0.9009 0.2167
vn -0.1170 0.9331 -0.3401
vn -0.1188 0.9330 -0.3396
vn 0.1170 0.9331 -0.3401
vn 0.1188 0.9330 -0.3396
vn -0.1173 0.9348 -0.3353
vn -0.1554 -0.9829 0.0988
vn 0.0025 -0.9366 0.3505
vn -0.5386 -0.3099 0.7835
vn -0.8456 -0.3289 0.4205
vn -0.4085 -0.7085 0.5754
vn -0.3786 0.8749 -0.3020
vn 0.7494 0.6281 -0.2093
vn 0.9919 0.1166 -0.0501
vn -0.9918 0.1204 -0.0438
vn -0.9307 -0.3376 0.1405
vn 0.7401 0.6345 -0.2229
vn 0.9893 0.1454 -0.0128
vn -0.9145 -0.3693 0.1651
vn -0.3872 0.8664 -0.3153
vn -0.1646 -0.8186 0.5503
vn -0.6375 -0.7390 0.2178
vn -0.7111 -0.6544 0.2571
vn 0.9092 -0.3759 0.1791
vn 0.9302 -0.3500 0.1101
vn 0.9224 -0.3604 0.1389
vn 0.9139 -0.3801 0.1427
vn 0.6599 -0.6330 0.4047
vn 0.9193 -0.3658 0.1451
vn 0.3454 -0.8527 0.3919
vn 0.1048 -0.9887 0.1075
vn -0.6192 -0.7434 0.2528
vn 0.3279 0.9197 -0.2160
vn 0.6793 -0.6842 0.2652
vn -0.6618 -0.6359 0.3971
vn -0.7073 -0.6525 0.2720
vn -0.3631 -0.8758 0.3179
vn -0.6458 -0.7595 -0.0780
vn -0.3359 -0.9393 -0.0699
vn 0.9904 0.1379 -0.0047
vn 0.6664 0.5097 -0.5441
vn 0.3409 0.7376 -0.5829
vn 0.4159 -0.7775 0.4717
vn 0.1664 -0.9800 0.1094
vn 0.6242 -0.7154 0.3138
vn 0.6842 -0.6862 0.2472
vn 0.6377 -0.7081 0.3032
vn 0.7076 -0.6676 0.2315
vn 0.8267 -0.5133 -0.2305
vn 0.8839 -0.0367 -0.4663
vn -0.7456 0.6229 -0.2368
vn -0.3667 0.8733 -0.3209
vn -0.7532 0.6181 -0.2250
vn -0.3664 0.8771 -0.3105
vn 0.3901 -0.7933 0.4674
vn 0.6665 -0.7454 0.0137
vn -0.7413 0.6415 -0.1975
vn -0.3403 0.7378 -0.5829
vn -0.6657 0.5104 -0.5443
vn -0.0000 0.9393 -0.3431
vn 0.1087 0.7645 -0.6354
vn -0.0000 0.7467 -0.6651
vn -0.9903 0.1386 -0.0031
vn 0.1564 -0.8160 0.5565
vn -0.0003 -0.9407 0.3393
vn -0.1086 0.7645 -0.6354
vn -0.3752 -0.9163 -0.1405
vn -0.3310 -0.9289 -0.1663
vn 0.2561 -0.5979 0.7595
vn 0.2251 -0.5990 0.7685
vn 0.5269 -0.5380 0.6580
vn -0.4199 -0.8933 -0.1600
vn -0.4466 -0.8827 -0.1462
vn 0.3263 -0.5937 0.7356
vn -0.2880 -0.9406 -0.1801
vn 0.2880 -0.6047 0.7425
vn 0.4460 -0.5827 0.6793
vn -0.3254 -0.9279 -0.1818
vn -0.8839 -0.0365 -0.4663
vn -0.0018 -0.9844 -0.1761
vn -0.6705 -0.6990 0.2485
vn -0.8593 -0.4777 -0.1829
vn 0.3578 -0.9338 -0.0064
vn 0.3769 -0.6301 -0.6789
vn -0.3030 -0.5856 -0.7518
vn 0.3807 -0.4738 -0.7941
vn -0.4242 -0.4387 -0.7922
vn -0.2936 0.0366 -0.9552
vn -0.3548 -0.2509 -0.9006
vn -0.1587 0.1581 -0.9746
vn 0.0055 -0.5887 -0.8083
vn -0.0314 0.1310 -0.9909
vn 0.0001 0.0917 -0.9958
vn 0.1590 0.1581 -0.9745
vn 0.0316 0.1310 -0.9909
vn 0.2939 0.0363 -0.9552
vn 0.1528 -0.6785 -0.7186
vn 0.3452 -0.2697 -0.8989
vn 0.0070 -0.2952 -0.9554
vn -0.1187 -0.6533 -0.7477
s 1
usemtl tiny_treats_1
f 35//1 19//2 7//3
f 12//4 41//5 35//1
f 17//6 22//7 41//5
f 41//5 6//8 19//2
f 65//9 14//10 11//11
f 65//9 10//12 66//13
f 87//14 103//15 109//16
f 49//17 63//18 36//19
f 19//2 23//20 7//3
f 6//8 42//21 19//2
f 27//22 28//23 42//21
f 42//21 13//24 23//20
f 78//25 10//12 77//26
f 54//27 81//28 55//29
f 33//30 61//31 62//32
f 82//33 43//34 94//35
f 20//36 26//37 43//34
f 43//34 1//38 38//39
f 75//40 11//11 14//10
f 32//41 62//32 63//18
f 63//18 48//42 36//19
f 52//43 82//33 54//27
f 78//25 33//30 32//41
f 62//32 83//44 63//18
f 77//26 11//11 76//45
f 18//46 32//41 49//17
f 26//37 16//47 1//38
f 5//48 44//49 26//37
f 15//50 23//20 44//49
f 44//49 13//24 16//47
f 104//51 37//52 47//53
f 61//31 86//54 85//55
f 76//45 53//56 34//57
f 61//31 84//58 62//32
f 101//59 59//60 87//14
f 53//56 61//31 34//57
f 5//48 45//61 15//50
f 21//62 29//63 45//61
f 45//61 12//4 35//1
f 15//50 35//1 7//3
f 84//58 73//64 83//44
f 66//13 9//65 67//66
f 55//29 80//67 56//68
f 67//66 50//69 40//70
f 80//67 57//71 56//68
f 71//72 84//58 85//55
f 86//54 71//72 85//55
f 88//73 108//74 8//75
f 93//76 65//9 92//77
f 66//13 90//78 91//79
f 65//9 91//79 92//77
f 4//80 46//81 22//7
f 51//82 104//51 24//83
f 22//7 40//70 6//8
f 29//63 37//52 12//4
f 54//27 99//84 52//43
f 83//44 38//39 48//42
f 1//38 48//42 38//39
f 16//47 36//19 48//42
f 28//23 36//19 13//24
f 3//85 49//17 28//23
f 18//46 9//65 78//25
f 40//70 27//22 6//8
f 67//66 46//81 90//78
f 50//69 3//85 27//22
f 4//80 51//82 39//86
f 17//6 37//52 51//82
f 2//87 47//53 29//63
f 21//62 20//36 52//43
f 109//16 99//84 74//88
f 33//30 76//45 34//57
f 2//87 52//43 99//84
f 89//89 116//90 119//91
f 64//92 130//93 14//10
f 14//10 122//94 75//40
f 25//95 101//59 30//96
f 39//86 90//78 46//81
f 55//29 74//88 54//27
f 24//83 107//97 69//98
f 30//96 107//97 25//95
f 30//96 106//99 68//100
f 64//92 118//101 124//102
f 57//71 8//75 56//68
f 56//68 108//74 55//29
f 38//39 94//35 43//34
f 73//64 95//103 94//35
f 72//104 96//105 95//103
f 70//106 96//105 71//72
f 24//83 39//86 51//82
f 68//100 91//79 107//97
f 31//107 115//108 106//99
f 97//109 123//110 117//111
f 60//112 128//113 125//114
f 80//67 97//109 79//115
f 80//67 95//103 96//105
f 81//28 94//35 95//103
f 69//98 91//79 90//78
f 103//15 59//60 25//95
f 87//14 74//88 108//74
f 106//99 92//77 68//100
f 100//116 58//117 31//107
f 60//112 120//118 86//54
f 89//89 100//116 88//73
f 104//51 110//119 105//120
f 105//121 109//16 103//15
f 47//53 99//84 110//119
f 110//122 99//84 109//16
f 25//95 107//97 111//123
f 111//124 107//97 24//83
f 103//15 111//123 105//121
f 105//120 24//83 104//51
f 87//14 108//74 112//125
f 112//126 108//74 88//73
f 101//59 112//125 102//127
f 102//128 88//73 100//116
f 31//107 106//99 113//129
f 113//130 106//99 30//96
f 100//116 113//129 102//128
f 102//127 30//96 101//59
f 79//115 117//111 121//131
f 58//117 119//91 126//132
f 98//133 127//134 116//90
f 79//115 127//134 57//71
f 53//56 122//94 128//113
f 86//54 123//110 70//106
f 58//117 129//135 31//107
f 88//73 98//133 89//89
f 129//135 132//136 115//108
f 133//137 119//91 116//90
f 115//108 135//138 118//101
f 136//139 116//90 127//134
f 121//131 137//140 138//141
f 137//140 123//110 139//142
f 119//91 140//143 126//132
f 142//144 125//114 141//145
f 120//118 139//142 123//110
f 143//146 128//113 122//94
f 144//147 125//114 128//113
f 122//94 145//148 143//146
f 131//149 126//132 140//143
f 145//148 124//102 146//150
f 138//141 127//134 121//131
f 118//101 146//150 124//102
f 93//76 115//108 118//101
f 114//151 132//136 131//149
f 114//151 134//152 133//137
f 114//151 135//138 132//136
f 114//151 133//137 136//139
f 114//151 138//141 137//140
f 114//151 137//140 139//142
f 114//151 140//143 134//152
f 114//151 142//144 141//145
f 114//151 139//142 142//144
f 114//151 144//147 143//146
f 114//151 141//145 144//147
f 114//151 143//146 145//148
f 114//151 131//149 140//143
f 114//151 145//148 146//150
f 114//151 136//139 138//141
f 114//151 146//150 135//138
f 35//1 41//5 19//2
f 12//4 17//6 41//5
f 17//6 4//80 22//7
f 41//5 22//7 6//8
f 65//9 64//92 14//10
f 65//9 11//11 10//12
f 87//14 59//60 103//15
f 49//17 32//41 63//18
f 19//2 42//21 23//20
f 6//8 27//22 42//21
f 27//22 3//85 28//23
f 42//21 28//23 13//24
f 78//25 9//65 10//12
f 54//27 82//33 81//28
f 33//30 34//57 61//31
f 82//33 20//36 43//34
f 20//36 5//48 26//37
f 43//34 26//37 1//38
f 75//40 76//45 11//11
f 32//41 33//30 62//32
f 63//18 83//44 48//42
f 52//43 20//36 82//33
f 78//25 77//26 33//30
f 62//32 84//58 83//44
f 77//26 10//12 11//11
f 18//46 78//25 32//41
f 26//37 44//49 16//47
f 5//48 15//50 44//49
f 15//50 7//3 23//20
f 44//49 23//20 13//24
f 61//31 60//112 86//54
f 76//45 75//40 53//56
f 61//31 85//55 84//58
f 53//56 60//112 61//31
f 5//48 21//62 45//61
f 21//62 2//87 29//63
f 45//61 29//63 12//4
f 15//50 45//61 35//1
f 84//58 72//104 73//64
f 66//13 10//12 9//65
f 55//29 81//28 80//67
f 67//66 9//65 50//69
f 80//67 79//115 57//71
f 71//72 72//104 84//58
f 86//54 70//106 71//72
f 93//76 64//92 65//9
f 66//13 67//66 90//78
f 65//9 66//13 91//79
f 4//80 39//86 46//81
f 51//82 37//52 104//51
f 22//7 46//81 40//70
f 29//63 47//53 37//52
f 54//27 74//88 99//84
f 83//44 73//64 38//39
f 1//38 16//47 48//42
f 16//47 13//24 36//19
f 28//23 49//17 36//19
f 3//85 18//46 49//17
f 18//46 50//69 9//65
f 40//70 50//69 27//22
f 67//66 40//70 46//81
f 50//69 18//46 3//85
f 4//80 17//6 51//82
f 17//6 12//4 37//52
f 2//87 99//84 47//53
f 21//62 5//48 20//36
f 33//30 77//26 76//45
f 2//87 21//62 52//43
f 89//89 98//133 116//90
f 64//92 124//102 130//93
f 14//10 130//93 122//94
f 25//95 59//60 101//59
f 39//86 69//98 90//78
f 55//29 108//74 74//88
f 30//96 68//100 107//97
f 64//92 93//76 118//101
f 57//71 98//133 8//75
f 56//68 8//75 108//74
f 38//39 73//64 94//35
f 73//64 72//104 95//103
f 72//104 71//72 96//105
f 70//106 97//109 96//105
f 24//83 69//98 39//86
f 68//100 92//77 91//79
f 31//107 129//135 115//108
f 97//109 70//106 123//110
f 60//112 53//56 128//113
f 80//67 96//105 97//109
f 80//67 81//28 95//103
f 81//28 82//33 94//35
f 69//98 107//97 91//79
f 87//14 109//16 74//88
f 106//99 93//76 92//77
f 60//112 125//114 120//118
f 89//89 58//117 100//116
f 104//51 47//53 110//119
f 105//121 110//122 109//16
f 103//15 25//95 111//123
f 105//120 111//124 24//83
f 101//59 87//14 112//125
f 102//128 112//126 88//73
f 100//116 31//107 113//129
f 102//127 113//130 30//96
f 79//115 97//109 117//111
f 58//117 89//89 119//91
f 98//133 57//71 127//134
f 79//115 121//131 127//134
f 53//56 75//40 122//94
f 86//54 120//118 123//110
f 58//117 126//132 129//135
f 88//73 8//75 98//133
f 129//135 131//149 132//136
f 133//137 134//152 119//91
f 115//108 132//136 135//138
f 136//139 133//137 116//90
f 121//131 117//111 137//140
f 137//140 117//111 123//110
f 119//91 134//152 140//143
f 142//144 120//118 125//114
f 120//118 142//144 139//142
f 143//146 144//147 128//113
f 144//147 141//145 125//114
f 122//94 130//93 145//148
f 131//149 129//135 126//132
f 145//148 130//93 124//102
f 138//141 136//139 127//134
f 118//101 135//138 146//150
f 93//76 106//99 115//108
