# https://github.com/mikedh/trimesh

o sca_C
v 5.11838360 5.88283030 2.38522681
v 5.11838360 5.91901850 2.16931749
v 5.11838360 8.38683930 2.16931749
v 5.11838360 8.38683930 -4.59145609
v 5.11838360 5.91901850 -4.59145609
v 5.11838360 5.88688723 -4.80741416
v 5.11838360 8.30525590 -5.19607507
v 5.11838360 8.35037812 -4.89684453
v 5.11838360 8.18903809 -5.77606121
v 5.11838360 8.25147629 -5.48914648
v 5.11838360 8.03819075 -6.33141329
v 5.11838360 8.11794250 -6.05681681
v 5.11838360 7.85270779 -6.86213375
v 5.11838360 7.94977796 -6.59985186
v 5.11838360 7.63259287 -7.36822016
v 5.11838360 7.74697902 -7.11825652
v 5.11838360 7.37784353 -7.84967495
v 5.11838360 7.50954811 -7.61202712
v 5.11838360 7.08776759 -8.30185136
v 5.11838360 7.23731340 -8.08000228
v 5.11838360 6.76162898 -8.72011116
v 5.11838360 6.92920856 -8.51521977
v 5.11838360 6.39943012 -9.10445313
v 5.11838360 6.58503616 -8.91652187
v 5.11838360 6.00116493 -9.45487726
v 5.11838360 6.20480353 -9.28390370
v 5.11838360 5.56683828 -9.77138478
v 5.11838360 5.78850944 -9.61737014
v 5.11838360 5.09644895 -10.05397204
v 5.11838360 5.33614901 -9.91691875
v 5.11838360 4.58982023 -10.29746458
v 5.11838360 4.84768691 -10.18125287
v 5.11838360 4.04677421 -10.49668675
v 5.11838360 4.32284893 -10.40260961
v 5.11838360 3.46731088 -10.65163854
v 5.11838360 3.76159364 -10.57969598
v 5.11838360 2.85143145 -10.76231630
v 5.11838360 3.16392226 -10.71251198
v 5.11838360 2.19913350 -10.82872491
v 5.11838360 2.52983479 -10.80105395
v 5.11838360 1.51041946 -10.85085949
v 5.11838360 1.85932880 -10.84532554
v 5.11838360 0.94167305 -10.83372387
v 5.11838360 1.22363635 -10.84657589
v 5.11838360 0.39220833 -10.78231700
v 5.11838360 0.66453078 -10.81230586
v 5.11838360 -0.13797836 -10.69663524
v 5.11838360 0.12470569 -10.74375972
v 5.11838360 -0.64888214 -10.57668345
v 5.11838360 -0.39584016 -10.64094355
v 5.11838360 -1.14050668 -10.42246042
v 5.11838360 -0.89710432 -10.50385492
v 5.11838360 -1.61284709 -10.23396126
v 5.11838360 -1.37908679 -10.33249627
v 5.11838360 -2.06432033 -10.01367329
v 5.11838360 -1.84139638 -10.12747570
v 5.11838360 -2.49329461 -9.76410449
v 5.11838360 -2.28162014 -9.89254914
v 5.11838360 -2.89977725 -9.48525975
v 5.11838360 -2.69934861 -9.62834177
v 5.11838360 -3.28376824 -9.17713785
v 5.11838360 -3.09458420 -9.33485845
v 5.11838360 -3.64526027 -8.83973757
v 5.11838360 -3.46732571 -9.01209796
v 5.11838360 -3.98426432 -8.47306012
v 5.11838360 -3.81757436 -8.66005788
v 5.11838360 -4.29916320 -8.07907366
v 5.11838360 -4.14492798 -8.27923663
v 5.11838360 -4.58835805 -7.65973534
v 5.11838360 -4.44697485 -7.87257241
v 5.11838360 -4.85184641 -7.21505127
v 5.11838360 -4.72331524 -7.44056122
v 5.11838360 -5.08962830 -6.74501536
v 5.11838360 -4.97395036 -6.98320306
v 5.11838360 -5.30170371 -6.24963734
v 5.11838360 -5.19887901 -6.50049670
v 5.11838360 -5.48807386 -5.72890626
v 5.11838360 -5.39810240 -5.99244093
v 5.11838360 -5.64712889 -5.18532646
v 5.11838360 -5.57121593 -5.45965971
v 5.11838360 -5.77726626 -4.62139742
v 5.11838360 -5.71581274 -4.90590529
v 5.11838360 -5.87848355 -4.03711794
v 5.11838360 -5.83149068 -4.33180164
v 5.11838360 -5.95078317 -3.43248799
v 5.11838360 -5.91824852 -3.73734753
v 5.11838360 -5.99416148 -2.80750881
v 5.11838360 -5.97608627 -3.12254297
v 5.11838360 -6.00862092 -2.16218039
v 5.11838360 -6.00500637 -2.48738917
v 5.11838360 -6.00500637 0.02670426
v 5.11838360 -6.00862092 -0.29850330
v 5.11838360 -5.97608627 0.66185928
v 5.11838360 -5.99416148 0.34682512
v 5.11838360 -5.91824730 1.27666384
v 5.11838360 -5.95078317 0.97180552
v 5.11838360 -5.83149068 1.87112282
v 5.11838360 -5.87848233 1.57643668
v 5.11838360 -5.71581274 2.44522891
v 5.11838360 -5.77726504 2.16071739
v 5.11838360 -5.57121593 2.99898454
v 5.11838360 -5.64712889 2.72464886
v 5.11838360 -5.39823401 3.53172190
v 5.11838360 -5.48807264 3.26823353
v 5.11838360 -5.20008427 4.03942060
v 5.11838360 -5.30223748 3.78878425
v 5.11838360 -4.97729681 4.52141038
v 5.11838360 -5.09176827 4.28362727
v 5.11838360 -4.72987530 4.97769490
v 5.11838360 -4.85666623 4.75276747
v 5.11838360 -4.45781851 5.40827417
v 5.11838360 -4.59692525 5.19619754
v 5.11838360 -4.16112402 5.81314573
v 5.11838360 -4.31255144 5.61392356
v 5.11838360 -3.84024271 6.19191109
v 5.11838360 -4.00353991 6.00594189
v 5.11838360 -3.49785444 6.54215608
v 5.11838360 -3.67168211 6.37064875
v 5.11838360 -3.13439914 6.86348342
v 5.11838360 -3.31876093 6.70643553
v 5.11838360 -2.74988291 7.15589188
v 5.11838360 -2.94477273 7.01330342
v 5.11838360 -2.34430208 7.41938025
v 5.11838360 -2.54972481 7.29125001
v 5.11838360 -1.91765666 7.65394730
v 5.11838360 -2.13361108 7.54027894
v 5.11838360 -1.47047433 7.85892765
v 5.11838360 -1.69643519 7.76038655
v 5.11838360 -1.00596993 8.03030215
v 5.11838360 -1.24031884 7.94889911
v 5.11838360 -0.52468453 8.16740174
v 5.11838360 -0.76742516 8.10313555
v 5.11838360 -0.02662180 8.27022644
v 5.11838360 -0.27775049 8.22309830
v 5.11838360 0.48821948 8.33877624
v 5.11838360 0.22870152 8.30878616
v 5.11838360 1.01983932 8.37305114
v 5.11838360 0.75193208 8.36019912
v 5.11838360 1.66164458 8.37166674
v 5.11838360 1.29194120 8.37733596
v 5.11838360 2.36999007 8.32632394
v 5.11838360 2.02099421 8.35466273
v 5.11838360 3.03692051 8.23563957
v 5.11838360 2.70863217 8.28664915
v 5.11838360 3.66243590 8.09961117
v 5.11838360 3.35485630 8.17329276
v 5.11838360 4.24653624 7.91823876
v 5.11838360 3.95966295 8.01459236
v 5.11838360 4.78922033 7.69152478
v 5.11838360 4.52305578 7.81055038
v 5.11838360 5.29093783 7.42107419
v 5.11838360 5.04503233 7.56116317
v 5.11838360 5.75436493 7.11652784
v 5.11838360 5.52738162 7.27286282
v 5.11838360 6.17994890 6.77949438
v 5.11838360 5.97188655 6.95207170
v 5.11838360 6.56768850 6.40996648
v 5.11838360 6.37854833 6.59878980
v 5.11838360 6.91758373 6.00795024
v 5.11838360 6.74736696 6.21301956
v 5.11838360 7.22963582 5.57344323
v 5.11838360 7.07834002 5.79475854
v 5.11838360 7.50419209 5.10792246
v 5.11838360 7.37146871 5.34400919
v 5.11838360 7.74339493 4.62021836
v 5.11838360 7.62816668 4.86665885
v 5.11838360 7.94760874 4.11181162
v 5.11838360 7.84987562 4.36860343
v 5.11838360 8.11683839 3.58269614
v 5.11838360 8.03659674 3.84984171
v 5.11838360 8.25108023 3.03287435
v 5.11838360 8.18833127 3.31037246
v 5.11838360 8.35033302 2.46234503
v 5.11838360 8.30508163 2.75019813
v 5.11838360 5.85047358 -5.01828309
v 5.11838360 5.84280332 2.59596047
v 5.11838360 5.80977389 -5.22406654
v 5.11838360 5.79893876 2.80151725
v 5.11838360 5.76479060 -5.42476085
v 5.11838360 5.71552370 -5.62036968
v 5.11838360 5.75123297 3.00189837
v 5.11838360 5.66197199 -5.81089060
v 5.11838360 5.69968961 3.19710260
v 5.11838360 5.60413668 -5.99632237
v 5.11838360 5.64430747 3.38712996
v 5.11838360 5.54201777 -6.17666745
v 5.11838360 5.58508897 3.57198043
v 5.11838360 5.47561403 -6.35192461
v 5.11838360 5.52202682 3.75165402
v 5.11838360 5.40492792 -6.52209628
v 5.11838360 5.45512831 3.92615195
v 5.11838360 5.32995698 -6.68717639
v 5.11838360 5.38439222 4.09547300
v 5.11838360 5.25070123 -6.84717223
v 5.11838360 5.30981492 4.25961839
v 5.11838360 5.16644164 -7.00162559
v 5.11838360 5.23140126 4.41858690
v 5.11838360 5.07646531 -7.15009653
v 5.11838360 5.14789725 4.57193128
v 5.11838360 4.98077710 -7.29259237
v 5.11838360 5.05805862 4.71920549
v 5.11838360 4.87937824 -7.42910823
v 5.11838360 4.96188173 4.86041077
v 5.11838360 4.77226507 -7.55964654
v 5.11838360 4.85936657 4.99554588
v 5.11838360 4.65944124 -7.68420366
v 5.11838360 4.75051559 5.12461205
v 5.11838360 4.54090431 -7.80278323
v 5.11838360 4.63532877 5.24760806
v 5.11838360 4.41665674 -7.91538527
v 5.11838360 4.51380368 5.36453513
v 5.11838360 4.38594277 5.47539325
v 5.11838360 4.28669607 -8.02200610
v 5.11838360 4.25174359 5.58018122
v 5.11838360 4.15102109 -8.12264817
v 5.11838360 4.11120615 5.67890024
v 5.11838360 4.00963545 -8.21731270
v 5.11838360 3.96433287 5.77154910
v 5.11838360 3.86253794 -8.30599969
v 5.11838360 3.70874510 -8.38811443
v 5.11838360 3.81112133 5.85812902
v 5.11838360 3.54727833 -8.46309024
v 5.11838360 3.65028217 5.93819397
v 5.11838360 3.37813399 -8.53092590
v 5.11838360 3.48051387 6.01129669
v 5.11838360 3.20131450 -8.59162142
v 5.11838360 3.30182130 6.07743719
v 5.11838360 3.01681866 -8.64517679
v 5.11838360 3.11420325 6.13661547
v 5.11838360 2.82464646 -8.69158835
v 5.11838360 2.91765970 6.18883031
v 5.11838360 2.62479912 -8.73086221
v 5.11838360 2.71219066 6.23408537
v 5.11838360 2.41727542 -8.76299591
v 5.11838360 2.49779492 6.27237698
v 5.11838360 2.20207536 -8.78798704
v 5.11838360 2.27447613 6.30370637
v 5.11838360 1.97920016 -8.80583802
v 5.11838360 2.04223063 6.32807232
v 5.11838360 1.74864860 -8.81654885
v 5.11838360 1.80105842 6.34547727
v 5.11838360 1.51042068 -8.82011709
v 5.11838360 1.55096316 6.35592121
v 5.11838360 1.30473107 -8.81681573
v 5.11838360 1.29193998 6.35940293
v 5.11838360 1.10323609 -8.80690800
v 5.11838360 1.08646485 6.35578838
v 5.11838360 0.90593576 -8.79039512
v 5.11838360 0.88563161 6.34494349
v 5.11838360 0.71283006 -8.76727708
v 5.11838360 0.68944148 6.32686828
v 5.11838360 0.52391900 -8.73755510
v 5.11838360 0.49789323 6.30156396
v 5.11838360 0.33920258 -8.70122676
v 5.11838360 0.31098565 6.26903053
v 5.11838360 0.15867958 -8.65829204
v 5.11838360 0.12872118 6.22926434
v 5.11838360 -0.01764635 -8.60875460
v 5.11838360 -0.04890018 6.18227025
v 5.11838360 -0.18978007 -8.55261079
v 5.11838360 -0.22187844 6.12804462
v 5.11838360 -0.35771672 -8.48986183
v 5.11838360 -0.39021603 6.06659231
v 5.11838360 -0.52146117 -8.42050650
v 5.11838360 -0.55391173 5.99790724
v 5.11838360 -0.68100854 -8.34454844
v 5.11838360 -0.71296432 5.92199306
v 5.11838360 -0.83631862 -8.26251901
v 5.11838360 -0.86737381 5.83884855
v 5.11838360 -0.98734144 -8.17495685
v 5.11838360 -1.01724013 5.74936822
v 5.11838360 -1.13408311 -8.08185708
v 5.11838360 -1.16264247 5.65444289
v 5.11838360 -1.27653873 -7.98322702
v 5.11838360 -1.30358208 5.55407380
v 5.11838360 -1.41470953 -7.87905814
v 5.11838360 -1.44005894 5.44825972
v 5.11838360 -1.54859673 -7.76936018
v 5.11838360 -1.57207184 5.33699944
v 5.11838360 -1.67819911 -7.65412462
v 5.11838360 -1.69962077 5.22029538
v 5.11838360 -1.80351790 -7.53335389
v 5.11838360 -1.82270818 5.09814756
v 5.11838360 -1.92455064 -7.40705042
v 5.11838360 -1.94133285 4.97055354
v 5.11838360 -2.04130100 -7.27521180
v 5.11838360 -2.05549477 4.83751452
v 5.11838360 -2.15376533 -7.13783922
v 5.11838360 -2.16519151 4.69903053
v 5.11838360 -2.26194605 -6.99493269
v 5.11838360 -2.27042429 4.55510276
v 5.11838360 -2.36579686 -6.84685781
v 5.11838360 -2.37119798 4.40573000
v 5.11838360 -2.46527511 -6.69396190
v 5.11838360 -2.46763810 4.25158131
v 5.11838360 -2.56037958 -6.53624740
v 5.11838360 -2.55988724 4.09332816
v 5.11838360 -2.65110905 -6.37371187
v 5.11838360 -2.64794174 3.93096933
v 5.11838360 -2.73746595 -6.20635652
v 5.11838360 -2.73179917 3.76450239
v 5.11838360 -2.81944907 -6.03418136
v 5.11838360 -2.81146195 3.59393221
v 5.11838360 -2.89705963 -5.85718639
v 5.11838360 -2.88692767 3.41925392
v 5.11838360 -2.97029397 -5.67537039
v 5.11838360 -2.95819996 3.24047360
v 5.11838360 -3.03915575 -5.48873335
v 5.11838360 -3.02527761 3.05758518
v 5.11838360 -3.10364496 -5.29727651
v 5.11838360 -3.08815941 2.87058986
v 5.11838360 -3.16375917 -5.10099985
v 5.11838360 -3.14684779 2.67949008
v 5.11838360 -3.21949960 -4.89990459
v 5.11838360 -3.20133909 2.48428340
v 5.11838360 -3.27082238 -4.69452330
v 5.11838360 -3.25163697 2.28497106
v 5.11838360 -3.31768485 -4.48539340
v 5.11838360 -3.29782674 2.08244509
v 5.11838360 -3.36008092 -4.27251368
v 5.11838360 -3.34000101 1.87760123
v 5.11838360 -3.39801547 -4.05588657
v 5.11838360 -3.37815735 1.67043582
v 5.11838360 -3.43148727 -3.83551084
v 5.11838360 -3.41229698 1.46095007
v 5.11838360 -3.46049632 -3.61138651
v 5.11838360 -3.44242233 1.24914033
v 5.11838360 -3.48504264 -3.38351480
v 5.11838360 -3.50512620 -3.15189203
v 5.11838360 -3.46852975 1.03501270
v 5.11838360 -3.52074581 -2.91652188
v 5.11838360 -3.49062046 0.81856107
v 5.11838360 -3.53190389 -2.67740434
v 5.11838360 -3.50869445 0.59979033
v 5.11838360 -3.53859679 -2.43453575
v 5.11838360 -3.52275295 0.37869803
v 5.11838360 -3.54082938 -2.18792100
v 5.11838360 -3.53279351 0.15528540
v 5.11838360 -3.54082938 -0.29850574
v 5.11838360 -3.53882102 -0.07044756
v -5.11838638 8.38683930 2.16931749
v -5.11838638 5.91901850 2.16931749
v -5.11838638 5.88283030 2.38522681
v -5.11838638 5.88688602 -4.80741416
v -5.11838638 5.91901729 -4.59145609
v -5.11838638 8.38683930 -4.59145609
v -5.11838638 8.35037812 -4.89684453
v -5.11838638 8.30525590 -5.19607507
v -5.11838638 8.25147629 -5.48914648
v -5.11838638 8.18903809 -5.77606121
v -5.11838638 8.11794250 -6.05681681
v -5.11838638 8.03818953 -6.33141329
v -5.11838638 7.94977675 -6.59985186
v -5.11838638 7.85270657 -6.86213375
v -5.11838638 7.74697902 -7.11825652
v -5.11838638 7.63259165 -7.36822016
v -5.11838638 7.50954689 -7.61202712
v -5.11838638 7.37784353 -7.84967495
v -5.11838638 7.23731218 -8.08000228
v -5.11838638 7.08776759 -8.30185136
v -5.11838638 6.92920734 -8.51521977
v -5.11838638 6.76162898 -8.72011116
v -5.11838638 6.58503616 -8.91652187
v -5.11838638 6.39942890 -9.10445313
v -5.11838638 6.20480353 -9.28390370
v -5.11838638 6.00116371 -9.45487726
v -5.11838638 5.78850822 -9.61737014
v -5.11838638 5.56683828 -9.77138478
v -5.11838638 5.33614901 -9.91691875
v -5.11838638 5.09644773 -10.05397204
v -5.11838638 4.84768569 -10.18125287
v -5.11838638 4.58981901 -10.29746458
v -5.11838638 4.32284771 -10.40260961
v -5.11838638 4.04677299 -10.49668675
v -5.11838638 3.76159364 -10.57969598
v -5.11838638 3.46730966 -10.65163854
v -5.11838638 3.16392104 -10.71251198
v -5.11838638 2.85143024 -10.76231630
v -5.11838638 2.52983358 -10.80105395
v -5.11838638 2.19913228 -10.82872491
v -5.11838638 1.85932758 -10.84532554
v -5.11838638 1.51041946 -10.85085949
v -5.11838638 1.22363391 -10.84657589
v -5.11838638 0.94167183 -10.83372387
v -5.11838638 0.66452835 -10.81230586
v -5.11838638 0.39220711 -10.78231700
v -5.11838638 0.12470447 -10.74375972
v -5.11838638 -0.13797836 -10.69663524
v -5.11838638 -0.39584016 -10.64094355
v -5.11838638 -0.64888214 -10.57668345
v -5.11838638 -0.89710554 -10.50385492
v -5.11838638 -1.14050668 -10.42246042
v -5.11838638 -1.37908679 -10.33249627
v -5.11838638 -1.61284831 -10.23396126
v -5.11838638 -1.84139638 -10.12747570
v -5.11838638 -2.06432033 -10.01367329
v -5.11838638 -2.28162014 -9.89254914
v -5.11838638 -2.49329583 -9.76410449
v -5.11838638 -2.69934861 -9.62834177
v -5.11838638 -2.89977847 -9.48525975
v -5.11838638 -3.09458420 -9.33485845
v -5.11838638 -3.28376824 -9.17713785
v -5.11838638 -3.46732693 -9.01209796
v -5.11838638 -3.64526149 -8.83973757
v -5.11838638 -3.81757436 -8.66005788
v -5.11838638 -3.98426432 -8.47306012
v -5.11838638 -4.14492920 -8.27923663
v -5.11838638 -4.29916564 -8.07907366
v -5.11838638 -4.44697485 -7.87257241
v -5.11838638 -4.58835805 -7.65973534
v -5.11838638 -4.72331524 -7.44056122
v -5.11838638 -4.85184641 -7.21505127
v -5.11838638 -4.97395036 -6.98320306
v -5.11838638 -5.08962952 -6.74501536
v -5.11838638 -5.19887901 -6.50049670
v -5.11838638 -5.30170493 -6.24963734
v -5.11838638 -5.39810240 -5.99244093
v -5.11838638 -5.48807386 -5.72890626
v -5.11838638 -5.57121714 -5.45965971
v -5.11838638 -5.64713011 -5.18532646
v -5.11838638 -5.71581274 -4.90590529
v -5.11838638 -5.77726748 -4.62139742
v -5.11838638 -5.83149068 -4.33180164
v -5.11838638 -5.87848476 -4.03711794
v -5.11838638 -5.91824974 -3.73734753
v -5.11838638 -5.95078439 -3.43248799
v -5.11838638 -5.97608627 -3.12254297
v -5.11838638 -5.99416270 -2.80750881
v -5.11838638 -6.00500637 -2.48738917
v -5.11838638 -6.00862092 -2.16218039
v -5.11838638 -6.00862092 -0.29850330
v -5.11838638 -6.00500637 0.02670426
v -5.11838638 -5.99416148 0.34682512
v -5.11838638 -5.97608627 0.66185928
v -5.11838638 -5.95078439 0.97180552
v -5.11838638 -5.91824852 1.27666384
v -5.11838638 -5.87848355 1.57643668
v -5.11838638 -5.83149068 1.87112282
v -5.11838638 -5.77726626 2.16071739
v -5.11838638 -5.71581274 2.44522891
v -5.11838638 -5.64713011 2.72464886
v -5.11838638 -5.57121714 2.99898454
v -5.11838638 -5.48807264 3.26823353
v -5.11838638 -5.39823523 3.53172190
v -5.11838638 -5.30223870 3.78878425
v -5.11838638 -5.20008427 4.03942060
v -5.11838638 -5.09176827 4.28362727
v -5.11838638 -4.97729681 4.52141038
v -5.11838638 -4.85666623 4.75276747
v -5.11838638 -4.72987652 4.97769490
v -5.11838638 -4.59692525 5.19619754
v -5.11838638 -4.45781851 5.40827417
v -5.11838638 -4.31255144 5.61392356
v -5.11838638 -4.16112524 5.81314573
v -5.11838638 -4.00354235 6.00594189
v -5.11838638 -3.84024393 6.19191109
v -5.11838638 -3.67168333 6.37064875
v -5.11838638 -3.49785444 6.54215608
v -5.11838638 -3.31876093 6.70643553
v -5.11838638 -3.13439914 6.86348342
v -5.11838638 -2.94477395 7.01330342
v -5.11838638 -2.74988291 7.15589188
v -5.11838638 -2.54972481 7.29125001
v -5.11838638 -2.34430330 7.41938025
v -5.11838638 -2.13361108 7.54027894
v -5.11838638 -1.91765666 7.65394730
v -5.11838638 -1.69643519 7.76038655
v -5.11838638 -1.47047555 7.85892765
v -5.11838638 -1.24031884 7.94889911
v -5.11838638 -1.00596993 8.03030215
v -5.11838638 -0.76742516 8.10313555
v -5.11838638 -0.52468575 8.16740174
v -5.11838638 -0.27775049 8.22309830
v -5.11838638 -0.02662180 8.27022644
v -5.11838638 0.22870152 8.30878616
v -5.11838638 0.48821826 8.33877624
v -5.11838638 0.75193086 8.36019912
v -5.11838638 1.01983810 8.37305114
v -5.11838638 1.29193998 8.37733596
v -5.11838638 1.66164458 8.37166674
v -5.11838638 2.02099299 8.35466273
v -5.11838638 2.36998885 8.32632394
v -5.11838638 2.70863095 8.28664915
v -5.11838638 3.03691929 8.23563957
v -5.11838638 3.35485508 8.17329276
v -5.11838638 3.66243468 8.09961117
v -5.11838638 3.95966173 8.01459236
v -5.11838638 4.24653503 7.91823876
v -5.11838638 4.52305578 7.81055038
v -5.11838638 4.78922033 7.69152478
v -5.11838638 5.04503233 7.56116317
v -5.11838638 5.29093661 7.42107419
v -5.11838638 5.52738162 7.27286282
v -5.11838638 5.75436372 7.11652784
v -5.11838638 5.97188655 6.95207170
v -5.11838638 6.17994768 6.77949438
v -5.11838638 6.37854711 6.59878980
v -5.11838638 6.56768728 6.40996648
v -5.11838638 6.74736574 6.21301956
v -5.11838638 6.91758251 6.00795024
v -5.11838638 7.07833880 5.79475854
v -5.11838638 7.22963582 5.57344323
v -5.11838638 7.37146871 5.34400919
v -5.11838638 7.50419087 5.10792246
v -5.11838638 7.62816668 4.86665885
v -5.11838638 7.74339371 4.62021836
v -5.11838638 7.84987318 4.36860343
v -5.11838638 7.94760874 4.11181162
v -5.11838638 8.03659552 3.84984171
v -5.11838638 8.11683839 3.58269614
v -5.11838638 8.18833127 3.31037246
v -5.11838638 8.25108023 3.03287435
v -5.11838638 8.30508163 2.75019813
v -5.11838638 8.35033302 2.46234503
v -5.11838638 5.85047236 -5.01828309
v -5.11838638 5.84280332 2.59596047
v -5.11838638 5.80977267 -5.22406654
v -5.11838638 5.79893754 2.80151725
v -5.11838638 5.76479060 -5.42476085
v -5.11838638 5.71552249 -5.62036968
v -5.11838638 5.75123175 3.00189837
v -5.11838638 5.66197199 -5.81089060
v -5.11838638 5.69968961 3.19710260
v -5.11838638 5.60413546 -5.99632237
v -5.11838638 5.64430747 3.38712996
v -5.11838638 5.54201777 -6.17666745
v -5.11838638 5.58508776 3.57198043
v -5.11838638 5.47561403 -6.35192461
v -5.11838638 5.52202682 3.75165402
v -5.11838638 5.40492670 -6.52209628
v -5.11838638 5.45512709 3.92615195
v -5.11838638 5.32995698 -6.68717639
v -5.11838638 5.38439222 4.09547300
v -5.11838638 5.25070123 -6.84717223
v -5.11838638 5.30981370 4.25961839
v -5.11838638 5.16644042 -7.00162559
v -5.11838638 5.23140126 4.41858690
v -5.11838638 5.07646409 -7.15009653
v -5.11838638 5.14789603 4.57193128
v -5.11838638 4.98077588 -7.29259237
v -5.11838638 5.05805862 4.71920549
v -5.11838638 4.87937702 -7.42910823
v -5.11838638 4.96188173 4.86041077
v -5.11838638 4.77226507 -7.55964654
v -5.11838638 4.85936657 4.99554588
v -5.11838638 4.65944124 -7.68420366
v -5.11838638 4.75051559 5.12461205
v -5.11838638 4.54090431 -7.80278323
v -5.11838638 4.63532877 5.24760806
v -5.11838638 4.41665552 -7.91538527
v -5.11838638 4.51380368 5.36453513
v -5.11838638 4.38594033 5.47539325
v -5.11838638 4.28669485 -8.02200610
v -5.11838638 4.25174115 5.58018122
v -5.11838638 4.15102109 -8.12264817
v -5.11838638 4.11120493 5.67890024
v -5.11838638 4.00963423 -8.21731270
v -5.11838638 3.96433165 5.77154910
v -5.11838638 3.86253672 -8.30599969
v -5.11838638 3.70874510 -8.38811443
v -5.11838638 3.81112133 5.85812902
v -5.11838638 3.54727711 -8.46309024
v -5.11838638 3.65028095 5.93819397
v -5.11838638 3.37813277 -8.53092590
v -5.11838638 3.48051265 6.01129669
v -5.11838638 3.20131328 -8.59162142
v -5.11838638 3.30182008 6.07743719
v -5.11838638 3.01681744 -8.64517679
v -5.11838638 3.11420203 6.13661547
v -5.11838638 2.82464646 -8.69158835
v -5.11838638 2.91765848 6.18883031
v -5.11838638 2.62479790 -8.73086221
v -5.11838638 2.71218945 6.23408537
v -5.11838638 2.41727420 -8.76299591
v -5.11838638 2.49779370 6.27237698
v -5.11838638 2.20207536 -8.78798704
v -5.11838638 2.27447491 6.30370637
v -5.11838638 1.97919894 -8.80583802
v -5.11838638 2.04222941 6.32807232
v -5.11838638 1.74864738 -8.81654885
v -5.11838638 1.80105842 6.34547727
v -5.11838638 1.51041946 -8.82011709
v -5.11838638 1.55096195 6.35592121
v -5.11838638 1.30472985 -8.81681573
v -5.11838638 1.29193998 6.35940293
v -5.11838638 1.10323487 -8.80690800
v -5.11838638 1.08646485 6.35578838
v -5.11838638 0.90593454 -8.79039512
v -5.11838638 0.88563161 6.34494349
v -5.11838638 0.71282884 -8.76727708
v -5.11838638 0.68944026 6.32686828
v -5.11838638 0.52391778 -8.73755510
v -5.11838638 0.49789201 6.30156396
v -5.11838638 0.33920136 -8.70122676
v -5.11838638 0.31098444 6.26903053
v -5.11838638 0.15867958 -8.65829204
v -5.11838638 0.12872118 6.22926434
v -5.11838638 -0.01764635 -8.60875460
v -5.11838638 -0.04890018 6.18227025
v -5.11838638 -0.18978007 -8.55261079
v -5.11838638 -0.22187966 6.12804462
v -5.11838638 -0.35771672 -8.48986183
v -5.11838638 -0.39021725 6.06659231
v -5.11838638 -0.52146117 -8.42050650
v -5.11838638 -0.55391173 5.99790724
v -5.11838638 -0.68100854 -8.34454844
v -5.11838638 -0.71296432 5.92199306
v -5.11838638 -0.83631862 -8.26251901
v -5.11838638 -0.86737503 5.83884855
v -5.11838638 -0.98734266 -8.17495685
v -5.11838638 -1.01724013 5.74936822
v -5.11838638 -1.13408311 -8.08185708
v -5.11838638 -1.16264247 5.65444289
v -5.11838638 -1.27653873 -7.98322702
v -5.11838638 -1.30358330 5.55407380
v -5.11838638 -1.41471075 -7.87905814
v -5.11838638 -1.44006016 5.44825972
v -5.11838638 -1.54859795 -7.76936018
v -5.11838638 -1.57207184 5.33699944
v -5.11838638 -1.67820033 -7.65412462
v -5.11838638 -1.69962321 5.22029538
v -5.11838638 -1.80351912 -7.53335389
v -5.11838638 -1.82270818 5.09814756
v -5.11838638 -1.92455186 -7.40705042
v -5.11838638 -1.94133285 4.97055354
v -5.11838638 -2.04130100 -7.27521180
v -5.11838638 -2.05549477 4.83751452
v -5.11838638 -2.15376654 -7.13783922
v -5.11838638 -2.16519273 4.69903053
v -5.11838638 -2.26194605 -6.99493269
v -5.11838638 -2.27042551 4.55510276
v -5.11838638 -2.36579808 -6.84685781
v -5.11838638 -2.37119798 4.40573000
v -5.11838638 -2.46527633 -6.69396190
v -5.11838638 -2.46763932 4.25158131
v -5.11838638 -2.56037958 -6.53624740
v -5.11838638 -2.55988846 4.09332816
v -5.11838638 -2.65111026 -6.37371187
v -5.11838638 -2.64794174 3.93096933
v -5.11838638 -2.73746717 -6.20635652
v -5.11838638 -2.73179917 3.76450239
v -5.11838638 -2.81944907 -6.03418136
v -5.11838638 -2.81146195 3.59393221
v -5.11838638 -2.89705963 -5.85718639
v -5.11838638 -2.88692888 3.41925392
v -5.11838638 -2.97029519 -5.67537039
v -5.11838638 -2.95820118 3.24047360
v -5.11838638 -3.03915697 -5.48873335
v -5.11838638 -3.02527761 3.05758518
v -5.11838638 -3.10364496 -5.29727651
v -5.11838638 -3.08815941 2.87058986
v -5.11838638 -3.16375917 -5.10099985
v -5.11838638 -3.14684779 2.67949008
v -5.11838638 -3.21950082 -4.89990459
v -5.11838638 -3.20134031 2.48428340
v -5.11838638 -3.27082238 -4.69452330
v -5.11838638 -3.25163697 2.28497106
v -5.11838638 -3.31768485 -4.48539340
v -5.11838638 -3.29782674 2.08244509
v -5.11838638 -3.36008214 -4.27251368
v -5.11838638 -3.34000223 1.87760123
v -5.11838638 -3.39801669 -4.05588657
v -5.11838638 -3.37815857 1.67043582
v -5.11838638 -3.43148849 -3.83551084
v -5.11838638 -3.41229942 1.46095007
v -5.11838638 -3.46049632 -3.61138651
v -5.11838638 -3.44242233 1.24914033
v -5.11838638 -3.48504264 -3.38351480
v -5.11838638 -3.50512620 -3.15189203
v -5.11838638 -3.46852975 1.03501270
v -5.11838638 -3.52074703 -2.91652188
v -5.11838638 -3.49062046 0.81856107
v -5.11838638 -3.53190389 -2.67740434
v -5.11838638 -3.50869445 0.59979033
v -5.11838638 -3.53859679 -2.43453575
v -5.11838638 -3.52275417 0.37869803
v -5.11838638 -3.54082938 -2.18792100
v -5.11838638 -3.53279595 0.15528540
v -5.11838638 -3.54082938 -0.29850574
v -5.11838638 -3.53882102 -0.07044756
f 1 2 3
f 4 5 6
f 7 8 4
f 9 10 7
f 11 12 9
f 13 14 11
f 15 16 13
f 17 18 15
f 19 20 17
f 21 22 19
f 23 24 21
f 25 26 23
f 27 28 25
f 29 30 27
f 31 32 29
f 33 34 31
f 35 36 33
f 37 38 35
f 39 40 37
f 41 42 39
f 43 44 41
f 45 46 43
f 47 48 45
f 49 50 47
f 51 52 49
f 53 54 51
f 55 56 53
f 57 58 55
f 59 60 57
f 61 62 59
f 63 64 61
f 65 66 63
f 67 68 65
f 69 70 67
f 71 72 69
f 73 74 71
f 75 76 73
f 77 78 75
f 79 80 77
f 81 82 79
f 83 84 81
f 85 86 83
f 87 88 85
f 89 90 87
f 91 92 89
f 93 94 91
f 95 96 93
f 97 98 95
f 99 100 97
f 101 102 99
f 103 104 101
f 105 106 103
f 107 108 105
f 109 110 107
f 111 112 109
f 113 114 111
f 115 116 113
f 117 118 115
f 119 120 117
f 121 122 119
f 123 124 121
f 125 126 123
f 127 128 125
f 129 130 127
f 131 132 129
f 133 134 131
f 135 136 133
f 137 138 135
f 139 140 137
f 141 142 139
f 143 144 141
f 145 146 143
f 147 148 145
f 149 150 147
f 151 152 149
f 153 154 151
f 155 156 153
f 157 158 155
f 159 160 157
f 161 162 159
f 163 164 161
f 165 166 163
f 167 168 165
f 169 170 167
f 171 172 169
f 173 174 171
f 1 3 173
f 4 6 175
f 9 7 4
f 13 11 9
f 17 15 13
f 21 19 17
f 25 23 21
f 29 27 25
f 33 31 29
f 37 35 33
f 41 39 37
f 45 43 41
f 49 47 45
f 53 51 49
f 57 55 53
f 61 59 57
f 65 63 61
f 69 67 65
f 73 71 69
f 77 75 73
f 81 79 77
f 85 83 81
f 89 87 85
f 93 91 89
f 97 95 93
f 101 99 97
f 105 103 101
f 109 107 105
f 113 111 109
f 117 115 113
f 121 119 117
f 125 123 121
f 129 127 125
f 133 131 129
f 137 135 133
f 141 139 137
f 145 143 141
f 149 147 145
f 153 151 149
f 157 155 153
f 161 159 157
f 165 163 161
f 169 167 165
f 173 171 169
f 176 1 173
f 4 175 177
f 13 9 4
f 21 17 13
f 29 25 21
f 37 33 29
f 45 41 37
f 53 49 45
f 61 57 53
f 69 65 61
f 77 73 69
f 85 81 77
f 93 89 85
f 101 97 93
f 109 105 101
f 117 113 109
f 125 121 117
f 133 129 125
f 141 137 133
f 149 145 141
f 157 153 149
f 165 161 157
f 173 169 165
f 178 176 173
f 4 177 179
f 21 13 4
f 37 29 21
f 53 45 37
f 69 61 53
f 85 77 69
f 101 93 85
f 117 109 101
f 133 125 117
f 149 141 133
f 165 157 149
f 178 173 165
f 4 179 180
f 37 21 4
f 69 53 37
f 101 85 69
f 133 117 101
f 165 149 133
f 181 178 165
f 4 180 182
f 183 181 165
f 4 182 184
f 185 183 165
f 4 184 186
f 187 185 165
f 4 186 188
f 189 187 165
f 4 188 190
f 191 189 165
f 4 190 192
f 193 191 165
f 4 192 194
f 195 193 165
f 4 194 196
f 197 195 165
f 4 196 198
f 199 197 165
f 4 198 200
f 201 199 165
f 4 200 202
f 203 201 165
f 4 202 204
f 205 203 165
f 4 204 206
f 207 205 165
f 4 206 208
f 209 207 165
f 4 208 210
f 211 209 165
f 37 4 210
f 212 211 165
f 37 210 213
f 214 212 165
f 37 213 215
f 216 214 165
f 37 215 217
f 218 216 165
f 37 217 219
f 218 165 133
f 37 219 220
f 221 218 133
f 37 220 222
f 223 221 133
f 37 222 224
f 225 223 133
f 37 224 226
f 227 225 133
f 37 226 228
f 229 227 133
f 37 228 230
f 231 229 133
f 37 230 232
f 233 231 133
f 37 232 234
f 235 233 133
f 37 234 236
f 237 235 133
f 37 236 238
f 239 237 133
f 37 238 240
f 241 239 133
f 37 240 242
f 243 241 133
f 37 242 244
f 245 243 133
f 37 244 246
f 247 245 133
f 37 246 248
f 249 247 133
f 37 248 250
f 251 249 133
f 37 250 252
f 253 251 133
f 37 252 254
f 255 253 133
f 37 254 256
f 257 255 133
f 37 256 258
f 259 257 133
f 37 258 260
f 261 259 133
f 37 260 262
f 263 261 133
f 37 262 264
f 265 263 133
f 37 264 266
f 267 265 133
f 37 266 268
f 269 267 133
f 37 268 270
f 271 269 133
f 37 270 272
f 271 133 101
f 69 37 272
f 273 271 101
f 69 272 274
f 275 273 101
f 69 274 276
f 277 275 101
f 69 276 278
f 279 277 101
f 69 278 280
f 281 279 101
f 69 280 282
f 283 281 101
f 69 282 284
f 285 283 101
f 69 284 286
f 287 285 101
f 69 286 288
f 289 287 101
f 69 288 290
f 291 289 101
f 69 290 292
f 293 291 101
f 69 292 294
f 295 293 101
f 69 294 296
f 297 295 101
f 69 296 298
f 299 297 101
f 69 298 300
f 301 299 101
f 69 300 302
f 303 301 101
f 69 302 304
f 305 303 101
f 69 304 306
f 307 305 101
f 69 306 308
f 309 307 101
f 69 308 310
f 311 309 101
f 69 310 312
f 313 311 101
f 69 312 314
f 315 313 101
f 69 314 316
f 317 315 101
f 69 316 318
f 319 317 101
f 69 318 320
f 321 319 101
f 69 320 322
f 323 321 101
f 69 322 324
f 325 323 101
f 69 324 326
f 327 325 101
f 69 326 328
f 327 101 69
f 69 328 329
f 330 327 69
f 69 329 331
f 332 330 69
f 69 331 333
f 334 332 69
f 69 333 335
f 336 334 69
f 69 335 337
f 338 336 69
f 69 337 339
f 340 338 69
f 69 339 340
f 341 342 343
f 344 345 346
f 346 347 348
f 348 349 350
f 350 351 352
f 352 353 354
f 354 355 356
f 356 357 358
f 358 359 360
f 360 361 362
f 362 363 364
f 364 365 366
f 366 367 368
f 368 369 370
f 370 371 372
f 372 373 374
f 374 375 376
f 376 377 378
f 378 379 380
f 380 381 382
f 382 383 384
f 384 385 386
f 386 387 388
f 388 389 390
f 390 391 392
f 392 393 394
f 394 395 396
f 396 397 398
f 398 399 400
f 400 401 402
f 402 403 404
f 404 405 406
f 406 407 408
f 408 409 410
f 410 411 412
f 412 413 414
f 414 415 416
f 416 417 418
f 418 419 420
f 420 421 422
f 422 423 424
f 424 425 426
f 426 427 428
f 428 429 430
f 430 431 432
f 432 433 434
f 434 435 436
f 436 437 438
f 438 439 440
f 440 441 442
f 442 443 444
f 444 445 446
f 446 447 448
f 448 449 450
f 450 451 452
f 452 453 454
f 454 455 456
f 456 457 458
f 458 459 460
f 460 461 462
f 462 463 464
f 464 465 466
f 466 467 468
f 468 469 470
f 470 471 472
f 472 473 474
f 474 475 476
f 476 477 478
f 478 479 480
f 480 481 482
f 482 483 484
f 484 485 486
f 486 487 488
f 488 489 490
f 490 491 492
f 492 493 494
f 494 495 496
f 496 497 498
f 498 499 500
f 500 501 502
f 502 503 504
f 504 505 506
f 506 507 508
f 508 509 510
f 510 511 512
f 512 513 514
f 514 341 343
f 515 344 346
f 346 348 350
f 350 352 354
f 354 356 358
f 358 360 362
f 362 364 366
f 366 368 370
f 370 372 374
f 374 376 378
f 378 380 382
f 382 384 386
f 386 388 390
f 390 392 394
f 394 396 398
f 398 400 402
f 402 404 406
f 406 408 410
f 410 412 414
f 414 416 418
f 418 420 422
f 422 424 426
f 426 428 430
f 430 432 434
f 434 436 438
f 438 440 442
f 442 444 446
f 446 448 450
f 450 452 454
f 454 456 458
f 458 460 462
f 462 464 466
f 466 468 470
f 470 472 474
f 474 476 478
f 478 480 482
f 482 484 486
f 486 488 490
f 490 492 494
f 494 496 498
f 498 500 502
f 502 504 506
f 506 508 510
f 510 512 514
f 514 343 516
f 517 515 346
f 346 350 354
f 354 358 362
f 362 366 370
f 370 374 378
f 378 382 386
f 386 390 394
f 394 398 402
f 402 406 410
f 410 414 418
f 418 422 426
f 426 430 434
f 434 438 442
f 442 446 450
f 450 454 458
f 458 462 466
f 466 470 474
f 474 478 482
f 482 486 490
f 490 494 498
f 498 502 506
f 506 510 514
f 514 516 518
f 519 517 346
f 346 354 362
f 362 370 378
f 378 386 394
f 394 402 410
f 410 418 426
f 426 434 442
f 442 450 458
f 458 466 474
f 474 482 490
f 490 498 506
f 506 514 518
f 520 519 346
f 346 362 378
f 378 394 410
f 410 426 442
f 442 458 474
f 474 490 506
f 506 518 521
f 522 520 346
f 506 521 523
f 524 522 346
f 506 523 525
f 526 524 346
f 506 525 527
f 528 526 346
f 506 527 529
f 530 528 346
f 506 529 531
f 532 530 346
f 506 531 533
f 534 532 346
f 506 533 535
f 536 534 346
f 506 535 537
f 538 536 346
f 506 537 539
f 540 538 346
f 506 539 541
f 542 540 346
f 506 541 543
f 544 542 346
f 506 543 545
f 546 544 346
f 506 545 547
f 548 546 346
f 506 547 549
f 550 548 346
f 506 549 551
f 550 346 378
f 506 551 552
f 553 550 378
f 506 552 554
f 555 553 378
f 506 554 556
f 557 555 378
f 506 556 558
f 559 557 378
f 474 506 558
f 560 559 378
f 474 558 561
f 562 560 378
f 474 561 563
f 564 562 378
f 474 563 565
f 566 564 378
f 474 565 567
f 568 566 378
f 474 567 569
f 570 568 378
f 474 569 571
f 572 570 378
f 474 571 573
f 574 572 378
f 474 573 575
f 576 574 378
f 474 575 577
f 578 576 378
f 474 577 579
f 580 578 378
f 474 579 581
f 582 580 378
f 474 581 583
f 584 582 378
f 474 583 585
f 586 584 378
f 474 585 587
f 588 586 378
f 474 587 589
f 590 588 378
f 474 589 591
f 592 590 378
f 474 591 593
f 594 592 378
f 474 593 595
f 596 594 378
f 474 595 597
f 598 596 378
f 474 597 599
f 600 598 378
f 474 599 601
f 602 600 378
f 474 601 603
f 604 602 378
f 474 603 605
f 606 604 378
f 474 605 607
f 608 606 378
f 474 607 609
f 610 608 378
f 474 609 611
f 612 610 378
f 442 474 611
f 612 378 410
f 442 611 613
f 614 612 410
f 442 613 615
f 616 614 410
f 442 615 617
f 618 616 410
f 442 617 619
f 620 618 410
f 442 619 621
f 622 620 410
f 442 621 623
f 624 622 410
f 442 623 625
f 626 624 410
f 442 625 627
f 628 626 410
f 442 627 629
f 630 628 410
f 442 629 631
f 632 630 410
f 442 631 633
f 634 632 410
f 442 633 635
f 636 634 410
f 442 635 637
f 638 636 410
f 442 637 639
f 640 638 410
f 442 639 641
f 642 640 410
f 442 641 643
f 644 642 410
f 442 643 645
f 646 644 410
f 442 645 647
f 648 646 410
f 442 647 649
f 650 648 410
f 442 649 651
f 652 650 410
f 442 651 653
f 654 652 410
f 442 653 655
f 656 654 410
f 442 655 657
f 658 656 410
f 442 657 659
f 660 658 410
f 442 659 661
f 662 660 410
f 442 661 663
f 664 662 410
f 442 663 665
f 666 664 410
f 442 665 667
f 668 666 410
f 410 442 667
f 669 668 410
f 410 667 670
f 671 669 410
f 410 670 672
f 673 671 410
f 410 672 674
f 675 673 410
f 410 674 676
f 677 675 410
f 410 676 678
f 679 677 410
f 410 678 680
f 680 679 410
f 1 176 343
f 176 516 343
f 176 178 516
f 178 518 516
f 178 181 518
f 181 521 518
f 181 183 521
f 183 523 521
f 183 185 523
f 185 525 523
f 185 187 525
f 187 527 525
f 187 189 527
f 189 529 527
f 189 191 529
f 191 531 529
f 191 193 531
f 193 533 531
f 193 195 533
f 195 535 533
f 195 197 535
f 197 537 535
f 197 199 537
f 199 539 537
f 199 201 539
f 201 541 539
f 201 203 541
f 203 543 541
f 203 205 543
f 205 545 543
f 205 207 545
f 207 547 545
f 207 209 547
f 209 549 547
f 209 211 549
f 211 551 549
f 211 212 551
f 212 552 551
f 212 214 552
f 214 554 552
f 214 216 554
f 216 556 554
f 216 218 556
f 218 558 556
f 218 221 558
f 221 561 558
f 221 223 561
f 223 563 561
f 223 225 563
f 225 565 563
f 225 227 565
f 227 567 565
f 227 229 567
f 229 569 567
f 229 231 569
f 231 571 569
f 231 233 571
f 233 573 571
f 233 235 573
f 235 575 573
f 235 237 575
f 237 577 575
f 237 239 577
f 239 579 577
f 239 241 579
f 241 581 579
f 241 243 581
f 243 583 581
f 243 245 583
f 245 585 583
f 245 247 585
f 247 587 585
f 247 249 587
f 249 589 587
f 249 251 589
f 251 591 589
f 251 253 591
f 253 593 591
f 253 255 593
f 255 595 593
f 255 257 595
f 257 597 595
f 257 259 597
f 259 599 597
f 259 261 599
f 261 601 599
f 261 263 601
f 263 603 601
f 263 265 603
f 265 605 603
f 265 267 605
f 267 607 605
f 267 269 607
f 269 609 607
f 269 271 609
f 271 611 609
f 271 273 611
f 273 613 611
f 273 275 613
f 275 615 613
f 275 277 615
f 277 617 615
f 277 279 617
f 279 619 617
f 279 281 619
f 281 621 619
f 281 283 621
f 283 623 621
f 283 285 623
f 285 625 623
f 285 287 625
f 287 627 625
f 287 289 627
f 289 629 627
f 289 291 629
f 291 631 629
f 291 293 631
f 293 633 631
f 293 295 633
f 295 635 633
f 295 297 635
f 297 637 635
f 297 299 637
f 299 639 637
f 299 301 639
f 301 641 639
f 301 303 641
f 303 643 641
f 303 305 643
f 305 645 643
f 305 307 645
f 307 647 645
f 307 309 647
f 309 649 647
f 309 311 649
f 311 651 649
f 311 313 651
f 313 653 651
f 313 315 653
f 315 655 653
f 315 317 655
f 317 657 655
f 317 319 657
f 319 659 657
f 319 321 659
f 321 661 659
f 321 323 661
f 323 663 661
f 323 325 663
f 325 665 663
f 325 327 665
f 327 667 665
f 327 330 667
f 330 670 667
f 330 332 670
f 332 672 670
f 332 334 672
f 334 674 672
f 334 336 674
f 336 676 674
f 336 338 676
f 338 678 676
f 338 340 678
f 340 680 678
f 340 339 680
f 339 679 680
f 339 337 679
f 337 677 679
f 337 335 677
f 335 675 677
f 335 333 675
f 333 673 675
f 333 331 673
f 331 671 673
f 331 329 671
f 329 669 671
f 329 328 669
f 328 668 669
f 328 326 668
f 326 666 668
f 326 324 666
f 324 664 666
f 324 322 664
f 322 662 664
f 322 320 662
f 320 660 662
f 320 318 660
f 318 658 660
f 318 316 658
f 316 656 658
f 316 314 656
f 314 654 656
f 314 312 654
f 312 652 654
f 312 310 652
f 310 650 652
f 310 308 650
f 308 648 650
f 308 306 648
f 306 646 648
f 306 304 646
f 304 644 646
f 304 302 644
f 302 642 644
f 302 300 642
f 300 640 642
f 300 298 640
f 298 638 640
f 298 296 638
f 296 636 638
f 296 294 636
f 294 634 636
f 294 292 634
f 292 632 634
f 292 290 632
f 290 630 632
f 290 288 630
f 288 628 630
f 288 286 628
f 286 626 628
f 286 284 626
f 284 624 626
f 284 282 624
f 282 622 624
f 282 280 622
f 280 620 622
f 280 278 620
f 278 618 620
f 278 276 618
f 276 616 618
f 276 274 616
f 274 614 616
f 274 272 614
f 272 612 614
f 272 270 612
f 270 610 612
f 270 268 610
f 268 608 610
f 268 266 608
f 266 606 608
f 266 264 606
f 264 604 606
f 264 262 604
f 262 602 604
f 262 260 602
f 260 600 602
f 260 258 600
f 258 598 600
f 258 256 598
f 256 596 598
f 256 254 596
f 254 594 596
f 254 252 594
f 252 592 594
f 252 250 592
f 250 590 592
f 250 248 590
f 248 588 590
f 248 246 588
f 246 586 588
f 246 244 586
f 244 584 586
f 244 242 584
f 242 582 584
f 242 240 582
f 240 580 582
f 240 238 580
f 238 578 580
f 238 236 578
f 236 576 578
f 236 234 576
f 234 574 576
f 234 232 574
f 232 572 574
f 232 230 572
f 230 570 572
f 230 228 570
f 228 568 570
f 228 226 568
f 226 566 568
f 226 224 566
f 224 564 566
f 224 222 564
f 222 562 564
f 222 220 562
f 220 560 562
f 220 219 560
f 219 559 560
f 219 217 559
f 217 557 559
f 217 215 557
f 215 555 557
f 215 213 555
f 213 553 555
f 213 210 553
f 210 550 553
f 210 208 550
f 208 548 550
f 208 206 548
f 206 546 548
f 206 204 546
f 204 544 546
f 204 202 544
f 202 542 544
f 202 200 542
f 200 540 542
f 200 198 540
f 198 538 540
f 198 196 538
f 196 536 538
f 196 194 536
f 194 534 536
f 194 192 534
f 192 532 534
f 192 190 532
f 190 530 532
f 190 188 530
f 188 528 530
f 188 186 528
f 186 526 528
f 186 184 526
f 184 524 526
f 184 182 524
f 182 522 524
f 182 180 522
f 180 520 522
f 180 179 520
f 179 519 520
f 179 177 519
f 177 517 519
f 177 175 517
f 175 515 517
f 175 6 515
f 6 344 515
f 6 5 344
f 5 345 344
f 5 4 345
f 4 346 345
f 4 8 346
f 8 347 346
f 8 7 347
f 7 348 347
f 7 10 348
f 10 349 348
f 10 9 349
f 9 350 349
f 9 12 350
f 12 351 350
f 12 11 351
f 11 352 351
f 11 14 352
f 14 353 352
f 14 13 353
f 13 354 353
f 13 16 354
f 16 355 354
f 16 15 355
f 15 356 355
f 15 18 356
f 18 357 356
f 18 17 357
f 17 358 357
f 17 20 358
f 20 359 358
f 20 19 359
f 19 360 359
f 19 22 360
f 22 361 360
f 22 21 361
f 21 362 361
f 21 24 362
f 24 363 362
f 24 23 363
f 23 364 363
f 23 26 364
f 26 365 364
f 26 25 365
f 25 366 365
f 25 28 366
f 28 367 366
f 28 27 367
f 27 368 367
f 27 30 368
f 30 369 368
f 30 29 369
f 29 370 369
f 29 32 370
f 32 371 370
f 32 31 371
f 31 372 371
f 31 34 372
f 34 373 372
f 34 33 373
f 33 374 373
f 33 36 374
f 36 375 374
f 36 35 375
f 35 376 375
f 35 38 376
f 38 377 376
f 38 37 377
f 37 378 377
f 37 40 378
f 40 379 378
f 40 39 379
f 39 380 379
f 39 42 380
f 42 381 380
f 42 41 381
f 41 382 381
f 41 44 382
f 44 383 382
f 44 43 383
f 43 384 383
f 43 46 384
f 46 385 384
f 46 45 385
f 45 386 385
f 45 48 386
f 48 387 386
f 48 47 387
f 47 388 387
f 47 50 388
f 50 389 388
f 50 49 389
f 49 390 389
f 49 52 390
f 52 391 390
f 52 51 391
f 51 392 391
f 51 54 392
f 54 393 392
f 54 53 393
f 53 394 393
f 53 56 394
f 56 395 394
f 56 55 395
f 55 396 395
f 55 58 396
f 58 397 396
f 58 57 397
f 57 398 397
f 57 60 398
f 60 399 398
f 60 59 399
f 59 400 399
f 59 62 400
f 62 401 400
f 62 61 401
f 61 402 401
f 61 64 402
f 64 403 402
f 64 63 403
f 63 404 403
f 63 66 404
f 66 405 404
f 66 65 405
f 65 406 405
f 65 68 406
f 68 407 406
f 68 67 407
f 67 408 407
f 67 70 408
f 70 409 408
f 70 69 409
f 69 410 409
f 69 72 410
f 72 411 410
f 72 71 411
f 71 412 411
f 71 74 412
f 74 413 412
f 74 73 413
f 73 414 413
f 73 76 414
f 76 415 414
f 76 75 415
f 75 416 415
f 75 78 416
f 78 417 416
f 78 77 417
f 77 418 417
f 77 80 418
f 80 419 418
f 80 79 419
f 79 420 419
f 79 82 420
f 82 421 420
f 82 81 421
f 81 422 421
f 81 84 422
f 84 423 422
f 84 83 423
f 83 424 423
f 83 86 424
f 86 425 424
f 86 85 425
f 85 426 425
f 85 88 426
f 88 427 426
f 88 87 427
f 87 428 427
f 87 90 428
f 90 429 428
f 90 89 429
f 89 430 429
f 89 92 430
f 92 431 430
f 92 91 431
f 91 432 431
f 91 94 432
f 94 433 432
f 94 93 433
f 93 434 433
f 93 96 434
f 96 435 434
f 96 95 435
f 95 436 435
f 95 98 436
f 98 437 436
f 98 97 437
f 97 438 437
f 97 100 438
f 100 439 438
f 100 99 439
f 99 440 439
f 99 102 440
f 102 441 440
f 102 101 441
f 101 442 441
f 101 104 442
f 104 443 442
f 104 103 443
f 103 444 443
f 103 106 444
f 106 445 444
f 106 105 445
f 105 446 445
f 105 108 446
f 108 447 446
f 108 107 447
f 107 448 447
f 107 110 448
f 110 449 448
f 110 109 449
f 109 450 449
f 109 112 450
f 112 451 450
f 112 111 451
f 111 452 451
f 111 114 452
f 114 453 452
f 114 113 453
f 113 454 453
f 113 116 454
f 116 455 454
f 116 115 455
f 115 456 455
f 115 118 456
f 118 457 456
f 118 117 457
f 117 458 457
f 117 120 458
f 120 459 458
f 120 119 459
f 119 460 459
f 119 122 460
f 122 461 460
f 122 121 461
f 121 462 461
f 121 124 462
f 124 463 462
f 124 123 463
f 123 464 463
f 123 126 464
f 126 465 464
f 126 125 465
f 125 466 465
f 125 128 466
f 128 467 466
f 128 127 467
f 127 468 467
f 127 130 468
f 130 469 468
f 130 129 469
f 129 470 469
f 129 132 470
f 132 471 470
f 132 131 471
f 131 472 471
f 131 134 472
f 134 473 472
f 134 133 473
f 133 474 473
f 133 136 474
f 136 475 474
f 136 135 475
f 135 476 475
f 135 138 476
f 138 477 476
f 138 137 477
f 137 478 477
f 137 140 478
f 140 479 478
f 140 139 479
f 139 480 479
f 139 142 480
f 142 481 480
f 142 141 481
f 141 482 481
f 141 144 482
f 144 483 482
f 144 143 483
f 143 484 483
f 143 146 484
f 146 485 484
f 146 145 485
f 145 486 485
f 145 148 486
f 148 487 486
f 148 147 487
f 147 488 487
f 147 150 488
f 150 489 488
f 150 149 489
f 149 490 489
f 149 152 490
f 152 491 490
f 152 151 491
f 151 492 491
f 151 154 492
f 154 493 492
f 154 153 493
f 153 494 493
f 153 156 494
f 156 495 494
f 156 155 495
f 155 496 495
f 155 158 496
f 158 497 496
f 158 157 497
f 157 498 497
f 157 160 498
f 160 499 498
f 160 159 499
f 159 500 499
f 159 162 500
f 162 501 500
f 162 161 501
f 161 502 501
f 161 164 502
f 164 503 502
f 164 163 503
f 163 504 503
f 163 166 504
f 166 505 504
f 166 165 505
f 165 506 505
f 165 168 506
f 168 507 506
f 168 167 507
f 167 508 507
f 167 170 508
f 170 509 508
f 170 169 509
f 169 510 509
f 169 172 510
f 172 511 510
f 172 171 511
f 171 512 511
f 171 174 512
f 174 513 512
f 174 173 513
f 173 514 513
f 173 3 514
f 3 341 514
f 3 2 341
f 2 342 341
f 2 1 342
f 1 343 342

