# Blender 5.1.1
# www.blender.org
mtllib C.mtl
o sca_C
v 4.050000 2.623410 5.293985
v 4.050000 2.653105 5.116816
v 4.050000 4.678128 5.116816
v 4.050000 4.678128 -0.430881
v 4.050000 2.653105 -0.430881
v 4.050000 2.626739 -0.608090
v 4.050000 4.611183 -0.927014
v 4.050000 4.648209 -0.681474
v 4.050000 4.515818 -1.402934
v 4.050000 4.567053 -1.167500
v 4.050000 4.392037 -1.858640
v 4.050000 4.457479 -1.633314
v 4.050000 4.239835 -2.294134
v 4.050000 4.319488 -2.078913
v 4.050000 4.059215 -2.709414
v 4.050000 4.153077 -2.504301
v 4.050000 3.850175 -3.104482
v 4.050000 3.958248 -2.909475
v 4.050000 3.612147 -3.475525
v 4.050000 3.734860 -3.293482
v 4.050000 3.344527 -3.818737
v 4.050000 3.482038 -3.650609
v 4.050000 3.047317 -4.134117
v 4.050000 3.199620 -3.979906
v 4.050000 2.720512 -4.421665
v 4.050000 2.887612 -4.281369
v 4.050000 2.364116 -4.681382
v 4.050000 2.546013 -4.555002
v 4.050000 1.978128 -4.913265
v 4.050000 2.174819 -4.800803
v 4.050000 1.562403 -5.113068
v 4.050000 1.774001 -5.017708
v 4.050000 1.116795 -5.276544
v 4.050000 1.343334 -5.199347
v 4.050000 0.641304 -5.403693
v 4.050000 0.882784 -5.344659
v 4.050000 0.135931 -5.494512
v 4.050000 0.392352 -5.453644
v 4.050000 -0.399326 -5.549005
v 4.050000 -0.127962 -5.526299
v 4.050000 -0.964465 -5.567168
v 4.050000 -0.678160 -5.562627
v 4.050000 -1.431162 -5.553107
v 4.050000 -1.199791 -5.563653
v 4.050000 -1.882037 -5.510924
v 4.050000 -1.658577 -5.535532
v 4.050000 -2.317093 -5.440616
v 4.050000 -2.101542 -5.479285
v 4.050000 -2.736326 -5.342187
v 4.050000 -2.528687 -5.394917
v 4.050000 -3.139739 -5.215636
v 4.050000 -2.940010 -5.282426
v 4.050000 -3.527328 -5.060959
v 4.050000 -3.335511 -5.141814
v 4.050000 -3.897794 -4.880197
v 4.050000 -3.714869 -4.973580
v 4.050000 -4.249798 -4.675408
v 4.050000 -4.076104 -4.780806
v 4.050000 -4.583346 -4.446596
v 4.050000 -4.418880 -4.564005
v 4.050000 -4.898438 -4.193760
v 4.050000 -4.743199 -4.323181
v 4.050000 -5.195068 -3.916899
v 4.050000 -5.049060 -4.058333
v 4.050000 -5.473245 -3.616014
v 4.050000 -5.336464 -3.769459
v 4.050000 -5.731642 -3.292720
v 4.050000 -5.605081 -3.456968
v 4.050000 -5.968947 -2.948623
v 4.050000 -5.852932 -3.123271
v 4.050000 -6.185158 -2.583728
v 4.050000 -6.079689 -2.768775
v 4.050000 -6.380275 -2.198030
v 4.050000 -6.285353 -2.393480
v 4.050000 -6.554298 -1.791537
v 4.050000 -6.469923 -1.997385
v 4.050000 -6.707228 -1.364240
v 4.050000 -6.633400 -1.580489
v 4.050000 -6.837744 -0.918194
v 4.050000 -6.775452 -1.143304
v 4.050000 -6.944531 -0.455450
v 4.050000 -6.894104 -0.688909
v 4.050000 -7.027587 0.023993
v 4.050000 -6.989026 -0.217816
v 4.050000 -7.086914 0.520135
v 4.050000 -7.060217 0.269976
v 4.050000 -7.122509 1.032975
v 4.050000 -7.107677 0.774467
v 4.050000 -7.134374 1.562513
v 4.050000 -7.131408 1.295656
v 4.050000 -7.131408 3.358649
v 4.050000 -7.134374 3.091793
v 4.050000 -7.107677 3.879839
v 4.050000 -7.122509 3.621331
v 4.050000 -7.060216 4.384330
v 4.050000 -7.086914 4.134172
v 4.050000 -6.989026 4.872126
v 4.050000 -7.027586 4.630315
v 4.050000 -6.894104 5.343221
v 4.050000 -6.944530 5.109759
v 4.050000 -6.775452 5.797617
v 4.050000 -6.837744 5.572505
v 4.050000 -6.633508 6.234766
v 4.050000 -6.707227 6.018555
v 4.050000 -6.470912 6.651369
v 4.050000 -6.554736 6.445704
v 4.050000 -6.288099 7.046876
v 4.050000 -6.382031 6.851758
v 4.050000 -6.085072 7.421290
v 4.050000 -6.189113 7.236721
v 4.050000 -5.861830 7.774611
v 4.050000 -5.975977 7.600587
v 4.050000 -5.618371 8.106837
v 4.050000 -5.742628 7.943361
v 4.050000 -5.355065 8.417641
v 4.050000 -5.489062 8.265040
v 4.050000 -5.074111 8.705042
v 4.050000 -5.216749 8.564308
v 4.050000 -4.775870 8.968714
v 4.050000 -4.927152 8.839845
v 4.050000 -4.460347 9.208656
v 4.050000 -4.620268 9.091652
v 4.050000 -4.127539 9.424867
v 4.050000 -4.296103 9.319727
v 4.050000 -3.777446 9.617346
v 4.050000 -3.954652 9.524073
v 4.050000 -3.410501 9.785547
v 4.050000 -3.595918 9.704687
v 4.050000 -3.029342 9.926172
v 4.050000 -3.221642 9.859375
v 4.050000 -2.634413 10.038672
v 4.050000 -2.833599 9.985937
v 4.050000 -2.225717 10.123047
v 4.050000 -2.431786 10.084375
v 4.050000 -1.803253 10.179297
v 4.050000 -2.016206 10.154688
v 4.050000 -1.367021 10.207422
v 4.050000 -1.586858 10.196876
v 4.050000 -0.840374 10.206286
v 4.050000 -1.143742 10.210938
v 4.050000 -0.259126 10.169079
v 4.050000 -0.545502 10.192333
v 4.050000 0.288138 10.094666
v 4.050000 0.018754 10.136523
v 4.050000 0.801418 9.983045
v 4.050000 0.549027 10.043506
v 4.050000 1.280714 9.834216
v 4.050000 1.045314 9.913281
v 4.050000 1.726025 9.648181
v 4.050000 1.507618 9.745850
v 4.050000 2.137720 9.426257
v 4.050000 1.935937 9.541210
v 4.050000 2.517995 9.176355
v 4.050000 2.331739 9.304639
v 4.050000 2.867217 8.899795
v 4.050000 2.696487 9.041407
v 4.050000 3.185385 8.596571
v 4.050000 3.030182 8.751514
v 4.050000 3.472499 8.266688
v 4.050000 3.332824 8.434962
v 4.050000 3.728560 7.910144
v 4.050000 3.604411 8.091749
v 4.050000 3.953853 7.528151
v 4.050000 3.844944 7.721877
v 4.050000 4.150136 7.127955
v 4.050000 4.055583 7.330177
v 4.050000 4.317708 6.710771
v 4.050000 4.237511 6.921487
v 4.050000 4.456573 6.276594
v 4.050000 4.390729 6.495806
v 4.050000 4.566728 5.825426
v 4.050000 4.515238 6.053133
v 4.050000 4.648172 5.357266
v 4.050000 4.611040 5.593470
v 4.050000 2.596859 -0.781123
v 4.050000 2.590565 5.466907
v 4.050000 2.563462 -0.949983
v 4.050000 2.554571 5.635581
v 4.050000 2.526550 -1.114667
v 4.050000 2.486123 -1.275178
v 4.050000 2.515425 5.800008
v 4.050000 2.442180 -1.431514
v 4.050000 2.473130 5.960187
v 4.050000 2.394722 -1.583674
v 4.050000 2.427685 6.116118
v 4.050000 2.343749 -1.731660
v 4.050000 2.379092 6.267801
v 4.050000 2.289260 -1.875471
v 4.050000 2.327345 6.415236
v 4.050000 2.231257 -2.015109
v 4.050000 2.272450 6.558424
v 4.050000 2.169738 -2.150569
v 4.050000 2.214406 6.697364
v 4.050000 2.104703 -2.281857
v 4.050000 2.153210 6.832057
v 4.050000 2.035562 -2.408597
v 4.050000 2.088866 6.962502
v 4.050000 1.961730 -2.530428
v 4.050000 2.020345 7.088332
v 4.050000 1.883211 -2.647356
v 4.050000 1.946626 7.209181
v 4.050000 1.800006 -2.759377
v 4.050000 1.867706 7.325050
v 4.050000 1.712112 -2.866493
v 4.050000 1.783585 7.435938
v 4.050000 1.619532 -2.968701
v 4.050000 1.694265 7.541846
v 4.050000 1.522264 -3.066004
v 4.050000 1.599746 7.642773
v 4.050000 1.420310 -3.158402
v 4.050000 1.500026 7.738720
v 4.050000 1.395107 7.829687
v 4.050000 1.313668 -3.245892
v 4.050000 1.284987 7.915673
v 4.050000 1.202337 -3.328476
v 4.050000 1.169666 7.996679
v 4.050000 1.086320 -3.406155
v 4.050000 1.049146 8.072704
v 4.050000 0.965616 -3.478929
v 4.050000 0.839418 -3.546310
v 4.050000 0.923425 8.143749
v 4.050000 0.706923 -3.607833
v 4.050000 0.791445 8.209448
v 4.050000 0.568128 -3.663497
v 4.050000 0.652138 8.269434
v 4.050000 0.423035 -3.713302
v 4.050000 0.505508 8.323707
v 4.050000 0.271643 -3.757248
v 4.050000 0.351554 8.372267
v 4.050000 0.113952 -3.795332
v 4.050000 0.190276 8.415113
v 4.050000 -0.050037 -3.827559
v 4.050000 0.021674 8.452248
v 4.050000 -0.220325 -3.853927
v 4.050000 -0.154253 8.483669
v 4.050000 -0.396912 -3.874434
v 4.050000 -0.337502 8.509377
v 4.050000 -0.579797 -3.889082
v 4.050000 -0.528076 8.529371
v 4.050000 -0.768981 -3.897871
v 4.050000 -0.725975 8.543653
v 4.050000 -0.964464 -3.900799
v 4.050000 -0.931196 8.552223
v 4.050000 -1.133247 -3.898090
v 4.050000 -1.143743 8.555080
v 4.050000 -1.298588 -3.889960
v 4.050000 -1.312350 8.552114
v 4.050000 -1.460487 -3.876410
v 4.050000 -1.477148 8.543215
v 4.050000 -1.618944 -3.857440
v 4.050000 -1.638136 8.528383
v 4.050000 -1.773959 -3.833051
v 4.050000 -1.795315 8.507619
v 4.050000 -1.925532 -3.803241
v 4.050000 -1.948686 8.480923
v 4.050000 -2.073664 -3.768010
v 4.050000 -2.098247 8.448292
v 4.050000 -2.218352 -3.727361
v 4.050000 -2.243998 8.409730
v 4.050000 -2.359600 -3.681291
v 4.050000 -2.385939 8.365234
v 4.050000 -2.497404 -3.629801
v 4.050000 -2.524072 8.314808
v 4.050000 -2.631768 -3.572890
v 4.050000 -2.658396 8.258447
v 4.050000 -2.762688 -3.510561
v 4.050000 -2.788910 8.196154
v 4.050000 -2.890131 -3.443250
v 4.050000 -2.915614 8.127928
v 4.050000 -3.014056 -3.371399
v 4.050000 -3.038590 8.054503
v 4.050000 -3.134468 -3.295004
v 4.050000 -3.157903 7.976610
v 4.050000 -3.251363 -3.214071
v 4.050000 -3.273554 7.894250
v 4.050000 -3.364742 -3.128593
v 4.050000 -3.385543 7.807422
v 4.050000 -3.474606 -3.038578
v 4.050000 -3.493869 7.716125
v 4.050000 -3.580954 -2.944019
v 4.050000 -3.598532 7.620361
v 4.050000 -3.683787 -2.844918
v 4.050000 -3.699534 7.520130
v 4.050000 -3.783103 -2.741277
v 4.050000 -3.796874 7.415430
v 4.050000 -3.878905 -2.633094
v 4.050000 -3.890552 7.306262
v 4.050000 -3.971190 -2.520370
v 4.050000 -3.980566 7.192626
v 4.050000 -4.059960 -2.403105
v 4.050000 -4.066917 7.074523
v 4.050000 -4.145177 -2.281599
v 4.050000 -4.149609 6.951952
v 4.050000 -4.226806 -2.156137
v 4.050000 -4.228745 6.825462
v 4.050000 -4.304846 -2.026721
v 4.050000 -4.304442 6.695604
v 4.050000 -4.379296 -1.893349
v 4.050000 -4.376697 6.562377
v 4.050000 -4.450158 -1.756022
v 4.050000 -4.445508 6.425779
v 4.050000 -4.517431 -1.614740
v 4.050000 -4.510877 6.285814
v 4.050000 -4.581116 -1.469503
v 4.050000 -4.572802 6.142478
v 4.050000 -4.641210 -1.320310
v 4.050000 -4.631286 5.995776
v 4.050000 -4.697716 -1.167161
v 4.050000 -4.686328 5.845703
v 4.050000 -4.750634 -1.010057
v 4.050000 -4.737927 5.692260
v 4.050000 -4.799962 -0.848998
v 4.050000 -4.786085 5.535449
v 4.050000 -4.845701 -0.683985
v 4.050000 -4.830799 5.375268
v 4.050000 -4.887815 -0.515455
v 4.050000 -4.872072 5.211718
v 4.050000 -4.926269 -0.343849
v 4.050000 -4.909974 5.045531
v 4.050000 -4.961058 -0.169166
v 4.050000 -4.944581 4.877442
v 4.050000 -4.992186 0.008592
v 4.050000 -4.975891 4.707448
v 4.050000 -5.019652 0.189426
v 4.050000 -5.003905 4.535550
v 4.050000 -5.043456 0.373336
v 4.050000 -5.028625 4.361745
v 4.050000 -5.063598 0.560321
v 4.050000 -5.080078 0.750384
v 4.050000 -5.050048 4.186038
v 4.050000 -5.092895 0.943522
v 4.050000 -5.068175 4.008424
v 4.050000 -5.102051 1.139735
v 4.050000 -5.083006 3.828907
v 4.050000 -5.107543 1.339026
v 4.050000 -5.094542 3.647485
v 4.050000 -5.109375 1.541391
v 4.050000 -5.102781 3.464159
v 4.050000 -5.109375 3.091791
v 4.050000 -5.107727 3.278929
v -4.350000 4.678128 5.116816
v -4.350000 2.653105 5.116816
v -4.350000 2.623410 5.293985
v -4.350000 2.626738 -0.608090
v -4.350000 2.653104 -0.430881
v -4.350000 4.678128 -0.430881
v -4.350000 4.648209 -0.681474
v -4.350000 4.611183 -0.927014
v -4.350000 4.567053 -1.167500
v -4.350000 4.515818 -1.402934
v -4.350000 4.457479 -1.633314
v -4.350000 4.392036 -1.858640
v -4.350000 4.319487 -2.078913
v -4.350000 4.239834 -2.294134
v -4.350000 4.153077 -2.504301
v -4.350000 4.059214 -2.709414
v -4.350000 3.958247 -2.909475
v -4.350000 3.850175 -3.104482
v -4.350000 3.734859 -3.293482
v -4.350000 3.612147 -3.475525
v -4.350000 3.482037 -3.650609
v -4.350000 3.344527 -3.818737
v -4.350000 3.199620 -3.979906
v -4.350000 3.047316 -4.134117
v -4.350000 2.887612 -4.281369
v -4.350000 2.720511 -4.421665
v -4.350000 2.546012 -4.555002
v -4.350000 2.364116 -4.681382
v -4.350000 2.174819 -4.800803
v -4.350000 1.978127 -4.913265
v -4.350000 1.774000 -5.017708
v -4.350000 1.562402 -5.113068
v -4.350000 1.343333 -5.199347
v -4.350000 1.116794 -5.276544
v -4.350000 0.882784 -5.344659
v -4.350000 0.641303 -5.403693
v -4.350000 0.392351 -5.453644
v -4.350000 0.135930 -5.494512
v -4.350000 -0.127963 -5.526299
v -4.350000 -0.399327 -5.549005
v -4.350000 -0.678161 -5.562627
v -4.350000 -0.964465 -5.567168
v -4.350000 -1.199793 -5.563653
v -4.350000 -1.431163 -5.553107
v -4.350000 -1.658579 -5.535532
v -4.350000 -1.882038 -5.510924
v -4.350000 -2.101543 -5.479285
v -4.350000 -2.317093 -5.440616
v -4.350000 -2.528687 -5.394917
v -4.350000 -2.736326 -5.342187
v -4.350000 -2.940011 -5.282426
v -4.350000 -3.139739 -5.215636
v -4.350000 -3.335511 -5.141814
v -4.350000 -3.527329 -5.060959
v -4.350000 -3.714869 -4.973580
v -4.350000 -3.897794 -4.880197
v -4.350000 -4.076104 -4.780806
v -4.350000 -4.249799 -4.675408
v -4.350000 -4.418880 -4.564005
v -4.350000 -4.583347 -4.446596
v -4.350000 -4.743199 -4.323181
v -4.350000 -4.898438 -4.193760
v -4.350000 -5.049061 -4.058333
v -4.350000 -5.195069 -3.916899
v -4.350000 -5.336464 -3.769459
v -4.350000 -5.473245 -3.616014
v -4.350000 -5.605082 -3.456968
v -4.350000 -5.731644 -3.292720
v -4.350000 -5.852932 -3.123271
v -4.350000 -5.968947 -2.948623
v -4.350000 -6.079689 -2.768775
v -4.350000 -6.185158 -2.583728
v -4.350000 -6.285353 -2.393480
v -4.350000 -6.380276 -2.198030
v -4.350000 -6.469923 -1.997385
v -4.350000 -6.554299 -1.791537
v -4.350000 -6.633400 -1.580489
v -4.350000 -6.707228 -1.364240
v -4.350000 -6.775453 -1.143304
v -4.350000 -6.837745 -0.918194
v -4.350000 -6.894104 -0.688909
v -4.350000 -6.944532 -0.455450
v -4.350000 -6.989026 -0.217816
v -4.350000 -7.027588 0.023993
v -4.350000 -7.060218 0.269976
v -4.350000 -7.086915 0.520135
v -4.350000 -7.107677 0.774467
v -4.350000 -7.122510 1.032975
v -4.350000 -7.131408 1.295656
v -4.350000 -7.134374 1.562513
v -4.350000 -7.134374 3.091793
v -4.350000 -7.131408 3.358649
v -4.350000 -7.122509 3.621331
v -4.350000 -7.107677 3.879839
v -4.350000 -7.086915 4.134172
v -4.350000 -7.060217 4.384330
v -4.350000 -7.027587 4.630315
v -4.350000 -6.989026 4.872126
v -4.350000 -6.944531 5.109759
v -4.350000 -6.894104 5.343221
v -4.350000 -6.837745 5.572505
v -4.350000 -6.775453 5.797617
v -4.350000 -6.707227 6.018555
v -4.350000 -6.633509 6.234766
v -4.350000 -6.554737 6.445704
v -4.350000 -6.470912 6.651369
v -4.350000 -6.382031 6.851758
v -4.350000 -6.288099 7.046876
v -4.350000 -6.189113 7.236721
v -4.350000 -6.085073 7.421290
v -4.350000 -5.975977 7.600587
v -4.350000 -5.861830 7.774611
v -4.350000 -5.742628 7.943361
v -4.350000 -5.618372 8.106837
v -4.350000 -5.489064 8.265040
v -4.350000 -5.355066 8.417641
v -4.350000 -5.216750 8.564308
v -4.350000 -5.074111 8.705042
v -4.350000 -4.927152 8.839845
v -4.350000 -4.775870 8.968714
v -4.350000 -4.620269 9.091652
v -4.350000 -4.460347 9.208656
v -4.350000 -4.296103 9.319727
v -4.350000 -4.127540 9.424867
v -4.350000 -3.954652 9.524073
v -4.350000 -3.777446 9.617346
v -4.350000 -3.595918 9.704687
v -4.350000 -3.410502 9.785547
v -4.350000 -3.221642 9.859375
v -4.350000 -3.029342 9.926172
v -4.350000 -2.833599 9.985937
v -4.350000 -2.634414 10.038672
v -4.350000 -2.431786 10.084375
v -4.350000 -2.225717 10.123047
v -4.350000 -2.016206 10.154688
v -4.350000 -1.803254 10.179297
v -4.350000 -1.586859 10.196876
v -4.350000 -1.367022 10.207422
v -4.350000 -1.143743 10.210938
v -4.350000 -0.840374 10.206286
v -4.350000 -0.545503 10.192333
v -4.350000 -0.259127 10.169079
v -4.350000 0.018753 10.136523
v -4.350000 0.288137 10.094666
v -4.350000 0.549026 10.043506
v -4.350000 0.801417 9.983045
v -4.350000 1.045313 9.913281
v -4.350000 1.280713 9.834216
v -4.350000 1.507618 9.745850
v -4.350000 1.726025 9.648181
v -4.350000 1.935937 9.541210
v -4.350000 2.137719 9.426257
v -4.350000 2.331739 9.304639
v -4.350000 2.517994 9.176355
v -4.350000 2.696487 9.041407
v -4.350000 2.867216 8.899795
v -4.350000 3.030181 8.751514
v -4.350000 3.185384 8.596571
v -4.350000 3.332823 8.434962
v -4.350000 3.472498 8.266688
v -4.350000 3.604410 8.091749
v -4.350000 3.728560 7.910144
v -4.350000 3.844944 7.721877
v -4.350000 3.953852 7.528151
v -4.350000 4.055583 7.330177
v -4.350000 4.150135 7.127955
v -4.350000 4.237509 6.921487
v -4.350000 4.317708 6.710771
v -4.350000 4.390728 6.495806
v -4.350000 4.456573 6.276594
v -4.350000 4.515238 6.053133
v -4.350000 4.566728 5.825426
v -4.350000 4.611040 5.593470
v -4.350000 4.648172 5.357266
v -4.350000 2.596858 -0.781123
v -4.350000 2.590565 5.466907
v -4.350000 2.563461 -0.949983
v -4.350000 2.554570 5.635581
v -4.350000 2.526550 -1.114667
v -4.350000 2.486122 -1.275178
v -4.350000 2.515424 5.800008
v -4.350000 2.442180 -1.431514
v -4.350000 2.473130 5.960187
v -4.350000 2.394721 -1.583674
v -4.350000 2.427685 6.116118
v -4.350000 2.343749 -1.731660
v -4.350000 2.379091 6.267801
v -4.350000 2.289260 -1.875471
v -4.350000 2.327345 6.415236
v -4.350000 2.231256 -2.015109
v -4.350000 2.272449 6.558424
v -4.350000 2.169738 -2.150569
v -4.350000 2.214406 6.697364
v -4.350000 2.104703 -2.281857
v -4.350000 2.153209 6.832057
v -4.350000 2.035561 -2.408597
v -4.350000 2.088866 6.962502
v -4.350000 1.961729 -2.530428
v -4.350000 2.020344 7.088332
v -4.350000 1.883210 -2.647356
v -4.350000 1.946626 7.209181
v -4.350000 1.800005 -2.759377
v -4.350000 1.867706 7.325050
v -4.350000 1.712112 -2.866493
v -4.350000 1.783585 7.435938
v -4.350000 1.619532 -2.968701
v -4.350000 1.694265 7.541846
v -4.350000 1.522264 -3.066004
v -4.350000 1.599746 7.642773
v -4.350000 1.420309 -3.158402
v -4.350000 1.500026 7.738720
v -4.350000 1.395105 7.829687
v -4.350000 1.313667 -3.245892
v -4.350000 1.284985 7.915673
v -4.350000 1.202337 -3.328476
v -4.350000 1.169665 7.996679
v -4.350000 1.086319 -3.406155
v -4.350000 1.049145 8.072704
v -4.350000 0.965615 -3.478929
v -4.350000 0.839418 -3.546310
v -4.350000 0.923425 8.143749
v -4.350000 0.706922 -3.607833
v -4.350000 0.791444 8.209448
v -4.350000 0.568127 -3.663497
v -4.350000 0.652137 8.269434
v -4.350000 0.423034 -3.713302
v -4.350000 0.505507 8.323707
v -4.350000 0.271642 -3.757248
v -4.350000 0.351553 8.372267
v -4.350000 0.113952 -3.795332
v -4.350000 0.190275 8.415113
v -4.350000 -0.050038 -3.827559
v -4.350000 0.021673 8.452248
v -4.350000 -0.220326 -3.853927
v -4.350000 -0.154254 8.483669
v -4.350000 -0.396912 -3.874434
v -4.350000 -0.337503 8.509377
v -4.350000 -0.579798 -3.889082
v -4.350000 -0.528077 8.529371
v -4.350000 -0.768982 -3.897871
v -4.350000 -0.725975 8.543653
v -4.350000 -0.964465 -3.900799
v -4.350000 -0.931197 8.552223
v -4.350000 -1.133248 -3.898090
v -4.350000 -1.143743 8.555080
v -4.350000 -1.298589 -3.889960
v -4.350000 -1.312350 8.552114
v -4.350000 -1.460488 -3.876410
v -4.350000 -1.477148 8.543215
v -4.350000 -1.618945 -3.857440
v -4.350000 -1.638137 8.528383
v -4.350000 -1.773960 -3.833051
v -4.350000 -1.795316 8.507619
v -4.350000 -1.925533 -3.803241
v -4.350000 -1.948687 8.480923
v -4.350000 -2.073664 -3.768010
v -4.350000 -2.098247 8.448292
v -4.350000 -2.218352 -3.727361
v -4.350000 -2.243998 8.409730
v -4.350000 -2.359600 -3.681291
v -4.350000 -2.385940 8.365234
v -4.350000 -2.497404 -3.629801
v -4.350000 -2.524073 8.314808
v -4.350000 -2.631768 -3.572890
v -4.350000 -2.658396 8.258447
v -4.350000 -2.762688 -3.510561
v -4.350000 -2.788910 8.196154
v -4.350000 -2.890131 -3.443250
v -4.350000 -2.915615 8.127928
v -4.350000 -3.014057 -3.371399
v -4.350000 -3.038590 8.054503
v -4.350000 -3.134468 -3.295004
v -4.350000 -3.157903 7.976610
v -4.350000 -3.251363 -3.214071
v -4.350000 -3.273555 7.894250
v -4.350000 -3.364743 -3.128593
v -4.350000 -3.385544 7.807422
v -4.350000 -3.474607 -3.038578
v -4.350000 -3.493869 7.716125
v -4.350000 -3.580955 -2.944019
v -4.350000 -3.598534 7.620361
v -4.350000 -3.683788 -2.844918
v -4.350000 -3.699534 7.520130
v -4.350000 -3.783104 -2.741277
v -4.350000 -3.796874 7.415430
v -4.350000 -3.878905 -2.633094
v -4.350000 -3.890552 7.306262
v -4.350000 -3.971191 -2.520370
v -4.350000 -3.980567 7.192626
v -4.350000 -4.059960 -2.403105
v -4.350000 -4.066918 7.074523
v -4.350000 -4.145178 -2.281599
v -4.350000 -4.149609 6.951952
v -4.350000 -4.226807 -2.156137
v -4.350000 -4.228746 6.825462
v -4.350000 -4.304846 -2.026721
v -4.350000 -4.304443 6.695604
v -4.350000 -4.379297 -1.893349
v -4.350000 -4.376697 6.562377
v -4.350000 -4.450159 -1.756022
v -4.350000 -4.445508 6.425779
v -4.350000 -4.517431 -1.614740
v -4.350000 -4.510877 6.285814
v -4.350000 -4.581116 -1.469503
v -4.350000 -4.572803 6.142478
v -4.350000 -4.641211 -1.320310
v -4.350000 -4.631287 5.995776
v -4.350000 -4.697717 -1.167161
v -4.350000 -4.686328 5.845703
v -4.350000 -4.750634 -1.010057
v -4.350000 -4.737927 5.692260
v -4.350000 -4.799962 -0.848998
v -4.350000 -4.786085 5.535449
v -4.350000 -4.845702 -0.683985
v -4.350000 -4.830800 5.375268
v -4.350000 -4.887815 -0.515455
v -4.350000 -4.872072 5.211718
v -4.350000 -4.926269 -0.343849
v -4.350000 -4.909974 5.045531
v -4.350000 -4.961059 -0.169166
v -4.350000 -4.944582 4.877442
v -4.350000 -4.992187 0.008592
v -4.350000 -4.975892 4.707448
v -4.350000 -5.019653 0.189426
v -4.350000 -5.003907 4.535550
v -4.350000 -5.043456 0.373336
v -4.350000 -5.028625 4.361745
v -4.350000 -5.063598 0.560321
v -4.350000 -5.080078 0.750384
v -4.350000 -5.050048 4.186038
v -4.350000 -5.092896 0.943522
v -4.350000 -5.068175 4.008424
v -4.350000 -5.102051 1.139735
v -4.350000 -5.083006 3.828907
v -4.350000 -5.107543 1.339026
v -4.350000 -5.094543 3.647485
v -4.350000 -5.109375 1.541391
v -4.350000 -5.102783 3.464159
v -4.350000 -5.109375 3.091791
v -4.350000 -5.107727 3.278929
vn 1.0000 -0.0000 -0.0000
vn 1.0000 -0.0001 -0.0000
vn 1.0000 0.0001 -0.0000
vn 1.0000 0.0003 -0.0000
vn -1.0000 -0.0000 -0.0000
vn -1.0000 0.0001 -0.0000
vn -1.0000 -0.0001 -0.0000
vn -0.0000 -0.9824 -0.1866
vn -0.0000 -0.9780 -0.2087
vn -0.0000 -0.9728 -0.2316
vn -0.0000 -0.9669 -0.2553
vn -0.0000 -0.9601 -0.2798
vn -0.0000 -0.9523 -0.3051
vn -0.0000 -0.9436 -0.3312
vn -0.0000 -0.9337 -0.3580
vn -0.0000 -0.9227 -0.3855
vn -0.0000 -0.9104 -0.4136
vn -0.0000 -0.8968 -0.4424
vn -0.0000 -0.8782 -0.4782
vn -0.0000 -0.8537 -0.5208
vn -0.0000 -0.8265 -0.5629
vn -0.0000 -0.7967 -0.6044
vn -0.0000 -0.7644 -0.6447
vn -0.0000 -0.7299 -0.6836
vn -0.0000 -0.6933 -0.7206
vn -0.0000 -0.6551 -0.7556
vn -0.0000 -0.6154 -0.7882
vn -0.0000 -0.5748 -0.8183
vn -0.0000 -0.5335 -0.8458
vn -0.0000 -0.4920 -0.8706
vn -0.0000 -0.4456 -0.8952
vn -0.0000 -0.3955 -0.9185
vn -0.0000 -0.3471 -0.9378
vn -0.0000 -0.3008 -0.9537
vn -0.0000 -0.2568 -0.9665
vn -0.0000 -0.2151 -0.9766
vn -0.0000 -0.1758 -0.9844
vn -0.0000 -0.1389 -0.9903
vn -0.0000 -0.1043 -0.9945
vn -0.0000 -0.0720 -0.9974
vn -0.0000 -0.0417 -0.9991
vn -0.0000 -0.0134 -0.9999
vn -0.0000 0.0176 -0.9998
vn -0.0000 0.0539 -0.9985
vn -0.0000 0.0917 -0.9958
vn -0.0000 0.1310 -0.9914
vn -0.0000 0.1715 -0.9852
vn -0.0000 0.2132 -0.9770
vn -0.0000 0.2558 -0.9667
vn -0.0000 0.2991 -0.9542
vn -0.0000 0.3429 -0.9394
vn -0.0000 0.3869 -0.9221
vn -0.0000 0.4307 -0.9025
vn -0.0000 0.4741 -0.8805
vn -0.0000 0.5126 -0.8586
vn -0.0000 0.5467 -0.8374
vn -0.0000 0.5801 -0.8146
vn -0.0000 0.6127 -0.7903
vn -0.0000 0.6444 -0.7647
vn -0.0000 0.6750 -0.7378
vn -0.0000 0.7044 -0.7098
vn -0.0000 0.7324 -0.6809
vn -0.0000 0.7589 -0.6512
vn -0.0000 0.7839 -0.6209
vn -0.0000 0.8072 -0.5902
vn -0.0000 0.8290 -0.5593
vn -0.0000 0.8478 -0.5304
vn -0.0000 0.8639 -0.5036
vn -0.0000 0.8790 -0.4767
vn -0.0000 0.8931 -0.4499
vn -0.0000 0.9061 -0.4232
vn -0.0000 0.9180 -0.3966
vn -0.0000 0.9289 -0.3703
vn -0.0000 0.9388 -0.3443
vn -0.0000 0.9478 -0.3187
vn -0.0000 0.9559 -0.2936
vn -0.0000 0.9632 -0.2689
vn -0.0000 0.9696 -0.2447
vn -0.0000 0.9750 -0.2224
vn -0.0000 0.9795 -0.2017
vn -0.0000 0.9835 -0.1811
vn -0.0000 0.9870 -0.1608
vn -0.0000 0.9870 -0.1609
vn -0.0000 0.9900 -0.1408
vn -0.0000 0.9926 -0.1210
vn -0.0000 0.9948 -0.1015
vn -0.0000 0.9966 -0.0823
vn -0.0000 0.9980 -0.0635
vn -0.0000 0.9990 -0.0449
vn -0.0000 0.9996 -0.0267
vn -0.0000 1.0000 -0.0088
vn -0.0000 1.0000 -0.0000
vn -0.0000 1.0000 0.0090
vn -0.0000 1.0000 0.0091
vn -0.0000 0.9996 0.0275
vn -0.0000 0.9989 0.0466
vn -0.0000 0.9978 0.0662
vn -0.0000 0.9963 0.0864
vn -0.0000 0.9942 0.1071
vn -0.0000 0.9917 0.1284
vn -0.0000 0.9887 0.1502
vn -0.0000 0.9850 0.1725
vn -0.0000 0.9807 0.1953
vn -0.0000 0.9758 0.2187
vn -0.0000 0.9702 0.2424
vn -0.0000 0.9637 0.2671
vn -0.0000 0.9562 0.2928
vn -0.0000 0.9477 0.3192
vn -0.0000 0.9382 0.3462
vn -0.0000 0.9382 0.3461
vn -0.0000 0.9276 0.3736
vn -0.0000 0.9158 0.4016
vn -0.0000 0.9029 0.4299
vn -0.0000 0.8887 0.4586
vn -0.0000 0.8732 0.4874
vn -0.0000 0.8564 0.5164
vn -0.0000 0.8382 0.5454
vn -0.0000 0.8187 0.5742
vn -0.0000 0.7973 0.6036
vn -0.0000 0.7738 0.6335
vn -0.0000 0.7486 0.6630
vn -0.0000 0.7220 0.6919
vn -0.0000 0.6939 0.7201
vn -0.0000 0.6645 0.7473
vn -0.0000 0.6338 0.7735
vn -0.0000 0.6020 0.7985
vn -0.0000 0.5692 0.8222
vn -0.0000 0.5357 0.8444
vn -0.0000 0.5016 0.8651
vn -0.0000 0.4670 0.8842
vn -0.0000 0.4299 0.9029
vn -0.0000 0.3900 0.9208
vn -0.0000 0.3500 0.9367
vn -0.0000 0.3101 0.9507
vn -0.0000 0.2705 0.9627
vn -0.0000 0.2314 0.9729
vn -0.0000 0.1930 0.9812
vn -0.0000 0.1554 0.9878
vn -0.0000 0.1189 0.9929
vn -0.0000 0.0834 0.9965
vn -0.0000 0.0491 0.9988
vn -0.0000 0.0160 0.9999
vn -0.0000 -0.0150 0.9999
vn -0.0000 -0.0464 0.9989
vn -0.0000 -0.0798 0.9968
vn -0.0000 -0.1154 0.9933
vn -0.0000 -0.1530 0.9882
vn -0.0000 -0.1928 0.9812
vn -0.0000 -0.2348 0.9721
vn -0.0000 -0.2788 0.9604
vn -0.0000 -0.3247 0.9458
vn -0.0000 -0.3722 0.9281
vn -0.0000 -0.4212 0.9070
vn -0.0000 -0.4710 0.8821
vn -0.0000 -0.5163 0.8564
vn -0.0000 -0.5564 0.8309
vn -0.0000 -0.5958 0.8032
vn -0.0000 -0.6343 0.7731
vn -0.0000 -0.6715 0.7410
vn -0.0000 -0.7072 0.7070
vn -0.0000 -0.7412 0.6713
vn -0.0000 -0.7731 0.6343
vn -0.0000 -0.8028 0.5963
vn -0.0000 -0.8302 0.5575
vn -0.0000 -0.8552 0.5183
vn -0.0000 -0.8779 0.4789
vn -0.0000 -0.8961 0.4439
vn -0.0000 -0.9105 0.4135
vn -0.0000 -0.9235 0.3836
vn -0.0000 -0.9351 0.3543
vn -0.0000 -0.9455 0.3257
vn -0.0000 -0.9546 0.2977
vn -0.0000 -0.9546 0.2978
vn -0.0000 -0.9627 0.2706
vn -0.0000 -0.9697 0.2442
vn -0.0000 -0.9758 0.2187
vn -0.0000 -0.9810 0.1940
vn -0.0000 -0.9854 0.1702
vn -0.0000 -0.9891 0.1472
vn -0.0000 -0.0000 1.0000
vn -0.0000 0.9929 -0.1186
vn -0.0000 0.9929 -0.1185
vn -0.0000 0.9888 -0.1491
vn -0.0000 0.9836 -0.1805
vn -0.0000 0.9771 -0.2126
vn -0.0000 0.9694 -0.2455
vn -0.0000 0.9603 -0.2789
vn -0.0000 0.9498 -0.3128
vn -0.0000 0.9378 -0.3471
vn -0.0000 0.9243 -0.3816
vn -0.0000 0.9093 -0.4161
vn -0.0000 0.8927 -0.4506
vn -0.0000 0.8747 -0.4847
vn -0.0000 0.8537 -0.5208
vn -0.0000 0.8292 -0.5590
vn -0.0000 0.8026 -0.5965
vn -0.0000 0.7741 -0.6331
vn -0.0000 0.7436 -0.6686
vn -0.0000 0.7115 -0.7027
vn -0.0000 0.6779 -0.7352
vn -0.0000 0.6430 -0.7659
vn -0.0000 0.6072 -0.7946
vn -0.0000 0.5706 -0.8212
vn -0.0000 0.5336 -0.8458
vn -0.0000 0.4964 -0.8681
vn -0.0000 0.4555 -0.8902
vn -0.0000 0.4109 -0.9117
vn -0.0000 0.3664 -0.9304
vn -0.0000 0.3226 -0.9466
vn -0.0000 0.2795 -0.9602
vn -0.0000 0.2375 -0.9714
vn -0.0000 0.1967 -0.9805
vn -0.0000 0.1574 -0.9875
vn -0.0000 0.1196 -0.9928
vn -0.0000 0.0834 -0.9965
vn -0.0000 0.0488 -0.9988
vn -0.0000 0.0159 -0.9999
vn -0.0000 -0.0149 -0.9999
vn -0.0000 -0.0455 -0.9990
vn -0.0000 -0.0771 -0.9970
vn -0.0000 -0.1095 -0.9940
vn -0.0000 -0.1427 -0.9898
vn -0.0000 -0.1766 -0.9843
vn -0.0000 -0.2111 -0.9775
vn -0.0000 -0.2461 -0.9692
vn -0.0000 -0.2815 -0.9596
vn -0.0000 -0.3171 -0.9484
vn -0.0000 -0.3528 -0.9357
vn -0.0000 -0.3884 -0.9215
vn -0.0000 -0.4223 -0.9064
vn -0.0000 -0.4547 -0.8907
vn -0.0000 -0.4869 -0.8735
vn -0.0000 -0.5188 -0.8549
vn -0.0000 -0.5502 -0.8350
vn -0.0000 -0.5810 -0.8139
vn -0.0000 -0.6111 -0.7915
vn -0.0000 -0.6403 -0.7681
vn -0.0000 -0.6686 -0.7436
vn -0.0000 -0.6958 -0.7183
vn -0.0000 -0.7217 -0.6922
vn -0.0000 -0.7465 -0.6654
vn -0.0000 -0.7699 -0.6382
vn -0.0000 -0.7921 -0.6104
vn -0.0000 -0.8132 -0.5821
vn -0.0000 -0.8132 -0.5820
vn -0.0000 -0.8330 -0.5533
vn -0.0000 -0.8515 -0.5243
vn -0.0000 -0.8688 -0.4952
vn -0.0000 -0.8848 -0.4660
vn -0.0000 -0.8995 -0.4369
vn -0.0000 -0.9130 -0.4079
vn -0.0000 -0.9253 -0.3793
vn -0.0000 -0.9364 -0.3510
vn -0.0000 -0.9464 -0.3231
vn -0.0000 -0.9555 -0.2950
vn -0.0000 -0.9555 -0.2951
vn -0.0000 -0.9638 -0.2667
vn -0.0000 -0.9711 -0.2387
vn -0.0000 -0.9775 -0.2111
vn -0.0000 -0.9829 -0.1840
vn -0.0000 -0.9875 -0.1575
vn -0.0000 -0.9913 -0.1315
vn -0.0000 -0.9944 -0.1061
vn -0.0000 -0.9967 -0.0814
vn -0.0000 -0.9984 -0.0573
vn -0.0000 -0.9994 -0.0339
vn -0.0000 -0.9999 -0.0111
vn -0.0000 -1.0000 -0.0000
vn -0.0000 -0.9999 0.0111
vn -0.0000 -0.9994 0.0339
vn -0.0000 -0.9984 0.0573
vn -0.0000 -0.9967 0.0814
vn -0.0000 -0.9944 0.1061
vn -0.0000 -0.9913 0.1315
vn -0.0000 -0.9875 0.1575
vn -0.0000 -0.9829 0.1840
vn -0.0000 -0.9775 0.2111
vn -0.0000 -0.9711 0.2387
vn -0.0000 -0.9638 0.2667
vn -0.0000 -0.9555 0.2951
vn -0.0000 -0.9465 0.3227
vn -0.0000 -0.9368 0.3498
vn -0.0000 -0.9260 0.3774
vn -0.0000 -0.9141 0.4054
vn -0.0000 -0.9010 0.4338
vn -0.0000 -0.8867 0.4623
vn -0.0000 -0.8711 0.4911
vn -0.0000 -0.8711 0.4910
vn -0.0000 -0.8543 0.5198
vn -0.0000 -0.8362 0.5485
vn -0.0000 -0.8168 0.5770
vn -0.0000 -0.7961 0.6051
vn -0.0000 -0.7743 0.6329
vn -0.0000 -0.7514 0.6598
vn -0.0000 -0.7275 0.6861
vn -0.0000 -0.7023 0.7118
vn -0.0000 -0.6760 0.7369
vn -0.0000 -0.6485 0.7612
vn -0.0000 -0.6199 0.7847
vn -0.0000 -0.6199 0.7846
vn -0.0000 -0.5905 0.8071
vn -0.0000 -0.5602 0.8284
vn -0.0000 -0.5292 0.8485
vn -0.0000 -0.4977 0.8673
vn -0.0000 -0.4658 0.8849
vn -0.0000 -0.4336 0.9011
vn -0.0000 -0.3997 0.9166
vn -0.0000 -0.3641 0.9314
vn -0.0000 -0.3281 0.9446
vn -0.0000 -0.2920 0.9564
vn -0.0000 -0.2559 0.9667
vn -0.0000 -0.2200 0.9755
vn -0.0000 -0.1844 0.9828
vn -0.0000 -0.1493 0.9888
vn -0.0000 -0.1148 0.9934
vn -0.0000 -0.0810 0.9967
vn -0.0000 -0.0479 0.9989
vn -0.0000 -0.0157 0.9999
vn -0.0000 0.0153 0.9999
vn -0.0000 0.0473 0.9989
vn -0.0000 0.0809 0.9967
vn -0.0000 0.1164 0.9932
vn -0.0000 0.1535 0.9881
vn -0.0000 0.1924 0.9813
vn -0.0000 0.2330 0.9725
vn -0.0000 0.2750 0.9614
vn -0.0000 0.3184 0.9480
vn -0.0000 0.3629 0.9318
vn -0.0000 0.4082 0.9129
vn -0.0000 0.4540 0.8910
vn -0.0000 0.4950 0.8689
vn -0.0000 0.5311 0.8473
vn -0.0000 0.5672 0.8236
vn -0.0000 0.6031 0.7977
vn -0.0000 0.6384 0.7697
vn -0.0000 0.6730 0.7396
vn -0.0000 0.7065 0.7077
vn -0.0000 0.7388 0.6740
vn -0.0000 0.7695 0.6387
vn -0.0000 0.7984 0.6021
vn -0.0000 0.8255 0.5644
vn -0.0000 0.8506 0.5258
vn -0.0000 0.8717 0.4900
vn -0.0000 0.8894 0.4570
vn -0.0000 0.9059 0.4236
vn -0.0000 0.9209 0.3897
vn -0.0000 0.9346 0.3557
vn -0.0000 0.9469 0.3216
vn -0.0000 0.9577 0.2877
vn -0.0000 0.9672 0.2539
vn -0.0000 0.9754 0.2205
vn -0.0000 0.9754 0.2206
vn -0.0000 0.9822 0.1876
vn -0.0000 0.9879 0.1553
vn -0.0000 0.9923 0.1236
vn -0.0000 -0.0000 -1.0000
vn -0.0000 -0.9862 -0.1653
s 1
f 1//1 2//1 3//1
f 4//1 5//1 6//1
f 7//1 8//1 4//1
f 9//1 10//1 7//1
f 11//1 12//1 9//1
f 13//1 14//1 11//1
f 15//1 16//1 13//1
f 17//1 18//1 15//1
f 19//1 20//1 17//1
f 21//1 22//2 19//1
f 23//1 24//3 21//1
f 25//1 26//3 23//1
f 27//1 28//1 25//1
f 29//1 30//1 27//1
f 31//1 32//1 29//1
f 33//1 34//1 31//1
f 35//1 36//1 33//1
f 37//1 38//1 35//1
f 39//1 40//1 37//1
f 41//1 42//1 39//1
f 43//1 44//1 41//1
f 45//1 46//1 43//1
f 47//1 48//1 45//1
f 49//1 50//1 47//1
f 51//1 52//1 49//1
f 53//1 54//1 51//1
f 55//1 56//1 53//1
f 57//1 58//1 55//1
f 59//1 60//1 57//1
f 61//1 62//1 59//1
f 63//1 64//3 61//1
f 65//1 66//2 63//1
f 67//1 68//3 65//1
f 69//1 70//1 67//1
f 71//1 72//1 69//1
f 73//1 74//2 71//1
f 75//1 76//2 73//1
f 77//1 78//1 75//1
f 79//1 80//1 77//1
f 81//1 82//2 79//1
f 83//1 84//1 81//1
f 85//1 86//1 83//1
f 87//1 88//1 85//1
f 89//1 90//4 87//1
f 91//1 92//1 89//1
f 93//1 94//1 91//1
f 95//1 96//2 93//1
f 97//1 98//1 95//1
f 99//1 100//1 97//1
f 101//1 102//2 99//1
f 103//1 104//1 101//1
f 105//1 106//1 103//1
f 107//1 108//2 105//1
f 109//1 110//1 107//1
f 111//1 112//3 109//1
f 113//1 114//3 111//1
f 115//1 116//1 113//1
f 117//1 118//1 115//1
f 119//1 120//3 117//1
f 121//1 122//1 119//1
f 123//1 124//1 121//1
f 125//1 126//1 123//1
f 127//1 128//1 125//1
f 129//1 130//1 127//1
f 131//1 132//1 129//1
f 133//1 134//1 131//1
f 135//1 136//1 133//1
f 137//1 138//1 135//1
f 139//1 140//1 137//1
f 141//1 142//1 139//1
f 143//1 144//1 141//1
f 145//1 146//1 143//1
f 147//1 148//1 145//1
f 149//1 150//1 147//1
f 151//1 152//1 149//1
f 153//1 154//3 151//1
f 155//1 156//2 153//1
f 157//1 158//3 155//1
f 159//1 160//2 157//1
f 161//1 162//3 159//1
f 163//1 164//2 161//1
f 165//1 166//1 163//1
f 167//1 168//1 165//1
f 169//1 170//3 167//1
f 171//1 172//2 169//1
f 173//1 174//1 171//1
f 1//1 3//1 173//1
f 4//1 6//1 175//1
f 9//1 7//1 4//1
f 13//1 11//1 9//1
f 17//1 15//1 13//1
f 21//1 19//1 17//1
f 25//1 23//1 21//1
f 29//1 27//1 25//1
f 33//1 31//1 29//1
f 37//1 35//1 33//1
f 41//1 39//1 37//1
f 45//1 43//1 41//1
f 49//1 47//1 45//1
f 53//1 51//1 49//1
f 57//1 55//1 53//1
f 61//1 59//1 57//1
f 65//1 63//1 61//1
f 69//1 67//1 65//1
f 73//1 71//1 69//1
f 77//1 75//1 73//1
f 81//1 79//1 77//1
f 85//1 83//1 81//1
f 89//1 87//1 85//1
f 93//1 91//1 89//1
f 97//1 95//1 93//1
f 101//1 99//1 97//1
f 105//1 103//1 101//1
f 109//1 107//1 105//1
f 113//1 111//1 109//1
f 117//1 115//1 113//1
f 121//1 119//1 117//1
f 125//1 123//1 121//1
f 129//1 127//1 125//1
f 133//1 131//1 129//1
f 137//1 135//1 133//1
f 141//1 139//1 137//1
f 145//1 143//1 141//1
f 149//1 147//1 145//1
f 153//1 151//1 149//1
f 157//1 155//1 153//1
f 161//1 159//1 157//1
f 165//1 163//1 161//1
f 169//1 167//1 165//1
f 173//1 171//1 169//1
f 176//1 1//1 173//1
f 4//1 175//1 177//1
f 13//1 9//1 4//1
f 21//1 17//1 13//1
f 29//1 25//1 21//1
f 37//1 33//1 29//1
f 45//1 41//1 37//1
f 53//1 49//1 45//1
f 61//1 57//1 53//1
f 69//1 65//1 61//1
f 77//1 73//1 69//1
f 85//1 81//1 77//1
f 93//1 89//1 85//1
f 101//1 97//1 93//1
f 109//1 105//1 101//1
f 117//1 113//1 109//1
f 125//1 121//1 117//1
f 133//1 129//1 125//1
f 141//1 137//1 133//1
f 149//1 145//1 141//1
f 157//1 153//1 149//1
f 165//1 161//1 157//1
f 173//1 169//1 165//1
f 178//1 176//1 173//1
f 4//1 177//1 179//1
f 21//1 13//1 4//1
f 37//1 29//1 21//1
f 53//1 45//1 37//1
f 69//1 61//1 53//1
f 85//1 77//1 69//1
f 101//1 93//1 85//1
f 117//1 109//1 101//1
f 133//1 125//1 117//1
f 149//1 141//1 133//1
f 165//1 157//1 149//1
f 178//1 173//1 165//1
f 4//1 179//1 180//1
f 37//1 21//1 4//1
f 69//1 53//1 37//1
f 101//1 85//1 69//1
f 133//1 117//1 101//1
f 165//1 149//1 133//1
f 181//1 178//1 165//1
f 4//1 180//1 182//1
f 183//1 181//1 165//1
f 4//1 182//1 184//1
f 185//1 183//1 165//1
f 4//1 184//1 186//1
f 187//1 185//1 165//1
f 4//1 186//1 188//1
f 189//1 187//1 165//1
f 4//1 188//1 190//1
f 191//1 189//1 165//1
f 4//1 190//1 192//1
f 193//1 191//1 165//1
f 4//1 192//1 194//1
f 195//1 193//1 165//1
f 4//1 194//1 196//1
f 197//1 195//1 165//1
f 4//1 196//1 198//1
f 199//1 197//1 165//1
f 4//1 198//1 200//1
f 201//1 199//1 165//1
f 4//1 200//1 202//1
f 203//1 201//1 165//1
f 4//1 202//1 204//1
f 205//1 203//1 165//1
f 4//1 204//1 206//1
f 207//1 205//1 165//1
f 4//1 206//1 208//1
f 209//1 207//1 165//1
f 4//1 208//1 210//1
f 211//1 209//1 165//1
f 37//1 4//1 210//1
f 212//1 211//1 165//1
f 37//1 210//1 213//1
f 214//1 212//1 165//1
f 37//1 213//1 215//1
f 216//1 214//1 165//1
f 37//1 215//1 217//1
f 218//1 216//1 165//1
f 37//1 217//1 219//1
f 218//1 165//1 133//1
f 37//1 219//1 220//1
f 221//3 218//1 133//1
f 37//1 220//1 222//1
f 223//1 221//3 133//1
f 37//1 222//1 224//1
f 225//1 223//1 133//1
f 37//1 224//1 226//1
f 227//1 225//1 133//1
f 37//1 226//1 228//1
f 229//1 227//1 133//1
f 37//1 228//1 230//1
f 231//1 229//1 133//1
f 37//1 230//1 232//1
f 233//1 231//1 133//1
f 37//1 232//1 234//1
f 235//1 233//1 133//1
f 37//1 234//1 236//1
f 237//1 235//1 133//1
f 37//1 236//1 238//1
f 239//1 237//1 133//1
f 37//1 238//1 240//1
f 241//1 239//1 133//1
f 37//1 240//1 242//1
f 243//1 241//1 133//1
f 37//1 242//1 244//1
f 245//1 243//1 133//1
f 37//1 244//1 246//1
f 247//1 245//1 133//1
f 37//1 246//1 248//1
f 249//1 247//1 133//1
f 37//1 248//1 250//1
f 251//1 249//1 133//1
f 37//1 250//1 252//1
f 253//1 251//1 133//1
f 37//1 252//1 254//1
f 255//1 253//1 133//1
f 37//1 254//1 256//1
f 257//1 255//1 133//1
f 37//1 256//1 258//1
f 259//1 257//1 133//1
f 37//1 258//1 260//1
f 261//1 259//1 133//1
f 37//1 260//1 262//1
f 263//1 261//1 133//1
f 37//1 262//1 264//1
f 265//1 263//1 133//1
f 37//1 264//1 266//1
f 267//1 265//1 133//1
f 37//1 266//1 268//1
f 269//1 267//1 133//1
f 37//1 268//1 270//1
f 271//1 269//1 133//1
f 37//1 270//1 272//1
f 271//1 133//1 101//1
f 69//1 37//1 272//1
f 273//1 271//1 101//1
f 69//1 272//1 274//1
f 275//1 273//1 101//1
f 69//1 274//1 276//1
f 277//1 275//1 101//1
f 69//1 276//1 278//1
f 279//1 277//1 101//1
f 69//1 278//1 280//1
f 281//1 279//1 101//1
f 69//1 280//1 282//1
f 283//1 281//1 101//1
f 69//1 282//1 284//1
f 285//1 283//1 101//1
f 69//1 284//1 286//1
f 287//1 285//1 101//1
f 69//1 286//1 288//1
f 289//1 287//1 101//1
f 69//1 288//1 290//1
f 291//1 289//1 101//1
f 69//1 290//1 292//1
f 293//1 291//1 101//1
f 69//1 292//1 294//1
f 295//1 293//1 101//1
f 69//1 294//1 296//1
f 297//1 295//1 101//1
f 69//1 296//1 298//1
f 299//1 297//1 101//1
f 69//1 298//1 300//1
f 301//1 299//1 101//1
f 69//1 300//1 302//1
f 303//1 301//1 101//1
f 69//1 302//1 304//1
f 305//1 303//1 101//1
f 69//1 304//1 306//1
f 307//1 305//1 101//1
f 69//1 306//1 308//1
f 309//1 307//1 101//1
f 69//1 308//1 310//1
f 311//1 309//1 101//1
f 69//1 310//1 312//1
f 313//1 311//1 101//1
f 69//1 312//1 314//1
f 315//1 313//1 101//1
f 69//1 314//1 316//1
f 317//1 315//1 101//1
f 69//1 316//1 318//1
f 319//1 317//1 101//1
f 69//1 318//1 320//1
f 321//1 319//1 101//1
f 69//1 320//1 322//1
f 323//1 321//1 101//1
f 69//1 322//1 324//1
f 325//1 323//1 101//1
f 69//1 324//1 326//1
f 327//1 325//1 101//1
f 69//1 326//1 328//1
f 327//1 101//1 69//1
f 69//1 328//1 329//1
f 330//1 327//1 69//1
f 69//1 329//1 331//1
f 332//1 330//1 69//1
f 69//1 331//1 333//1
f 334//1 332//1 69//1
f 69//1 333//1 335//1
f 336//1 334//1 69//1
f 69//1 335//1 337//1
f 338//1 336//1 69//1
f 69//1 337//1 339//1
f 340//1 338//1 69//1
f 69//1 339//1 340//1
f 341//5 342//5 343//5
f 344//5 345//5 346//5
f 346//5 347//6 348//5
f 348//5 349//7 350//5
f 350//5 351//7 352//5
f 352//5 353//5 354//5
f 354//5 355//7 356//5
f 356//5 357//5 358//5
f 358//5 359//6 360//5
f 360//5 361//5 362//5
f 362//5 363//5 364//5
f 364//5 365//6 366//5
f 366//5 367//5 368//5
f 368//5 369//7 370//5
f 370//5 371//5 372//5
f 372//5 373//5 374//5
f 374//5 375//5 376//5
f 376//5 377//5 378//5
f 378//5 379//5 380//5
f 380//5 381//5 382//5
f 382//5 383//5 384//5
f 384//5 385//5 386//5
f 386//5 387//5 388//5
f 388//5 389//5 390//5
f 390//5 391//5 392//5
f 392//5 393//5 394//5
f 394//5 395//5 396//5
f 396//5 397//5 398//5
f 398//5 399//5 400//5
f 400//5 401//6 402//5
f 402//5 403//6 404//5
f 404//5 405//5 406//5
f 406//5 407//7 408//5
f 408//5 409//5 410//5
f 410//5 411//7 412//5
f 412//5 413//6 414//5
f 414//5 415//5 416//5
f 416//5 417//5 418//5
f 418//5 419//7 420//5
f 420//5 421//5 422//5
f 422//5 423//6 424//5
f 424//5 425//6 426//5
f 426//5 427//6 428//5
f 428//5 429//5 430//5
f 430//5 431//7 432//5
f 432//5 433//7 434//5
f 434//5 435//7 436//5
f 436//5 437//7 438//5
f 438//5 439//5 440//5
f 440//5 441//6 442//5
f 442//5 443//5 444//5
f 444//5 445//7 446//5
f 446//5 447//7 448//5
f 448//5 449//5 450//5
f 450//5 451//5 452//5
f 452//5 453//6 454//5
f 454//5 455//5 456//5
f 456//5 457//6 458//5
f 458//5 459//7 460//5
f 460//5 461//6 462//5
f 462//5 463//5 464//5
f 464//5 465//5 466//5
f 466//5 467//5 468//5
f 468//5 469//5 470//5
f 470//5 471//5 472//5
f 472//5 473//5 474//5
f 474//5 475//5 476//5
f 476//5 477//5 478//5
f 478//5 479//5 480//5
f 480//5 481//5 482//5
f 482//5 483//5 484//5
f 484//5 485//5 486//5
f 486//5 487//5 488//5
f 488//5 489//5 490//5
f 490//5 491//5 492//5
f 492//5 493//6 494//5
f 494//5 495//6 496//5
f 496//5 497//7 498//5
f 498//5 499//7 500//5
f 500//5 501//5 502//5
f 502//5 503//5 504//5
f 504//5 505//5 506//5
f 506//5 507//5 508//5
f 508//5 509//6 510//5
f 510//5 511//5 512//5
f 512//5 513//6 514//5
f 514//5 341//5 343//5
f 515//5 344//5 346//5
f 346//5 348//5 350//5
f 350//5 352//5 354//5
f 354//5 356//5 358//5
f 358//5 360//5 362//5
f 362//5 364//5 366//5
f 366//5 368//5 370//5
f 370//5 372//5 374//5
f 374//5 376//5 378//5
f 378//5 380//5 382//5
f 382//5 384//5 386//5
f 386//5 388//5 390//5
f 390//5 392//5 394//5
f 394//5 396//5 398//5
f 398//5 400//5 402//5
f 402//5 404//5 406//5
f 406//5 408//5 410//5
f 410//5 412//5 414//5
f 414//5 416//5 418//5
f 418//5 420//5 422//5
f 422//5 424//5 426//5
f 426//5 428//5 430//5
f 430//5 432//5 434//5
f 434//5 436//5 438//5
f 438//5 440//5 442//5
f 442//5 444//5 446//5
f 446//5 448//5 450//5
f 450//5 452//5 454//5
f 454//5 456//5 458//5
f 458//5 460//5 462//5
f 462//5 464//5 466//5
f 466//5 468//5 470//5
f 470//5 472//5 474//5
f 474//5 476//5 478//5
f 478//5 480//5 482//5
f 482//5 484//5 486//5
f 486//5 488//5 490//5
f 490//5 492//5 494//5
f 494//5 496//5 498//5
f 498//5 500//5 502//5
f 502//5 504//5 506//5
f 506//5 508//5 510//5
f 510//5 512//5 514//5
f 514//5 343//5 516//5
f 517//5 515//5 346//5
f 346//5 350//5 354//5
f 354//5 358//5 362//5
f 362//5 366//5 370//5
f 370//5 374//5 378//5
f 378//5 382//5 386//5
f 386//5 390//5 394//5
f 394//5 398//5 402//5
f 402//5 406//5 410//5
f 410//5 414//5 418//5
f 418//5 422//5 426//5
f 426//5 430//5 434//5
f 434//5 438//5 442//5
f 442//5 446//5 450//5
f 450//5 454//5 458//5
f 458//5 462//5 466//5
f 466//5 470//5 474//5
f 474//5 478//5 482//5
f 482//5 486//5 490//5
f 490//5 494//5 498//5
f 498//5 502//5 506//5
f 506//5 510//5 514//5
f 514//5 516//5 518//5
f 519//5 517//5 346//5
f 346//5 354//5 362//5
f 362//5 370//5 378//5
f 378//5 386//5 394//5
f 394//5 402//5 410//5
f 410//5 418//5 426//5
f 426//5 434//5 442//5
f 442//5 450//5 458//5
f 458//5 466//5 474//5
f 474//5 482//5 490//5
f 490//5 498//5 506//5
f 506//5 514//5 518//5
f 520//5 519//5 346//5
f 346//5 362//5 378//5
f 378//5 394//5 410//5
f 410//5 426//5 442//5
f 442//5 458//5 474//5
f 474//5 490//5 506//5
f 506//5 518//5 521//5
f 522//5 520//5 346//5
f 506//5 521//5 523//5
f 524//5 522//5 346//5
f 506//5 523//5 525//5
f 526//5 524//5 346//5
f 506//5 525//5 527//5
f 528//5 526//5 346//5
f 506//5 527//5 529//5
f 530//5 528//5 346//5
f 506//5 529//5 531//5
f 532//5 530//5 346//5
f 506//5 531//5 533//5
f 534//5 532//5 346//5
f 506//5 533//5 535//5
f 536//5 534//5 346//5
f 506//5 535//5 537//5
f 538//5 536//5 346//5
f 506//5 537//5 539//5
f 540//5 538//5 346//5
f 506//5 539//5 541//5
f 542//5 540//5 346//5
f 506//5 541//5 543//5
f 544//5 542//5 346//5
f 506//5 543//5 545//5
f 546//5 544//5 346//5
f 506//5 545//5 547//5
f 548//5 546//5 346//5
f 506//5 547//5 549//5
f 550//5 548//5 346//5
f 506//5 549//5 551//5
f 550//5 346//5 378//5
f 506//5 551//5 552//5
f 553//5 550//5 378//5
f 506//5 552//5 554//5
f 555//5 553//5 378//5
f 506//5 554//5 556//5
f 557//5 555//5 378//5
f 506//5 556//5 558//5
f 559//5 557//5 378//5
f 474//5 506//5 558//5
f 560//5 559//5 378//5
f 474//5 558//5 561//5
f 562//5 560//5 378//5
f 474//5 561//5 563//5
f 564//5 562//5 378//5
f 474//5 563//5 565//5
f 566//5 564//5 378//5
f 474//5 565//5 567//5
f 568//5 566//5 378//5
f 474//5 567//5 569//5
f 570//5 568//5 378//5
f 474//5 569//5 571//5
f 572//5 570//5 378//5
f 474//5 571//5 573//5
f 574//5 572//5 378//5
f 474//5 573//5 575//5
f 576//5 574//5 378//5
f 474//5 575//5 577//5
f 578//5 576//5 378//5
f 474//5 577//5 579//5
f 580//5 578//5 378//5
f 474//5 579//5 581//5
f 582//5 580//5 378//5
f 474//5 581//5 583//5
f 584//5 582//5 378//5
f 474//5 583//5 585//5
f 586//5 584//5 378//5
f 474//5 585//5 587//5
f 588//5 586//5 378//5
f 474//5 587//5 589//5
f 590//5 588//5 378//5
f 474//5 589//5 591//5
f 592//5 590//5 378//5
f 474//5 591//5 593//5
f 594//5 592//5 378//5
f 474//5 593//5 595//5
f 596//5 594//5 378//5
f 474//5 595//5 597//5
f 598//5 596//5 378//5
f 474//5 597//5 599//5
f 600//5 598//5 378//5
f 474//5 599//5 601//5
f 602//5 600//5 378//5
f 474//5 601//5 603//5
f 604//5 602//5 378//5
f 474//5 603//5 605//5
f 606//5 604//5 378//5
f 474//5 605//5 607//5
f 608//6 606//5 378//5
f 474//5 607//5 609//5
f 610//5 608//6 378//5
f 474//5 609//5 611//5
f 612//5 610//5 378//5
f 442//5 474//5 611//5
f 612//5 378//5 410//5
f 442//5 611//5 613//5
f 614//5 612//5 410//5
f 442//5 613//5 615//5
f 616//5 614//5 410//5
f 442//5 615//5 617//5
f 618//5 616//5 410//5
f 442//5 617//5 619//5
f 620//5 618//5 410//5
f 442//5 619//5 621//5
f 622//5 620//5 410//5
f 442//5 621//5 623//5
f 624//5 622//5 410//5
f 442//5 623//5 625//5
f 626//5 624//5 410//5
f 442//5 625//5 627//5
f 628//5 626//5 410//5
f 442//5 627//5 629//5
f 630//5 628//5 410//5
f 442//5 629//5 631//5
f 632//5 630//5 410//5
f 442//5 631//5 633//5
f 634//5 632//5 410//5
f 442//5 633//5 635//5
f 636//5 634//5 410//5
f 442//5 635//5 637//5
f 638//5 636//5 410//5
f 442//5 637//5 639//5
f 640//5 638//5 410//5
f 442//5 639//5 641//5
f 642//5 640//5 410//5
f 442//5 641//5 643//5
f 644//5 642//5 410//5
f 442//5 643//5 645//5
f 646//5 644//5 410//5
f 442//5 645//5 647//5
f 648//5 646//5 410//5
f 442//5 647//5 649//5
f 650//5 648//5 410//5
f 442//5 649//5 651//5
f 652//5 650//5 410//5
f 442//5 651//5 653//5
f 654//5 652//5 410//5
f 442//5 653//5 655//5
f 656//5 654//5 410//5
f 442//5 655//5 657//5
f 658//5 656//5 410//5
f 442//5 657//5 659//5
f 660//5 658//5 410//5
f 442//5 659//5 661//5
f 662//5 660//5 410//5
f 442//5 661//5 663//5
f 664//5 662//5 410//5
f 442//5 663//5 665//5
f 666//5 664//5 410//5
f 442//5 665//5 667//5
f 668//5 666//5 410//5
f 410//5 442//5 667//5
f 669//5 668//5 410//5
f 410//5 667//5 670//6
f 671//5 669//5 410//5
f 410//5 670//6 672//6
f 673//5 671//5 410//5
f 410//5 672//6 674//5
f 675//5 673//5 410//5
f 410//5 674//5 676//5
f 677//5 675//5 410//5
f 410//5 676//5 678//5
f 679//5 677//5 410//5
f 410//5 678//5 680//5
f 680//5 679//5 410//5
f 1//8 176//8 343//8
f 176//8 516//8 343//8
f 176//9 178//9 516//9
f 178//9 518//9 516//9
f 178//10 181//10 518//10
f 181//10 521//10 518//10
f 181//11 183//11 521//11
f 183//11 523//11 521//11
f 183//12 185//12 523//12
f 185//12 525//12 523//12
f 185//13 187//13 525//13
f 187//13 527//13 525//13
f 187//14 189//14 527//14
f 189//14 529//14 527//14
f 189//15 191//15 529//15
f 191//15 531//15 529//15
f 191//16 193//16 531//16
f 193//16 533//16 531//16
f 193//17 195//17 533//17
f 195//17 535//17 533//17
f 195//18 197//18 535//18
f 197//18 537//18 535//18
f 197//19 199//19 537//19
f 199//19 539//19 537//19
f 199//20 201//20 539//20
f 201//20 541//20 539//20
f 201//21 203//21 541//21
f 203//21 543//21 541//21
f 203//22 205//22 543//22
f 205//22 545//22 543//22
f 205//23 207//23 545//23
f 207//23 547//23 545//23
f 207//24 209//24 547//24
f 209//24 549//24 547//24
f 209//25 211//25 549//25
f 211//25 551//25 549//25
f 211//26 212//26 551//26
f 212//26 552//26 551//26
f 212//27 214//27 552//27
f 214//27 554//27 552//27
f 214//28 216//28 554//28
f 216//28 556//28 554//28
f 216//29 218//29 556//29
f 218//29 558//29 556//29
f 218//30 221//30 558//30
f 221//30 561//30 558//30
f 221//31 223//31 561//31
f 223//31 563//31 561//31
f 223//32 225//32 563//32
f 225//32 565//32 563//32
f 225//33 227//33 565//33
f 227//33 567//33 565//33
f 227//34 229//34 567//34
f 229//34 569//34 567//34
f 229//35 231//35 569//35
f 231//35 571//35 569//35
f 231//36 233//36 571//36
f 233//36 573//36 571//36
f 233//37 235//37 573//37
f 235//37 575//37 573//37
f 235//38 237//38 575//38
f 237//38 577//38 575//38
f 237//39 239//39 577//39
f 239//39 579//39 577//39
f 239//40 241//40 579//40
f 241//40 581//40 579//40
f 241//41 243//41 581//41
f 243//41 583//41 581//41
f 243//42 245//42 583//42
f 245//42 585//42 583//42
f 245//43 247//43 585//43
f 247//43 587//43 585//43
f 247//44 249//44 587//44
f 249//44 589//44 587//44
f 249//45 251//45 589//45
f 251//45 591//45 589//45
f 251//46 253//46 591//46
f 253//46 593//46 591//46
f 253//47 255//47 593//47
f 255//47 595//47 593//47
f 255//48 257//48 595//48
f 257//48 597//48 595//48
f 257//49 259//49 597//49
f 259//49 599//49 597//49
f 259//50 261//50 599//50
f 261//50 601//50 599//50
f 261//51 263//51 601//51
f 263//51 603//51 601//51
f 263//52 265//52 603//52
f 265//52 605//52 603//52
f 265//53 267//53 605//53
f 267//53 607//53 605//53
f 267//54 269//54 607//54
f 269//54 609//54 607//54
f 269//55 271//55 609//55
f 271//55 611//55 609//55
f 271//56 273//56 611//56
f 273//56 613//56 611//56
f 273//57 275//57 613//57
f 275//57 615//57 613//57
f 275//58 277//58 615//58
f 277//58 617//58 615//58
f 277//59 279//59 617//59
f 279//59 619//59 617//59
f 279//60 281//60 619//60
f 281//60 621//60 619//60
f 281//61 283//61 621//61
f 283//61 623//61 621//61
f 283//62 285//62 623//62
f 285//62 625//62 623//62
f 285//63 287//63 625//63
f 287//63 627//63 625//63
f 287//64 289//64 627//64
f 289//64 629//64 627//64
f 289//65 291//65 629//65
f 291//65 631//65 629//65
f 291//66 293//66 631//66
f 293//66 633//66 631//66
f 293//67 295//67 633//67
f 295//67 635//67 633//67
f 295//68 297//68 635//68
f 297//68 637//68 635//68
f 297//69 299//69 637//69
f 299//69 639//69 637//69
f 299//70 301//70 639//70
f 301//70 641//70 639//70
f 301//71 303//71 641//71
f 303//71 643//71 641//71
f 303//72 305//72 643//72
f 305//72 645//72 643//72
f 305//73 307//73 645//73
f 307//73 647//73 645//73
f 307//74 309//74 647//74
f 309//74 649//74 647//74
f 309//75 311//75 649//75
f 311//75 651//75 649//75
f 311//76 313//76 651//76
f 313//76 653//76 651//76
f 313//77 315//77 653//77
f 315//77 655//77 653//77
f 315//78 317//78 655//78
f 317//78 657//78 655//78
f 317//79 319//79 657//79
f 319//79 659//79 657//79
f 319//80 321//80 659//80
f 321//80 661//80 659//80
f 321//81 323//81 661//81
f 323//81 663//81 661//81
f 323//82 325//82 663//83
f 325//82 665//83 663//83
f 325//84 327//84 665//84
f 327//84 667//84 665//84
f 327//85 330//85 667//85
f 330//85 670//85 667//85
f 330//86 332//86 670//86
f 332//86 672//86 670//86
f 332//87 334//87 672//87
f 334//87 674//87 672//87
f 334//88 336//88 674//88
f 336//88 676//88 674//88
f 336//89 338//89 676//89
f 338//89 678//89 676//89
f 338//90 340//90 678//90
f 340//90 680//90 678//90
f 340//91 339//91 680//91
f 339//91 679//92 680//91
f 339//91 337//92 679//92
f 337//92 677//93 679//92
f 337//92 335//94 677//93
f 335//94 675//94 677//93
f 335//95 333//95 675//95
f 333//95 673//95 675//95
f 333//96 331//96 673//96
f 331//96 671//96 673//96
f 331//97 329//97 671//97
f 329//97 669//97 671//97
f 329//98 328//98 669//98
f 328//98 668//98 669//98
f 328//99 326//99 668//99
f 326//99 666//99 668//99
f 326//100 324//100 666//100
f 324//100 664//100 666//100
f 324//101 322//101 664//101
f 322//101 662//101 664//101
f 322//102 320//102 662//102
f 320//102 660//102 662//102
f 320//103 318//103 660//103
f 318//103 658//103 660//103
f 318//104 316//104 658//104
f 316//104 656//104 658//104
f 316//105 314//105 656//105
f 314//105 654//105 656//105
f 314//106 312//106 654//106
f 312//106 652//106 654//106
f 312//107 310//107 652//107
f 310//107 650//107 652//107
f 310//108 308//108 650//108
f 308//108 648//108 650//108
f 308//109 306//109 648//110
f 306//109 646//110 648//110
f 306//111 304//111 646//111
f 304//111 644//111 646//111
f 304//112 302//112 644//112
f 302//112 642//112 644//112
f 302//113 300//113 642//113
f 300//113 640//113 642//113
f 300//114 298//114 640//114
f 298//114 638//114 640//114
f 298//115 296//115 638//115
f 296//115 636//115 638//115
f 296//116 294//116 636//116
f 294//116 634//116 636//116
f 294//117 292//117 634//117
f 292//117 632//117 634//117
f 292//118 290//118 632//118
f 290//118 630//118 632//118
f 290//119 288//119 630//119
f 288//119 628//119 630//119
f 288//120 286//120 628//120
f 286//120 626//120 628//120
f 286//121 284//121 626//121
f 284//121 624//121 626//121
f 284//122 282//122 624//122
f 282//122 622//122 624//122
f 282//123 280//123 622//123
f 280//123 620//123 622//123
f 280//124 278//124 620//124
f 278//124 618//124 620//124
f 278//125 276//125 618//125
f 276//125 616//125 618//125
f 276//126 274//126 616//126
f 274//126 614//126 616//126
f 274//127 272//127 614//127
f 272//127 612//127 614//127
f 272//128 270//128 612//128
f 270//128 610//128 612//128
f 270//129 268//129 610//129
f 268//129 608//129 610//129
f 268//130 266//130 608//130
f 266//130 606//130 608//130
f 266//131 264//131 606//131
f 264//131 604//131 606//131
f 264//132 262//132 604//132
f 262//132 602//132 604//132
f 262//133 260//133 602//133
f 260//133 600//133 602//133
f 260//134 258//134 600//134
f 258//134 598//134 600//134
f 258//135 256//135 598//135
f 256//135 596//135 598//135
f 256//136 254//136 596//136
f 254//136 594//136 596//136
f 254//137 252//137 594//137
f 252//137 592//137 594//137
f 252//138 250//138 592//138
f 250//138 590//138 592//138
f 250//139 248//139 590//139
f 248//139 588//139 590//139
f 248//140 246//140 588//140
f 246//140 586//140 588//140
f 246//141 244//141 586//141
f 244//141 584//141 586//141
f 244//142 242//142 584//142
f 242//142 582//142 584//142
f 242//143 240//143 582//143
f 240//143 580//143 582//143
f 240//144 238//144 580//144
f 238//144 578//144 580//144
f 238//145 236//145 578//145
f 236//145 576//145 578//145
f 236//146 234//146 576//146
f 234//146 574//146 576//146
f 234//147 232//147 574//147
f 232//147 572//147 574//147
f 232//148 230//148 572//148
f 230//148 570//148 572//148
f 230//149 228//149 570//149
f 228//149 568//149 570//149
f 228//150 226//150 568//150
f 226//150 566//150 568//150
f 226//151 224//151 566//151
f 224//151 564//151 566//151
f 224//152 222//152 564//152
f 222//152 562//152 564//152
f 222//153 220//153 562//153
f 220//153 560//153 562//153
f 220//154 219//154 560//154
f 219//154 559//154 560//154
f 219//155 217//155 559//155
f 217//155 557//155 559//155
f 217//156 215//156 557//156
f 215//156 555//156 557//156
f 215//157 213//157 555//157
f 213//157 553//157 555//157
f 213//158 210//158 553//158
f 210//158 550//158 553//158
f 210//159 208//159 550//159
f 208//159 548//159 550//159
f 208//160 206//160 548//160
f 206//160 546//160 548//160
f 206//161 204//161 546//161
f 204//161 544//161 546//161
f 204//162 202//162 544//162
f 202//162 542//162 544//162
f 202//163 200//163 542//163
f 200//163 540//163 542//163
f 200//164 198//164 540//164
f 198//164 538//164 540//164
f 198//165 196//165 538//165
f 196//165 536//165 538//165
f 196//166 194//166 536//166
f 194//166 534//166 536//166
f 194//167 192//167 534//167
f 192//167 532//167 534//167
f 192//168 190//168 532//168
f 190//168 530//168 532//168
f 190//169 188//169 530//169
f 188//169 528//169 530//169
f 188//170 186//170 528//170
f 186//170 526//170 528//170
f 186//171 184//171 526//171
f 184//171 524//171 526//171
f 184//172 182//172 524//173
f 182//172 522//173 524//173
f 182//174 180//174 522//174
f 180//174 520//174 522//174
f 180//175 179//175 520//175
f 179//175 519//175 520//175
f 179//176 177//176 519//176
f 177//176 517//176 519//176
f 177//177 175//177 517//177
f 175//177 515//177 517//177
f 175//178 6//178 515//178
f 6//178 344//178 515//178
f 6//179 5//179 344//179
f 5//179 345//179 344//179
f 5//180 4//180 345//180
f 4//180 346//180 345//180
f 4//181 8//181 346//182
f 8//181 347//182 346//182
f 8//183 7//183 347//183
f 7//183 348//183 347//183
f 7//184 10//184 348//184
f 10//184 349//184 348//184
f 10//185 9//185 349//185
f 9//185 350//185 349//185
f 9//186 12//186 350//186
f 12//186 351//186 350//186
f 12//187 11//187 351//187
f 11//187 352//187 351//187
f 11//188 14//188 352//188
f 14//188 353//188 352//188
f 14//189 13//189 353//189
f 13//189 354//189 353//189
f 13//190 16//190 354//190
f 16//190 355//190 354//190
f 16//191 15//191 355//191
f 15//191 356//191 355//191
f 15//192 18//192 356//192
f 18//192 357//192 356//192
f 18//193 17//193 357//193
f 17//193 358//193 357//193
f 17//194 20//194 358//194
f 20//194 359//194 358//194
f 20//195 19//195 359//195
f 19//195 360//195 359//195
f 19//196 22//196 360//196
f 22//196 361//196 360//196
f 22//197 21//197 361//197
f 21//197 362//197 361//197
f 21//198 24//198 362//198
f 24//198 363//198 362//198
f 24//199 23//199 363//199
f 23//199 364//199 363//199
f 23//200 26//200 364//200
f 26//200 365//200 364//200
f 26//201 25//201 365//201
f 25//201 366//201 365//201
f 25//202 28//202 366//202
f 28//202 367//202 366//202
f 28//203 27//203 367//203
f 27//203 368//203 367//203
f 27//204 30//204 368//204
f 30//204 369//204 368//204
f 30//205 29//205 369//205
f 29//205 370//205 369//205
f 29//206 32//206 370//206
f 32//206 371//206 370//206
f 32//207 31//207 371//207
f 31//207 372//207 371//207
f 31//208 34//208 372//208
f 34//208 373//208 372//208
f 34//209 33//209 373//209
f 33//209 374//209 373//209
f 33//210 36//210 374//210
f 36//210 375//210 374//210
f 36//211 35//211 375//211
f 35//211 376//211 375//211
f 35//212 38//212 376//212
f 38//212 377//212 376//212
f 38//213 37//213 377//213
f 37//213 378//213 377//213
f 37//214 40//214 378//214
f 40//214 379//214 378//214
f 40//215 39//215 379//215
f 39//215 380//215 379//215
f 39//216 42//216 380//216
f 42//216 381//216 380//216
f 42//217 41//217 381//217
f 41//217 382//217 381//217
f 41//218 44//218 382//218
f 44//218 383//218 382//218
f 44//219 43//219 383//219
f 43//219 384//219 383//219
f 43//220 46//220 384//220
f 46//220 385//220 384//220
f 46//221 45//221 385//221
f 45//221 386//221 385//221
f 45//222 48//222 386//222
f 48//222 387//222 386//222
f 48//223 47//223 387//223
f 47//223 388//223 387//223
f 47//224 50//224 388//224
f 50//224 389//224 388//224
f 50//225 49//225 389//225
f 49//225 390//225 389//225
f 49//226 52//226 390//226
f 52//226 391//226 390//226
f 52//227 51//227 391//227
f 51//227 392//227 391//227
f 51//228 54//228 392//228
f 54//228 393//228 392//228
f 54//229 53//229 393//229
f 53//229 394//229 393//229
f 53//230 56//230 394//230
f 56//230 395//230 394//230
f 56//231 55//231 395//231
f 55//231 396//231 395//231
f 55//232 58//232 396//232
f 58//232 397//232 396//232
f 58//233 57//233 397//233
f 57//233 398//233 397//233
f 57//234 60//234 398//234
f 60//234 399//234 398//234
f 60//235 59//235 399//235
f 59//235 400//235 399//235
f 59//236 62//236 400//236
f 62//236 401//236 400//236
f 62//237 61//237 401//237
f 61//237 402//237 401//237
f 61//238 64//238 402//238
f 64//238 403//238 402//238
f 64//239 63//239 403//239
f 63//239 404//239 403//239
f 63//240 66//240 404//240
f 66//240 405//240 404//240
f 66//241 65//241 405//241
f 65//241 406//241 405//241
f 65//242 68//242 406//242
f 68//242 407//242 406//242
f 68//243 67//243 407//243
f 67//243 408//243 407//243
f 67//244 70//244 408//245
f 70//244 409//245 408//245
f 70//246 69//246 409//246
f 69//246 410//246 409//246
f 69//247 72//247 410//247
f 72//247 411//247 410//247
f 72//248 71//248 411//248
f 71//248 412//248 411//248
f 71//249 74//249 412//249
f 74//249 413//249 412//249
f 74//250 73//250 413//250
f 73//250 414//250 413//250
f 73//251 76//251 414//251
f 76//251 415//251 414//251
f 76//252 75//252 415//252
f 75//252 416//252 415//252
f 75//253 78//253 416//253
f 78//253 417//253 416//253
f 78//254 77//254 417//254
f 77//254 418//254 417//254
f 77//255 80//255 418//256
f 80//255 419//256 418//256
f 80//257 79//257 419//257
f 79//257 420//257 419//257
f 79//258 82//258 420//258
f 82//258 421//258 420//258
f 82//259 81//259 421//259
f 81//259 422//259 421//259
f 81//260 84//260 422//260
f 84//260 423//260 422//260
f 84//261 83//261 423//261
f 83//261 424//261 423//261
f 83//262 86//262 424//262
f 86//262 425//262 424//262
f 86//263 85//263 425//263
f 85//263 426//263 425//263
f 85//264 88//264 426//264
f 88//264 427//264 426//264
f 88//265 87//265 427//265
f 87//265 428//265 427//265
f 87//266 90//266 428//266
f 90//266 429//266 428//266
f 90//267 89//267 429//267
f 89//267 430//268 429//267
f 89//267 92//268 430//268
f 92//268 431//269 430//268
f 92//268 91//269 431//269
f 91//269 432//269 431//269
f 91//270 94//270 432//270
f 94//270 433//270 432//270
f 94//271 93//271 433//271
f 93//271 434//271 433//271
f 93//272 96//272 434//272
f 96//272 435//272 434//272
f 96//273 95//273 435//273
f 95//273 436//273 435//273
f 95//274 98//274 436//274
f 98//274 437//274 436//274
f 98//275 97//275 437//275
f 97//275 438//275 437//275
f 97//276 100//276 438//276
f 100//276 439//276 438//276
f 100//277 99//277 439//277
f 99//277 440//277 439//277
f 99//278 102//278 440//278
f 102//278 441//278 440//278
f 102//279 101//279 441//279
f 101//279 442//279 441//279
f 101//280 104//280 442//280
f 104//280 443//280 442//280
f 104//281 103//281 443//281
f 103//281 444//281 443//281
f 103//282 106//282 444//282
f 106//282 445//282 444//282
f 106//283 105//283 445//283
f 105//283 446//283 445//283
f 105//284 108//284 446//284
f 108//284 447//284 446//284
f 108//285 107//285 447//285
f 107//285 448//285 447//285
f 107//286 110//286 448//286
f 110//286 449//286 448//286
f 110//287 109//287 449//288
f 109//287 450//288 449//288
f 109//289 112//289 450//289
f 112//289 451//289 450//289
f 112//290 111//290 451//290
f 111//290 452//290 451//290
f 111//291 114//291 452//291
f 114//291 453//291 452//291
f 114//292 113//292 453//292
f 113//292 454//292 453//292
f 113//293 116//293 454//293
f 116//293 455//293 454//293
f 116//294 115//294 455//294
f 115//294 456//294 455//294
f 115//295 118//295 456//295
f 118//295 457//295 456//295
f 118//296 117//296 457//296
f 117//296 458//296 457//296
f 117//297 120//297 458//297
f 120//297 459//297 458//297
f 120//298 119//298 459//298
f 119//298 460//298 459//298
f 119//299 122//299 460//300
f 122//299 461//300 460//300
f 122//301 121//301 461//301
f 121//301 462//301 461//301
f 121//302 124//302 462//302
f 124//302 463//302 462//302
f 124//303 123//303 463//303
f 123//303 464//303 463//303
f 123//304 126//304 464//304
f 126//304 465//304 464//304
f 126//305 125//305 465//305
f 125//305 466//305 465//305
f 125//306 128//306 466//306
f 128//306 467//306 466//306
f 128//307 127//307 467//307
f 127//307 468//307 467//307
f 127//308 130//308 468//308
f 130//308 469//308 468//308
f 130//309 129//309 469//309
f 129//309 470//309 469//309
f 129//310 132//310 470//310
f 132//310 471//310 470//310
f 132//311 131//311 471//311
f 131//311 472//311 471//311
f 131//312 134//312 472//312
f 134//312 473//312 472//312
f 134//313 133//313 473//313
f 133//313 474//313 473//313
f 133//314 136//314 474//314
f 136//314 475//314 474//314
f 136//315 135//315 475//315
f 135//315 476//315 475//315
f 135//316 138//316 476//316
f 138//316 477//316 476//316
f 138//317 137//317 477//317
f 137//317 478//317 477//317
f 137//318 140//318 478//318
f 140//318 479//318 478//318
f 140//319 139//319 479//319
f 139//319 480//319 479//319
f 139//320 142//320 480//320
f 142//320 481//320 480//320
f 142//321 141//321 481//321
f 141//321 482//321 481//321
f 141//322 144//322 482//322
f 144//322 483//322 482//322
f 144//323 143//323 483//323
f 143//323 484//323 483//323
f 143//324 146//324 484//324
f 146//324 485//324 484//324
f 146//325 145//325 485//325
f 145//325 486//325 485//325
f 145//326 148//326 486//326
f 148//326 487//326 486//326
f 148//327 147//327 487//327
f 147//327 488//327 487//327
f 147//328 150//328 488//328
f 150//328 489//328 488//328
f 150//329 149//329 489//329
f 149//329 490//329 489//329
f 149//330 152//330 490//330
f 152//330 491//330 490//330
f 152//331 151//331 491//331
f 151//331 492//331 491//331
f 151//332 154//332 492//332
f 154//332 493//332 492//332
f 154//333 153//333 493//333
f 153//333 494//333 493//333
f 153//334 156//334 494//334
f 156//334 495//334 494//334
f 156//335 155//335 495//335
f 155//335 496//335 495//335
f 155//336 158//336 496//336
f 158//336 497//336 496//336
f 158//337 157//337 497//337
f 157//337 498//337 497//337
f 157//338 160//338 498//338
f 160//338 499//338 498//338
f 160//339 159//339 499//339
f 159//339 500//339 499//339
f 159//340 162//340 500//340
f 162//340 501//340 500//340
f 162//341 161//341 501//341
f 161//341 502//341 501//341
f 161//342 164//342 502//342
f 164//342 503//342 502//342
f 164//343 163//343 503//343
f 163//343 504//343 503//343
f 163//344 166//344 504//344
f 166//344 505//344 504//344
f 166//345 165//345 505//345
f 165//345 506//345 505//345
f 165//346 168//346 506//346
f 168//346 507//346 506//346
f 168//347 167//347 507//347
f 167//347 508//347 507//347
f 167//348 170//348 508//348
f 170//348 509//348 508//348
f 170//349 169//349 509//349
f 169//349 510//349 509//349
f 169//350 172//350 510//350
f 172//350 511//350 510//350
f 172//351 171//351 511//352
f 171//351 512//352 511//352
f 171//353 174//353 512//353
f 174//353 513//353 512//353
f 174//354 173//354 513//354
f 173//354 514//354 513//354
f 173//355 3//355 514//355
f 3//355 341//355 514//355
f 3//356 2//356 341//356
f 2//356 342//356 341//356
f 2//357 1//357 342//357
f 1//357 343//357 342//357
