# https://github.com/mikedh/trimesh

o sca_C
v 3.36026658 6.83345933 4.06163404
v 3.36026658 6.87401453 3.81966995
v 3.36026658 9.63963862 3.81966995
v 3.36026658 9.63963862 -3.75695730
v 3.36026658 6.87401453 -3.75695730
v 3.36026658 6.83800583 -3.99897602
v 3.36026658 9.54821018 -4.43453843
v 3.36026658 9.59877750 -4.09919836
v 3.36026658 9.41796783 -5.08451417
v 3.36026658 9.48794073 -4.76297612
v 3.36026658 9.24891705 -5.70688314
v 3.36026658 9.33829281 -5.39914984
v 3.36026658 9.04105100 -6.30164808
v 3.36026658 9.14983508 -6.00771543
v 3.36026658 8.79437380 -6.86880627
v 3.36026658 8.92256346 -6.58867836
v 3.36026658 8.50888269 -7.40836042
v 3.36026658 8.65648067 -7.14203454
v 3.36026658 8.18380195 -7.91510304
v 3.36026658 8.35139414 -7.66648241
v 3.36026658 7.81830669 -8.38383618
v 3.36026658 8.00610887 -8.15421960
v 3.36026658 7.41239963 -8.81455846
v 3.36026658 7.62040360 -8.60394867
v 3.36026658 6.96607394 -9.20726989
v 3.36026658 7.19428655 -9.01566416
v 3.36026658 6.47933510 -9.56197182
v 3.36026658 6.72775634 -9.38937153
v 3.36026658 5.95218172 -9.87866019
v 3.36026658 6.22080749 -9.72506805
v 3.36026658 5.38441578 -10.15153610
v 3.36026658 5.67340042 -10.02130058
v 3.36026658 4.77583790 -10.37479932
v 3.36026658 5.08522783 -10.26936946
v 3.36026658 4.12644806 -10.54844986
v 3.36026658 4.45624328 -10.46782566
v 3.36026658 3.43624763 -10.67248361
v 3.36026658 3.78644814 -10.61666918
v 3.36026658 2.70523388 -10.74690605
v 3.36026658 3.07584242 -10.71589591
v 3.36026658 1.93340955 -10.77171172
v 3.36026658 2.32442338 -10.76550996
v 3.36026658 1.29602989 -10.75250826
v 3.36026658 1.61201900 -10.76691119
v 3.36026658 0.68025873 -10.69489789
v 3.36026658 0.98544359 -10.72850564
v 3.36026658 0.08609197 -10.59887652
v 3.36026658 0.38047532 -10.65168772
v 3.36026658 -0.48646492 -10.46444959
v 3.36026658 -0.20288720 -10.53646425
v 3.36026658 -1.03741605 -10.29161576
v 3.36026658 -0.76464121 -10.38283251
v 3.36026658 -1.56675595 -10.08036954
v 3.36026658 -1.30478672 -10.19079522
v 3.36026658 -2.07271055 -9.83349840
v 3.36026658 -1.82288534 -9.96103387
v 3.36026658 -2.55345113 -9.55381299
v 3.36026658 -2.31623293 -9.69775765
v 3.36026658 -3.00898590 -9.24131877
v 3.36026658 -2.78437061 -9.40166716
v 3.36026658 -3.43931485 -8.89601438
v 3.36026658 -3.22730110 -9.07276785
v 3.36026658 -3.84442979 -8.51789846
v 3.36026658 -3.64502305 -8.71105837
v 3.36026658 -4.22434302 -8.10697235
v 3.36026658 -4.03753781 -8.31653599
v 3.36026658 -4.57724219 -7.66544173
v 3.36026658 -4.40439470 -7.88975929
v 3.36026658 -4.90133552 -7.19549993
v 3.36026658 -4.74289096 -7.43402103
v 3.36026658 -5.19662023 -6.69715378
v 3.36026658 -5.05257861 -6.94987706
v 3.36026658 -5.46309636 -6.17039648
v 3.36026658 -5.33345903 -6.43732738
v 3.36026658 -5.70076388 -5.61523891
v 3.36026658 -5.58553085 -5.89637062
v 3.36026658 -5.90962418 -5.03166881
v 3.36026658 -5.80879545 -5.32700543
v 3.36026658 -6.08787311 -4.42249274
v 3.36026658 -6.00279938 -4.72993104
v 3.36026658 -6.23371475 -3.79051178
v 3.36026658 -6.16484535 -4.10935253
v 3.36026658 -6.34714640 -3.13572461
v 3.36026658 -6.29448268 -3.46596915
v 3.36026658 -6.42817075 -2.45813118
v 3.36026658 -6.39170999 -2.79977952
v 3.36026658 -6.47678372 -1.75773289
v 3.36026658 -6.45652729 -2.11078367
v 3.36026658 -6.49298805 -1.03452972
v 3.36026658 -6.48893731 -1.39898294
v 3.36026658 -6.48893731 1.41849772
v 3.36026658 -6.49298805 1.05404587
v 3.36026658 -6.45652729 2.13029982
v 3.36026658 -6.47678372 1.77724904
v 3.36026658 -6.39170862 2.81929568
v 3.36026658 -6.42817075 2.47764870
v 3.36026658 -6.29448268 3.48549076
v 3.36026658 -6.34714503 3.15524349
v 3.36026658 -6.16484535 4.12887687
v 3.36026658 -6.23371339 3.81003204
v 3.36026658 -6.00279938 4.74945674
v 3.36026658 -6.08787311 4.44201571
v 3.36026658 -5.80894294 5.34648197
v 3.36026658 -5.90962281 5.05119725
v 3.36026658 -5.58688156 5.91544701
v 3.36026658 -5.70136206 5.63456522
v 3.36026658 -5.33720931 6.45560072
v 3.36026658 -5.46549457 6.18912322
v 3.36026658 -5.05993031 6.96694719
v 3.36026658 -5.20202168 6.71487673
v 3.36026658 -4.75504317 7.44948644
v 3.36026658 -4.91093656 7.21181755
v 3.36026658 -4.42254519 7.90321572
v 3.36026658 -4.59224605 7.67995249
v 3.36026658 -4.06294166 8.32768844
v 3.36026658 -4.24594468 8.11927748
v 3.36026658 -3.67923582 8.72019910
v 3.36026658 -3.87404007 8.52799519
v 3.36026658 -3.27192069 9.08030249
v 3.36026658 -3.47853027 8.90430291
v 3.36026658 -2.84100312 9.40799723
v 3.36026658 -3.05941119 9.24820196
v 3.36026658 -2.38647898 9.70328195
v 3.36026658 -2.61669102 9.55968965
v 3.36026658 -1.90834830 9.96615529
v 3.36026658 -2.15036293 9.83877004
v 3.36026658 -1.40720242 10.19587156
v 3.36026658 -1.66043101 10.08543905
v 3.36026658 -0.88664413 10.38792661
v 3.36026658 -1.14927301 10.29670029
v 3.36026658 -0.34727981 10.54157064
v 3.36026658 -0.61931307 10.46954915
v 3.36026658 0.21088644 10.65680367
v 3.36026658 -0.07054710 10.60398836
v 3.36026658 0.78785599 10.73362569
v 3.36026658 0.49702080 10.70001657
v 3.36026658 1.38362884 10.77203670
v 3.36026658 1.08339200 10.75763376
v 3.36026658 2.10288370 10.77048524
v 3.36026658 1.68856651 10.77683859
v 3.36026658 2.89670850 10.71967071
v 3.36026658 2.50559770 10.75142927
v 3.36026658 3.64412051 10.61804304
v 3.36026658 3.27621610 10.67520818
v 3.36026658 4.34511972 10.46559947
v 3.36026658 4.00042307 10.54817255
v 3.36026658 4.99970613 10.26234001
v 3.36026658 4.67821452 10.37032105
v 3.36026658 5.60787841 10.00826741
v 3.36026658 5.30959456 10.14165638
v 3.36026658 6.17014047 9.70518031
v 3.36026658 5.89456042 9.86217447
v 3.36026658 6.68949145 9.36388295
v 3.36026658 6.43511702 9.53908359
v 3.36026658 7.16643260 8.98617811
v 3.36026658 6.93326241 9.17958113
v 3.36026658 7.60096252 8.57205757
v 3.36026658 7.38899794 8.78366707
v 3.36026658 7.99308122 8.12152818
v 3.36026658 7.80232361 8.35134416
v 3.36026658 8.34279007 7.63458721
v 3.36026658 8.17323671 7.88260966
v 3.36026658 8.65047831 7.11288991
v 3.36026658 8.50173859 7.37746631
v 3.36026658 8.91854686 6.56633231
v 3.36026658 8.78941348 6.84251191
v 3.36026658 9.14740409 5.99657379
v 3.36026658 9.03787706 6.28435385
v 3.36026658 9.33705546 5.40360751
v 3.36026658 9.24713068 5.70299076
v 3.36026658 9.48749688 4.78743619
v 3.36026658 9.41717571 5.09842128
v 3.36026658 9.59872696 4.14805847
v 3.36026658 9.54801488 4.47064813
v 3.36026658 6.79719798 -4.23529147
v 3.36026658 6.78860211 4.29779790
v 3.36026658 6.75158687 -4.46590776
v 3.36026658 6.73944421 4.52816017
v 3.36026658 6.70117524 -4.69082078
v 3.36026658 6.64596307 -4.91003463
v 3.36026658 6.68598154 4.75272220
v 3.36026658 6.58594903 -5.12354658
v 3.36026658 6.62821821 4.97148262
v 3.36026658 6.52113447 -5.33135526
v 3.36026658 6.56615285 5.18444146
v 3.36026658 6.45151938 -5.53346341
v 3.36026658 6.49978818 5.39159869
v 3.36026658 6.37710240 -5.72986966
v 3.36026658 6.42911603 5.59295431
v 3.36026658 6.29788627 -5.92057672
v 3.36026658 6.35414457 5.78850971
v 3.36026658 6.21386824 -6.10557781
v 3.36026658 6.27487243 5.97826351
v 3.36026658 6.12504833 -6.28488109
v 3.36026658 6.19129555 6.16221708
v 3.36026658 6.03062075 -6.45797304
v 3.36026658 6.10341935 6.34036905
v 3.36026658 5.92978656 -6.62436066
v 3.36026658 6.00983853 6.51221821
v 3.36026658 5.82255122 -6.78405212
v 3.36026658 5.90915865 6.67726467
v 3.36026658 5.70891609 -6.93704198
v 3.36026658 5.80137566 6.83550984
v 3.36026658 5.58887708 -7.08333295
v 3.36026658 5.68648952 6.98695233
v 3.36026658 5.46243828 -7.22292095
v 3.36026658 5.56450299 7.13159351
v 3.36026658 5.32959695 -7.35581006
v 3.36026658 5.43541605 7.26943201
v 3.36026658 5.19035586 -7.48200031
v 3.36026658 5.29922597 7.40046921
v 3.36026658 5.15593549 7.52470509
v 3.36026658 5.04471223 -7.60148757
v 3.36026658 5.00554188 7.64213831
v 3.36026658 4.89266473 -7.71427458
v 3.36026658 4.84804514 7.75277021
v 3.36026658 4.73421743 -7.82036271
v 3.36026658 4.68344798 7.85659943
v 3.36026658 4.56936899 -7.91975197
v 3.36026658 4.39701726 -8.01177587
v 3.36026658 4.51174770 7.95362735
v 3.36026658 4.21606555 -8.09579936
v 3.36026658 4.33149934 8.04335410
v 3.36026658 4.02650979 -8.17182106
v 3.36026658 4.14124432 8.12527847
v 3.36026658 3.82835267 -8.23984099
v 3.36026658 3.94098809 8.19940044
v 3.36026658 3.62159287 -8.29985913
v 3.36026658 3.73072931 8.26572004
v 3.36026658 3.40623037 -8.35187139
v 3.36026658 3.51046794 8.32423589
v 3.36026658 3.18226653 -8.39588461
v 3.36026658 3.28020401 8.37495208
v 3.36026658 2.94969999 -8.43189603
v 3.36026658 3.03993615 8.41786452
v 3.36026658 2.70853075 -8.45990295
v 3.36026658 2.78966845 8.45297457
v 3.36026658 2.45876017 -8.47990809
v 3.36026658 2.52939682 8.48028087
v 3.36026658 2.20038689 -8.49191145
v 3.36026658 2.25912125 8.49978616
v 3.36026658 1.93341091 -8.49591028
v 3.36026658 1.97884584 8.51149041
v 3.36026658 1.70289979 -8.49221053
v 3.36026658 1.68856514 8.51539229
v 3.36026658 1.47708949 -8.48110719
v 3.36026658 1.45829438 8.51134155
v 3.36026658 1.25598002 -8.46260163
v 3.36026658 1.23322567 8.49918796
v 3.36026658 1.03957136 -8.43669383
v 3.36026658 1.01336038 8.47893153
v 3.36026658 0.82786354 -8.40338516
v 3.36026658 0.79869712 8.45057362
v 3.36026658 0.62085654 -8.36267291
v 3.36026658 0.58923454 8.41411424
v 3.36026658 0.41854899 -8.31455706
v 3.36026658 0.38497538 8.36954928
v 3.36026658 0.22094500 -8.25904171
v 3.36026658 0.18591963 8.31688419
v 3.36026658 0.02803911 -8.19612277
v 3.36026658 -0.00793271 8.25611491
v 3.36026658 -0.16016322 -8.12580160
v 3.36026658 -0.19658438 8.18724686
v 3.36026658 -0.34366747 -8.04807684
v 3.36026658 -0.38003399 8.11027325
v 3.36026658 -0.52246816 -7.96295258
v 3.36026658 -0.55828019 8.02519816
v 3.36026658 -0.69652022 -7.87102428
v 3.36026658 -0.73132298 7.93202022
v 3.36026658 -0.86576766 -7.77289559
v 3.36026658 -0.89927436 7.83174188
v 3.36026658 -1.03021732 -7.66856104
v 3.36026658 -1.06222307 7.72536148
v 3.36026658 -1.18986372 -7.55802884
v 3.36026658 -1.22017051 7.61288039
v 3.36026658 -1.34470822 -7.44128942
v 3.36026658 -1.37311666 7.49429723
v 3.36026658 -1.49475221 -7.31835370
v 3.36026658 -1.52106017 7.36961066
v 3.36026658 -1.63999430 -7.18921214
v 3.36026658 -1.66400101 7.23882339
v 3.36026658 -1.78043589 -7.05386745
v 3.36026658 -1.80194195 7.10193543
v 3.36026658 -1.91607421 -6.91232235
v 3.36026658 -1.93488160 6.95894405
v 3.36026658 -2.04691337 -6.76457416
v 3.36026658 -2.06281997 6.80985060
v 3.36026658 -2.17294929 -6.61062420
v 3.36026658 -2.18575432 6.65465511
v 3.36026658 -2.29418467 -6.45047248
v 3.36026658 -2.30368602 6.49335891
v 3.36026658 -2.41056764 -6.28452872
v 3.36026658 -2.41662054 6.32596065
v 3.36026658 -2.52205039 -6.11318216
v 3.36026658 -2.52469853 6.15321013
v 3.36026658 -2.62863155 -5.93643553
v 3.36026658 -2.62807980 5.97585985
v 3.36026658 -2.73030976 -5.75428608
v 3.36026658 -2.72676024 5.79390843
v 3.36026658 -2.82708775 -5.56673519
v 3.36026658 -2.82073713 5.60735316
v 3.36026658 -2.91896415 -5.37378287
v 3.36026658 -2.91001319 5.41619949
v 3.36026658 -3.00594033 -5.17542910
v 3.36026658 -2.99458570 5.22044196
v 3.36026658 -3.08801220 -4.97167252
v 3.36026658 -3.07445875 5.02008740
v 3.36026658 -3.16518385 -4.76251313
v 3.36026658 -3.14963097 4.81512899
v 3.36026658 -3.23745526 -4.54795232
v 3.36026658 -3.22010100 4.60556809
v 3.36026658 -3.30482373 -4.32799005
v 3.36026658 -3.28587158 4.39140742
v 3.36026658 -3.36729062 -4.10262770
v 3.36026658 -3.34693860 4.17264425
v 3.36026658 -3.42480675 -3.87246210
v 3.36026658 -3.40330615 3.94927997
v 3.36026658 -3.47732433 -3.63809553
v 3.36026658 -3.45506985 3.72231426
v 3.36026658 -3.52483653 -3.39952664
v 3.36026658 -3.50233349 3.49275095
v 3.36026658 -3.56734882 -3.15675814
v 3.36026658 -3.54509433 3.26058593
v 3.36026658 -3.60485982 -2.90978865
v 3.36026658 -3.58335374 3.02582057
v 3.36026658 -3.63736952 -2.65861821
v 3.36026658 -3.61711446 2.78845078
v 3.36026658 -3.66487796 -2.40324817
v 3.36026658 -3.68738509 -2.14367441
v 3.36026658 -3.64637238 2.54848338
v 3.36026658 -3.70488959 -1.87990107
v 3.36026658 -3.67112888 2.30591154
v 3.36026658 -3.71739417 -1.61192811
v 3.36026658 -3.69138394 2.06074072
v 3.36026658 -3.72489473 -1.33975145
v 3.36026658 -3.70713895 1.81296820
v 3.36026658 -3.72739674 -1.06337656
v 3.36026658 -3.71839115 1.56259534
v 3.36026658 -3.72739674 1.05404313
v 3.36026658 -3.72514602 1.30962214
v -8.11182156 9.63963862 3.81966995
v -8.11182156 6.87401453 3.81966995
v -8.11182156 6.83345933 4.06163404
v -8.11182156 6.83800447 -3.99897602
v -8.11182156 6.87401317 -3.75695730
v -8.11182156 9.63963862 -3.75695730
v -8.11182156 9.59877750 -4.09919836
v -8.11182156 9.54821018 -4.43453843
v -8.11182156 9.48794073 -4.76297612
v -8.11182156 9.41796783 -5.08451417
v -8.11182156 9.33829281 -5.39914984
v -8.11182156 9.24891568 -5.70688314
v -8.11182156 9.14983372 -6.00771543
v -8.11182156 9.04104964 -6.30164808
v -8.11182156 8.92256346 -6.58867836
v -8.11182156 8.79437244 -6.86880627
v -8.11182156 8.65647930 -7.14203454
v -8.11182156 8.50888269 -7.40836042
v -8.11182156 8.35139277 -7.66648241
v -8.11182156 8.18380195 -7.91510304
v -8.11182156 8.00610750 -8.15421960
v -8.11182156 7.81830669 -8.38383618
v -8.11182156 7.62040360 -8.60394867
v -8.11182156 7.41239826 -8.81455846
v -8.11182156 7.19428655 -9.01566416
v -8.11182156 6.96607258 -9.20726989
v -8.11182156 6.72775497 -9.38937153
v -8.11182156 6.47933510 -9.56197182
v -8.11182156 6.22080749 -9.72506805
v -8.11182156 5.95218036 -9.87866019
v -8.11182156 5.67339905 -10.02130058
v -8.11182156 5.38441442 -10.15153610
v -8.11182156 5.08522646 -10.26936946
v -8.11182156 4.77583653 -10.37479932
v -8.11182156 4.45624328 -10.46782566
v -8.11182156 4.12644670 -10.54844986
v -8.11182156 3.78644677 -10.61666918
v -8.11182156 3.43624627 -10.67248361
v -8.11182156 3.07584106 -10.71589591
v -8.11182156 2.70523251 -10.74690605
v -8.11182156 2.32442202 -10.76550996
v -8.11182156 1.93340955 -10.77171172
v -8.11182156 1.61201626 -10.76691119
v -8.11182156 1.29602852 -10.75250826
v -8.11182156 0.98544086 -10.72850564
v -8.11182156 0.68025737 -10.69489789
v -8.11182156 0.38047395 -10.65168772
v -8.11182156 0.08609197 -10.59887652
v -8.11182156 -0.20288720 -10.53646425
v -8.11182156 -0.48646492 -10.46444959
v -8.11182156 -0.76464258 -10.38283251
v -8.11182156 -1.03741605 -10.29161576
v -8.11182156 -1.30478672 -10.19079522
v -8.11182156 -1.56675732 -10.08036954
v -8.11182156 -1.82288534 -9.96103387
v -8.11182156 -2.07271055 -9.83349840
v -8.11182156 -2.31623293 -9.69775765
v -8.11182156 -2.55345250 -9.55381299
v -8.11182156 -2.78437061 -9.40166716
v -8.11182156 -3.00898727 -9.24131877
v -8.11182156 -3.22730110 -9.07276785
v -8.11182156 -3.43931485 -8.89601438
v -8.11182156 -3.64502441 -8.71105837
v -8.11182156 -3.84443115 -8.51789846
v -8.11182156 -4.03753781 -8.31653599
v -8.11182156 -4.22434302 -8.10697235
v -8.11182156 -4.40439607 -7.88975929
v -8.11182156 -4.57724493 -7.66544173
v -8.11182156 -4.74289096 -7.43402103
v -8.11182156 -4.90133552 -7.19549993
v -8.11182156 -5.05257861 -6.94987706
v -8.11182156 -5.19662023 -6.69715378
v -8.11182156 -5.33345903 -6.43732738
v -8.11182156 -5.46309772 -6.17039648
v -8.11182156 -5.58553085 -5.89637062
v -8.11182156 -5.70076525 -5.61523891
v -8.11182156 -5.80879545 -5.32700543
v -8.11182156 -5.90962418 -5.03166881
v -8.11182156 -6.00280074 -4.72993104
v -8.11182156 -6.08787448 -4.42249274
v -8.11182156 -6.16484535 -4.10935253
v -8.11182156 -6.23371612 -3.79051178
v -8.11182156 -6.29448268 -3.46596915
v -8.11182156 -6.34714776 -3.13572461
v -8.11182156 -6.39171136 -2.79977952
v -8.11182156 -6.42817212 -2.45813118
v -8.11182156 -6.45652729 -2.11078367
v -8.11182156 -6.47678509 -1.75773289
v -8.11182156 -6.48893731 -1.39898294
v -8.11182156 -6.49298805 -1.03452972
v -8.11182156 -6.49298805 1.05404587
v -8.11182156 -6.48893731 1.41849772
v -8.11182156 -6.47678372 1.77724904
v -8.11182156 -6.45652729 2.13029982
v -8.11182156 -6.42817212 2.47764870
v -8.11182156 -6.39170999 2.81929568
v -8.11182156 -6.34714640 3.15524349
v -8.11182156 -6.29448268 3.48549076
v -8.11182156 -6.23371475 3.81003204
v -8.11182156 -6.16484535 4.12887687
v -8.11182156 -6.08787448 4.44201571
v -8.11182156 -6.00280074 4.74945674
v -8.11182156 -5.90962281 5.05119725
v -8.11182156 -5.80894430 5.34648197
v -8.11182156 -5.70136343 5.63456522
v -8.11182156 -5.58688156 5.91544701
v -8.11182156 -5.46549457 6.18912322
v -8.11182156 -5.33720931 6.45560072
v -8.11182156 -5.20202168 6.71487673
v -8.11182156 -5.05993167 6.96694719
v -8.11182156 -4.91093656 7.21181755
v -8.11182156 -4.75504317 7.44948644
v -8.11182156 -4.59224605 7.67995249
v -8.11182156 -4.42254656 7.90321572
v -8.11182156 -4.24594742 8.11927748
v -8.11182156 -4.06294302 8.32768844
v -8.11182156 -3.87404144 8.52799519
v -8.11182156 -3.67923582 8.72019910
v -8.11182156 -3.47853027 8.90430291
v -8.11182156 -3.27192069 9.08030249
v -8.11182156 -3.05941256 9.24820196
v -8.11182156 -2.84100312 9.40799723
v -8.11182156 -2.61669102 9.55968965
v -8.11182156 -2.38648035 9.70328195
v -8.11182156 -2.15036293 9.83877004
v -8.11182156 -1.90834830 9.96615529
v -8.11182156 -1.66043101 10.08543905
v -8.11182156 -1.40720378 10.19587156
v -8.11182156 -1.14927301 10.29670029
v -8.11182156 -0.88664413 10.38792661
v -8.11182156 -0.61931307 10.46954915
v -8.11182156 -0.34728118 10.54157064
v -8.11182156 -0.07054710 10.60398836
v -8.11182156 0.21088644 10.65680367
v -8.11182156 0.49702080 10.70001657
v -8.11182156 0.78785462 10.73362569
v -8.11182156 1.08339064 10.75763376
v -8.11182156 1.38362748 10.77203670
v -8.11182156 1.68856514 10.77683859
v -8.11182156 2.10288370 10.77048524
v -8.11182156 2.50559634 10.75142927
v -8.11182156 2.89670713 10.71967071
v -8.11182156 3.27621473 10.67520818
v -8.11182156 3.64411914 10.61804304
v -8.11182156 4.00042170 10.54817255
v -8.11182156 4.34511835 10.46559947
v -8.11182156 4.67821316 10.37032105
v -8.11182156 4.99970478 10.26234001
v -8.11182156 5.30959456 10.14165638
v -8.11182156 5.60787841 10.00826741
v -8.11182156 5.89456042 9.86217447
v -8.11182156 6.17013910 9.70518031
v -8.11182156 6.43511702 9.53908359
v -8.11182156 6.68949010 9.36388295
v -8.11182156 6.93326241 9.17958113
v -8.11182156 7.16643123 8.98617811
v -8.11182156 7.38899657 8.78366707
v -8.11182156 7.60096115 8.57205757
v -8.11182156 7.80232224 8.35134416
v -8.11182156 7.99307985 8.12152818
v -8.11182156 8.17323534 7.88260966
v -8.11182156 8.34279007 7.63458721
v -8.11182156 8.50173859 7.37746631
v -8.11182156 8.65047694 7.11288991
v -8.11182156 8.78941348 6.84251191
v -8.11182156 8.91854549 6.56633231
v -8.11182156 9.03787433 6.28435385
v -8.11182156 9.14740409 5.99657379
v -8.11182156 9.24712931 5.70299076
v -8.11182156 9.33705546 5.40360751
v -8.11182156 9.41717571 5.09842128
v -8.11182156 9.48749688 4.78743619
v -8.11182156 9.54801488 4.47064813
v -8.11182156 9.59872696 4.14805847
v -8.11182156 6.79719661 -4.23529147
v -8.11182156 6.78860211 4.29779790
v -8.11182156 6.75158550 -4.46590776
v -8.11182156 6.73944284 4.52816017
v -8.11182156 6.70117524 -4.69082078
v -8.11182156 6.64596172 -4.91003463
v -8.11182156 6.68598018 4.75272220
v -8.11182156 6.58594903 -5.12354658
v -8.11182156 6.62821821 4.97148262
v -8.11182156 6.52113310 -5.33135526
v -8.11182156 6.56615285 5.18444146
v -8.11182156 6.45151938 -5.53346341
v -8.11182156 6.49978683 5.39159869
v -8.11182156 6.37710240 -5.72986966
v -8.11182156 6.42911603 5.59295431
v -8.11182156 6.29788490 -5.92057672
v -8.11182156 6.35414320 5.78850971
v -8.11182156 6.21386824 -6.10557781
v -8.11182156 6.27487243 5.97826351
v -8.11182156 6.12504833 -6.28488109
v -8.11182156 6.19129418 6.16221708
v -8.11182156 6.03061939 -6.45797304
v -8.11182156 6.10341935 6.34036905
v -8.11182156 5.92978520 -6.62436066
v -8.11182156 6.00983716 6.51221821
v -8.11182156 5.82254985 -6.78405212
v -8.11182156 5.90915865 6.67726467
v -8.11182156 5.70891472 -6.93704198
v -8.11182156 5.80137566 6.83550984
v -8.11182156 5.58887708 -7.08333295
v -8.11182156 5.68648952 6.98695233
v -8.11182156 5.46243828 -7.22292095
v -8.11182156 5.56450299 7.13159351
v -8.11182156 5.32959695 -7.35581006
v -8.11182156 5.43541605 7.26943201
v -8.11182156 5.19035449 -7.48200031
v -8.11182156 5.29922597 7.40046921
v -8.11182156 5.15593276 7.52470509
v -8.11182156 5.04471087 -7.60148757
v -8.11182156 5.00553914 7.64213831
v -8.11182156 4.89266473 -7.71427458
v -8.11182156 4.84804377 7.75277021
v -8.11182156 4.73421607 -7.82036271
v -8.11182156 4.68344662 7.85659943
v -8.11182156 4.56936762 -7.91975197
v -8.11182156 4.39701726 -8.01177587
v -8.11182156 4.51174770 7.95362735
v -8.11182156 4.21606419 -8.09579936
v -8.11182156 4.33149797 8.04335410
v -8.11182156 4.02650842 -8.17182106
v -8.11182156 4.14124295 8.12527847
v -8.11182156 3.82835131 -8.23984099
v -8.11182156 3.94098673 8.19940044
v -8.11182156 3.62159151 -8.29985913
v -8.11182156 3.73072794 8.26572004
v -8.11182156 3.40623037 -8.35187139
v -8.11182156 3.51046658 8.32423589
v -8.11182156 3.18226516 -8.39588461
v -8.11182156 3.28020265 8.37495208
v -8.11182156 2.94969862 -8.43189603
v -8.11182156 3.03993478 8.41786452
v -8.11182156 2.70853075 -8.45990295
v -8.11182156 2.78966709 8.45297457
v -8.11182156 2.45875880 -8.47990809
v -8.11182156 2.52939545 8.48028087
v -8.11182156 2.20038553 -8.49191145
v -8.11182156 2.25912125 8.49978616
v -8.11182156 1.93340955 -8.49591028
v -8.11182156 1.97884449 8.51149041
v -8.11182156 1.70289843 -8.49221053
v -8.11182156 1.68856514 8.51539229
v -8.11182156 1.47708812 -8.48110719
v -8.11182156 1.45829438 8.51134155
v -8.11182156 1.25597865 -8.46260163
v -8.11182156 1.23322567 8.49918796
v -8.11182156 1.03957000 -8.43669383
v -8.11182156 1.01335901 8.47893153
v -8.11182156 0.82786217 -8.40338516
v -8.11182156 0.79869575 8.45057362
v -8.11182156 0.62085517 -8.36267291
v -8.11182156 0.58923318 8.41411424
v -8.11182156 0.41854899 -8.31455706
v -8.11182156 0.38497538 8.36954928
v -8.11182156 0.22094500 -8.25904171
v -8.11182156 0.18591963 8.31688419
v -8.11182156 0.02803911 -8.19612277
v -8.11182156 -0.00793408 8.25611491
v -8.11182156 -0.16016322 -8.12580160
v -8.11182156 -0.19658574 8.18724686
v -8.11182156 -0.34366747 -8.04807684
v -8.11182156 -0.38003399 8.11027325
v -8.11182156 -0.52246816 -7.96295258
v -8.11182156 -0.55828019 8.02519816
v -8.11182156 -0.69652022 -7.87102428
v -8.11182156 -0.73132435 7.93202022
v -8.11182156 -0.86576902 -7.77289559
v -8.11182156 -0.89927436 7.83174188
v -8.11182156 -1.03021732 -7.66856104
v -8.11182156 -1.06222307 7.72536148
v -8.11182156 -1.18986372 -7.55802884
v -8.11182156 -1.22017188 7.61288039
v -8.11182156 -1.34470959 -7.44128942
v -8.11182156 -1.37311803 7.49429723
v -8.11182156 -1.49475357 -7.31835370
v -8.11182156 -1.52106017 7.36961066
v -8.11182156 -1.63999567 -7.18921214
v -8.11182156 -1.66400375 7.23882339
v -8.11182156 -1.78043726 -7.05386745
v -8.11182156 -1.80194195 7.10193543
v -8.11182156 -1.91607557 -6.91232235
v -8.11182156 -1.93488160 6.95894405
v -8.11182156 -2.04691337 -6.76457416
v -8.11182156 -2.06281997 6.80985060
v -8.11182156 -2.17295064 -6.61062420
v -8.11182156 -2.18575568 6.65465511
v -8.11182156 -2.29418467 -6.45047248
v -8.11182156 -2.30368739 6.49335891
v -8.11182156 -2.41056901 -6.28452872
v -8.11182156 -2.41662054 6.32596065
v -8.11182156 -2.52205175 -6.11318216
v -8.11182156 -2.52469990 6.15321013
v -8.11182156 -2.62863155 -5.93643553
v -8.11182156 -2.62808117 5.97585985
v -8.11182156 -2.73031112 -5.75428608
v -8.11182156 -2.72676024 5.79390843
v -8.11182156 -2.82708912 -5.56673519
v -8.11182156 -2.82073713 5.60735316
v -8.11182156 -2.91896415 -5.37378287
v -8.11182156 -2.91001319 5.41619949
v -8.11182156 -3.00594033 -5.17542910
v -8.11182156 -2.99458706 5.22044196
v -8.11182156 -3.08801356 -4.97167252
v -8.11182156 -3.07446011 5.02008740
v -8.11182156 -3.16518521 -4.76251313
v -8.11182156 -3.14963097 4.81512899
v -8.11182156 -3.23745526 -4.54795232
v -8.11182156 -3.22010100 4.60556809
v -8.11182156 -3.30482373 -4.32799005
v -8.11182156 -3.28587158 4.39140742
v -8.11182156 -3.36729198 -4.10262770
v -8.11182156 -3.34693996 4.17264425
v -8.11182156 -3.42480675 -3.87246210
v -8.11182156 -3.40330615 3.94927997
v -8.11182156 -3.47732433 -3.63809553
v -8.11182156 -3.45506985 3.72231426
v -8.11182156 -3.52483790 -3.39952664
v -8.11182156 -3.50233485 3.49275095
v -8.11182156 -3.56735019 -3.15675814
v -8.11182156 -3.54509570 3.26058593
v -8.11182156 -3.60486118 -2.90978865
v -8.11182156 -3.58335648 3.02582057
v -8.11182156 -3.63736952 -2.65861821
v -8.11182156 -3.61711446 2.78845078
v -8.11182156 -3.66487796 -2.40324817
v -8.11182156 -3.68738509 -2.14367441
v -8.11182156 -3.64637238 2.54848338
v -8.11182156 -3.70489096 -1.87990107
v -8.11182156 -3.67112888 2.30591154
v -8.11182156 -3.71739417 -1.61192811
v -8.11182156 -3.69138394 2.06074072
v -8.11182156 -3.72489473 -1.33975145
v -8.11182156 -3.70714031 1.81296820
v -8.11182156 -3.72739674 -1.06337656
v -8.11182156 -3.71839388 1.56259534
v -8.11182156 -3.72739674 1.05404313
v -8.11182156 -3.72514602 1.30962214
f 1 2 3
f 4 5 6
f 7 8 4
f 9 10 7
f 11 12 9
f 13 14 11
f 15 16 13
f 17 18 15
f 19 20 17
f 21 22 19
f 23 24 21
f 25 26 23
f 27 28 25
f 29 30 27
f 31 32 29
f 33 34 31
f 35 36 33
f 37 38 35
f 39 40 37
f 41 42 39
f 43 44 41
f 45 46 43
f 47 48 45
f 49 50 47
f 51 52 49
f 53 54 51
f 55 56 53
f 57 58 55
f 59 60 57
f 61 62 59
f 63 64 61
f 65 66 63
f 67 68 65
f 69 70 67
f 71 72 69
f 73 74 71
f 75 76 73
f 77 78 75
f 79 80 77
f 81 82 79
f 83 84 81
f 85 86 83
f 87 88 85
f 89 90 87
f 91 92 89
f 93 94 91
f 95 96 93
f 97 98 95
f 99 100 97
f 101 102 99
f 103 104 101
f 105 106 103
f 107 108 105
f 109 110 107
f 111 112 109
f 113 114 111
f 115 116 113
f 117 118 115
f 119 120 117
f 121 122 119
f 123 124 121
f 125 126 123
f 127 128 125
f 129 130 127
f 131 132 129
f 133 134 131
f 135 136 133
f 137 138 135
f 139 140 137
f 141 142 139
f 143 144 141
f 145 146 143
f 147 148 145
f 149 150 147
f 151 152 149
f 153 154 151
f 155 156 153
f 157 158 155
f 159 160 157
f 161 162 159
f 163 164 161
f 165 166 163
f 167 168 165
f 169 170 167
f 171 172 169
f 173 174 171
f 1 3 173
f 4 6 175
f 9 7 4
f 13 11 9
f 17 15 13
f 21 19 17
f 25 23 21
f 29 27 25
f 33 31 29
f 37 35 33
f 41 39 37
f 45 43 41
f 49 47 45
f 53 51 49
f 57 55 53
f 61 59 57
f 65 63 61
f 69 67 65
f 73 71 69
f 77 75 73
f 81 79 77
f 85 83 81
f 89 87 85
f 93 91 89
f 97 95 93
f 101 99 97
f 105 103 101
f 109 107 105
f 113 111 109
f 117 115 113
f 121 119 117
f 125 123 121
f 129 127 125
f 133 131 129
f 137 135 133
f 141 139 137
f 145 143 141
f 149 147 145
f 153 151 149
f 157 155 153
f 161 159 157
f 165 163 161
f 169 167 165
f 173 171 169
f 176 1 173
f 4 175 177
f 13 9 4
f 21 17 13
f 29 25 21
f 37 33 29
f 45 41 37
f 53 49 45
f 61 57 53
f 69 65 61
f 77 73 69
f 85 81 77
f 93 89 85
f 101 97 93
f 109 105 101
f 117 113 109
f 125 121 117
f 133 129 125
f 141 137 133
f 149 145 141
f 157 153 149
f 165 161 157
f 173 169 165
f 178 176 173
f 4 177 179
f 21 13 4
f 37 29 21
f 53 45 37
f 69 61 53
f 85 77 69
f 101 93 85
f 117 109 101
f 133 125 117
f 149 141 133
f 165 157 149
f 178 173 165
f 4 179 180
f 37 21 4
f 69 53 37
f 101 85 69
f 133 117 101
f 165 149 133
f 181 178 165
f 4 180 182
f 183 181 165
f 4 182 184
f 185 183 165
f 4 184 186
f 187 185 165
f 4 186 188
f 189 187 165
f 4 188 190
f 191 189 165
f 4 190 192
f 193 191 165
f 4 192 194
f 195 193 165
f 4 194 196
f 197 195 165
f 4 196 198
f 199 197 165
f 4 198 200
f 201 199 165
f 4 200 202
f 203 201 165
f 4 202 204
f 205 203 165
f 4 204 206
f 207 205 165
f 4 206 208
f 209 207 165
f 4 208 210
f 211 209 165
f 37 4 210
f 212 211 165
f 37 210 213
f 214 212 165
f 37 213 215
f 216 214 165
f 37 215 217
f 218 216 165
f 37 217 219
f 218 165 133
f 37 219 220
f 221 218 133
f 37 220 222
f 223 221 133
f 37 222 224
f 225 223 133
f 37 224 226
f 227 225 133
f 37 226 228
f 229 227 133
f 37 228 230
f 231 229 133
f 37 230 232
f 233 231 133
f 37 232 234
f 235 233 133
f 37 234 236
f 237 235 133
f 37 236 238
f 239 237 133
f 37 238 240
f 241 239 133
f 37 240 242
f 243 241 133
f 37 242 244
f 245 243 133
f 37 244 246
f 247 245 133
f 37 246 248
f 249 247 133
f 37 248 250
f 251 249 133
f 37 250 252
f 253 251 133
f 37 252 254
f 255 253 133
f 37 254 256
f 257 255 133
f 37 256 258
f 259 257 133
f 37 258 260
f 261 259 133
f 37 260 262
f 263 261 133
f 37 262 264
f 265 263 133
f 37 264 266
f 267 265 133
f 37 266 268
f 269 267 133
f 37 268 270
f 271 269 133
f 37 270 272
f 271 133 101
f 69 37 272
f 273 271 101
f 69 272 274
f 275 273 101
f 69 274 276
f 277 275 101
f 69 276 278
f 279 277 101
f 69 278 280
f 281 279 101
f 69 280 282
f 283 281 101
f 69 282 284
f 285 283 101
f 69 284 286
f 287 285 101
f 69 286 288
f 289 287 101
f 69 288 290
f 291 289 101
f 69 290 292
f 293 291 101
f 69 292 294
f 295 293 101
f 69 294 296
f 297 295 101
f 69 296 298
f 299 297 101
f 69 298 300
f 301 299 101
f 69 300 302
f 303 301 101
f 69 302 304
f 305 303 101
f 69 304 306
f 307 305 101
f 69 306 308
f 309 307 101
f 69 308 310
f 311 309 101
f 69 310 312
f 313 311 101
f 69 312 314
f 315 313 101
f 69 314 316
f 317 315 101
f 69 316 318
f 319 317 101
f 69 318 320
f 321 319 101
f 69 320 322
f 323 321 101
f 69 322 324
f 325 323 101
f 69 324 326
f 327 325 101
f 69 326 328
f 327 101 69
f 69 328 329
f 330 327 69
f 69 329 331
f 332 330 69
f 69 331 333
f 334 332 69
f 69 333 335
f 336 334 69
f 69 335 337
f 338 336 69
f 69 337 339
f 340 338 69
f 69 339 340
f 341 342 343
f 344 345 346
f 346 347 348
f 348 349 350
f 350 351 352
f 352 353 354
f 354 355 356
f 356 357 358
f 358 359 360
f 360 361 362
f 362 363 364
f 364 365 366
f 366 367 368
f 368 369 370
f 370 371 372
f 372 373 374
f 374 375 376
f 376 377 378
f 378 379 380
f 380 381 382
f 382 383 384
f 384 385 386
f 386 387 388
f 388 389 390
f 390 391 392
f 392 393 394
f 394 395 396
f 396 397 398
f 398 399 400
f 400 401 402
f 402 403 404
f 404 405 406
f 406 407 408
f 408 409 410
f 410 411 412
f 412 413 414
f 414 415 416
f 416 417 418
f 418 419 420
f 420 421 422
f 422 423 424
f 424 425 426
f 426 427 428
f 428 429 430
f 430 431 432
f 432 433 434
f 434 435 436
f 436 437 438
f 438 439 440
f 440 441 442
f 442 443 444
f 444 445 446
f 446 447 448
f 448 449 450
f 450 451 452
f 452 453 454
f 454 455 456
f 456 457 458
f 458 459 460
f 460 461 462
f 462 463 464
f 464 465 466
f 466 467 468
f 468 469 470
f 470 471 472
f 472 473 474
f 474 475 476
f 476 477 478
f 478 479 480
f 480 481 482
f 482 483 484
f 484 485 486
f 486 487 488
f 488 489 490
f 490 491 492
f 492 493 494
f 494 495 496
f 496 497 498
f 498 499 500
f 500 501 502
f 502 503 504
f 504 505 506
f 506 507 508
f 508 509 510
f 510 511 512
f 512 513 514
f 514 341 343
f 515 344 346
f 346 348 350
f 350 352 354
f 354 356 358
f 358 360 362
f 362 364 366
f 366 368 370
f 370 372 374
f 374 376 378
f 378 380 382
f 382 384 386
f 386 388 390
f 390 392 394
f 394 396 398
f 398 400 402
f 402 404 406
f 406 408 410
f 410 412 414
f 414 416 418
f 418 420 422
f 422 424 426
f 426 428 430
f 430 432 434
f 434 436 438
f 438 440 442
f 442 444 446
f 446 448 450
f 450 452 454
f 454 456 458
f 458 460 462
f 462 464 466
f 466 468 470
f 470 472 474
f 474 476 478
f 478 480 482
f 482 484 486
f 486 488 490
f 490 492 494
f 494 496 498
f 498 500 502
f 502 504 506
f 506 508 510
f 510 512 514
f 514 343 516
f 517 515 346
f 346 350 354
f 354 358 362
f 362 366 370
f 370 374 378
f 378 382 386
f 386 390 394
f 394 398 402
f 402 406 410
f 410 414 418
f 418 422 426
f 426 430 434
f 434 438 442
f 442 446 450
f 450 454 458
f 458 462 466
f 466 470 474
f 474 478 482
f 482 486 490
f 490 494 498
f 498 502 506
f 506 510 514
f 514 516 518
f 519 517 346
f 346 354 362
f 362 370 378
f 378 386 394
f 394 402 410
f 410 418 426
f 426 434 442
f 442 450 458
f 458 466 474
f 474 482 490
f 490 498 506
f 506 514 518
f 520 519 346
f 346 362 378
f 378 394 410
f 410 426 442
f 442 458 474
f 474 490 506
f 506 518 521
f 522 520 346
f 506 521 523
f 524 522 346
f 506 523 525
f 526 524 346
f 506 525 527
f 528 526 346
f 506 527 529
f 530 528 346
f 506 529 531
f 532 530 346
f 506 531 533
f 534 532 346
f 506 533 535
f 536 534 346
f 506 535 537
f 538 536 346
f 506 537 539
f 540 538 346
f 506 539 541
f 542 540 346
f 506 541 543
f 544 542 346
f 506 543 545
f 546 544 346
f 506 545 547
f 548 546 346
f 506 547 549
f 550 548 346
f 506 549 551
f 550 346 378
f 506 551 552
f 553 550 378
f 506 552 554
f 555 553 378
f 506 554 556
f 557 555 378
f 506 556 558
f 559 557 378
f 474 506 558
f 560 559 378
f 474 558 561
f 562 560 378
f 474 561 563
f 564 562 378
f 474 563 565
f 566 564 378
f 474 565 567
f 568 566 378
f 474 567 569
f 570 568 378
f 474 569 571
f 572 570 378
f 474 571 573
f 574 572 378
f 474 573 575
f 576 574 378
f 474 575 577
f 578 576 378
f 474 577 579
f 580 578 378
f 474 579 581
f 582 580 378
f 474 581 583
f 584 582 378
f 474 583 585
f 586 584 378
f 474 585 587
f 588 586 378
f 474 587 589
f 590 588 378
f 474 589 591
f 592 590 378
f 474 591 593
f 594 592 378
f 474 593 595
f 596 594 378
f 474 595 597
f 598 596 378
f 474 597 599
f 600 598 378
f 474 599 601
f 602 600 378
f 474 601 603
f 604 602 378
f 474 603 605
f 606 604 378
f 474 605 607
f 608 606 378
f 474 607 609
f 610 608 378
f 474 609 611
f 612 610 378
f 442 474 611
f 612 378 410
f 442 611 613
f 614 612 410
f 442 613 615
f 616 614 410
f 442 615 617
f 618 616 410
f 442 617 619
f 620 618 410
f 442 619 621
f 622 620 410
f 442 621 623
f 624 622 410
f 442 623 625
f 626 624 410
f 442 625 627
f 628 626 410
f 442 627 629
f 630 628 410
f 442 629 631
f 632 630 410
f 442 631 633
f 634 632 410
f 442 633 635
f 636 634 410
f 442 635 637
f 638 636 410
f 442 637 639
f 640 638 410
f 442 639 641
f 642 640 410
f 442 641 643
f 644 642 410
f 442 643 645
f 646 644 410
f 442 645 647
f 648 646 410
f 442 647 649
f 650 648 410
f 442 649 651
f 652 650 410
f 442 651 653
f 654 652 410
f 442 653 655
f 656 654 410
f 442 655 657
f 658 656 410
f 442 657 659
f 660 658 410
f 442 659 661
f 662 660 410
f 442 661 663
f 664 662 410
f 442 663 665
f 666 664 410
f 442 665 667
f 668 666 410
f 410 442 667
f 669 668 410
f 410 667 670
f 671 669 410
f 410 670 672
f 673 671 410
f 410 672 674
f 675 673 410
f 410 674 676
f 677 675 410
f 410 676 678
f 679 677 410
f 410 678 680
f 680 679 410
f 1 176 343
f 176 516 343
f 176 178 516
f 178 518 516
f 178 181 518
f 181 521 518
f 181 183 521
f 183 523 521
f 183 185 523
f 185 525 523
f 185 187 525
f 187 527 525
f 187 189 527
f 189 529 527
f 189 191 529
f 191 531 529
f 191 193 531
f 193 533 531
f 193 195 533
f 195 535 533
f 195 197 535
f 197 537 535
f 197 199 537
f 199 539 537
f 199 201 539
f 201 541 539
f 201 203 541
f 203 543 541
f 203 205 543
f 205 545 543
f 205 207 545
f 207 547 545
f 207 209 547
f 209 549 547
f 209 211 549
f 211 551 549
f 211 212 551
f 212 552 551
f 212 214 552
f 214 554 552
f 214 216 554
f 216 556 554
f 216 218 556
f 218 558 556
f 218 221 558
f 221 561 558
f 221 223 561
f 223 563 561
f 223 225 563
f 225 565 563
f 225 227 565
f 227 567 565
f 227 229 567
f 229 569 567
f 229 231 569
f 231 571 569
f 231 233 571
f 233 573 571
f 233 235 573
f 235 575 573
f 235 237 575
f 237 577 575
f 237 239 577
f 239 579 577
f 239 241 579
f 241 581 579
f 241 243 581
f 243 583 581
f 243 245 583
f 245 585 583
f 245 247 585
f 247 587 585
f 247 249 587
f 249 589 587
f 249 251 589
f 251 591 589
f 251 253 591
f 253 593 591
f 253 255 593
f 255 595 593
f 255 257 595
f 257 597 595
f 257 259 597
f 259 599 597
f 259 261 599
f 261 601 599
f 261 263 601
f 263 603 601
f 263 265 603
f 265 605 603
f 265 267 605
f 267 607 605
f 267 269 607
f 269 609 607
f 269 271 609
f 271 611 609
f 271 273 611
f 273 613 611
f 273 275 613
f 275 615 613
f 275 277 615
f 277 617 615
f 277 279 617
f 279 619 617
f 279 281 619
f 281 621 619
f 281 283 621
f 283 623 621
f 283 285 623
f 285 625 623
f 285 287 625
f 287 627 625
f 287 289 627
f 289 629 627
f 289 291 629
f 291 631 629
f 291 293 631
f 293 633 631
f 293 295 633
f 295 635 633
f 295 297 635
f 297 637 635
f 297 299 637
f 299 639 637
f 299 301 639
f 301 641 639
f 301 303 641
f 303 643 641
f 303 305 643
f 305 645 643
f 305 307 645
f 307 647 645
f 307 309 647
f 309 649 647
f 309 311 649
f 311 651 649
f 311 313 651
f 313 653 651
f 313 315 653
f 315 655 653
f 315 317 655
f 317 657 655
f 317 319 657
f 319 659 657
f 319 321 659
f 321 661 659
f 321 323 661
f 323 663 661
f 323 325 663
f 325 665 663
f 325 327 665
f 327 667 665
f 327 330 667
f 330 670 667
f 330 332 670
f 332 672 670
f 332 334 672
f 334 674 672
f 334 336 674
f 336 676 674
f 336 338 676
f 338 678 676
f 338 340 678
f 340 680 678
f 340 339 680
f 339 679 680
f 339 337 679
f 337 677 679
f 337 335 677
f 335 675 677
f 335 333 675
f 333 673 675
f 333 331 673
f 331 671 673
f 331 329 671
f 329 669 671
f 329 328 669
f 328 668 669
f 328 326 668
f 326 666 668
f 326 324 666
f 324 664 666
f 324 322 664
f 322 662 664
f 322 320 662
f 320 660 662
f 320 318 660
f 318 658 660
f 318 316 658
f 316 656 658
f 316 314 656
f 314 654 656
f 314 312 654
f 312 652 654
f 312 310 652
f 310 650 652
f 310 308 650
f 308 648 650
f 308 306 648
f 306 646 648
f 306 304 646
f 304 644 646
f 304 302 644
f 302 642 644
f 302 300 642
f 300 640 642
f 300 298 640
f 298 638 640
f 298 296 638
f 296 636 638
f 296 294 636
f 294 634 636
f 294 292 634
f 292 632 634
f 292 290 632
f 290 630 632
f 290 288 630
f 288 628 630
f 288 286 628
f 286 626 628
f 286 284 626
f 284 624 626
f 284 282 624
f 282 622 624
f 282 280 622
f 280 620 622
f 280 278 620
f 278 618 620
f 278 276 618
f 276 616 618
f 276 274 616
f 274 614 616
f 274 272 614
f 272 612 614
f 272 270 612
f 270 610 612
f 270 268 610
f 268 608 610
f 268 266 608
f 266 606 608
f 266 264 606
f 264 604 606
f 264 262 604
f 262 602 604
f 262 260 602
f 260 600 602
f 260 258 600
f 258 598 600
f 258 256 598
f 256 596 598
f 256 254 596
f 254 594 596
f 254 252 594
f 252 592 594
f 252 250 592
f 250 590 592
f 250 248 590
f 248 588 590
f 248 246 588
f 246 586 588
f 246 244 586
f 244 584 586
f 244 242 584
f 242 582 584
f 242 240 582
f 240 580 582
f 240 238 580
f 238 578 580
f 238 236 578
f 236 576 578
f 236 234 576
f 234 574 576
f 234 232 574
f 232 572 574
f 232 230 572
f 230 570 572
f 230 228 570
f 228 568 570
f 228 226 568
f 226 566 568
f 226 224 566
f 224 564 566
f 224 222 564
f 222 562 564
f 222 220 562
f 220 560 562
f 220 219 560
f 219 559 560
f 219 217 559
f 217 557 559
f 217 215 557
f 215 555 557
f 215 213 555
f 213 553 555
f 213 210 553
f 210 550 553
f 210 208 550
f 208 548 550
f 208 206 548
f 206 546 548
f 206 204 546
f 204 544 546
f 204 202 544
f 202 542 544
f 202 200 542
f 200 540 542
f 200 198 540
f 198 538 540
f 198 196 538
f 196 536 538
f 196 194 536
f 194 534 536
f 194 192 534
f 192 532 534
f 192 190 532
f 190 530 532
f 190 188 530
f 188 528 530
f 188 186 528
f 186 526 528
f 186 184 526
f 184 524 526
f 184 182 524
f 182 522 524
f 182 180 522
f 180 520 522
f 180 179 520
f 179 519 520
f 179 177 519
f 177 517 519
f 177 175 517
f 175 515 517
f 175 6 515
f 6 344 515
f 6 5 344
f 5 345 344
f 5 4 345
f 4 346 345
f 4 8 346
f 8 347 346
f 8 7 347
f 7 348 347
f 7 10 348
f 10 349 348
f 10 9 349
f 9 350 349
f 9 12 350
f 12 351 350
f 12 11 351
f 11 352 351
f 11 14 352
f 14 353 352
f 14 13 353
f 13 354 353
f 13 16 354
f 16 355 354
f 16 15 355
f 15 356 355
f 15 18 356
f 18 357 356
f 18 17 357
f 17 358 357
f 17 20 358
f 20 359 358
f 20 19 359
f 19 360 359
f 19 22 360
f 22 361 360
f 22 21 361
f 21 362 361
f 21 24 362
f 24 363 362
f 24 23 363
f 23 364 363
f 23 26 364
f 26 365 364
f 26 25 365
f 25 366 365
f 25 28 366
f 28 367 366
f 28 27 367
f 27 368 367
f 27 30 368
f 30 369 368
f 30 29 369
f 29 370 369
f 29 32 370
f 32 371 370
f 32 31 371
f 31 372 371
f 31 34 372
f 34 373 372
f 34 33 373
f 33 374 373
f 33 36 374
f 36 375 374
f 36 35 375
f 35 376 375
f 35 38 376
f 38 377 376
f 38 37 377
f 37 378 377
f 37 40 378
f 40 379 378
f 40 39 379
f 39 380 379
f 39 42 380
f 42 381 380
f 42 41 381
f 41 382 381
f 41 44 382
f 44 383 382
f 44 43 383
f 43 384 383
f 43 46 384
f 46 385 384
f 46 45 385
f 45 386 385
f 45 48 386
f 48 387 386
f 48 47 387
f 47 388 387
f 47 50 388
f 50 389 388
f 50 49 389
f 49 390 389
f 49 52 390
f 52 391 390
f 52 51 391
f 51 392 391
f 51 54 392
f 54 393 392
f 54 53 393
f 53 394 393
f 53 56 394
f 56 395 394
f 56 55 395
f 55 396 395
f 55 58 396
f 58 397 396
f 58 57 397
f 57 398 397
f 57 60 398
f 60 399 398
f 60 59 399
f 59 400 399
f 59 62 400
f 62 401 400
f 62 61 401
f 61 402 401
f 61 64 402
f 64 403 402
f 64 63 403
f 63 404 403
f 63 66 404
f 66 405 404
f 66 65 405
f 65 406 405
f 65 68 406
f 68 407 406
f 68 67 407
f 67 408 407
f 67 70 408
f 70 409 408
f 70 69 409
f 69 410 409
f 69 72 410
f 72 411 410
f 72 71 411
f 71 412 411
f 71 74 412
f 74 413 412
f 74 73 413
f 73 414 413
f 73 76 414
f 76 415 414
f 76 75 415
f 75 416 415
f 75 78 416
f 78 417 416
f 78 77 417
f 77 418 417
f 77 80 418
f 80 419 418
f 80 79 419
f 79 420 419
f 79 82 420
f 82 421 420
f 82 81 421
f 81 422 421
f 81 84 422
f 84 423 422
f 84 83 423
f 83 424 423
f 83 86 424
f 86 425 424
f 86 85 425
f 85 426 425
f 85 88 426
f 88 427 426
f 88 87 427
f 87 428 427
f 87 90 428
f 90 429 428
f 90 89 429
f 89 430 429
f 89 92 430
f 92 431 430
f 92 91 431
f 91 432 431
f 91 94 432
f 94 433 432
f 94 93 433
f 93 434 433
f 93 96 434
f 96 435 434
f 96 95 435
f 95 436 435
f 95 98 436
f 98 437 436
f 98 97 437
f 97 438 437
f 97 100 438
f 100 439 438
f 100 99 439
f 99 440 439
f 99 102 440
f 102 441 440
f 102 101 441
f 101 442 441
f 101 104 442
f 104 443 442
f 104 103 443
f 103 444 443
f 103 106 444
f 106 445 444
f 106 105 445
f 105 446 445
f 105 108 446
f 108 447 446
f 108 107 447
f 107 448 447
f 107 110 448
f 110 449 448
f 110 109 449
f 109 450 449
f 109 112 450
f 112 451 450
f 112 111 451
f 111 452 451
f 111 114 452
f 114 453 452
f 114 113 453
f 113 454 453
f 113 116 454
f 116 455 454
f 116 115 455
f 115 456 455
f 115 118 456
f 118 457 456
f 118 117 457
f 117 458 457
f 117 120 458
f 120 459 458
f 120 119 459
f 119 460 459
f 119 122 460
f 122 461 460
f 122 121 461
f 121 462 461
f 121 124 462
f 124 463 462
f 124 123 463
f 123 464 463
f 123 126 464
f 126 465 464
f 126 125 465
f 125 466 465
f 125 128 466
f 128 467 466
f 128 127 467
f 127 468 467
f 127 130 468
f 130 469 468
f 130 129 469
f 129 470 469
f 129 132 470
f 132 471 470
f 132 131 471
f 131 472 471
f 131 134 472
f 134 473 472
f 134 133 473
f 133 474 473
f 133 136 474
f 136 475 474
f 136 135 475
f 135 476 475
f 135 138 476
f 138 477 476
f 138 137 477
f 137 478 477
f 137 140 478
f 140 479 478
f 140 139 479
f 139 480 479
f 139 142 480
f 142 481 480
f 142 141 481
f 141 482 481
f 141 144 482
f 144 483 482
f 144 143 483
f 143 484 483
f 143 146 484
f 146 485 484
f 146 145 485
f 145 486 485
f 145 148 486
f 148 487 486
f 148 147 487
f 147 488 487
f 147 150 488
f 150 489 488
f 150 149 489
f 149 490 489
f 149 152 490
f 152 491 490
f 152 151 491
f 151 492 491
f 151 154 492
f 154 493 492
f 154 153 493
f 153 494 493
f 153 156 494
f 156 495 494
f 156 155 495
f 155 496 495
f 155 158 496
f 158 497 496
f 158 157 497
f 157 498 497
f 157 160 498
f 160 499 498
f 160 159 499
f 159 500 499
f 159 162 500
f 162 501 500
f 162 161 501
f 161 502 501
f 161 164 502
f 164 503 502
f 164 163 503
f 163 504 503
f 163 166 504
f 166 505 504
f 166 165 505
f 165 506 505
f 165 168 506
f 168 507 506
f 168 167 507
f 167 508 507
f 167 170 508
f 170 509 508
f 170 169 509
f 169 510 509
f 169 172 510
f 172 511 510
f 172 171 511
f 171 512 511
f 171 174 512
f 174 513 512
f 174 173 513
f 173 514 513
f 173 3 514
f 3 341 514
f 3 2 341
f 2 342 341
f 2 1 342
f 1 343 342

