# https://github.com/mikedh/trimesh

o Isosphere
v 0.00000003 -0.00000095 -7.24999987
v 0.00000003 -0.00000095 -7.24999987
v 0.00000003 -0.00000095 -7.24999987
v 0.00000003 -0.00000095 -7.24999987
v 0.00000003 -0.00000095 -7.24999987
v 5.24615203 -3.81150895 -3.24234087
v 5.24615203 -3.81150895 -3.24234087
v 5.24615203 -3.81150895 -3.24234087
v 5.24615203 -3.81150895 -3.24234087
v 5.24615203 -3.81150895 -3.24234087
v -2.00381397 -6.16720795 -3.24234287
v -2.00381397 -6.16720795 -3.24234287
v -2.00381397 -6.16720795 -3.24234287
v -2.00381397 -6.16720795 -3.24234287
v -2.00381397 -6.16720795 -3.24234287
v -6.48458997 0.00000005 -3.24231387
v -6.48458997 0.00000005 -3.24231387
v -6.48458997 0.00000005 -3.24231387
v -6.48458997 0.00000005 -3.24231387
v -6.48458997 0.00000005 -3.24231387
v -2.00381397 6.16720705 -3.24234387
v -2.00381397 6.16720705 -3.24234387
v -2.00381397 6.16720705 -3.24234387
v -2.00381397 6.16720705 -3.24234387
v -2.00381397 6.16720705 -3.24234387
v 5.24615203 3.81150805 -3.24234187
v 5.24615203 3.81150805 -3.24234187
v 5.24615203 3.81150805 -3.24234187
v 5.24615203 3.81150805 -3.24234187
v 5.24615203 3.81150805 -3.24234187
v 2.00381403 -6.16720695 3.24234413
v 2.00381403 -6.16720695 3.24234413
v 2.00381403 -6.16720695 3.24234413
v 2.00381403 -6.16720695 3.24234413
v 2.00381403 -6.16720695 3.24234413
v -5.24615197 -3.81150795 3.24234213
v -5.24615197 -3.81150795 3.24234213
v -5.24615197 -3.81150795 3.24234213
v -5.24615197 -3.81150795 3.24234213
v -5.24615197 -3.81150795 3.24234213
v -5.24615197 3.81150905 3.24234113
v -5.24615197 3.81150905 3.24234113
v -5.24615197 3.81150905 3.24234113
v -5.24615197 3.81150905 3.24234113
v -5.24615197 3.81150905 3.24234113
v 2.00381403 6.16720705 3.24234313
v 2.00381403 6.16720705 3.24234313
v 2.00381403 6.16720705 3.24234313
v 2.00381403 6.16720705 3.24234313
v 2.00381403 6.16720705 3.24234313
v 6.48459003 0.00000005 3.24231413
v 6.48459003 0.00000005 3.24231413
v 6.48459003 0.00000005 3.24231413
v 6.48459003 0.00000005 3.24231413
v 6.48459003 0.00000005 3.24231413
v 0.00000003 0.00000105 7.25000013
v 0.00000003 0.00000105 7.25000013
v 0.00000003 0.00000105 7.25000013
v 0.00000003 0.00000105 7.25000013
v 0.00000003 0.00000105 7.25000013
v -1.17780297 -3.62496695 -6.16724387
v -1.17780297 -3.62496695 -6.16724387
v -1.17780297 -3.62496695 -6.16724387
v -1.17780297 -3.62496695 -6.16724387
v -1.17780297 -3.62496695 -6.16724387
v -1.17780297 -3.62496695 -6.16724387
v 3.08359003 -2.24033295 -6.16724287
v 3.08359003 -2.24033295 -6.16724287
v 3.08359003 -2.24033295 -6.16724287
v 3.08359003 -2.24033295 -6.16724287
v 3.08359003 -2.24033295 -6.16724287
v 3.08359003 -2.24033295 -6.16724287
v 1.90579903 -5.86533395 -3.81159687
v 1.90579903 -5.86533395 -3.81159687
v 1.90579903 -5.86533395 -3.81159687
v 1.90579903 -5.86533395 -3.81159687
v 1.90579903 -5.86533395 -3.81159687
v 1.90579903 -5.86533395 -3.81159687
v 6.16719703 0.00000005 -3.81158487
v 6.16719703 0.00000005 -3.81158487
v 6.16719703 0.00000005 -3.81158487
v 6.16719703 0.00000005 -3.81158487
v 6.16719703 0.00000005 -3.81158487
v 6.16719703 0.00000005 -3.81158487
v 3.08359003 2.24033205 -6.16724287
v 3.08359003 2.24033205 -6.16724287
v 3.08359003 2.24033205 -6.16724287
v 3.08359003 2.24033205 -6.16724287
v 3.08359003 2.24033205 -6.16724287
v 3.08359003 2.24033205 -6.16724287
v -3.81154097 -0.00000095 -6.16722487
v -3.81154097 -0.00000095 -6.16722487
v -3.81154097 -0.00000095 -6.16722487
v -3.81154097 -0.00000095 -6.16722487
v -3.81154097 -0.00000095 -6.16722487
v -3.81154097 -0.00000095 -6.16722487
v -4.98937197 -3.62497795 -3.81158687
v -4.98937197 -3.62497795 -3.81158687
v -4.98937197 -3.62497795 -3.81158687
v -4.98937197 -3.62497795 -3.81158687
v -4.98937197 -3.62497795 -3.81158687
v -4.98937197 -3.62497795 -3.81158687
v -1.17780297 3.62496605 -6.16724487
v -1.17780297 3.62496605 -6.16724487
v -1.17780297 3.62496605 -6.16724487
v -1.17780297 3.62496605 -6.16724487
v -1.17780297 3.62496605 -6.16724487
v -1.17780297 3.62496605 -6.16724487
v -4.98937197 3.62497705 -3.81158787
v -4.98937197 3.62497705 -3.81158787
v -4.98937197 3.62497705 -3.81158787
v -4.98937197 3.62497705 -3.81158787
v -4.98937197 3.62497705 -3.81158787
v -4.98937197 3.62497705 -3.81158787
v 1.90579903 5.86533305 -3.81159787
v 1.90579903 5.86533305 -3.81159787
v 1.90579903 5.86533305 -3.81159787
v 1.90579903 5.86533305 -3.81159787
v 1.90579903 5.86533305 -3.81159787
v 1.90579903 5.86533305 -3.81159787
v 6.89517003 -2.24034095 0.00000013
v 6.89517003 -2.24034095 0.00000013
v 6.89517003 -2.24034095 0.00000013
v 6.89517003 -2.24034095 0.00000013
v 6.89517003 -2.24034095 0.00000013
v 6.89517003 -2.24034095 0.00000013
v 6.89517003 2.24034105 0.00000013
v 6.89517003 2.24034105 0.00000013
v 6.89517003 2.24034105 0.00000013
v 6.89517003 2.24034105 0.00000013
v 6.89517003 2.24034105 0.00000013
v 6.89517003 2.24034105 0.00000013
v 0.00000003 -7.24999995 0.00000113
v 0.00000003 -7.24999995 0.00000113
v 0.00000003 -7.24999995 0.00000113
v 0.00000003 -7.24999995 0.00000113
v 0.00000003 -7.24999995 0.00000113
v 0.00000003 -7.24999995 0.00000113
v 4.26144603 -5.86537095 0.00000013
v 4.26144603 -5.86537095 0.00000013
v 4.26144603 -5.86537095 0.00000013
v 4.26144603 -5.86537095 0.00000013
v 4.26144603 -5.86537095 0.00000013
v 4.26144603 -5.86537095 0.00000013
v -6.89516997 -2.24034095 0.00000013
v -6.89516997 -2.24034095 0.00000013
v -6.89516997 -2.24034095 0.00000013
v -6.89516997 -2.24034095 0.00000013
v -6.89516997 -2.24034095 0.00000013
v -6.89516997 -2.24034095 0.00000013
v -4.26144597 -5.86537095 0.00000013
v -4.26144597 -5.86537095 0.00000013
v -4.26144597 -5.86537095 0.00000013
v -4.26144597 -5.86537095 0.00000013
v -4.26144597 -5.86537095 0.00000013
v -4.26144597 -5.86537095 0.00000013
v -4.26144597 5.86537105 0.00000013
v -4.26144597 5.86537105 0.00000013
v -4.26144597 5.86537105 0.00000013
v -4.26144597 5.86537105 0.00000013
v -4.26144597 5.86537105 0.00000013
v -4.26144597 5.86537105 0.00000013
v -6.89516997 2.24034105 0.00000013
v -6.89516997 2.24034105 0.00000013
v -6.89516997 2.24034105 0.00000013
v -6.89516997 2.24034105 0.00000013
v -6.89516997 2.24034105 0.00000013
v -6.89516997 2.24034105 0.00000013
v 4.26144603 5.86537105 0.00000013
v 4.26144603 5.86537105 0.00000013
v 4.26144603 5.86537105 0.00000013
v 4.26144603 5.86537105 0.00000013
v 4.26144603 5.86537105 0.00000013
v 4.26144603 5.86537105 0.00000013
v 0.00000003 7.25000005 -0.00000087
v 0.00000003 7.25000005 -0.00000087
v 0.00000003 7.25000005 -0.00000087
v 0.00000003 7.25000005 -0.00000087
v 0.00000003 7.25000005 -0.00000087
v 0.00000003 7.25000005 -0.00000087
v 4.98937203 -3.62497695 3.81158813
v 4.98937203 -3.62497695 3.81158813
v 4.98937203 -3.62497695 3.81158813
v 4.98937203 -3.62497695 3.81158813
v 4.98937203 -3.62497695 3.81158813
v 4.98937203 -3.62497695 3.81158813
v -1.90579897 -5.86533295 3.81159813
v -1.90579897 -5.86533295 3.81159813
v -1.90579897 -5.86533295 3.81159813
v -1.90579897 -5.86533295 3.81159813
v -1.90579897 -5.86533295 3.81159813
v -1.90579897 -5.86533295 3.81159813
v -6.16719697 0.00000005 3.81158513
v -6.16719697 0.00000005 3.81158513
v -6.16719697 0.00000005 3.81158513
v -6.16719697 0.00000005 3.81158513
v -6.16719697 0.00000005 3.81158513
v -6.16719697 0.00000005 3.81158513
v -1.90579897 5.86533405 3.81159713
v -1.90579897 5.86533405 3.81159713
v -1.90579897 5.86533405 3.81159713
v -1.90579897 5.86533405 3.81159713
v -1.90579897 5.86533405 3.81159713
v -1.90579897 5.86533405 3.81159713
v 4.98937203 3.62497805 3.81158713
v 4.98937203 3.62497805 3.81158713
v 4.98937203 3.62497805 3.81158713
v 4.98937203 3.62497805 3.81158713
v 4.98937203 3.62497805 3.81158713
v 4.98937203 3.62497805 3.81158713
v 1.17780303 -3.62496595 6.16724413
v 1.17780303 -3.62496595 6.16724413
v 1.17780303 -3.62496595 6.16724413
v 1.17780303 -3.62496595 6.16724413
v 1.17780303 -3.62496595 6.16724413
v 1.17780303 -3.62496595 6.16724413
v 3.81154103 0.00000005 6.16722513
v 3.81154103 0.00000005 6.16722513
v 3.81154103 0.00000005 6.16722513
v 3.81154103 0.00000005 6.16722513
v 3.81154103 0.00000005 6.16722513
v 3.81154103 0.00000005 6.16722513
v -3.08358997 -2.24033195 6.16724313
v -3.08358997 -2.24033195 6.16724313
v -3.08358997 -2.24033195 6.16724313
v -3.08358997 -2.24033195 6.16724313
v -3.08358997 -2.24033195 6.16724313
v -3.08358997 -2.24033195 6.16724313
v -3.08358997 2.24033305 6.16724313
v -3.08358997 2.24033305 6.16724313
v -3.08358997 2.24033305 6.16724313
v -3.08358997 2.24033305 6.16724313
v -3.08358997 2.24033305 6.16724313
v -3.08358997 2.24033305 6.16724313
v 1.17780303 3.62496705 6.16724313
v 1.17780303 3.62496705 6.16724313
v 1.17780303 3.62496705 6.16724313
v 1.17780303 3.62496705 6.16724313
v 1.17780303 3.62496705 6.16724313
v 1.17780303 3.62496705 6.16724313
f 1 72 61
f 9 70 84
f 4 64 96
f 5 91 108
f 2 103 85
f 10 81 122
f 12 74 138
f 18 97 146
f 24 113 157
f 29 118 169
f 7 126 143
f 13 137 153
f 16 150 168
f 22 162 176
f 27 170 128
f 31 186 212
f 37 189 226
f 43 196 233
f 49 200 237
f 52 208 219
f 220 240 58
f 217 207 235
f 205 46 239
f 238 230 57
f 236 202 232
f 203 45 229
f 231 225 59
f 234 194 227
f 193 40 228
f 223 211 56
f 224 187 216
f 190 35 215
f 213 222 60
f 214 185 221
f 182 51 218
f 130 210 55
f 129 171 206
f 174 47 209
f 180 204 48
f 175 159 199
f 160 41 201
f 167 198 44
f 164 148 197
f 147 38 195
f 156 192 39
f 155 136 188
f 135 32 191
f 140 181 33
f 144 123 183
f 125 54 184
f 172 177 50
f 173 115 179
f 116 21 178
f 161 163 42
f 158 109 166
f 110 19 165
f 145 154 36
f 149 102 152
f 100 15 151
f 133 142 34
f 134 77 141
f 73 6 139
f 121 131 53
f 124 83 132
f 82 26 127
f 88 117 30
f 90 106 119
f 107 25 120
f 104 114 23
f 105 94 111
f 95 17 112
f 93 101 20
f 92 65 98
f 66 14 99
f 80 89 28
f 79 68 87
f 69 3 86
f 63 78 11
f 62 67 76
f 71 8 75

