# https://github.com/mikedh/trimesh

o sca_S
v -5.21782749 -6.66428502 -4.01244816
v -5.21782749 -4.31600763 -4.01244700
v -5.21782749 -4.31354455 -4.16350444
v -5.21782749 -6.64814742 -4.44782343
v -5.21782749 -6.66024946 -4.23238724
v -5.21782749 -6.59973348 -4.86519291
v -5.21782749 -6.62797427 -4.65875904
v -5.21782749 -6.51904551 -5.26455662
v -5.21782749 -6.56342389 -5.06712505
v -5.21782749 -6.40608351 -5.64591339
v -5.21782749 -6.46659833 -5.45748529
v -5.21782749 -6.26084516 -6.00926321
v -5.21782749 -6.33749757 -5.82983859
v -5.21782749 -6.08333047 -6.35460842
v -5.21782749 -6.17612279 -6.18418727
v -5.21782749 -5.87880768 -6.68194785
v -5.21782749 -5.98378670 -6.52052901
v -5.21782749 -5.65254159 -6.99128151
v -5.21782749 -5.76839342 -6.83886613
v -5.21782749 -5.40453335 -7.28260706
v -5.21782749 -5.53125567 -7.13919631
v -5.21782749 -5.13478064 -7.55592915
v -5.21782749 -5.27237462 -7.42151955
v -5.21782749 -4.84328578 -7.81124199
v -5.21782749 -4.99175141 -7.68583702
v -5.21782749 -4.53004761 -8.04855136
v -5.21782749 -4.68938490 -7.93214870
v -5.21782749 -4.19982067 -8.26734239
v -5.21782749 -4.36646255 -8.16032472
v -5.21782749 -3.85736297 -8.46710832
v -5.21782749 -4.03011965 -8.36960321
v -5.21782749 -3.50267451 -8.64785030
v -5.21782749 -3.68154715 -8.55985658
v -5.21782749 -3.13575646 -8.80956486
v -5.21782749 -3.32074506 -8.73108369
v -5.21782749 -2.75660766 -8.95225547
v -5.21782749 -2.94771105 -8.88328801
v -5.21782749 -2.36522925 -9.07591982
v -5.21782749 -2.56244744 -9.01646491
v -5.21782749 -1.96654626 -9.18055906
v -5.21782749 -2.16618462 -9.13061786
v -5.21782749 -1.56548599 -9.26617435
v -5.21782749 -1.76631299 -9.22574571
v -5.21782749 -1.16204962 -9.33276338
v -5.21782749 -1.36406409 -9.30184729
v -5.21782749 -0.75623482 -9.38032614
v -5.21782749 -0.95944024 -9.35892261
v -5.21782749 -0.34804506 -9.40886496
v -5.21782749 -0.55243797 -9.39697398
v -5.21782749 0.06252427 -9.41837751
v -5.21782749 -0.14305726 -9.41599909
v -5.21782749 0.52406689 -9.40903427
v -5.21782749 0.29512202 -9.41604083
v -5.21782749 0.97099800 -9.38100569
v -5.21782749 0.74935888 -9.39735550
v -5.21782749 1.40331760 -9.33429179
v -5.21782749 1.18898308 -9.35998368
v -5.21782749 1.82102570 -9.26889139
v -5.21782749 1.61399693 -9.30392769
v -5.21782749 2.22412230 -9.18480567
v -5.21782749 2.02439928 -9.22918521
v -5.21782749 2.61260740 -9.08203461
v -5.21782749 2.42019129 -9.13575624
v -5.21782749 2.98480182 -8.96193617
v -5.21782749 2.80095548 -9.02398288
v -5.21782749 3.33898931 -8.82587292
v -5.21782749 3.16414528 -8.89590029
v -5.21782749 3.67516870 -8.67383791
v -5.21782749 3.50933045 -8.75185058
v -5.21782749 3.99334347 -8.50583692
v -5.21782749 3.83650869 -8.59183258
v -5.21782749 4.29351014 -8.32186765
v -5.21782749 4.14567652 -8.41584745
v -5.21782749 4.57566872 -8.12193126
v -5.21782749 4.43684204 -8.22389520
v -5.21782749 4.83827687 -7.90687660
v -5.21782749 4.70960518 -8.01618688
v -5.21782749 5.07982126 -7.67755252
v -5.21782749 4.96168261 -7.79399925
v -5.21782749 5.30030189 -7.43395904
v -5.21782749 5.19269397 -7.55753990
v -5.21782749 5.49972341 -7.17609731
v -5.21782749 5.40264620 -7.30681113
v -5.21782749 5.67808116 -6.90396502
v -5.21782749 5.59153583 -7.04181528
v -5.21782749 5.83537632 -6.61756447
v -5.21782749 5.75936171 -6.76254885
v -5.21782749 5.96992739 -6.31825361
v -5.21782749 5.90570983 -6.46935280
v -5.21782749 6.08001464 -6.00739271
v -5.21782749 6.02802899 -6.16426808
v -5.21782749 6.16563805 -5.68498060
v -5.21782749 6.12588432 -5.84763099
v -5.21782749 6.22679763 -5.35101845
v -5.21782749 6.19927582 -5.51944386
v -5.21782749 6.26349338 -5.00550393
v -5.21782749 6.24820348 -5.17970553
v -5.21782749 6.27572529 -4.64843937
v -5.21782749 6.27266731 -4.82841599
v -5.21782749 6.26604111 -4.30784986
v -5.21782749 6.27330512 -4.47665795
v -5.21782749 6.23698973 -3.97915365
v -5.21782749 6.25393676 -4.14201509
v -5.21782749 6.18856999 -3.66234493
v -5.21782749 6.21520120 -3.81926321
v -5.21782749 6.12078421 -3.35743184
v -5.21782749 6.15709728 -3.50840231
v -5.21782749 6.03362891 -3.06440857
v -5.21782749 6.07962848 -3.20943355
v -5.21782749 5.92710873 -2.78327744
v -5.21782749 5.98278900 -2.92235693
v -5.21782749 5.80072966 -2.51283706
v -5.21782749 5.86646635 -2.64686746
v -5.21782749 5.65396406 -2.25191272
v -5.21782749 5.72989518 -2.38118510
v -5.21782749 5.48681542 -2.00050440
v -5.21782749 5.57293864 -2.12501876
v -5.21782749 5.29928025 -1.75860980
v -5.21782749 5.39559557 -1.87836730
v -5.21782749 5.09135971 -1.52623122
v -5.21782749 5.19786829 -1.64123072
v -5.21782749 4.86305728 -1.30336868
v -5.21782749 4.97975681 -1.41361016
v -5.21782749 4.61385809 -1.08882774
v -5.21782749 4.74113356 -1.19520645
v -5.21782749 4.34325884 -0.88141861
v -5.21782749 4.48123318 -0.98423257
v -5.21782749 4.05125489 -0.68114128
v -5.21782749 4.19993274 -0.78038818
v -5.21782749 3.73784973 -0.48799343
v -5.21782749 3.89722877 -0.58367675
v -5.21782749 3.40304220 -0.30197740
v -5.21782749 3.57312358 -0.39409365
v -5.21782749 3.04683346 -0.12309316
v -5.21782749 3.22761255 -0.21164351
v -5.21782749 2.66835260 0.04949073
v -5.21782749 2.86047996 -0.03612109
v -5.21782749 2.26677282 0.21663590
v -5.21782749 2.47045022 0.13374344
v -5.21782749 1.84209410 0.37834697
v -5.21782749 2.05732039 0.29817157
v -5.21782749 1.39431297 0.53462048
v -5.21782749 1.62109047 0.45716328
v -5.21782749 0.92343407 0.68545643
v -5.21782749 1.16176045 0.61071743
v -5.21782749 0.42945276 0.83085829
v -5.21782749 0.67933035 0.75883749
v -5.21782749 6.22679647 3.49716548
v -5.21782749 3.87849126 3.49716548
v -5.21782749 3.87551909 3.66274165
v -5.21782749 6.20641226 3.95734436
v -5.21782749 6.22170100 3.72840297
v -5.21782749 6.14525616 4.40834813
v -5.21782749 6.18093026 4.18399313
v -5.21782749 6.04333049 4.85017681
v -5.21782749 6.09939111 4.63041052
v -5.21782749 5.90063640 5.28283039
v -5.21782749 5.97708007 5.06765049
v -5.21782749 5.71717157 5.70630772
v -5.21782749 5.81399946 5.49571652
v -5.21782749 5.49293717 6.12061343
v -5.21782749 5.61015158 5.91460862
v -5.21782749 5.22980371 6.51743404
v -5.21782749 5.36599800 6.32225102
v -5.21782749 4.92964051 6.88843055
v -5.21782749 5.08435083 6.70616132
v -5.21782749 4.59245107 7.23360414
v -5.21782749 4.76567393 7.06424753
v -5.21782749 4.21823191 7.55295479
v -5.21782749 4.40997079 7.39650849
v -5.21782749 3.80698650 7.84647786
v -5.21782749 4.01723792 7.70294419
v -5.21782749 3.35871020 8.11417800
v -5.21782749 3.58747649 7.98355580
v -5.21782749 2.87508683 8.34774869
v -5.21782749 3.12110396 8.23627219
v -5.21782749 2.35783148 8.53885556
v -5.21782749 2.62066344 8.44861097
v -5.21782749 1.80694184 8.68749166
v -5.21782749 2.08659094 8.61848246
v -5.21782749 1.22242023 8.79366047
v -5.21782749 1.51888532 8.74588433
v -5.21782749 0.60426549 8.85736083
v -5.21782749 0.91754541 8.83081892
v -5.21782749 -0.04752354 8.87859506
v -5.21782749 0.28257584 8.87328621
v -5.21782749 -0.49699195 8.86840411
v -5.21782749 -0.27404128 8.87604616
v -5.21782749 -0.93219559 8.83783360
v -5.21782749 -0.71637788 8.85566775
v -5.21782749 -1.35313214 8.78687772
v -5.21782749 -1.14444623 8.81490282
v -5.21782749 -1.75980160 8.71554111
v -5.21782749 -1.55825098 8.75375715
v -5.21782749 -2.15220628 8.62382262
v -5.21782749 -1.95778631 8.67222960
v -5.21782749 -2.53034272 8.51172107
v -5.21782749 -2.34305803 8.57032016
v -5.21782749 -2.89267554 8.38142705
v -5.21782749 -2.71367419 8.44857154
v -5.21782749 -3.23767982 8.23516357
v -5.21782749 -3.06734216 8.31029222
v -5.21782749 -3.56535786 8.07293182
v -5.21782749 -3.40368390 8.15604460
v -5.21782749 -3.87570852 7.89472945
v -5.21782749 -3.72269941 7.98582522
v -5.21782749 -4.16873411 7.70055880
v -5.21782749 -4.02438869 7.79964103
v -5.21782749 -4.44443347 7.49041987
v -5.21782749 -4.30874943 7.59748508
v -5.21782749 -4.70110541 7.26602776
v -5.21782749 -4.57535950 7.37979455
v -5.21782749 -4.93705568 7.02906744
v -5.21782749 -4.82167119 7.14911833
v -5.21782749 -5.15228081 6.77953426
v -5.21782749 -5.04725889 6.90587159
v -5.21782749 -5.34678080 6.51743056
v -5.21782749 -5.25212029 6.65005547
v -5.21782749 -5.52055681 6.24275864
v -5.21782749 -5.43625887 6.38166650
v -5.21782749 -5.67360883 5.95551503
v -5.21782749 -5.59967230 6.10070699
v -5.21782749 -5.80440846 5.65755284
v -5.21782749 -5.74198139 5.80763850
v -5.21782749 -5.91142497 5.35076229
v -5.21782749 -5.86088888 5.50526039
v -5.21782749 -5.99466183 5.03514453
v -5.21782749 -5.95601673 5.19405623
v -5.21782749 -6.05411558 4.71069493
v -5.21782749 -6.02736145 4.87402371
v -5.21782749 -6.08978736 4.37741813
v -5.21782749 -6.07492421 4.54516051
v -5.21782749 -6.10167834 4.03531296
v -5.21782749 -6.09870502 4.20746895
v -5.21782749 -6.09046691 3.69522905
v -5.21782749 -6.09887432 3.86365679
v -5.21782749 -6.05683262 3.36805661
v -5.21782749 -6.07645262 3.53002977
v -5.21782749 -6.00077663 3.05379564
v -5.21782749 -6.03160806 3.20931306
v -5.21782749 -5.92229778 2.75244497
v -5.21782749 -5.96433948 2.90150666
v -5.21782749 -5.82139607 2.46400461
v -5.21782749 -5.87464920 2.60661057
v -5.21782749 -5.69807150 2.18847456
v -5.21782749 -5.76253606 2.32462594
v -5.21782749 -5.55368317 1.92449803
v -5.21782749 -5.62833984 2.05521184
v -5.21782749 -5.38958787 1.67071012
v -5.21782749 -5.47409686 1.79632963
v -5.21782749 -5.20578791 1.42711780
v -5.21782749 -5.30015039 1.54763952
v -5.21782749 -5.00228329 1.19371643
v -5.21782749 -5.10649926 1.30914267
v -5.21782749 -4.77907286 0.97050947
v -5.21782749 -4.89314232 1.08084024
v -5.21782749 -4.53616009 0.75749462
v -5.21782749 -4.66007955 0.86272760
v -5.21782749 -4.27490060 0.55348092
v -5.21782749 -4.40765307 0.65451019
v -5.21782749 -3.99665582 0.35728322
v -5.21782749 -4.13790152 0.45440565
v -5.21782749 -3.70142227 0.16890035
v -5.21782749 -3.85116236 0.26211478
v -5.21782749 -3.38920227 -0.01166885
v -5.21782749 -3.54743558 0.07763991
v -5.21782749 -3.05999582 -0.18442205
v -5.21782749 -3.22672351 -0.09902245
v -5.21782749 -2.71380175 -0.34936273
v -5.21782749 -2.88902267 -0.26786881
v -5.21782749 -2.35197569 -0.50784768
v -5.21782749 -2.53467167 -0.42924243
v -5.21782749 -1.97588138 -0.66124180
v -5.21782749 -2.16571149 -0.58518197
v -5.21782749 -1.58552230 -0.80954161
v -5.21782749 -1.78248537 -0.73602835
v -5.21782749 -1.18089498 -0.95274710
v -5.21782749 -1.38499217 -0.88178158
v -5.21782749 -0.76200288 -1.09086060
v -5.21782749 -0.97323188 -1.02244165
v -5.21782749 -0.32884253 -1.22388094
v -5.21782749 -0.54720566 -1.15800858
v -5.21782749 -4.30615530 -4.31090784
v -5.21782749 3.86660143 3.82517403
v -5.21782749 -4.29383989 -4.45466068
v -5.21782749 3.85173829 3.98446609
v -5.21782749 -0.12189726 -1.28495123
v -5.21782749 -4.27659832 -4.59476181
v -5.21782749 3.83093197 4.14061668
v -5.21782749 0.07901788 -1.34585105
v -5.21782749 -4.25442942 -4.73120890
v -5.21782749 0.24816343 0.88198695
v -5.21782749 3.80417784 4.29362347
v -5.21782749 0.27390287 -1.40658156
v -5.21782749 -4.22733668 -4.86400544
v -5.21782749 3.77148054 4.44348996
v -5.21782749 -4.19531661 -4.99314910
v -5.21782749 0.07120536 0.93345655
v -5.21782749 3.73283660 4.59021381
v -5.21782749 0.46275771 -1.46714045
v -5.21782749 -4.15837038 -5.11863988
v -5.21782749 -0.10142144 0.98526593
v -5.21782749 3.68824832 4.73379618
v -5.21782749 0.64558241 -1.52753003
v -5.21782749 -4.11649799 -5.24047895
v -5.21782749 -0.26971581 1.03741508
v -5.21782749 3.63771571 4.87423709
v -5.21782749 0.82237697 -1.58775029
v -5.21782749 -4.06969827 -5.35866630
v -5.21782749 -0.43367891 1.08990749
v -5.21782749 3.58123645 5.01153536
v -5.21782749 0.99314138 -1.64779894
v -5.21782749 -4.01797354 -5.47320077
v -5.21782749 -0.59331075 1.14273619
v -5.21782749 3.51881286 5.14569331
v -5.21782749 1.15787565 -1.70767827
v -5.21782749 -3.96132266 -5.58408353
v -5.21782749 -0.74861016 1.19590699
v -5.21782749 3.45044378 5.27670632
v -5.21782749 1.31657861 -1.76738830
v -5.21782749 -3.90038225 -5.69156738
v -5.21782749 -0.89957831 1.24941641
v -5.21782749 3.37603527 5.40385771
v -5.21782749 1.46925375 -1.82692669
v -5.21782749 -3.83578781 -5.79590975
v -5.21782749 -1.04621402 1.30326907
v -5.21782749 3.29551429 5.52642156
v -5.21782749 1.61589875 -1.88629578
v -5.21782749 -3.76754397 -5.89710833
v -5.21782749 -1.18852079 1.35745804
v -5.21782749 3.20887735 5.64439901
v -5.21782749 1.75651244 -1.94549557
v -5.21782749 -3.69564609 -5.99516543
v -5.21782749 -1.32649281 1.41199026
v -5.21782749 3.11612677 5.75778892
v -5.21782749 1.89163869 -2.00486350
v -5.21782749 -3.62009650 -6.09007991
v -5.21782749 -1.46013473 1.46686109
v -5.21782749 3.01726024 5.86659244
v -5.21782749 2.02183995 -2.06474167
v -5.21782749 -3.54089403 -6.18185175
v -5.21782749 -1.58966571 1.52232683
v -5.21782749 2.91228122 5.97080957
v -5.21782749 2.14711620 -2.12513009
v -5.21782749 -3.45803985 -6.27048095
v -5.21782749 -1.71528753 1.57864142
v -5.21782749 2.80118625 6.07043915
v -5.21782749 2.26746628 -2.18602643
v -5.21782749 -3.37153395 -6.35596753
v -5.21782749 -1.83700368 1.63580487
v -5.21782749 2.68397879 6.16548234
v -5.21782749 2.38289137 -2.24743301
v -5.21782749 -3.28137517 -6.43831263
v -5.21782749 -1.95481067 1.69381717
v -5.21782749 -3.18756468 -6.51751509
v -5.21782749 -2.06871198 1.75267834
v -5.21782749 2.56065422 6.25593915
v -5.21782749 -3.09010131 -6.59357493
v -5.21782749 -2.17870413 1.81238953
v -5.21782749 2.43121833 6.34180840
v -5.21782749 -2.28479060 1.87294725
v -5.21782749 2.29566649 6.42309243
v -5.21782749 -2.98898739 -6.66649213
v -5.21782749 -2.38696908 1.93435499
v -5.21782749 2.15399984 6.49978891
v -5.21782749 -2.88485723 -6.73626554
v -5.21782749 -2.48523956 1.99661276
v -5.21782749 2.00603981 6.57108957
v -5.21782749 -2.77834865 -6.80289632
v -5.21782749 -2.57960320 2.05971822
v -5.21782749 1.85162521 6.63619193
v -5.21782749 -2.66946395 -6.86638562
v -5.21782749 -2.67005885 2.12367138
v -5.21782749 1.69075603 6.69509485
v -5.21782749 -2.55819967 -6.92673113
v -5.21782749 -2.75660650 2.18847572
v -5.21782749 1.52343228 6.74779599
v -5.21782749 -2.44455696 -6.98393517
v -5.21782749 1.34965396 6.79429768
v -5.21782749 -2.32853814 -7.03799541
v -5.21782749 1.16942106 6.83459992
v -5.21782749 -2.21013974 -7.08891418
v -5.21782749 0.98273359 6.86870039
v -5.21782749 -2.08936406 -7.13669032
v -5.21782749 0.78959154 6.89660256
v -5.21782749 -1.96620996 -7.18132383
v -5.21782749 0.58999492 6.91830296
v -5.21782749 -1.84067859 -7.22281470
v -5.21782749 0.38394373 6.93380391
v -5.21782749 -1.71276995 -7.26116178
v -5.21782749 0.17143680 6.94310193
v -5.21782749 -1.58248172 -7.29636738
v -5.21782749 -0.04752238 6.94620166
v -5.21782749 -1.45052941 -7.32860083
v -5.21782749 -0.25442475 6.94356927
v -5.21782749 -1.31764474 -7.35803141
v -5.21782749 -0.45521233 6.93566978
v -5.21782749 -1.18382656 -7.38465682
v -5.21782749 -0.64988394 6.92250551
v -5.21782749 -1.04907602 -7.40848168
v -5.21782749 -0.83843960 6.90407298
v -5.21782749 -0.91339197 -7.42950254
v -5.21782749 -1.02088046 6.88037451
v -5.21782749 -0.77677557 -7.44772169
v -5.21782749 -1.19720652 6.85141011
v -5.21782749 -0.63922334 -7.46313798
v -5.21782749 -1.36741546 6.81717976
v -5.21782749 -0.50074108 -7.47575026
v -5.21782749 -1.53150845 6.77767999
v -5.21782749 -0.36132414 -7.48555969
v -5.21782749 -1.68948895 6.73291661
v -5.21782749 -0.22097485 -7.49256625
v -5.21782749 -1.84135234 6.68288728
v -5.21782749 -0.07969088 -7.49677112
v -5.21782749 -1.98709977 6.62759086
v -5.21782749 0.06252427 -7.49817312
v -5.21782749 -2.12673124 6.56702618
v -5.21782749 0.26577841 -7.49579470
v -5.21782749 -2.26037664 6.50197252
v -5.21782749 0.46376776 -7.48866057
v -5.21782749 -2.38816003 6.43317901
v -5.21782749 0.65648886 -7.47676959
v -5.21782749 -2.51008492 6.36064796
v -5.21782749 0.84394401 -7.46012175
v -5.21782749 1.02613323 -7.43871938
v -5.21782749 -2.62614896 6.28437823
v -5.21782749 1.20305651 -7.41255783
v -5.21782749 -2.73635101 6.20437097
v -5.21782749 1.37471268 -7.38164174
v -5.21782749 -2.84069454 6.12062503
v -5.21782749 1.54110292 -7.34596880
v -5.21782749 -2.93917607 6.03314271
v -5.21782749 1.70222722 -7.30554016
v -5.21782749 -3.03179793 5.94192170
v -5.21782749 1.85808442 -7.26035351
v -5.21782749 -3.11855895 5.84696432
v -5.21782749 -3.19945914 5.74826593
v -5.21782749 2.00867568 -7.21041231
v -5.21782749 -3.27449849 5.64583117
v -5.21782749 2.15400100 -7.15571427
v -5.21782749 -3.34367700 5.53965772
v -5.21782749 2.29384817 -7.09659798
v -5.21782749 -3.40716630 5.43035092
v -5.21782749 2.42800264 -7.03340786
v -5.21782749 -3.46513339 5.31849522
v -5.21782749 2.55646791 -6.96613928
v -5.21782749 -3.51758173 5.20409178
v -5.21782749 2.67924165 -6.89479340
v -5.21782749 -3.56450669 5.08713713
v -5.21782749 2.79632502 -6.81937369
v -5.21782749 -3.60591291 4.96763475
v -5.21782749 2.90771802 -6.73987319
v -5.21782749 -3.64179806 4.84558346
v -5.21782749 3.01341950 -6.65629887
v -5.21782749 -3.67216216 4.72098329
v -5.21782749 3.11343176 -6.56864492
v -5.21782749 -3.69700635 4.59383537
v -5.21782749 3.20775134 -6.47691599
v -5.21782749 -3.71632833 4.46413740
v -5.21782749 3.29638054 -6.38110975
v -5.21782749 -3.73013040 4.33188938
v -5.21782749 3.37931938 -6.28122621
v -5.21782749 -3.73841141 4.19709362
v -5.21782749 3.45656785 -6.17726536
v -5.21782749 -3.74117136 4.05974896
v -5.21782749 3.52787083 -6.06965163
v -5.21782749 -3.73951539 3.96670731
v -5.21782749 3.59297320 -5.95881178
v -5.21782749 -3.73454632 3.87510710
v -5.21782749 3.65187495 -5.84474464
v -5.21782749 -3.72626531 3.78495180
v -5.21782749 3.70457725 -5.72744906
v -5.21782749 -3.71467120 3.69623910
v -5.21782749 3.75107894 -5.60692618
v -5.21782749 -3.69976630 3.60897132
v -5.21782749 3.79138002 -5.48317718
v -5.21782749 -3.68154599 3.52314613
v -5.21782749 3.82548165 -5.35619858
v -5.21782749 -3.66001490 3.43876237
v -5.21782749 3.85338266 -5.22599384
v -5.21782749 -3.63517186 3.35582354
v -5.21782749 3.87508306 -5.09256066
v -5.21782749 -3.60701573 3.27432845
v -5.21782749 3.89058401 -4.95590136
v -5.21782749 -3.57554765 3.19427713
v -5.21782749 3.89988435 -4.81601245
v -5.21782749 -3.54076531 3.11566724
v -5.21782749 3.90298408 -4.67289856
v -5.21782749 -3.50267335 3.03850226
v -5.21782749 3.90166788 -4.56991414
v -5.21782749 -3.46105608 2.96252476
v -5.21782749 3.89771814 -4.46888486
v -5.21782749 -3.41570012 2.88748542
v -5.21782749 3.89113484 -4.36980843
v -5.21782749 -3.36660894 2.81337726
v -5.21782749 3.88191916 -4.27268484
v -5.21782749 -3.31378024 2.74020494
v -5.21782749 3.87006877 -4.17751293
v -5.21782749 -3.25721401 2.66796845
v -5.21782749 3.85558714 -4.08429617
v -5.21782749 -3.19691024 2.59666547
v -5.21782749 3.83847197 -3.99303109
v -5.21782749 -3.13286895 2.52629716
v -5.21782749 3.81872209 -3.90372118
v -5.21782749 -3.06509129 2.45686237
v -5.21782749 3.79633982 -3.81636294
v -5.21782749 -2.99357609 2.38836341
v -5.21782749 3.77132631 -3.73095754
v -5.21782749 -2.91832337 2.32080028
v -5.21782749 3.74367694 -3.64750730
v -5.21782749 -2.83933428 2.25416950
v -5.21782749 3.71339518 -3.56600874
v -5.21782749 3.67984554 -3.48612788
v -5.21782749 3.64238675 -3.40752379
v -5.21782749 2.49339028 -2.30934984
v -5.21782749 3.60102228 -3.33019299
v -5.21782749 2.59896535 -2.37177575
v -5.21782749 3.55575097 -3.25413547
v -5.21782749 3.50657398 -3.17935124
v -5.21782749 2.69961310 -2.43470959
v -5.21782749 3.45349132 -3.10584378
v -5.21782749 2.79533701 -2.49815366
v -5.21782749 3.39650297 -3.03360729
v -5.21782749 2.88613591 -2.56210798
v -5.21782749 3.33560547 -2.96264641
v -5.21782749 2.97200864 -2.62657139
v -5.21782749 3.27080345 -2.89295997
v -5.21782749 3.05295637 -2.69154503
v -5.21782749 3.20209344 -2.82454798
v -5.21782749 3.12947774 -2.75740928
v 5.21896087 -4.31354455 -4.16350444
v 5.21896087 -4.31600763 -4.01244700
v 5.21896087 -6.66428502 -4.01244816
v 5.21896087 -6.66025062 -4.23238724
v 5.21896087 -6.64814742 -4.44782343
v 5.21896087 -6.62797543 -4.65875904
v 5.21896087 -6.59973348 -4.86519291
v 5.21896087 -6.56342505 -5.06712505
v 5.21896087 -6.51904551 -5.26455662
v 5.21896087 -6.46659949 -5.45748529
v 5.21896087 -6.40608351 -5.64591339
v 5.21896087 -6.33749873 -5.82983859
v 5.21896087 -6.26084516 -6.00926321
v 5.21896087 -6.17612279 -6.18418727
v 5.21896087 -6.08333047 -6.35460842
v 5.21896087 -5.98378786 -6.52052901
v 5.21896087 -5.87880884 -6.68194785
v 5.21896087 -5.76839342 -6.83886613
v 5.21896087 -5.65254275 -6.99128151
v 5.21896087 -5.53125567 -7.13919631
v 5.21896087 -5.40453335 -7.28260706
v 5.21896087 -5.27237578 -7.42151955
v 5.21896087 -5.13478180 -7.55592915
v 5.21896087 -4.99175141 -7.68583702
v 5.21896087 -4.84328694 -7.81124199
v 5.21896087 -4.68938490 -7.93214870
v 5.21896087 -4.53004877 -8.04855136
v 5.21896087 -4.36646255 -8.16032472
v 5.21896087 -4.19982067 -8.26734239
v 5.21896087 -4.03012081 -8.36960321
v 5.21896087 -3.85736297 -8.46710832
v 5.21896087 -3.68154715 -8.55985658
v 5.21896087 -3.50267451 -8.64785030
v 5.21896087 -3.32074506 -8.73108369
v 5.21896087 -3.13575762 -8.80956486
v 5.21896087 -2.94771105 -8.88328801
v 5.21896087 -2.75660881 -8.95225547
v 5.21896087 -2.56244744 -9.01646491
v 5.21896087 -2.36522925 -9.07591982
v 5.21896087 -2.16618462 -9.13061786
v 5.21896087 -1.96654626 -9.18055906
v 5.21896087 -1.76631299 -9.22574571
v 5.21896087 -1.56548715 -9.26617435
v 5.21896087 -1.36406525 -9.30184729
v 5.21896087 -1.16204962 -9.33276338
v 5.21896087 -0.95944024 -9.35892261
v 5.21896087 -0.75623597 -9.38032614
v 5.21896087 -0.55243797 -9.39697398
v 5.21896087 -0.34804506 -9.40886496
v 5.21896087 -0.14305842 -9.41599909
v 5.21896087 0.06252427 -9.41837751
v 5.21896087 0.29512086 -9.41604083
v 5.21896087 0.52406573 -9.40903427
v 5.21896087 0.74935772 -9.39735550
v 5.21896087 0.97099684 -9.38100569
v 5.21896087 1.18898308 -9.35998368
v 5.21896087 1.40331760 -9.33429179
v 5.21896087 1.61399693 -9.30392769
v 5.21896087 1.82102454 -9.26889139
v 5.21896087 2.02439928 -9.22918521
v 5.21896087 2.22412230 -9.18480567
v 5.21896087 2.42019013 -9.13575624
v 5.21896203 2.61260624 -9.08203461
v 5.21896203 2.80095432 -9.02398288
v 5.21896203 2.98480182 -8.96193617
v 5.21896203 3.16414412 -8.89590029
v 5.21896203 3.33898815 -8.82587292
v 5.21896203 3.50932929 -8.75185058
v 5.21896203 3.67516870 -8.67383791
v 5.21896203 3.83650753 -8.59183258
v 5.21896203 3.99334347 -8.50583692
v 5.21896203 4.14567652 -8.41584745
v 5.21896203 4.29351014 -8.32186765
v 5.21896203 4.43684088 -8.22389520
v 5.21896203 4.57566872 -8.12193126
v 5.21896203 4.70960402 -8.01618688
v 5.21896203 4.83827571 -7.90687660
v 5.21896203 4.96168145 -7.79399925
v 5.21896203 5.07982010 -7.67755252
v 5.21896203 5.19269397 -7.55753990
v 5.21896203 5.30030189 -7.43395904
v 5.21896203 5.40264504 -7.30681113
v 5.21896203 5.49972225 -7.17609731
v 5.21896203 5.59153467 -7.04181528
v 5.21896203 5.67808000 -6.90396502
v 5.21896203 5.75936055 -6.76254885
v 5.21896203 5.83537516 -6.61756447
v 5.21896203 5.90570867 -6.46935280
v 5.21896203 5.96992739 -6.31825361
v 5.21896203 6.02802783 -6.16426808
v 5.21896203 6.08001464 -6.00739271
v 5.21896203 6.12588316 -5.84763099
v 5.21896203 6.16563689 -5.68498060
v 5.21896203 6.19927582 -5.51944386
v 5.21896203 6.22679647 -5.35101845
v 5.21896203 6.24820348 -5.17970553
v 5.21896203 6.26349222 -5.00550393
v 5.21896203 6.27266615 -4.82841599
v 5.21896203 6.27572413 -4.64843937
v 5.21896203 6.27330396 -4.47665795
v 5.21896203 6.26603995 -4.30784986
v 5.21896203 6.25393676 -4.14201509
v 5.21896203 6.23698973 -3.97915365
v 5.21896203 6.21520004 -3.81926321
v 5.21896203 6.18856999 -3.66234493
v 5.21896203 6.15709612 -3.50840231
v 5.21896203 6.12078305 -3.35743184
v 5.21896203 6.07962732 -3.20943355
v 5.21896203 6.03362775 -3.06440857
v 5.21896203 5.98278784 -2.92235693
v 5.21896203 5.92710757 -2.78327744
v 5.21896203 5.86646635 -2.64686746
v 5.21896203 5.80072850 -2.51283706
v 5.21896203 5.72989402 -2.38118510
v 5.21896203 5.65396290 -2.25191272
v 5.21896203 5.57293748 -2.12501876
v 5.21896203 5.48681426 -2.00050440
v 5.21896203 5.39559441 -1.87836730
v 5.21896203 5.29928025 -1.75860980
v 5.21896203 5.19786829 -1.64123072
v 5.21896203 5.09135971 -1.52623122
v 5.21896203 4.97975681 -1.41361016
v 5.21896203 4.86305612 -1.30336868
v 5.21896203 4.74113240 -1.19520645
v 5.21896203 4.61385693 -1.08882774
v 5.21896203 4.48123202 -0.98423257
v 5.21896203 4.34325768 -0.88141861
v 5.21896203 4.19993158 -0.78038818
v 5.21896203 4.05125373 -0.68114128
v 5.21896203 3.89722761 -0.58367675
v 5.21896203 3.73784857 -0.48799343
v 5.21896203 3.57312242 -0.39409365
v 5.21896203 3.40304104 -0.30197740
v 5.21896203 3.22761139 -0.21164351
v 5.21896203 3.04683230 -0.12309316
v 5.21896203 2.86047880 -0.03612109
v 5.21896203 2.66835144 0.04949073
v 5.21896203 2.47045022 0.13374344
v 5.21896087 2.26677166 0.21663590
v 5.21896087 2.05732039 0.29817157
v 5.21896087 1.84209294 0.37834697
v 5.21896087 1.62109047 0.45716328
v 5.21896087 1.39431181 0.53462048
v 5.21896087 1.16176045 0.61071743
v 5.21896087 0.92343291 0.68545643
v 5.21896087 0.67933035 0.75883749
v 5.21896087 0.42945160 0.83085829
v 5.21896203 3.87551793 3.66274165
v 5.21896203 3.87849010 3.49716548
v 5.21896203 6.22679531 3.49716548
v 5.21896203 6.22169984 3.72840297
v 5.21896203 6.20640994 3.95734436
v 5.21896203 6.18093026 4.18399313
v 5.21896203 6.14525500 4.40834813
v 5.21896203 6.09938995 4.63041052
v 5.21896203 6.04333049 4.85017681
v 5.21896203 5.97707891 5.06765049
v 5.21896203 5.90063524 5.28283039
v 5.21896203 5.81399946 5.49571652
v 5.21896203 5.71717041 5.70630772
v 5.21896203 5.61015042 5.91460862
v 5.21896203 5.49293601 6.12061343
v 5.21896203 5.36599800 6.32225102
v 5.21896203 5.22980255 6.51743404
v 5.21896203 5.08434967 6.70616132
v 5.21896203 4.92963935 6.88843055
v 5.21896203 4.76567393 7.06424753
v 5.21896203 4.59245107 7.23360414
v 5.21896203 4.40996963 7.39650849
v 5.21896203 4.21823075 7.55295479
v 5.21896203 4.01723676 7.70294419
v 5.21896203 3.80698534 7.84647786
v 5.21896203 3.58747649 7.98355580
v 5.21896203 3.35871020 8.11417800
v 5.21896203 3.12110280 8.23627219
v 5.21896203 2.87508683 8.34774869
v 5.21896203 2.62066228 8.44861097
v 5.21896087 2.35783032 8.53885556
v 5.21896087 2.08658978 8.61848246
v 5.21896087 1.80694184 8.68749166
v 5.21896087 1.51888532 8.74588433
v 5.21896087 1.22241907 8.79366047
v 5.21896087 0.91754541 8.83081892
v 5.21896087 0.60426433 8.85736083
v 5.21896087 0.28257468 8.87328621
v 5.21896087 -0.04752354 8.87859506
v 5.21896087 -0.27404128 8.87604616
v 5.21896087 -0.49699195 8.86840411
v 5.21896087 -0.71637788 8.85566775
v 5.21896087 -0.93219675 8.83783360
v 5.21896087 -1.14444739 8.81490282
v 5.21896087 -1.35313214 8.78687772
v 5.21896087 -1.55825098 8.75375715
v 5.21896087 -1.75980160 8.71554111
v 5.21896087 -1.95778747 8.67222960
v 5.21896087 -2.15220628 8.62382262
v 5.21896087 -2.34305803 8.57032016
v 5.21896087 -2.53034272 8.51172107
v 5.21896087 -2.71367535 8.44857154
v 5.21896087 -2.89267554 8.38142705
v 5.21896087 -3.06734331 8.31029222
v 5.21896087 -3.23767982 8.23516357
v 5.21896087 -3.40368506 8.15604460
v 5.21896087 -3.56535786 8.07293182
v 5.21896087 -3.72270057 7.98582522
v 5.21896087 -3.87570968 7.89472945
v 5.21896087 -4.02438869 7.79964103
v 5.21896087 -4.16873527 7.70055880
v 5.21896087 -4.30875059 7.59748508
v 5.21896087 -4.44443463 7.49041987
v 5.21896087 -4.57536066 7.37979455
v 5.21896087 -4.70110657 7.26602776
v 5.21896087 -4.82167235 7.14911833
v 5.21896087 -4.93705568 7.02906744
v 5.21896087 -5.04725889 6.90587159
v 5.21896087 -5.15228081 6.77953426
v 5.21896087 -5.25212145 6.65005547
v 5.21896087 -5.34678080 6.51743056
v 5.21896087 -5.43625887 6.38166650
v 5.21896087 -5.52055681 6.24275864
v 5.21896087 -5.59967346 6.10070699
v 5.21896087 -5.67360883 5.95551503
v 5.21896087 -5.74198139 5.80763850
v 5.21896087 -5.80440846 5.65755284
v 5.21896087 -5.86089004 5.50526039
v 5.21896087 -5.91142497 5.35076229
v 5.21896087 -5.95601673 5.19405623
v 5.21896087 -5.99466183 5.03514453
v 5.21896087 -6.02736145 4.87402371
v 5.21896087 -6.05411558 4.71069493
v 5.21896087 -6.07492537 4.54516051
v 5.21896087 -6.08978736 4.37741813
v 5.21896087 -6.09870618 4.20746895
v 5.21896087 -6.10167950 4.03531296
v 5.21896087 -6.09887548 3.86365679
v 5.21896087 -6.09046807 3.69522905
v 5.21896087 -6.07645262 3.53002977
v 5.21896087 -6.05683262 3.36805661
v 5.21896087 -6.03160806 3.20931306
v 5.21896087 -6.00077663 3.05379564
v 5.21896087 -5.96433948 2.90150666
v 5.21896087 -5.92229778 2.75244497
v 5.21896087 -5.87465036 2.60661057
v 5.21896087 -5.82139607 2.46400461
v 5.21896087 -5.76253722 2.32462594
v 5.21896087 -5.69807150 2.18847456
v 5.21896087 -5.62833984 2.05521184
v 5.21896087 -5.55368317 1.92449803
v 5.21896087 -5.47409802 1.79632963
v 5.21896087 -5.38958787 1.67071012
v 5.21896087 -5.30015039 1.54763952
v 5.21896087 -5.20578907 1.42711780
v 5.21896087 -5.10649926 1.30914267
v 5.21896087 -5.00228445 1.19371643
v 5.21896087 -4.89314232 1.08084024
v 5.21896087 -4.77907402 0.97050947
v 5.21896087 -4.66007955 0.86272760
v 5.21896087 -4.53616009 0.75749462
v 5.21896087 -4.40765307 0.65451019
v 5.21896087 -4.27490176 0.55348092
v 5.21896087 -4.13790152 0.45440565
v 5.21896087 -3.99665582 0.35728322
v 5.21896087 -3.85116236 0.26211478
v 5.21896087 -3.70142227 0.16890035
v 5.21896087 -3.54743558 0.07763991
v 5.21896087 -3.38920343 -0.01166885
v 5.21896087 -3.22672351 -0.09902245
v 5.21896087 -3.05999582 -0.18442205
v 5.21896087 -2.88902267 -0.26786881
v 5.21896087 -2.71380175 -0.34936273
v 5.21896087 -2.53467167 -0.42924243
v 5.21896087 -2.35197569 -0.50784768
v 5.21896087 -2.16571265 -0.58518197
v 5.21896087 -1.97588254 -0.66124180
v 5.21896087 -1.78248537 -0.73602835
v 5.21896087 -1.58552230 -0.80954161
v 5.21896087 -1.38499217 -0.88178158
v 5.21896087 -1.18089498 -0.95274710
v 5.21896087 -0.97323304 -1.02244165
v 5.21896087 -0.76200288 -1.09086060
v 5.21896087 -0.54720566 -1.15800858
v 5.21896087 -0.32884253 -1.22388094
v 5.21896087 -4.30615530 -4.31090784
v 5.21896203 3.86660027 3.82517403
v 5.21896087 -4.29383989 -4.45466068
v 5.21896203 3.85173713 3.98446609
v 5.21896087 -0.12189841 -1.28495123
v 5.21896087 -4.27659832 -4.59476181
v 5.21896203 3.83093081 4.14061668
v 5.21896087 0.07901672 -1.34585105
v 5.21896087 -4.25442942 -4.73120890
v 5.21896087 0.24816227 0.88198695
v 5.21896203 3.80417668 4.29362347
v 5.21896087 0.27390171 -1.40658156
v 5.21896087 -4.22733668 -4.86400544
v 5.21896203 3.77147939 4.44348996
v 5.21896087 -4.19531661 -4.99314910
v 5.21896087 0.07120420 0.93345655
v 5.21896203 3.73283660 4.59021381
v 5.21896087 0.46275655 -1.46714045
v 5.21896087 -4.15837038 -5.11863988
v 5.21896087 -0.10142260 0.98526593
v 5.21896203 3.68824716 4.73379618
v 5.21896087 0.64558125 -1.52753003
v 5.21896087 -4.11649799 -5.24047895
v 5.21896087 -0.26971697 1.03741508
v 5.21896203 3.63771455 4.87423709
v 5.21896087 0.82237581 -1.58775029
v 5.21896087 -4.06969827 -5.35866630
v 5.21896087 -0.43367891 1.08990749
v 5.21896203 3.58123529 5.01153536
v 5.21896087 0.99314022 -1.64779894
v 5.21896087 -4.01797354 -5.47320077
v 5.21896087 -0.59331075 1.14273619
v 5.21896203 3.51881170 5.14569331
v 5.21896087 1.15787449 -1.70767827
v 5.21896087 -3.96132382 -5.58408353
v 5.21896087 -0.74861016 1.19590699
v 5.21896203 3.45044262 5.27670632
v 5.21896087 1.31657861 -1.76738830
v 5.21896087 -3.90038225 -5.69156738
v 5.21896087 -0.89957946 1.24941641
v 5.21896203 3.37603411 5.40385771
v 5.21896087 1.46925259 -1.82692669
v 5.21896087 -3.83578897 -5.79590975
v 5.21896087 -1.04621518 1.30326907
v 5.21896203 3.29551313 5.52642156
v 5.21896087 1.61589759 -1.88629578
v 5.21896087 -3.76754397 -5.89710833
v 5.21896087 -1.18852079 1.35745804
v 5.21896203 3.20887619 5.64439901
v 5.21896087 1.75651128 -1.94549557
v 5.21896087 -3.69564609 -5.99516543
v 5.21896087 -1.32649281 1.41199026
v 5.21896203 3.11612561 5.75778892
v 5.21896087 1.89163753 -2.00486350
v 5.21896087 -3.62009650 -6.09007991
v 5.21896087 -1.46013473 1.46686109
v 5.21896203 3.01725908 5.86659244
v 5.21896087 2.02183879 -2.06474167
v 5.21896087 -3.54089519 -6.18185175
v 5.21896087 -1.58966571 1.52232683
v 5.21896203 2.91228006 5.97080957
v 5.21896087 2.14711504 -2.12513009
v 5.21896087 -3.45804101 -6.27048095
v 5.21896087 -1.71528753 1.57864142
v 5.21896203 2.80118509 6.07043915
v 5.21896087 2.26746512 -2.18602643
v 5.21896087 -3.37153395 -6.35596753
v 5.21896087 -1.83700368 1.63580487
v 5.21896203 2.68397763 6.16548234
v 5.21896087 2.38289021 -2.24743301
v 5.21896087 -3.28137633 -6.43831263
v 5.21896087 -1.95481183 1.69381717
v 5.21896087 -3.18756584 -6.51751509
v 5.21896087 -2.06871198 1.75267834
v 5.21896203 2.56065422 6.25593915
v 5.21896087 -3.09010247 -6.59357493
v 5.21896087 -2.17870529 1.81238953
v 5.21896087 2.43121717 6.34180840
v 5.21896087 -2.28479060 1.87294725
v 5.21896087 2.29566649 6.42309243
v 5.21896087 -2.98898739 -6.66649213
v 5.21896087 -2.38696908 1.93435499
v 5.21896087 2.15399984 6.49978891
v 5.21896087 -2.88485723 -6.73626554
v 5.21896087 -2.48523956 1.99661276
v 5.21896087 2.00603865 6.57108957
v 5.21896087 -2.77834980 -6.80289632
v 5.21896087 -2.57960320 2.05971822
v 5.21896087 1.85162405 6.63619193
v 5.21896087 -2.66946395 -6.86638562
v 5.21896087 -2.67005885 2.12367138
v 5.21896087 1.69075487 6.69509485
v 5.21896087 -2.55819967 -6.92673113
v 5.21896087 -2.75660650 2.18847572
v 5.21896087 1.52343112 6.74779599
v 5.21896087 -2.44455696 -6.98393517
v 5.21896087 1.34965280 6.79429768
v 5.21896087 -2.32853814 -7.03799541
v 5.21896087 1.16942106 6.83459992
v 5.21896087 -2.21013974 -7.08891418
v 5.21896087 0.98273243 6.86870039
v 5.21896087 -2.08936522 -7.13669032
v 5.21896087 0.78959154 6.89660256
v 5.21896087 -1.96621112 -7.18132383
v 5.21896087 0.58999376 6.91830296
v 5.21896087 -1.84067859 -7.22281470
v 5.21896087 0.38394257 6.93380391
v 5.21896087 -1.71276995 -7.26116178
v 5.21896087 0.17143680 6.94310193
v 5.21896087 -1.58248172 -7.29636738
v 5.21896087 -0.04752354 6.94620166
v 5.21896087 -1.45052941 -7.32860083
v 5.21896087 -0.25442591 6.94356927
v 5.21896087 -1.31764590 -7.35803141
v 5.21896087 -0.45521233 6.93566978
v 5.21896087 -1.18382772 -7.38465682
v 5.21896087 -0.64988394 6.92250551
v 5.21896087 -1.04907718 -7.40848168
v 5.21896087 -0.83844076 6.90407298
v 5.21896087 -0.91339313 -7.42950254
v 5.21896087 -1.02088046 6.88037451
v 5.21896087 -0.77677557 -7.44772169
v 5.21896087 -1.19720652 6.85141011
v 5.21896087 -0.63922450 -7.46313798
v 5.21896087 -1.36741546 6.81717976
v 5.21896087 -0.50074224 -7.47575026
v 5.21896087 -1.53150961 6.77767999
v 5.21896087 -0.36132530 -7.48555969
v 5.21896087 -1.68948895 6.73291661
v 5.21896087 -0.22097601 -7.49256625
v 5.21896087 -1.84135234 6.68288728
v 5.21896087 -0.07969204 -7.49677112
v 5.21896087 -1.98709977 6.62759086
v 5.21896087 0.06252427 -7.49817312
v 5.21896087 -2.12673240 6.56702618
v 5.21896087 0.26577725 -7.49579470
v 5.21896087 -2.26037664 6.50197252
v 5.21896087 0.46376660 -7.48866057
v 5.21896087 -2.38816119 6.43317901
v 5.21896087 0.65648770 -7.47676959
v 5.21896087 -2.51008492 6.36064796
v 5.21896087 0.84394285 -7.46012175
v 5.21896087 1.02613323 -7.43871938
v 5.21896087 -2.62614896 6.28437823
v 5.21896087 1.20305651 -7.41255783
v 5.21896087 -2.73635217 6.20437097
v 5.21896087 1.37471152 -7.38164174
v 5.21896087 -2.84069454 6.12062503
v 5.21896087 1.54110176 -7.34596880
v 5.21896087 -2.93917607 6.03314271
v 5.21896087 1.70222606 -7.30554016
v 5.21896087 -3.03179793 5.94192170
v 5.21896087 1.85808326 -7.26035351
v 5.21896087 -3.11855895 5.84696432
v 5.21896087 -3.19945914 5.74826593
v 5.21896087 2.00867452 -7.21041231
v 5.21896087 -3.27449849 5.64583117
v 5.21896087 2.15400100 -7.15571427
v 5.21896087 -3.34367700 5.53965772
v 5.21896087 2.29384701 -7.09659798
v 5.21896087 -3.40716630 5.43035092
v 5.21896087 2.42800148 -7.03340786
v 5.21896087 -3.46513455 5.31849522
v 5.21896203 2.55646675 -6.96613928
v 5.21896087 -3.51758173 5.20409178
v 5.21896203 2.67924049 -6.89479340
v 5.21896087 -3.56450785 5.08713713
v 5.21896203 2.79632386 -6.81937369
v 5.21896087 -3.60591406 4.96763475
v 5.21896203 2.90771802 -6.73987319
v 5.21896087 -3.64179806 4.84558346
v 5.21896203 3.01341834 -6.65629887
v 5.21896087 -3.67216332 4.72098329
v 5.21896203 3.11343060 -6.56864492
v 5.21896087 -3.69700635 4.59383537
v 5.21896203 3.20775018 -6.47691599
v 5.21896087 -3.71632833 4.46413740
v 5.21896203 3.29637938 -6.38110975
v 5.21896087 -3.73013156 4.33188938
v 5.21896203 3.37931938 -6.28122621
v 5.21896087 -3.73841141 4.19709362
v 5.21896203 3.45656669 -6.17726536
v 5.21896087 -3.74117136 4.05974896
v 5.21896203 3.52786967 -6.06965163
v 5.21896087 -3.73951539 3.96670731
v 5.21896203 3.59297204 -5.95881178
v 5.21896087 -3.73454632 3.87510710
v 5.21896203 3.65187379 -5.84474464
v 5.21896087 -3.72626647 3.78495180
v 5.21896203 3.70457609 -5.72744906
v 5.21896087 -3.71467236 3.69623910
v 5.21896203 3.75107778 -5.60692618
v 5.21896087 -3.69976630 3.60897132
v 5.21896203 3.79138002 -5.48317718
v 5.21896087 -3.68154715 3.52314613
v 5.21896203 3.82548049 -5.35619858
v 5.21896087 -3.66001606 3.43876237
v 5.21896203 3.85338150 -5.22599384
v 5.21896087 -3.63517302 3.35582354
v 5.21896203 3.87508190 -5.09256066
v 5.21896087 -3.60701689 3.27432845
v 5.21896203 3.89058285 -4.95590136
v 5.21896087 -3.57554765 3.19427713
v 5.21896203 3.89988203 -4.81601245
v 5.21896087 -3.54076647 3.11566724
v 5.21896203 3.90298292 -4.67289856
v 5.21896087 -3.50267335 3.03850226
v 5.21896203 3.90166672 -4.56991414
v 5.21896087 -3.46105608 2.96252476
v 5.21896203 3.89771814 -4.46888486
v 5.21896087 -3.41570012 2.88748542
v 5.21896203 3.89113368 -4.36980843
v 5.21896087 -3.36660894 2.81337726
v 5.21896203 3.88191800 -4.27268484
v 5.21896087 -3.31378024 2.74020494
v 5.21896203 3.87006761 -4.17751293
v 5.21896087 -3.25721401 2.66796845
v 5.21896203 3.85558598 -4.08429617
v 5.21896087 -3.19691024 2.59666547
v 5.21896203 3.83847081 -3.99303109
v 5.21896087 -3.13286895 2.52629716
v 5.21896203 3.81872209 -3.90372118
v 5.21896087 -3.06509129 2.45686237
v 5.21896203 3.79633982 -3.81636294
v 5.21896087 -2.99357609 2.38836341
v 5.21896203 3.77132515 -3.73095754
v 5.21896087 -2.91832453 2.32080028
v 5.21896203 3.74367578 -3.64750730
v 5.21896087 -2.83933428 2.25416950
v 5.21896203 3.71339402 -3.56600874
v 5.21896203 3.67984438 -3.48612788
v 5.21896203 3.64238675 -3.40752379
v 5.21896203 2.49339028 -2.30934984
v 5.21896203 3.60102112 -3.33019299
v 5.21896203 2.59896419 -2.37177575
v 5.21896203 3.55575097 -3.25413547
v 5.21896203 3.50657282 -3.17935124
v 5.21896203 2.69961310 -2.43470959
v 5.21896203 3.45349132 -3.10584378
v 5.21896203 2.79533585 -2.49815366
v 5.21896203 3.39650181 -3.03360729
v 5.21896203 2.88613475 -2.56210798
v 5.21896203 3.33560431 -2.96264641
v 5.21896203 2.97200748 -2.62657139
v 5.21896203 3.27080229 -2.89295997
v 5.21896203 3.05295521 -2.69154503
v 5.21896203 3.20209228 -2.82454798
v 5.21896203 3.12947774 -2.75740928
f 1 2 3
f 4 5 1
f 6 7 4
f 8 9 6
f 10 11 8
f 12 13 10
f 14 15 12
f 16 17 14
f 18 19 16
f 20 21 18
f 22 23 20
f 24 25 22
f 26 27 24
f 28 29 26
f 30 31 28
f 32 33 30
f 34 35 32
f 36 37 34
f 38 39 36
f 40 41 38
f 42 43 40
f 44 45 42
f 46 47 44
f 48 49 46
f 50 51 48
f 52 53 50
f 54 55 52
f 56 57 54
f 58 59 56
f 60 61 58
f 62 63 60
f 64 65 62
f 66 67 64
f 68 69 66
f 70 71 68
f 72 73 70
f 74 75 72
f 76 77 74
f 78 79 76
f 80 81 78
f 82 83 80
f 84 85 82
f 86 87 84
f 88 89 86
f 90 91 88
f 92 93 90
f 94 95 92
f 96 97 94
f 98 99 96
f 100 101 98
f 102 103 100
f 104 105 102
f 106 107 104
f 108 109 106
f 110 111 108
f 112 113 110
f 114 115 112
f 116 117 114
f 118 119 116
f 120 121 118
f 122 123 120
f 124 125 122
f 126 127 124
f 128 129 126
f 130 131 128
f 132 133 130
f 134 135 132
f 136 137 134
f 138 139 136
f 140 141 138
f 142 143 140
f 144 145 142
f 146 147 144
f 148 149 150
f 151 152 148
f 153 154 151
f 155 156 153
f 157 158 155
f 159 160 157
f 161 162 159
f 163 164 161
f 165 166 163
f 167 168 165
f 169 170 167
f 171 172 169
f 173 174 171
f 175 176 173
f 177 178 175
f 179 180 177
f 181 182 179
f 183 184 181
f 185 186 183
f 187 188 185
f 189 190 187
f 191 192 189
f 193 194 191
f 195 196 193
f 197 198 195
f 199 200 197
f 201 202 199
f 203 204 201
f 205 206 203
f 207 208 205
f 209 210 207
f 211 212 209
f 213 214 211
f 215 216 213
f 217 218 215
f 219 220 217
f 221 222 219
f 223 224 221
f 225 226 223
f 227 228 225
f 229 230 227
f 231 232 229
f 233 234 231
f 235 236 233
f 237 238 235
f 239 240 237
f 241 242 239
f 243 244 241
f 245 246 243
f 247 248 245
f 249 250 247
f 251 252 249
f 253 254 251
f 255 256 253
f 257 258 255
f 259 260 257
f 261 262 259
f 263 264 261
f 265 266 263
f 267 268 265
f 269 270 267
f 271 272 269
f 273 274 271
f 275 276 273
f 277 278 275
f 279 280 277
f 281 282 279
f 1 3 283
f 6 4 1
f 10 8 6
f 14 12 10
f 18 16 14
f 22 20 18
f 26 24 22
f 30 28 26
f 34 32 30
f 38 36 34
f 42 40 38
f 46 44 42
f 50 48 46
f 54 52 50
f 58 56 54
f 62 60 58
f 66 64 62
f 70 68 66
f 74 72 70
f 78 76 74
f 82 80 78
f 86 84 82
f 90 88 86
f 94 92 90
f 98 96 94
f 102 100 98
f 106 104 102
f 110 108 106
f 114 112 110
f 118 116 114
f 122 120 118
f 126 124 122
f 130 128 126
f 134 132 130
f 138 136 134
f 142 140 138
f 146 144 142
f 148 150 284
f 153 151 148
f 157 155 153
f 161 159 157
f 165 163 161
f 169 167 165
f 173 171 169
f 177 175 173
f 181 179 177
f 185 183 181
f 189 187 185
f 193 191 189
f 197 195 193
f 201 199 197
f 205 203 201
f 209 207 205
f 213 211 209
f 217 215 213
f 221 219 217
f 225 223 221
f 229 227 225
f 233 231 229
f 237 235 233
f 241 239 237
f 245 243 241
f 249 247 245
f 253 251 249
f 257 255 253
f 261 259 257
f 265 263 261
f 269 267 265
f 273 271 269
f 277 275 273
f 281 279 277
f 1 283 285
f 10 6 1
f 18 14 10
f 26 22 18
f 34 30 26
f 42 38 34
f 50 46 42
f 58 54 50
f 66 62 58
f 74 70 66
f 82 78 74
f 90 86 82
f 98 94 90
f 106 102 98
f 114 110 106
f 122 118 114
f 130 126 122
f 138 134 130
f 146 142 138
f 148 284 286
f 157 153 148
f 165 161 157
f 173 169 165
f 181 177 173
f 189 185 181
f 197 193 189
f 205 201 197
f 213 209 205
f 221 217 213
f 229 225 221
f 237 233 229
f 245 241 237
f 253 249 245
f 261 257 253
f 269 265 261
f 277 273 269
f 287 281 277
f 1 285 288
f 18 10 1
f 34 26 18
f 50 42 34
f 66 58 50
f 82 74 66
f 98 90 82
f 114 106 98
f 130 122 114
f 146 138 130
f 148 286 289
f 165 157 148
f 181 173 165
f 197 189 181
f 213 205 197
f 229 221 213
f 245 237 229
f 261 253 245
f 277 269 261
f 290 287 277
f 1 288 291
f 34 18 1
f 66 50 34
f 98 82 66
f 130 114 98
f 292 146 130
f 148 289 293
f 181 165 148
f 213 197 181
f 245 229 213
f 277 261 245
f 294 290 277
f 1 291 295
f 292 130 98
f 148 293 296
f 294 277 245
f 1 295 297
f 298 292 98
f 148 296 299
f 300 294 245
f 1 297 301
f 302 298 98
f 148 299 303
f 304 300 245
f 1 301 305
f 306 302 98
f 148 303 307
f 308 304 245
f 1 305 309
f 310 306 98
f 148 307 311
f 312 308 245
f 1 309 313
f 314 310 98
f 148 311 315
f 316 312 245
f 1 313 317
f 318 314 98
f 148 315 319
f 320 316 245
f 1 317 321
f 322 318 98
f 148 319 323
f 324 320 245
f 1 321 325
f 326 322 98
f 148 323 327
f 328 324 245
f 1 325 329
f 330 326 98
f 148 327 331
f 332 328 245
f 1 329 333
f 334 330 98
f 148 331 335
f 336 332 245
f 1 333 337
f 338 334 98
f 148 335 339
f 340 336 245
f 1 337 341
f 342 338 98
f 148 339 343
f 344 340 245
f 1 341 345
f 346 342 98
f 148 343 347
f 348 344 245
f 1 345 349
f 350 346 98
f 148 347 351
f 352 348 245
f 1 349 353
f 354 350 98
f 181 148 351
f 1 353 355
f 356 354 98
f 181 351 357
f 1 355 358
f 359 356 98
f 181 357 360
f 34 1 358
f 361 359 98
f 181 360 362
f 34 358 363
f 364 361 98
f 181 362 365
f 34 363 366
f 367 364 98
f 181 365 368
f 34 366 369
f 370 367 98
f 181 368 371
f 34 369 372
f 373 370 98
f 181 371 374
f 34 372 375
f 376 373 98
f 181 374 377
f 34 375 378
f 181 377 379
f 34 378 380
f 181 379 381
f 34 380 382
f 181 381 383
f 34 382 384
f 181 383 385
f 34 384 386
f 181 385 387
f 34 386 388
f 181 387 389
f 34 388 390
f 181 389 391
f 34 390 392
f 181 391 393
f 34 392 394
f 181 393 395
f 34 394 396
f 181 395 397
f 34 396 398
f 181 397 399
f 34 398 400
f 181 399 401
f 34 400 402
f 181 401 403
f 34 402 404
f 181 403 405
f 34 404 406
f 181 405 407
f 34 406 408
f 181 407 409
f 34 408 410
f 181 409 411
f 34 410 412
f 181 411 413
f 34 412 414
f 181 413 415
f 34 414 416
f 181 415 417
f 34 416 418
f 181 417 419
f 34 418 420
f 181 419 421
f 34 420 422
f 181 421 423
f 34 422 424
f 213 181 423
f 34 424 425
f 213 423 426
f 34 425 427
f 213 426 428
f 34 427 429
f 213 428 430
f 34 429 431
f 213 430 432
f 34 431 433
f 213 432 434
f 34 433 435
f 213 434 436
f 66 34 435
f 213 436 437
f 66 435 438
f 213 437 439
f 66 438 440
f 213 439 441
f 66 440 442
f 213 441 443
f 66 442 444
f 213 443 445
f 66 444 446
f 213 445 447
f 66 446 448
f 213 447 449
f 66 448 450
f 213 449 451
f 66 450 452
f 213 451 453
f 66 452 454
f 213 453 455
f 66 454 456
f 213 455 457
f 66 456 458
f 213 457 459
f 66 458 460
f 213 459 461
f 66 460 462
f 213 461 463
f 66 462 464
f 213 463 465
f 66 464 466
f 213 465 467
f 66 466 468
f 213 467 469
f 66 468 470
f 213 469 471
f 66 470 472
f 213 471 473
f 66 472 474
f 213 473 475
f 66 474 476
f 213 475 477
f 66 476 478
f 213 477 479
f 66 478 480
f 213 479 481
f 66 480 482
f 213 481 483
f 98 66 482
f 245 213 483
f 98 482 484
f 245 483 485
f 98 484 486
f 245 485 487
f 98 486 488
f 245 487 489
f 98 488 490
f 245 489 491
f 98 490 492
f 245 491 493
f 98 492 494
f 245 493 495
f 98 494 496
f 245 495 497
f 98 496 498
f 245 497 499
f 98 498 500
f 245 499 501
f 98 500 502
f 245 501 503
f 98 502 504
f 245 503 505
f 98 504 506
f 245 505 507
f 98 506 508
f 245 507 509
f 98 508 510
f 245 509 511
f 98 510 512
f 245 511 376
f 98 512 513
f 352 245 376
f 98 513 514
f 515 352 376
f 98 514 516
f 517 515 376
f 98 516 518
f 517 376 98
f 98 518 519
f 520 517 98
f 98 519 521
f 522 520 98
f 98 521 523
f 524 522 98
f 98 523 525
f 526 524 98
f 98 525 527
f 528 526 98
f 98 527 529
f 530 528 98
f 98 529 530
f 531 532 533
f 533 534 535
f 535 536 537
f 537 538 539
f 539 540 541
f 541 542 543
f 543 544 545
f 545 546 547
f 547 548 549
f 549 550 551
f 551 552 553
f 553 554 555
f 555 556 557
f 557 558 559
f 559 560 561
f 561 562 563
f 563 564 565
f 565 566 567
f 567 568 569
f 569 570 571
f 571 572 573
f 573 574 575
f 575 576 577
f 577 578 579
f 579 580 581
f 581 582 583
f 583 584 585
f 585 586 587
f 587 588 589
f 589 590 591
f 591 592 593
f 593 594 595
f 595 596 597
f 597 598 599
f 599 600 601
f 601 602 603
f 603 604 605
f 605 606 607
f 607 608 609
f 609 610 611
f 611 612 613
f 613 614 615
f 615 616 617
f 617 618 619
f 619 620 621
f 621 622 623
f 623 624 625
f 625 626 627
f 627 628 629
f 629 630 631
f 631 632 633
f 633 634 635
f 635 636 637
f 637 638 639
f 639 640 641
f 641 642 643
f 643 644 645
f 645 646 647
f 647 648 649
f 649 650 651
f 651 652 653
f 653 654 655
f 655 656 657
f 657 658 659
f 659 660 661
f 661 662 663
f 663 664 665
f 665 666 667
f 667 668 669
f 669 670 671
f 671 672 673
f 673 674 675
f 675 676 677
f 678 679 680
f 680 681 682
f 682 683 684
f 684 685 686
f 686 687 688
f 688 689 690
f 690 691 692
f 692 693 694
f 694 695 696
f 696 697 698
f 698 699 700
f 700 701 702
f 702 703 704
f 704 705 706
f 706 707 708
f 708 709 710
f 710 711 712
f 712 713 714
f 714 715 716
f 716 717 718
f 718 719 720
f 720 721 722
f 722 723 724
f 724 725 726
f 726 727 728
f 728 729 730
f 730 731 732
f 732 733 734
f 734 735 736
f 736 737 738
f 738 739 740
f 740 741 742
f 742 743 744
f 744 745 746
f 746 747 748
f 748 749 750
f 750 751 752
f 752 753 754
f 754 755 756
f 756 757 758
f 758 759 760
f 760 761 762
f 762 763 764
f 764 765 766
f 766 767 768
f 768 769 770
f 770 771 772
f 772 773 774
f 774 775 776
f 776 777 778
f 778 779 780
f 780 781 782
f 782 783 784
f 784 785 786
f 786 787 788
f 788 789 790
f 790 791 792
f 792 793 794
f 794 795 796
f 796 797 798
f 798 799 800
f 800 801 802
f 802 803 804
f 804 805 806
f 806 807 808
f 808 809 810
f 810 811 812
f 813 531 533
f 533 535 537
f 537 539 541
f 541 543 545
f 545 547 549
f 549 551 553
f 553 555 557
f 557 559 561
f 561 563 565
f 565 567 569
f 569 571 573
f 573 575 577
f 577 579 581
f 581 583 585
f 585 587 589
f 589 591 593
f 593 595 597
f 597 599 601
f 601 603 605
f 605 607 609
f 609 611 613
f 613 615 617
f 617 619 621
f 621 623 625
f 625 627 629
f 629 631 633
f 633 635 637
f 637 639 641
f 641 643 645
f 645 647 649
f 649 651 653
f 653 655 657
f 657 659 661
f 661 663 665
f 665 667 669
f 669 671 673
f 673 675 677
f 814 678 680
f 680 682 684
f 684 686 688
f 688 690 692
f 692 694 696
f 696 698 700
f 700 702 704
f 704 706 708
f 708 710 712
f 712 714 716
f 716 718 720
f 720 722 724
f 724 726 728
f 728 730 732
f 732 734 736
f 736 738 740
f 740 742 744
f 744 746 748
f 748 750 752
f 752 754 756
f 756 758 760
f 760 762 764
f 764 766 768
f 768 770 772
f 772 774 776
f 776 778 780
f 780 782 784
f 784 786 788
f 788 790 792
f 792 794 796
f 796 798 800
f 800 802 804
f 804 806 808
f 808 810 812
f 815 813 533
f 533 537 541
f 541 545 549
f 549 553 557
f 557 561 565
f 565 569 573
f 573 577 581
f 581 585 589
f 589 593 597
f 597 601 605
f 605 609 613
f 613 617 621
f 621 625 629
f 629 633 637
f 637 641 645
f 645 649 653
f 653 657 661
f 661 665 669
f 669 673 677
f 816 814 680
f 680 684 688
f 688 692 696
f 696 700 704
f 704 708 712
f 712 716 720
f 720 724 728
f 728 732 736
f 736 740 744
f 744 748 752
f 752 756 760
f 760 764 768
f 768 772 776
f 776 780 784
f 784 788 792
f 792 796 800
f 800 804 808
f 808 812 817
f 818 815 533
f 533 541 549
f 549 557 565
f 565 573 581
f 581 589 597
f 597 605 613
f 613 621 629
f 629 637 645
f 645 653 661
f 661 669 677
f 819 816 680
f 680 688 696
f 696 704 712
f 712 720 728
f 728 736 744
f 744 752 760
f 760 768 776
f 776 784 792
f 792 800 808
f 808 817 820
f 821 818 533
f 533 549 565
f 565 581 597
f 597 613 629
f 629 645 661
f 661 677 822
f 823 819 680
f 680 696 712
f 712 728 744
f 744 760 776
f 776 792 808
f 808 820 824
f 825 821 533
f 629 661 822
f 826 823 680
f 776 808 824
f 827 825 533
f 629 822 828
f 829 826 680
f 776 824 830
f 831 827 533
f 629 828 832
f 833 829 680
f 776 830 834
f 835 831 533
f 629 832 836
f 837 833 680
f 776 834 838
f 839 835 533
f 629 836 840
f 841 837 680
f 776 838 842
f 843 839 533
f 629 840 844
f 845 841 680
f 776 842 846
f 847 843 533
f 629 844 848
f 849 845 680
f 776 846 850
f 851 847 533
f 629 848 852
f 853 849 680
f 776 850 854
f 855 851 533
f 629 852 856
f 857 853 680
f 776 854 858
f 859 855 533
f 629 856 860
f 861 857 680
f 776 858 862
f 863 859 533
f 629 860 864
f 865 861 680
f 776 862 866
f 867 863 533
f 629 864 868
f 869 865 680
f 776 866 870
f 871 867 533
f 629 868 872
f 873 869 680
f 776 870 874
f 875 871 533
f 629 872 876
f 877 873 680
f 776 874 878
f 879 875 533
f 629 876 880
f 881 877 680
f 776 878 882
f 883 879 533
f 629 880 884
f 881 680 712
f 885 883 533
f 629 884 886
f 887 881 712
f 888 885 533
f 629 886 889
f 890 887 712
f 888 533 565
f 629 889 891
f 892 890 712
f 893 888 565
f 629 891 894
f 895 892 712
f 896 893 565
f 629 894 897
f 898 895 712
f 899 896 565
f 629 897 900
f 901 898 712
f 902 899 565
f 629 900 903
f 904 901 712
f 905 902 565
f 629 903 906
f 907 904 712
f 908 905 565
f 909 907 712
f 910 908 565
f 911 909 712
f 912 910 565
f 913 911 712
f 914 912 565
f 915 913 712
f 916 914 565
f 917 915 712
f 918 916 565
f 919 917 712
f 920 918 565
f 921 919 712
f 922 920 565
f 923 921 712
f 924 922 565
f 925 923 712
f 926 924 565
f 927 925 712
f 928 926 565
f 929 927 712
f 930 928 565
f 931 929 712
f 932 930 565
f 933 931 712
f 934 932 565
f 935 933 712
f 936 934 565
f 937 935 712
f 938 936 565
f 939 937 712
f 940 938 565
f 941 939 712
f 942 940 565
f 943 941 712
f 944 942 565
f 945 943 712
f 946 944 565
f 947 945 712
f 948 946 565
f 949 947 712
f 950 948 565
f 951 949 712
f 952 950 565
f 953 951 712
f 954 952 565
f 953 712 744
f 955 954 565
f 956 953 744
f 957 955 565
f 958 956 744
f 959 957 565
f 960 958 744
f 961 959 565
f 962 960 744
f 963 961 565
f 964 962 744
f 965 963 565
f 966 964 744
f 965 565 597
f 967 966 744
f 968 965 597
f 969 967 744
f 970 968 597
f 971 969 744
f 972 970 597
f 973 971 744
f 974 972 597
f 975 973 744
f 976 974 597
f 977 975 744
f 978 976 597
f 979 977 744
f 980 978 597
f 981 979 744
f 982 980 597
f 983 981 744
f 984 982 597
f 985 983 744
f 986 984 597
f 987 985 744
f 988 986 597
f 989 987 744
f 990 988 597
f 991 989 744
f 992 990 597
f 993 991 744
f 994 992 597
f 995 993 744
f 996 994 597
f 997 995 744
f 998 996 597
f 999 997 744
f 1000 998 597
f 1001 999 744
f 1002 1000 597
f 1003 1001 744
f 1004 1002 597
f 1005 1003 744
f 1006 1004 597
f 1007 1005 744
f 1008 1006 597
f 1009 1007 744
f 1010 1008 597
f 1011 1009 744
f 1012 1010 597
f 1013 1011 744
f 1012 597 629
f 1013 744 776
f 1014 1012 629
f 1015 1013 776
f 1016 1014 629
f 1017 1015 776
f 1018 1016 629
f 1019 1017 776
f 1020 1018 629
f 1021 1019 776
f 1022 1020 629
f 1023 1021 776
f 1024 1022 629
f 1025 1023 776
f 1026 1024 629
f 1027 1025 776
f 1028 1026 629
f 1029 1027 776
f 1030 1028 629
f 1031 1029 776
f 1032 1030 629
f 1033 1031 776
f 1034 1032 629
f 1035 1033 776
f 1036 1034 629
f 1037 1035 776
f 1038 1036 629
f 1039 1037 776
f 1040 1038 629
f 1041 1039 776
f 1042 1040 629
f 906 1041 776
f 1043 1042 629
f 906 776 882
f 1044 1043 629
f 906 882 1045
f 1046 1044 629
f 906 1045 1047
f 1048 1046 629
f 629 906 1047
f 1049 1048 629
f 629 1047 1050
f 1051 1049 629
f 629 1050 1052
f 1053 1051 629
f 629 1052 1054
f 1055 1053 629
f 629 1054 1056
f 1057 1055 629
f 629 1056 1058
f 1059 1057 629
f 629 1058 1060
f 1060 1059 629
f 486 484 1016
f 484 1014 1016
f 484 482 1014
f 482 1012 1014
f 482 480 1012
f 480 1010 1012
f 480 478 1010
f 478 1008 1010
f 478 476 1008
f 476 1006 1008
f 476 474 1006
f 474 1004 1006
f 474 472 1004
f 472 1002 1004
f 472 470 1002
f 470 1000 1002
f 470 468 1000
f 468 998 1000
f 468 466 998
f 466 996 998
f 466 464 996
f 464 994 996
f 464 462 994
f 462 992 994
f 462 460 992
f 460 990 992
f 460 458 990
f 458 988 990
f 458 456 988
f 456 986 988
f 456 454 986
f 454 984 986
f 454 452 984
f 452 982 984
f 452 450 982
f 450 980 982
f 450 448 980
f 448 978 980
f 448 446 978
f 446 976 978
f 446 444 976
f 444 974 976
f 444 442 974
f 442 972 974
f 442 440 972
f 440 970 972
f 440 438 970
f 438 968 970
f 438 435 968
f 435 965 968
f 435 433 965
f 433 963 965
f 433 431 963
f 431 961 963
f 431 429 961
f 429 959 961
f 429 427 959
f 427 957 959
f 427 425 957
f 425 955 957
f 425 424 955
f 424 954 955
f 424 422 954
f 422 952 954
f 422 420 952
f 420 950 952
f 420 418 950
f 418 948 950
f 418 416 948
f 416 946 948
f 416 414 946
f 414 944 946
f 414 412 944
f 412 942 944
f 412 410 942
f 410 940 942
f 410 408 940
f 408 938 940
f 408 406 938
f 406 936 938
f 406 404 936
f 404 934 936
f 404 402 934
f 402 932 934
f 402 400 932
f 400 930 932
f 400 398 930
f 398 928 930
f 398 396 928
f 396 926 928
f 396 394 926
f 394 924 926
f 394 392 924
f 392 922 924
f 392 390 922
f 390 920 922
f 390 388 920
f 388 918 920
f 388 386 918
f 386 916 918
f 386 384 916
f 384 914 916
f 384 382 914
f 382 912 914
f 382 380 912
f 380 910 912
f 380 378 910
f 378 908 910
f 378 375 908
f 375 905 908
f 375 372 905
f 372 902 905
f 372 369 902
f 369 899 902
f 369 366 899
f 366 896 899
f 366 363 896
f 363 893 896
f 363 358 893
f 358 888 893
f 358 355 888
f 355 885 888
f 355 353 885
f 353 883 885
f 353 349 883
f 349 879 883
f 349 345 879
f 345 875 879
f 345 341 875
f 341 871 875
f 341 337 871
f 337 867 871
f 337 333 867
f 333 863 867
f 333 329 863
f 329 859 863
f 329 325 859
f 325 855 859
f 325 321 855
f 321 851 855
f 321 317 851
f 317 847 851
f 317 313 847
f 313 843 847
f 313 309 843
f 309 839 843
f 309 305 839
f 305 835 839
f 305 301 835
f 301 831 835
f 301 297 831
f 297 827 831
f 297 295 827
f 295 825 827
f 295 291 825
f 291 821 825
f 291 288 821
f 288 818 821
f 288 285 818
f 285 815 818
f 285 283 815
f 283 813 815
f 283 3 813
f 3 531 813
f 3 2 531
f 2 532 531
f 2 1 532
f 1 533 532
f 1 5 533
f 5 534 533
f 5 4 534
f 4 535 534
f 4 7 535
f 7 536 535
f 7 6 536
f 6 537 536
f 6 9 537
f 9 538 537
f 9 8 538
f 8 539 538
f 8 11 539
f 11 540 539
f 11 10 540
f 10 541 540
f 10 13 541
f 13 542 541
f 13 12 542
f 12 543 542
f 12 15 543
f 15 544 543
f 15 14 544
f 14 545 544
f 14 17 545
f 17 546 545
f 17 16 546
f 16 547 546
f 16 19 547
f 19 548 547
f 19 18 548
f 18 549 548
f 18 21 549
f 21 550 549
f 21 20 550
f 20 551 550
f 20 23 551
f 23 552 551
f 23 22 552
f 22 553 552
f 22 25 553
f 25 554 553
f 25 24 554
f 24 555 554
f 24 27 555
f 27 556 555
f 27 26 556
f 26 557 556
f 26 29 557
f 29 558 557
f 29 28 558
f 28 559 558
f 28 31 559
f 31 560 559
f 31 30 560
f 30 561 560
f 30 33 561
f 33 562 561
f 33 32 562
f 32 563 562
f 32 35 563
f 35 564 563
f 35 34 564
f 34 565 564
f 34 37 565
f 37 566 565
f 37 36 566
f 36 567 566
f 36 39 567
f 39 568 567
f 39 38 568
f 38 569 568
f 38 41 569
f 41 570 569
f 41 40 570
f 40 571 570
f 40 43 571
f 43 572 571
f 43 42 572
f 42 573 572
f 42 45 573
f 45 574 573
f 45 44 574
f 44 575 574
f 44 47 575
f 47 576 575
f 47 46 576
f 46 577 576
f 46 49 577
f 49 578 577
f 49 48 578
f 48 579 578
f 48 51 579
f 51 580 579
f 51 50 580
f 50 581 580
f 50 53 581
f 53 582 581
f 53 52 582
f 52 583 582
f 52 55 583
f 55 584 583
f 55 54 584
f 54 585 584
f 54 57 585
f 57 586 585
f 57 56 586
f 56 587 586
f 56 59 587
f 59 588 587
f 59 58 588
f 58 589 588
f 58 61 589
f 61 590 589
f 61 60 590
f 60 591 590
f 60 63 591
f 63 592 591
f 63 62 592
f 62 593 592
f 62 65 593
f 65 594 593
f 65 64 594
f 64 595 594
f 64 67 595
f 67 596 595
f 67 66 596
f 66 597 596
f 66 69 597
f 69 598 597
f 69 68 598
f 68 599 598
f 68 71 599
f 71 600 599
f 71 70 600
f 70 601 600
f 70 73 601
f 73 602 601
f 73 72 602
f 72 603 602
f 72 75 603
f 75 604 603
f 75 74 604
f 74 605 604
f 74 77 605
f 77 606 605
f 77 76 606
f 76 607 606
f 76 79 607
f 79 608 607
f 79 78 608
f 78 609 608
f 78 81 609
f 81 610 609
f 81 80 610
f 80 611 610
f 80 83 611
f 83 612 611
f 83 82 612
f 82 613 612
f 82 85 613
f 85 614 613
f 85 84 614
f 84 615 614
f 84 87 615
f 87 616 615
f 87 86 616
f 86 617 616
f 86 89 617
f 89 618 617
f 89 88 618
f 88 619 618
f 88 91 619
f 91 620 619
f 91 90 620
f 90 621 620
f 90 93 621
f 93 622 621
f 93 92 622
f 92 623 622
f 92 95 623
f 95 624 623
f 95 94 624
f 94 625 624
f 94 97 625
f 97 626 625
f 97 96 626
f 96 627 626
f 96 99 627
f 99 628 627
f 99 98 628
f 98 629 628
f 98 101 629
f 101 630 629
f 101 100 630
f 100 631 630
f 100 103 631
f 103 632 631
f 103 102 632
f 102 633 632
f 102 105 633
f 105 634 633
f 105 104 634
f 104 635 634
f 104 107 635
f 107 636 635
f 107 106 636
f 106 637 636
f 106 109 637
f 109 638 637
f 109 108 638
f 108 639 638
f 108 111 639
f 111 640 639
f 111 110 640
f 110 641 640
f 110 113 641
f 113 642 641
f 113 112 642
f 112 643 642
f 112 115 643
f 115 644 643
f 115 114 644
f 114 645 644
f 114 117 645
f 117 646 645
f 117 116 646
f 116 647 646
f 116 119 647
f 119 648 647
f 119 118 648
f 118 649 648
f 118 121 649
f 121 650 649
f 121 120 650
f 120 651 650
f 120 123 651
f 123 652 651
f 123 122 652
f 122 653 652
f 122 125 653
f 125 654 653
f 125 124 654
f 124 655 654
f 124 127 655
f 127 656 655
f 127 126 656
f 126 657 656
f 126 129 657
f 129 658 657
f 129 128 658
f 128 659 658
f 128 131 659
f 131 660 659
f 131 130 660
f 130 661 660
f 130 133 661
f 133 662 661
f 133 132 662
f 132 663 662
f 132 135 663
f 135 664 663
f 135 134 664
f 134 665 664
f 134 137 665
f 137 666 665
f 137 136 666
f 136 667 666
f 136 139 667
f 139 668 667
f 139 138 668
f 138 669 668
f 138 141 669
f 141 670 669
f 141 140 670
f 140 671 670
f 140 143 671
f 143 672 671
f 143 142 672
f 142 673 672
f 142 145 673
f 145 674 673
f 145 144 674
f 144 675 674
f 144 147 675
f 147 676 675
f 147 146 676
f 146 677 676
f 146 292 677
f 292 822 677
f 292 298 822
f 298 828 822
f 298 302 828
f 302 832 828
f 302 306 832
f 306 836 832
f 306 310 836
f 310 840 836
f 310 314 840
f 314 844 840
f 314 318 844
f 318 848 844
f 318 322 848
f 322 852 848
f 322 326 852
f 326 856 852
f 326 330 856
f 330 860 856
f 330 334 860
f 334 864 860
f 334 338 864
f 338 868 864
f 338 342 868
f 342 872 868
f 342 346 872
f 346 876 872
f 346 350 876
f 350 880 876
f 350 354 880
f 354 884 880
f 354 356 884
f 356 886 884
f 356 359 886
f 359 889 886
f 359 361 889
f 361 891 889
f 361 364 891
f 364 894 891
f 364 367 894
f 367 897 894
f 367 370 897
f 370 900 897
f 370 373 900
f 373 903 900
f 373 376 903
f 376 906 903
f 376 511 906
f 511 1041 906
f 511 509 1041
f 509 1039 1041
f 509 507 1039
f 507 1037 1039
f 507 505 1037
f 505 1035 1037
f 505 503 1035
f 503 1033 1035
f 503 501 1033
f 501 1031 1033
f 501 499 1031
f 499 1029 1031
f 499 497 1029
f 497 1027 1029
f 497 495 1027
f 495 1025 1027
f 495 493 1025
f 493 1023 1025
f 493 491 1023
f 491 1021 1023
f 491 489 1021
f 489 1019 1021
f 489 487 1019
f 487 1017 1019
f 487 485 1017
f 485 1015 1017
f 485 483 1015
f 483 1013 1015
f 483 481 1013
f 481 1011 1013
f 481 479 1011
f 479 1009 1011
f 479 477 1009
f 477 1007 1009
f 477 475 1007
f 475 1005 1007
f 475 473 1005
f 473 1003 1005
f 473 471 1003
f 471 1001 1003
f 471 469 1001
f 469 999 1001
f 469 467 999
f 467 997 999
f 467 465 997
f 465 995 997
f 465 463 995
f 463 993 995
f 463 461 993
f 461 991 993
f 461 459 991
f 459 989 991
f 459 457 989
f 457 987 989
f 457 455 987
f 455 985 987
f 455 453 985
f 453 983 985
f 453 451 983
f 451 981 983
f 451 449 981
f 449 979 981
f 449 447 979
f 447 977 979
f 447 445 977
f 445 975 977
f 445 443 975
f 443 973 975
f 443 441 973
f 441 971 973
f 441 439 971
f 439 969 971
f 439 437 969
f 437 967 969
f 437 436 967
f 436 966 967
f 436 434 966
f 434 964 966
f 434 432 964
f 432 962 964
f 432 430 962
f 430 960 962
f 430 428 960
f 428 958 960
f 428 426 958
f 426 956 958
f 426 423 956
f 423 953 956
f 423 421 953
f 421 951 953
f 421 419 951
f 419 949 951
f 419 417 949
f 417 947 949
f 417 415 947
f 415 945 947
f 415 413 945
f 413 943 945
f 413 411 943
f 411 941 943
f 411 409 941
f 409 939 941
f 409 407 939
f 407 937 939
f 407 405 937
f 405 935 937
f 405 403 935
f 403 933 935
f 403 401 933
f 401 931 933
f 401 399 931
f 399 929 931
f 399 397 929
f 397 927 929
f 397 395 927
f 395 925 927
f 395 393 925
f 393 923 925
f 393 391 923
f 391 921 923
f 391 389 921
f 389 919 921
f 389 387 919
f 387 917 919
f 387 385 917
f 385 915 917
f 385 383 915
f 383 913 915
f 383 381 913
f 381 911 913
f 381 379 911
f 379 909 911
f 379 377 909
f 377 907 909
f 377 374 907
f 374 904 907
f 374 371 904
f 371 901 904
f 371 368 901
f 368 898 901
f 368 365 898
f 365 895 898
f 365 362 895
f 362 892 895
f 362 360 892
f 360 890 892
f 360 357 890
f 357 887 890
f 357 351 887
f 351 881 887
f 351 347 881
f 347 877 881
f 347 343 877
f 343 873 877
f 343 339 873
f 339 869 873
f 339 335 869
f 335 865 869
f 335 331 865
f 331 861 865
f 331 327 861
f 327 857 861
f 327 323 857
f 323 853 857
f 323 319 853
f 319 849 853
f 319 315 849
f 315 845 849
f 315 311 845
f 311 841 845
f 311 307 841
f 307 837 841
f 307 303 837
f 303 833 837
f 303 299 833
f 299 829 833
f 299 296 829
f 296 826 829
f 296 293 826
f 293 823 826
f 293 289 823
f 289 819 823
f 289 286 819
f 286 816 819
f 286 284 816
f 284 814 816
f 284 150 814
f 150 678 814
f 150 149 678
f 149 679 678
f 149 148 679
f 148 680 679
f 148 152 680
f 152 681 680
f 152 151 681
f 151 682 681
f 151 154 682
f 154 683 682
f 154 153 683
f 153 684 683
f 153 156 684
f 156 685 684
f 156 155 685
f 155 686 685
f 155 158 686
f 158 687 686
f 158 157 687
f 157 688 687
f 157 160 688
f 160 689 688
f 160 159 689
f 159 690 689
f 159 162 690
f 162 691 690
f 162 161 691
f 161 692 691
f 161 164 692
f 164 693 692
f 164 163 693
f 163 694 693
f 163 166 694
f 166 695 694
f 166 165 695
f 165 696 695
f 165 168 696
f 168 697 696
f 168 167 697
f 167 698 697
f 167 170 698
f 170 699 698
f 170 169 699
f 169 700 699
f 169 172 700
f 172 701 700
f 172 171 701
f 171 702 701
f 171 174 702
f 174 703 702
f 174 173 703
f 173 704 703
f 173 176 704
f 176 705 704
f 176 175 705
f 175 706 705
f 175 178 706
f 178 707 706
f 178 177 707
f 177 708 707
f 177 180 708
f 180 709 708
f 180 179 709
f 179 710 709
f 179 182 710
f 182 711 710
f 182 181 711
f 181 712 711
f 181 184 712
f 184 713 712
f 184 183 713
f 183 714 713
f 183 186 714
f 186 715 714
f 186 185 715
f 185 716 715
f 185 188 716
f 188 717 716
f 188 187 717
f 187 718 717
f 187 190 718
f 190 719 718
f 190 189 719
f 189 720 719
f 189 192 720
f 192 721 720
f 192 191 721
f 191 722 721
f 191 194 722
f 194 723 722
f 194 193 723
f 193 724 723
f 193 196 724
f 196 725 724
f 196 195 725
f 195 726 725
f 195 198 726
f 198 727 726
f 198 197 727
f 197 728 727
f 197 200 728
f 200 729 728
f 200 199 729
f 199 730 729
f 199 202 730
f 202 731 730
f 202 201 731
f 201 732 731
f 201 204 732
f 204 733 732
f 204 203 733
f 203 734 733
f 203 206 734
f 206 735 734
f 206 205 735
f 205 736 735
f 205 208 736
f 208 737 736
f 208 207 737
f 207 738 737
f 207 210 738
f 210 739 738
f 210 209 739
f 209 740 739
f 209 212 740
f 212 741 740
f 212 211 741
f 211 742 741
f 211 214 742
f 214 743 742
f 214 213 743
f 213 744 743
f 213 216 744
f 216 745 744
f 216 215 745
f 215 746 745
f 215 218 746
f 218 747 746
f 218 217 747
f 217 748 747
f 217 220 748
f 220 749 748
f 220 219 749
f 219 750 749
f 219 222 750
f 222 751 750
f 222 221 751
f 221 752 751
f 221 224 752
f 224 753 752
f 224 223 753
f 223 754 753
f 223 226 754
f 226 755 754
f 226 225 755
f 225 756 755
f 225 228 756
f 228 757 756
f 228 227 757
f 227 758 757
f 227 230 758
f 230 759 758
f 230 229 759
f 229 760 759
f 229 232 760
f 232 761 760
f 232 231 761
f 231 762 761
f 231 234 762
f 234 763 762
f 234 233 763
f 233 764 763
f 233 236 764
f 236 765 764
f 236 235 765
f 235 766 765
f 235 238 766
f 238 767 766
f 238 237 767
f 237 768 767
f 237 240 768
f 240 769 768
f 240 239 769
f 239 770 769
f 239 242 770
f 242 771 770
f 242 241 771
f 241 772 771
f 241 244 772
f 244 773 772
f 244 243 773
f 243 774 773
f 243 246 774
f 246 775 774
f 246 245 775
f 245 776 775
f 245 248 776
f 248 777 776
f 248 247 777
f 247 778 777
f 247 250 778
f 250 779 778
f 250 249 779
f 249 780 779
f 249 252 780
f 252 781 780
f 252 251 781
f 251 782 781
f 251 254 782
f 254 783 782
f 254 253 783
f 253 784 783
f 253 256 784
f 256 785 784
f 256 255 785
f 255 786 785
f 255 258 786
f 258 787 786
f 258 257 787
f 257 788 787
f 257 260 788
f 260 789 788
f 260 259 789
f 259 790 789
f 259 262 790
f 262 791 790
f 262 261 791
f 261 792 791
f 261 264 792
f 264 793 792
f 264 263 793
f 263 794 793
f 263 266 794
f 266 795 794
f 266 265 795
f 265 796 795
f 265 268 796
f 268 797 796
f 268 267 797
f 267 798 797
f 267 270 798
f 270 799 798
f 270 269 799
f 269 800 799
f 269 272 800
f 272 801 800
f 272 271 801
f 271 802 801
f 271 274 802
f 274 803 802
f 274 273 803
f 273 804 803
f 273 276 804
f 276 805 804
f 276 275 805
f 275 806 805
f 275 278 806
f 278 807 806
f 278 277 807
f 277 808 807
f 277 280 808
f 280 809 808
f 280 279 809
f 279 810 809
f 279 282 810
f 282 811 810
f 282 281 811
f 281 812 811
f 281 287 812
f 287 817 812
f 287 290 817
f 290 820 817
f 290 294 820
f 294 824 820
f 294 300 824
f 300 830 824
f 300 304 830
f 304 834 830
f 304 308 834
f 308 838 834
f 308 312 838
f 312 842 838
f 312 316 842
f 316 846 842
f 316 320 846
f 320 850 846
f 320 324 850
f 324 854 850
f 324 328 854
f 328 858 854
f 328 332 858
f 332 862 858
f 332 336 862
f 336 866 862
f 336 340 866
f 340 870 866
f 340 344 870
f 344 874 870
f 344 348 874
f 348 878 874
f 348 352 878
f 352 882 878
f 352 515 882
f 515 1045 882
f 515 517 1045
f 517 1047 1045
f 517 520 1047
f 520 1050 1047
f 520 522 1050
f 522 1052 1050
f 522 524 1052
f 524 1054 1052
f 524 526 1054
f 526 1056 1054
f 526 528 1056
f 528 1058 1056
f 528 530 1058
f 530 1060 1058
f 530 529 1060
f 529 1059 1060
f 529 527 1059
f 527 1057 1059
f 527 525 1057
f 525 1055 1057
f 525 523 1055
f 523 1053 1055
f 523 521 1053
f 521 1051 1053
f 521 519 1051
f 519 1049 1051
f 519 518 1049
f 518 1048 1049
f 518 516 1048
f 516 1046 1048
f 516 514 1046
f 514 1044 1046
f 514 513 1044
f 513 1043 1044
f 513 512 1043
f 512 1042 1043
f 512 510 1042
f 510 1040 1042
f 510 508 1040
f 508 1038 1040
f 508 506 1038
f 506 1036 1038
f 506 504 1036
f 504 1034 1036
f 504 502 1034
f 502 1032 1034
f 502 500 1032
f 500 1030 1032
f 500 498 1030
f 498 1028 1030
f 498 496 1028
f 496 1026 1028
f 496 494 1026
f 494 1024 1026
f 494 492 1024
f 492 1022 1024
f 492 490 1022
f 490 1020 1022
f 490 488 1020
f 488 1018 1020
f 488 486 1018
f 486 1016 1018

