# https://github.com/mikedh/trimesh
v 1.86338184 1.99079253 -7.74726188
v -1.86338183 1.99079253 -7.74726188
v -1.86338183 1.99079253 6.46102484
v 1.84587932 1.99079253 6.75598328
v 1.86338184 1.99079253 6.46102484
v 1.71332588 1.99079253 7.26253633
v 1.79503112 1.99079253 7.02300848
v 1.46729695 1.99079253 7.66083913
v 1.60325148 1.99079253 7.47500125
v 1.12770090 1.99079253 7.95437744
v 1.30795054 1.99079253 7.82048741
v 0.71444574 1.99079253 8.14663400
v 0.92903667 1.99079253 8.06294818
v 0.24743891 1.99079253 8.24109306
v 0.48641713 1.99079253 8.20587083
v -0.24743890 1.99079253 8.24109306
v 0.00000010 1.99079253 8.25273812
v -0.71444574 1.99079253 8.14663400
v -0.48641693 1.99079253 8.20587083
v -1.12770108 1.99079253 7.95437744
v -0.92903648 1.99079253 8.06294818
v -1.46729703 1.99079253 7.66083913
v -1.30795072 1.99079253 7.82048741
v -1.71332578 1.99079253 7.26253633
v -1.60325157 1.99079253 7.47500125
v -1.84587941 1.99079253 6.75598328
v -1.79503121 1.99079253 7.02300848
v -1.86338183 -1.99079253 6.46102484
v -1.86338183 -1.99079253 -7.74726188
v 1.86338184 -1.99079253 -7.74726188
v 1.86338184 -1.99079253 6.46102484
v 1.84587932 -1.99079253 6.75598328
v 1.79503112 -1.99079253 7.02300848
v 1.71332588 -1.99079253 7.26253633
v 1.60325148 -1.99079253 7.47500125
v 1.46729695 -1.99079253 7.66083913
v 1.30795054 -1.99079253 7.82048741
v 1.12770090 -1.99079253 7.95437744
v 0.92903667 -1.99079253 8.06294818
v 0.71444574 -1.99079253 8.14663400
v 0.48641713 -1.99079253 8.20587083
v 0.24743891 -1.99079253 8.24109306
v 0.00000010 -1.99079253 8.25273812
v -0.24743890 -1.99079253 8.24109306
v -0.48641693 -1.99079253 8.20587083
v -0.71444574 -1.99079253 8.14663400
v -0.92903648 -1.99079253 8.06294818
v -1.12770108 -1.99079253 7.95437744
v -1.30795072 -1.99079253 7.82048741
v -1.46729703 -1.99079253 7.66083913
v -1.60325157 -1.99079253 7.47500125
v -1.71332578 -1.99079253 7.26253633
v -1.79503121 -1.99079253 7.02300848
v -1.84587941 -1.99079253 6.75598328
v 0.00000000 1.99079253 -7.74726188
v 0.00000000 1.99079253 -0.64311852
v -1.86338183 1.99079253 -0.64311852
v 1.85463058 1.99079253 -0.49563930
v 1.86338184 1.99079253 -0.64311852
v 1.85463058 1.99079253 6.60850406
v 1.78835386 1.99079253 -0.24236277
v 1.77960260 1.99079253 7.00925981
v 1.82045522 1.99079253 6.88949588
v 1.75417850 1.99079253 7.14277241
v 1.59031141 1.99079253 7.46168773
v 1.65828868 1.99079253 7.36876879
v 1.53527421 1.99079253 7.56792019
v 1.42051339 1.99079253 7.60845689
v 1.29749892 1.99079253 7.80760829
v 1.38762374 1.99079253 7.74066327
v 1.21782572 1.99079253 7.88743243
v 0.92107332 1.99079253 8.05050572
v 1.02836879 1.99079253 8.00866281
v 0.82174121 1.99079253 8.10479109
v 0.98038239 1.99079253 7.75181470
v 0.68756990 1.99079253 8.09773525
v 0.48094233 1.99079253 8.19386353
v 0.60043144 1.99079253 8.17625242
v 0.36692802 1.99079253 8.22348195
v 0.00000000 1.99079253 8.24109306
v 0.12371950 1.99079253 8.24691559
v -0.12371940 1.99079253 8.24691559
v -0.23350341 1.99079253 8.19386353
v -0.48094232 1.99079253 8.19386353
v -0.36692792 1.99079253 8.22348195
v -0.60043134 1.99079253 8.17625242
v -0.92107341 1.99079253 8.05050572
v -0.82174111 1.99079253 8.10479109
v -1.02836878 1.99079253 8.00866281
v 0.12301442 1.99079253 7.46168773
v -0.60992906 1.99079253 7.95096610
v -1.09087139 1.99079253 7.90373657
v -1.29749906 1.99079253 7.80760829
v -1.21782590 1.99079253 7.88743243
v -1.38762388 1.99079253 7.74066327
v -1.59031141 1.99079253 7.46168773
v -1.53527430 1.99079253 7.56792019
v -1.65828867 1.99079253 7.36876879
v 0.00875121 1.99079253 -0.49563930
v -1.85463062 1.99079253 6.60850406
v -0.06627676 1.99079253 7.00925981
v -1.65658822 1.99079253 7.20841121
v -1.77960259 1.99079253 7.00925981
v -1.75417849 1.99079253 7.14277241
v -1.82045531 1.99079253 6.88949588
v -1.86338183 -0.00000000 -0.64311852
v -1.86338183 0.00000000 6.46102484
v 0.00000000 -0.00000000 -7.74726188
v -1.86338183 -0.00000000 -7.74726188
v -1.86338183 -1.99079253 -0.64311852
v 1.86338184 -0.00000000 -7.74726188
v 1.86338184 0.00000000 -0.64311852
v 0.00000000 -1.99079253 -0.64311852
v 0.00000000 -1.99079253 -7.74726188
v 1.85463058 0.00000000 6.60850406
v 1.86338184 0.00000000 6.46102484
v 1.86338184 -1.99079253 -0.64311852
v 1.84587932 0.00000000 6.75598328
v 1.82045522 0.00000000 6.88949588
v 1.85463058 -1.99079253 -0.49563930
v 1.85463058 -1.99079253 6.60850406
v 1.75417850 0.00000000 7.14277241
v 1.79503112 0.00000000 7.02300848
v 1.82045522 -1.99079253 6.88949588
v 1.71332588 0.00000000 7.26253633
v 1.65828868 0.00000000 7.36876879
v 1.78835386 -1.99079253 -0.24236277
v 1.77960260 -1.99079253 7.00925981
v 1.75417850 -1.99079253 7.14277241
v 1.53527421 0.00000000 7.56792019
v 1.60325148 0.00000000 7.47500125
v 1.65828868 -1.99079253 7.36876879
v 1.46729695 0.00000000 7.66083913
v 1.38762374 0.00000000 7.74066327
v 1.59031141 -1.99079253 7.46168773
v 1.53527421 -1.99079253 7.56792019
v 1.21782572 0.00000000 7.88743243
v 1.30795054 0.00000000 7.82048741
v 1.38762374 -1.99079253 7.74066327
v 1.12770090 0.00000000 7.95437744
v 1.02836879 0.00000000 8.00866281
v 1.42051339 -1.99079253 7.60845689
v 1.29749892 -1.99079253 7.80760829
v 1.21782572 -1.99079253 7.88743243
v 0.82174121 0.00000000 8.10479109
v 0.92903667 0.00000000 8.06294818
v 1.02836879 -1.99079253 8.00866281
v 0.71444574 0.00000000 8.14663400
v 0.60043144 0.00000000 8.17625242
v 0.92107332 -1.99079253 8.05050572
v 0.82174121 -1.99079253 8.10479109
v 0.36692802 0.00000000 8.22348195
v 0.48641713 0.00000000 8.20587083
v 0.60043144 -1.99079253 8.17625242
v 0.24743891 0.00000000 8.24109306
v 0.12371950 0.00000000 8.24691559
v 0.98038239 -1.99079253 7.75181470
v 0.68756990 -1.99079253 8.09773525
v 0.48094233 -1.99079253 8.19386353
v 0.36692802 -1.99079253 8.22348195
v -0.12371940 0.00000000 8.24691559
v 0.00000010 0.00000000 8.25273812
v 0.12371950 -1.99079253 8.24691559
v -0.24743890 0.00000000 8.24109306
v -0.36692792 0.00000000 8.22348195
v 0.00000000 -1.99079253 8.24109306
v -0.12371940 -1.99079253 8.24691559
v -0.60043134 0.00000000 8.17625242
v -0.48641693 0.00000000 8.20587083
v -0.36692792 -1.99079253 8.22348195
v -0.71444574 0.00000000 8.14663400
v -0.82174111 0.00000000 8.10479109
v -0.23350341 -1.99079253 8.19386353
v -0.48094232 -1.99079253 8.19386353
v -0.60043134 -1.99079253 8.17625242
v -1.02836878 0.00000000 8.00866281
v -0.92903648 0.00000000 8.06294818
v -0.82174111 -1.99079253 8.10479109
v -1.12770108 0.00000000 7.95437744
v -1.21782590 0.00000000 7.88743243
v -0.92107341 -1.99079253 8.05050572
v -1.02836878 -1.99079253 8.00866281
v -1.38762388 0.00000000 7.74066327
v -1.30795072 0.00000000 7.82048741
v -1.21782590 -1.99079253 7.88743243
v -1.46729703 0.00000000 7.66083913
v -1.53527430 0.00000000 7.56792019
v 0.12301442 -1.99079253 7.46168773
v -0.60992906 -1.99079253 7.95096610
v -1.09087139 -1.99079253 7.90373657
v -1.29749906 -1.99079253 7.80760829
v -1.38762388 -1.99079253 7.74066327
v -1.65828867 0.00000000 7.36876879
v -1.60325157 0.00000000 7.47500125
v -1.53527430 -1.99079253 7.56792019
v -1.71332578 0.00000000 7.26253633
v -1.75417849 0.00000000 7.14277241
v -1.59031141 -1.99079253 7.46168773
v -1.65828867 -1.99079253 7.36876879
v -1.82045531 0.00000000 6.88949588
v -1.79503121 0.00000000 7.02300848
v -1.75417849 -1.99079253 7.14277241
v -1.85463062 0.00000000 6.60850406
v -1.84587941 0.00000000 6.75598328
v -1.85463062 -1.99079253 6.60850406
v 0.00875121 -1.99079253 -0.49563930
v -0.06627676 -1.99079253 7.00925981
v -1.65658822 -1.99079253 7.20841121
v -1.77960259 -1.99079253 7.00925981
v -1.82045531 -1.99079253 6.88949588
f 1 55 56
f 55 2 57
f 56 57 3
f 55 57 56
f 4 60 58
f 60 5 59
f 58 59 1
f 60 59 58
f 6 64 62
f 64 7 63
f 62 63 4
f 64 63 62
f 8 67 65
f 67 9 66
f 65 66 6
f 67 66 65
f 10 71 69
f 71 11 70
f 69 70 8
f 71 70 69
f 12 74 72
f 74 13 73
f 72 73 10
f 74 73 72
f 14 79 77
f 79 15 78
f 77 78 12
f 79 78 77
f 16 82 80
f 82 17 81
f 80 81 14
f 82 81 80
f 18 86 84
f 86 19 85
f 84 85 16
f 86 85 84
f 20 89 87
f 89 21 88
f 87 88 18
f 89 88 87
f 22 95 93
f 95 23 94
f 93 94 20
f 95 94 93
f 24 98 96
f 98 25 97
f 96 97 22
f 98 97 96
f 26 105 103
f 105 27 104
f 103 104 24
f 105 104 103
f 1 56 99
f 56 3 100
f 99 100 26
f 56 100 99
f 6 62 61
f 62 4 58
f 61 58 1
f 62 58 61
f 10 69 68
f 69 8 65
f 68 65 6
f 69 65 68
f 14 77 76
f 77 12 72
f 76 72 10
f 77 72 76
f 18 84 83
f 84 16 80
f 83 80 14
f 84 80 83
f 22 93 92
f 93 20 87
f 92 87 18
f 93 87 92
f 26 103 102
f 103 24 96
f 102 96 22
f 103 96 102
f 6 61 101
f 61 1 99
f 101 99 26
f 61 99 101
f 14 76 75
f 76 10 68
f 75 68 6
f 76 68 75
f 22 92 91
f 92 18 83
f 91 83 14
f 92 83 91
f 6 101 90
f 101 26 102
f 90 102 22
f 101 102 90
f 22 91 90
f 91 14 75
f 90 75 6
f 91 75 90
f 28 110 113
f 110 29 114
f 113 114 30
f 110 114 113
f 30 117 120
f 117 31 121
f 120 121 32
f 117 121 120
f 32 124 128
f 124 33 129
f 128 129 34
f 124 129 128
f 34 132 135
f 132 35 136
f 135 136 36
f 132 136 135
f 36 139 143
f 139 37 144
f 143 144 38
f 139 144 143
f 38 147 150
f 147 39 151
f 150 151 40
f 147 151 150
f 40 154 159
f 154 41 160
f 159 160 42
f 154 160 159
f 42 163 166
f 163 43 167
f 166 167 44
f 163 167 166
f 44 170 174
f 170 45 175
f 174 175 46
f 170 175 174
f 46 178 181
f 178 47 182
f 181 182 48
f 178 182 181
f 48 185 191
f 185 49 192
f 191 192 50
f 185 192 191
f 50 195 198
f 195 51 199
f 198 199 52
f 195 199 198
f 52 202 209
f 202 53 210
f 209 210 54
f 202 210 209
f 54 205 206
f 205 28 113
f 206 113 30
f 205 113 206
f 30 120 127
f 120 32 128
f 127 128 34
f 120 128 127
f 34 135 142
f 135 36 143
f 142 143 38
f 135 143 142
f 38 150 158
f 150 40 159
f 158 159 42
f 150 159 158
f 42 166 173
f 166 44 174
f 173 174 46
f 166 174 173
f 46 181 190
f 181 48 191
f 190 191 50
f 181 191 190
f 50 198 208
f 198 52 209
f 208 209 54
f 198 209 208
f 54 206 207
f 206 30 127
f 207 127 34
f 206 127 207
f 34 142 157
f 142 38 158
f 157 158 42
f 142 158 157
f 42 173 189
f 173 46 190
f 189 190 50
f 173 190 189
f 50 208 188
f 208 54 207
f 188 207 34
f 208 207 188
f 34 157 188
f 157 42 189
f 188 189 50
f 157 189 188
f 1 59 111
f 59 5 112
f 111 112 30
f 59 112 111
f 5 116 112
f 116 31 117
f 112 117 30
f 116 117 112
f 5 60 116
f 60 4 115
f 116 115 31
f 60 115 116
f 4 118 115
f 118 32 121
f 115 121 31
f 118 121 115
f 4 63 118
f 63 7 119
f 118 119 32
f 63 119 118
f 7 123 119
f 123 33 124
f 119 124 32
f 123 124 119
f 7 64 123
f 64 6 122
f 123 122 33
f 64 122 123
f 6 125 122
f 125 34 129
f 122 129 33
f 125 129 122
f 6 66 125
f 66 9 126
f 125 126 34
f 66 126 125
f 9 131 126
f 131 35 132
f 126 132 34
f 131 132 126
f 9 67 131
f 67 8 130
f 131 130 35
f 67 130 131
f 8 133 130
f 133 36 136
f 130 136 35
f 133 136 130
f 8 70 133
f 70 11 134
f 133 134 36
f 70 134 133
f 11 138 134
f 138 37 139
f 134 139 36
f 138 139 134
f 11 71 138
f 71 10 137
f 138 137 37
f 71 137 138
f 10 140 137
f 140 38 144
f 137 144 37
f 140 144 137
f 10 73 140
f 73 13 141
f 140 141 38
f 73 141 140
f 13 146 141
f 146 39 147
f 141 147 38
f 146 147 141
f 13 74 146
f 74 12 145
f 146 145 39
f 74 145 146
f 12 148 145
f 148 40 151
f 145 151 39
f 148 151 145
f 12 78 148
f 78 15 149
f 148 149 40
f 78 149 148
f 15 153 149
f 153 41 154
f 149 154 40
f 153 154 149
f 15 79 153
f 79 14 152
f 153 152 41
f 79 152 153
f 14 155 152
f 155 42 160
f 152 160 41
f 155 160 152
f 14 81 155
f 81 17 156
f 155 156 42
f 81 156 155
f 17 162 156
f 162 43 163
f 156 163 42
f 162 163 156
f 17 82 162
f 82 16 161
f 162 161 43
f 82 161 162
f 16 164 161
f 164 44 167
f 161 167 43
f 164 167 161
f 16 85 164
f 85 19 165
f 164 165 44
f 85 165 164
f 19 169 165
f 169 45 170
f 165 170 44
f 169 170 165
f 19 86 169
f 86 18 168
f 169 168 45
f 86 168 169
f 18 171 168
f 171 46 175
f 168 175 45
f 171 175 168
f 18 88 171
f 88 21 172
f 171 172 46
f 88 172 171
f 21 177 172
f 177 47 178
f 172 178 46
f 177 178 172
f 21 89 177
f 89 20 176
f 177 176 47
f 89 176 177
f 20 179 176
f 179 48 182
f 176 182 47
f 179 182 176
f 20 94 179
f 94 23 180
f 179 180 48
f 94 180 179
f 23 184 180
f 184 49 185
f 180 185 48
f 184 185 180
f 23 95 184
f 95 22 183
f 184 183 49
f 95 183 184
f 22 186 183
f 186 50 192
f 183 192 49
f 186 192 183
f 22 97 186
f 97 25 187
f 186 187 50
f 97 187 186
f 25 194 187
f 194 51 195
f 187 195 50
f 194 195 187
f 25 98 194
f 98 24 193
f 194 193 51
f 98 193 194
f 24 196 193
f 196 52 199
f 193 199 51
f 196 199 193
f 24 104 196
f 104 27 197
f 196 197 52
f 104 197 196
f 27 201 197
f 201 53 202
f 197 202 52
f 201 202 197
f 27 105 201
f 105 26 200
f 201 200 53
f 105 200 201
f 26 204 200
f 204 54 210
f 200 210 53
f 204 210 200
f 26 100 204
f 100 3 203
f 204 203 54
f 100 203 204
f 3 107 203
f 107 28 205
f 203 205 54
f 107 205 203
f 3 57 107
f 57 2 106
f 107 106 28
f 57 106 107
f 2 109 106
f 109 29 110
f 106 110 28
f 109 110 106
f 2 55 109
f 55 1 108
f 109 108 29
f 55 108 109
f 1 111 108
f 111 30 114
f 108 114 29
f 111 114 108

