# https://github.com/mikedh/trimesh

o sca_C.stl
v 3.79492581 -2.64266938 -3.19429999
v 3.82127446 -2.48546577 -3.19429999
v 5.61808932 -2.48546577 -3.19429999
v 5.61808932 2.43703617 -3.19429999
v 3.82127446 2.43703617 -3.19429999
v 3.79788033 2.59427431 -3.19429999
v 5.55868849 2.87725730 -3.19429999
v 5.59154083 2.65938842 -3.19429999
v 5.47407141 3.29954412 -3.19429999
v 5.51953228 3.09064280 -3.19429999
v 5.36423892 3.70389501 -3.19429999
v 5.42230669 3.50396125 -3.19429999
v 5.22918938 4.09031078 -3.19429999
v 5.29986567 3.89934458 -3.19429999
v 5.06892441 4.45879144 -3.19429999
v 5.15220923 4.27679280 -3.19429999
v 4.88344322 4.80933616 -3.19429999
v 4.97933574 4.63630508 -3.19429999
v 4.67223969 5.13856557 -3.19429999
v 4.78112336 4.97703740 -3.19429999
v 4.43477850 5.44309946 -3.19429999
v 4.55679141 5.29391905 -3.19429999
v 4.17106126 5.72293784 -3.19429999
v 4.30620178 5.58610518 -3.19429999
v 3.88108635 5.97808070 -3.19429999
v 4.02935530 5.85359580 -3.19429999
v 3.56485377 6.20852804 -3.19429999
v 3.72625196 6.09639090 -3.19429999
v 3.22236433 6.41427987 -3.19429999
v 3.39689095 6.31449130 -3.19429999
v 2.85348887 6.59156686 -3.19429999
v 3.04124141 6.50695304 -3.19429999
v 2.45809904 6.73662053 -3.19429999
v 2.65910836 6.66812296 -3.19429999
v 2.03619321 6.84944004 -3.19429999
v 2.25046012 6.79705955 -3.19429999
v 1.58777301 6.93002378 -3.19429999
v 1.81529751 6.89376199 -3.19429999
v 1.11283681 6.97837500 -3.19429999
v 1.35361890 6.95822866 -3.19429999
v 0.61138624 6.99449208 -3.19429999
v 0.86542592 6.99046281 -3.19429999
v 0.19728305 6.98201597 -3.19429999
v 0.40257996 6.99137427 -3.19429999
v -0.20278146 6.94458601 -3.19429999
v -0.00450409 6.96642043 -3.19429999
v -0.58880812 6.88220222 -3.19429999
v -0.39754947 6.91651274 -3.19429999
v -0.96079610 6.79486539 -3.19429999
v -0.77655699 6.84165283 -3.19429999
v -1.31874583 6.68257553 -3.19429999
v -1.14152585 6.74183989 -3.19429999
v -1.66265729 6.54533182 -3.19429999
v -1.49245644 6.61707230 -3.19429999
v -1.99137166 6.38493851 -3.19429999
v -1.82906160 6.46779928 -3.19429999
v -2.30370861 6.20322907 -3.19429999
v -2.14958746 6.29674871 -3.19429999
v -2.59966771 6.00020268 -3.19429999
v -2.45373549 6.10438039 -3.19429999
v -2.87924918 5.77586017 -3.19429999
v -2.74150567 5.89069594 -3.19429999
v -3.14245261 5.53020071 -3.19429999
v -3.01289802 5.65569536 -3.19429999
v -3.38927840 5.26322431 -3.19429999
v -3.26791273 5.39937703 -3.19429999
v -3.61855697 4.97636234 -3.19429999
v -3.50625736 5.12210081 -3.19429999
v -3.82911894 4.67104371 -3.19429999
v -3.72617763 4.82601051 -3.19429999
v -4.02096410 4.34727006 -3.19429999
v -3.92738110 4.51146356 -3.19429999
v -4.19409246 4.00503977 -3.19429999
v -4.10986796 4.17846159 -3.19429999
v -4.34850433 3.64435364 -3.19429999
v -4.27363802 3.82700378 -3.19429999
v -4.48419938 3.26521167 -3.19429999
v -4.41869138 3.45708933 -3.19429999
v -4.60000795 2.86943272 -3.19429999
v -4.54473569 3.06917395 -3.19429999
v -4.69476054 2.45883727 -3.19429999
v -4.65001627 2.66598716 -3.19429999
v -4.76845685 2.03342533 -3.19429999
v -4.73424067 2.24798387 -3.19429999
v -4.82109719 1.59319608 -3.19429999
v -4.79740910 1.81516327 -3.19429999
v -4.85268136 1.13815033 -3.19429999
v -4.83952125 1.36752537 -3.19429999
v -4.86320945 0.66828808 -3.19429999
v -4.86057742 0.90507177 -3.19429999
v -4.86057742 -0.92543419 -3.19429999
v -4.86320945 -0.68865050 -3.19429999
v -4.83952125 -1.38788860 -3.19429999
v -4.85268136 -1.15851356 -3.19429999
v -4.79740910 -1.83552691 -3.19429999
v -4.82109719 -1.61356012 -3.19429999
v -4.73424067 -2.26834913 -3.19429999
v -4.76845685 -2.05379018 -3.19429999
v -4.65001627 -2.68635486 -3.19429999
v -4.69476054 -2.47920375 -3.19429999
v -4.54473569 -3.08954408 -3.19429999
v -4.60000795 -2.88980123 -3.19429999
v -4.41878886 -3.47742798 -3.19429999
v -4.48419938 -3.28558261 -3.19429999
v -4.27451536 -3.84708127 -3.19429999
v -4.34889425 -3.66459420 -3.19429999
v -4.11230502 -4.19801795 -3.19429999
v -4.19565238 -4.02488918 -3.19429999
v -3.93215793 -4.53023803 -3.19429999
v -4.02447347 -4.36646757 -3.19429999
v -3.73407390 -4.84374131 -3.19429999
v -3.83535801 -4.68932915 -3.19429999
v -3.51805312 -5.13852779 -3.19429999
v -3.62830560 -4.99347412 -3.19429999
v -3.28442055 -5.41430521 -3.19429999
v -3.40331646 -5.27890230 -3.19429999
v -3.03512662 -5.66931891 -3.19429999
v -3.16169074 -5.54444408 -3.19429999
v -2.77049671 -5.90327632 -3.19429999
v -2.90472882 -5.78892959 -3.19429999
v -2.49053059 -6.11617756 -3.19429999
v -2.63243070 -6.01235897 -3.19429999
v -2.19522827 -6.30802258 -3.19429999
v -2.34479618 -6.21473207 -3.19429999
v -1.88458955 -6.47881136 -3.19429999
v -2.04182566 -6.39604899 -3.19429999
v -1.55899745 -6.62805664 -3.19429999
v -1.72351914 -6.55630969 -3.19429999
v -1.22079236 -6.75283392 -3.19429999
v -1.39142213 -6.69356470 -3.19429999
v -0.87037030 -6.85265575 -3.19429999
v -1.04710856 -6.80586426 -3.19429999
v -0.50773209 -6.92752212 -3.19429999
v -0.69057842 -6.89320836 -3.19429999
v -0.13287772 -6.97743303 -3.19429999
v -0.32183212 -6.95559701 -3.19429999
v 0.25419363 -7.00238849 -3.19429999
v 0.05913073 -6.99303019 -3.19429999
v 0.72149046 -7.00138117 -3.19429999
v 0.45231015 -7.00550792 -3.19429999
v 1.23723479 -6.96836715 -3.19429999
v 0.98313174 -6.98900091 -3.19429999
v 1.72282499 -6.90233913 -3.19429999
v 1.48379920 -6.93947990 -3.19429999
v 2.17826148 -6.80329709 -3.19429999
v 1.95431296 -6.85694486 -3.19429999
v 2.60354345 -6.67124104 -3.19429999
v 2.39467137 -6.74139582 -3.19429999
v 2.99867089 -6.50617096 -3.19429999
v 2.80487689 -6.59283275 -3.19429999
v 3.36396956 -6.30925700 -3.19429999
v 3.18492707 -6.41125567 -3.19429999
v 3.70138991 -6.08751782 -3.19429999
v 3.53612411 -6.20134440 -3.19429999
v 4.01125609 -5.84212283 -3.19429999
v 3.85976697 -5.96777731 -3.19429999
v 4.29356808 -5.57307199 -3.19429999
v 4.15585646 -5.71055433 -3.19429999
v 4.54832669 -5.28036524 -3.19429999
v 4.42439176 -5.42967563 -3.19429999
v 4.77553113 -4.96400279 -3.19429999
v 4.66537288 -5.12514103 -3.19429999
v 4.97543483 -4.62505683 -3.19429999
v 4.87880062 -4.79695062 -3.19429999
v 5.14959752 -4.26996212 -3.19429999
v 5.06570019 -4.44939413 -3.19429999
v 5.29828646 -3.89979116 -3.19429999
v 5.22712600 -4.08676120 -3.19429999
v 5.42150083 -3.51454355 -3.19429999
v 5.36307807 -3.70905181 -3.19429999
v 5.51924227 -3.11421970 -3.19429999
v 5.47355557 -3.31626638 -3.19429999
v 5.59150915 -2.69881959 -3.19429999
v 5.55855932 -2.90840410 -3.19429999
v 3.77136677 2.74780811 -3.19429999
v 3.76578266 -2.79610408 -3.19429999
v 3.74173378 2.89763760 -3.19429999
v 3.73384421 -2.94576947 -3.19429999
v 3.70898216 3.04376356 -3.19429999
v 3.67311111 3.18618520 -3.19429999
v 3.69911045 -3.09166635 -3.19429999
v 3.63412063 3.32490251 -3.19429999
v 3.66158139 -3.23379392 -3.19429999
v 3.59201071 3.45991550 -3.19429999
v 3.62125784 -3.37215217 -3.19429999
v 3.54678218 3.59122416 -3.19429999
v 3.57813979 -3.50674172 -3.19429999
v 3.49843420 3.71882849 -3.19429999
v 3.53222563 -3.63756215 -3.19429999
v 3.44696761 3.84272930 -3.19429999
v 3.48351698 -3.76461348 -3.19429999
v 3.39238159 3.96292498 -3.19429999
v 3.43201383 -3.88789589 -3.19429999
v 3.33467613 4.07941714 -3.19429999
v 3.37771456 -4.00740919 -3.19429999
v 3.27332483 4.19187353 -3.19429999
v 3.32062162 -4.12315337 -3.19429999
v 3.20781429 4.29997653 -3.19429999
v 3.25982272 -4.23480290 -3.19429999
v 3.13814450 4.40372613 -3.19429999
v 3.19441128 -4.34203322 -3.19429999
v 3.06431547 4.50312314 -3.19429999
v 3.12438487 -4.44484415 -3.19429999
v 2.98632719 4.59816676 -3.19429999
v 3.04974430 -4.54323608 -3.19429999
v 2.90418048 4.68885779 -3.19429999
v 2.97049038 -4.63720881 -3.19429999
v 2.81787453 4.77519543 -3.19429999
v 2.88662230 -4.72676215 -3.19429999
v 2.72740933 4.85717966 -3.19429999
v 2.79814005 -4.81189648 -3.19429999
v 2.70504445 -4.89261163 -3.19429999
v 2.63278489 4.93481051 -3.19429999
v 2.60733388 -4.96890757 -3.19429999
v 2.53400120 5.00808876 -3.19429999
v 2.50500996 -5.04078411 -3.19429999
v 2.43105827 5.07701362 -3.19429999
v 2.39807188 -5.10824166 -3.19429999
v 2.32395690 5.14158590 -3.19429999
v 2.21198142 5.20137423 -3.19429999
v 2.28651963 -5.17128001 -3.19429999
v 2.09441695 5.25596432 -3.19429999
v 2.16941171 -5.22957483 -3.19429999
v 1.97126350 5.30535454 -3.19429999
v 2.04580416 -5.28280057 -3.19429999
v 1.84252188 5.34954651 -3.19429999
v 1.91569859 -5.33095713 -3.19429999
v 1.70819046 5.38853943 -3.19429999
v 1.77909502 -5.37404461 -3.19429999
v 1.56827086 5.42233248 -3.19429999
v 1.63599182 -5.41206302 -3.19429999
v 1.42276229 5.45092729 -3.19429999
v 1.48639061 -5.44501234 -3.19429999
v 1.27166472 5.47432304 -3.19429999
v 1.33028976 -5.47289248 -3.19429999
v 1.11497817 5.49251974 -3.19429999
v 1.16769173 -5.49570344 -3.19429999
v 0.95270345 5.50551738 -3.19429999
v 0.99859405 -5.51344542 -3.19429999
v 0.78483934 5.51331596 -3.19429999
v 0.82299797 -5.52611822 -3.19429999
v 0.61138624 5.51591468 -3.19429999
v 0.64090347 -5.53372184 -3.19429999
v 0.46162418 5.51351011 -3.19429999
v 0.45231015 -5.53625638 -3.19429999
v 0.31491616 5.50629642 -3.19429999
v 0.30270407 -5.53362436 -3.19429999
v 0.17126219 5.49427361 -3.19429999
v 0.15647778 -5.52572829 -3.19429999
v 0.03066265 5.47744166 -3.19429999
v 0.01363168 -5.51256798 -3.19429999
v -0.10688325 5.45579978 -3.19429999
v -0.12583462 -5.49414372 -3.19429999
v -0.24137470 5.42934958 -3.19429999
v -0.26192032 -5.47045532 -3.19429999
v -0.37281212 5.39808945 -3.19429999
v -0.39462663 -5.44150287 -3.19429999
v -0.50119549 5.36202100 -3.19429999
v -0.52395233 -5.40728628 -3.19429999
v -0.62652483 5.32114261 -3.19429999
v -0.64989824 -5.36780565 -3.19429999
v -0.74879972 5.27545509 -3.19429999
v -0.77246436 -5.32306086 -3.19429999
v -0.86802098 5.22495845 -3.19429999
v -0.89165028 -5.27305204 -3.19429999
v -0.98418779 5.16965268 -3.19429999
v -1.00745601 -5.21777907 -3.19429999
v -1.09726807 5.10992771 -3.19429999
v -1.11988153 -5.15724205 -3.19429999
v -1.20722851 5.04617347 -3.19429999
v -1.22899834 -5.09209148 -3.19429999
v -1.31406993 4.97838916 -3.19429999
v -1.33486534 -5.02297674 -3.19429999
v -1.41779150 4.90657476 -3.19429999
v -1.43748292 -4.94989771 -3.19429999
v -1.51839364 4.83073190 -3.19429999
v -1.53685110 -4.87285420 -3.19429999
v -1.61587675 4.75085897 -3.19429999
v -1.63296946 -4.79184661 -3.19429999
v -1.71024002 4.66695677 -3.19429999
v -1.72583841 -4.70687454 -3.19429999
v -1.80148386 4.57902448 -3.19429999
v -1.81545754 -4.61793819 -3.19429999
v -1.88960826 4.48706293 -3.19429999
v -1.90182726 -4.52503756 -3.19429999
v -1.97461324 4.39107211 -3.19429999
v -1.98494758 -4.42817264 -3.19429999
v -2.05649837 4.29105121 -3.19429999
v -2.06481848 -4.32734345 -3.19429999
v -2.13526447 4.18700104 -3.19429999
v -2.14143957 -4.22254998 -3.19429999
v -2.21087824 4.07918805 -3.19429999
v -2.21481084 -4.11379203 -3.19429999
v -2.28330800 3.96786652 -3.19429999
v -2.28503059 -4.00155740 -3.19429999
v -2.35255292 3.85303399 -3.19429999
v -2.35219589 -3.88633312 -3.19429999
v -2.41861343 3.73469292 -3.19429999
v -2.41630675 -3.76811959 -3.19429999
v -2.48148951 3.61284167 -3.19429999
v -2.47736317 -3.64691639 -3.19429999
v -2.54118117 3.48748106 -3.19429999
v -2.53536514 -3.52272394 -3.19429999
v -2.59768821 3.35861108 -3.19429999
v -2.59031266 -3.39554183 -3.19429999
v -2.65101082 3.22623174 -3.19429999
v -2.64220594 -3.26537047 -3.19429999
v -2.70114902 3.09034223 -3.19429999
v -2.69104477 -3.13220965 -3.19429999
v -2.74810279 2.95094335 -3.19429999
v -2.73682916 -2.99605937 -3.19429999
v -2.79187193 2.80803430 -3.19429999
v -2.77955911 -2.85691963 -3.19429999
v -2.83245666 2.66161670 -3.19429999
v -2.81923481 -2.71479044 -3.19429999
v -2.86982508 2.51207885 -3.19429999
v -2.85585586 -2.56967179 -3.19429999
v -2.90394409 2.35981150 -3.19429999
v -2.88948705 -2.42221479 -3.19429999
v -2.93481368 2.20481546 -3.19429999
v -2.92019357 -2.27306768 -3.19429999
v -2.96243387 2.04708991 -3.19429999
v -2.94797582 -2.12223088 -3.19429999
v -2.98680465 1.88663486 -3.19429999
v -2.97283361 -1.96970398 -3.19429999
v -3.00792581 1.72345030 -3.19429999
v -2.99476692 -1.81548739 -3.19429999
v -3.02579777 1.55753705 -3.19429999
v -3.04042032 1.38889349 -3.19429999
v -3.01377577 -1.65958029 -3.19429999
v -3.05179325 1.21752123 -3.19429999
v -3.02986014 -1.50198391 -3.19429999
v -3.05991678 1.04341947 -3.19429999
v -3.04302005 -1.34269702 -3.19429999
v -3.06479089 0.86658820 -3.19429999
v -3.05325569 -1.18172044 -3.19429999
v -3.06641560 0.68702824 -3.19429999
v -3.06056686 -1.01905375 -3.19429999
v -3.06641560 -0.68865050 -3.19429999
v -3.06495337 -0.85469738 -3.19429999
v 5.61808932 -2.48546577 3.19429999
v 3.82127446 -2.48546577 3.19429999
v 3.79492581 -2.64266938 3.19429999
v 3.79788033 2.59427431 3.19429999
v 3.82127446 2.43703617 3.19429999
v 5.61808932 2.43703617 3.19429999
v 5.59154083 2.65938842 3.19429999
v 5.55868849 2.87725730 3.19429999
v 5.51953228 3.09064280 3.19429999
v 5.47407141 3.29954412 3.19429999
v 5.42230669 3.50396125 3.19429999
v 5.36423892 3.70389501 3.19429999
v 5.29986567 3.89934458 3.19429999
v 5.22918938 4.09031078 3.19429999
v 5.15220923 4.27679280 3.19429999
v 5.06892441 4.45879144 3.19429999
v 4.97933574 4.63630508 3.19429999
v 4.88344322 4.80933616 3.19429999
v 4.78112336 4.97703740 3.19429999
v 4.67223969 5.13856557 3.19429999
v 4.55679141 5.29391905 3.19429999
v 4.43477850 5.44309946 3.19429999
v 4.30620178 5.58610518 3.19429999
v 4.17106126 5.72293784 3.19429999
v 4.02935530 5.85359580 3.19429999
v 3.88108635 5.97808070 3.19429999
v 3.72625196 6.09639090 3.19429999
v 3.56485377 6.20852804 3.19429999
v 3.39689095 6.31449130 3.19429999
v 3.22236433 6.41427987 3.19429999
v 3.04124141 6.50695304 3.19429999
v 2.85348887 6.59156686 3.19429999
v 2.65910836 6.66812296 3.19429999
v 2.45809904 6.73662053 3.19429999
v 2.25046012 6.79705955 3.19429999
v 2.03619321 6.84944004 3.19429999
v 1.81529751 6.89376199 3.19429999
v 1.58777301 6.93002378 3.19429999
v 1.35361890 6.95822866 3.19429999
v 1.11283681 6.97837500 3.19429999
v 0.86542592 6.99046281 3.19429999
v 0.61138624 6.99449208 3.19429999
v 0.40257996 6.99137427 3.19429999
v 0.19728305 6.98201597 3.19429999
v -0.00450409 6.96642043 3.19429999
v -0.20278146 6.94458601 3.19429999
v -0.39754947 6.91651274 3.19429999
v -0.58880812 6.88220222 3.19429999
v -0.77655699 6.84165283 3.19429999
v -0.96079610 6.79486539 3.19429999
v -1.14152585 6.74183989 3.19429999
v -1.31874583 6.68257553 3.19429999
v -1.49245644 6.61707230 3.19429999
v -1.66265729 6.54533182 3.19429999
v -1.82906160 6.46779928 3.19429999
v -1.99137166 6.38493851 3.19429999
v -2.14958746 6.29674871 3.19429999
v -2.30370861 6.20322907 3.19429999
v -2.45373549 6.10438039 3.19429999
v -2.59966771 6.00020268 3.19429999
v -2.74150567 5.89069594 3.19429999
v -2.87924918 5.77586017 3.19429999
v -3.01289802 5.65569536 3.19429999
v -3.14245261 5.53020071 3.19429999
v -3.26791273 5.39937703 3.19429999
v -3.38927840 5.26322431 3.19429999
v -3.50625736 5.12210081 3.19429999
v -3.61855697 4.97636234 3.19429999
v -3.72617763 4.82601051 3.19429999
v -3.82911894 4.67104371 3.19429999
v -3.92738110 4.51146356 3.19429999
v -4.02096410 4.34727006 3.19429999
v -4.10986796 4.17846159 3.19429999
v -4.19409246 4.00503977 3.19429999
v -4.27363802 3.82700378 3.19429999
v -4.34850433 3.64435364 3.19429999
v -4.41869138 3.45708933 3.19429999
v -4.48419938 3.26521167 3.19429999
v -4.54473569 3.06917395 3.19429999
v -4.60000795 2.86943272 3.19429999
v -4.65001627 2.66598716 3.19429999
v -4.69476054 2.45883727 3.19429999
v -4.73424067 2.24798387 3.19429999
v -4.76845685 2.03342533 3.19429999
v -4.79740910 1.81516327 3.19429999
v -4.82109719 1.59319608 3.19429999
v -4.83952125 1.36752537 3.19429999
v -4.85268136 1.13815033 3.19429999
v -4.86057742 0.90507177 3.19429999
v -4.86320945 0.66828808 3.19429999
v -4.86320945 -0.68865050 3.19429999
v -4.86057742 -0.92543419 3.19429999
v -4.85268136 -1.15851356 3.19429999
v -4.83952125 -1.38788860 3.19429999
v -4.82109719 -1.61356012 3.19429999
v -4.79740910 -1.83552691 3.19429999
v -4.76845685 -2.05379018 3.19429999
v -4.73424067 -2.26834913 3.19429999
v -4.69476054 -2.47920375 3.19429999
v -4.65001627 -2.68635486 3.19429999
v -4.60000795 -2.88980123 3.19429999
v -4.54473569 -3.08954408 3.19429999
v -4.48419938 -3.28558261 3.19429999
v -4.41878886 -3.47742798 3.19429999
v -4.34889425 -3.66459420 3.19429999
v -4.27451536 -3.84708127 3.19429999
v -4.19565238 -4.02488918 3.19429999
v -4.11230502 -4.19801795 3.19429999
v -4.02447347 -4.36646757 3.19429999
v -3.93215793 -4.53023803 3.19429999
v -3.83535801 -4.68932915 3.19429999
v -3.73407390 -4.84374131 3.19429999
v -3.62830560 -4.99347412 3.19429999
v -3.51805312 -5.13852779 3.19429999
v -3.40331646 -5.27890230 3.19429999
v -3.28442055 -5.41430521 3.19429999
v -3.16169074 -5.54444408 3.19429999
v -3.03512662 -5.66931891 3.19429999
v -2.90472882 -5.78892959 3.19429999
v -2.77049671 -5.90327632 3.19429999
v -2.63243070 -6.01235897 3.19429999
v -2.49053059 -6.11617756 3.19429999
v -2.34479618 -6.21473207 3.19429999
v -2.19522827 -6.30802258 3.19429999
v -2.04182566 -6.39604899 3.19429999
v -1.88458955 -6.47881136 3.19429999
v -1.72351914 -6.55630969 3.19429999
v -1.55899745 -6.62805664 3.19429999
v -1.39142213 -6.69356470 3.19429999
v -1.22079236 -6.75283392 3.19429999
v -1.04710856 -6.80586426 3.19429999
v -0.87037030 -6.85265575 3.19429999
v -0.69057842 -6.89320836 3.19429999
v -0.50773209 -6.92752212 3.19429999
v -0.32183212 -6.95559701 3.19429999
v -0.13287772 -6.97743303 3.19429999
v 0.05913073 -6.99303019 3.19429999
v 0.25419363 -7.00238849 3.19429999
v 0.45231015 -7.00550792 3.19429999
v 0.72149046 -7.00138117 3.19429999
v 0.98313174 -6.98900091 3.19429999
v 1.23723479 -6.96836715 3.19429999
v 1.48379920 -6.93947990 3.19429999
v 1.72282499 -6.90233913 3.19429999
v 1.95431296 -6.85694486 3.19429999
v 2.17826148 -6.80329709 3.19429999
v 2.39467137 -6.74139582 3.19429999
v 2.60354345 -6.67124104 3.19429999
v 2.80487689 -6.59283275 3.19429999
v 2.99867089 -6.50617096 3.19429999
v 3.18492707 -6.41125567 3.19429999
v 3.36396956 -6.30925700 3.19429999
v 3.53612411 -6.20134440 3.19429999
v 3.70138991 -6.08751782 3.19429999
v 3.85976697 -5.96777731 3.19429999
v 4.01125609 -5.84212283 3.19429999
v 4.15585646 -5.71055433 3.19429999
v 4.29356808 -5.57307199 3.19429999
v 4.42439176 -5.42967563 3.19429999
v 4.54832669 -5.28036524 3.19429999
v 4.66537288 -5.12514103 3.19429999
v 4.77553113 -4.96400279 3.19429999
v 4.87880062 -4.79695062 3.19429999
v 4.97543483 -4.62505683 3.19429999
v 5.06570019 -4.44939413 3.19429999
v 5.14959752 -4.26996212 3.19429999
v 5.22712600 -4.08676120 3.19429999
v 5.29828646 -3.89979116 3.19429999
v 5.36307807 -3.70905181 3.19429999
v 5.42150083 -3.51454355 3.19429999
v 5.47355557 -3.31626638 3.19429999
v 5.51924227 -3.11421970 3.19429999
v 5.55855932 -2.90840410 3.19429999
v 5.59150915 -2.69881959 3.19429999
v 3.77136677 2.74780811 3.19429999
v 3.76578266 -2.79610408 3.19429999
v 3.74173378 2.89763760 3.19429999
v 3.73384421 -2.94576947 3.19429999
v 3.70898216 3.04376356 3.19429999
v 3.67311111 3.18618520 3.19429999
v 3.69911045 -3.09166635 3.19429999
v 3.63412063 3.32490251 3.19429999
v 3.66158139 -3.23379392 3.19429999
v 3.59201071 3.45991550 3.19429999
v 3.62125784 -3.37215217 3.19429999
v 3.54678218 3.59122416 3.19429999
v 3.57813979 -3.50674172 3.19429999
v 3.49843420 3.71882849 3.19429999
v 3.53222563 -3.63756215 3.19429999
v 3.44696761 3.84272930 3.19429999
v 3.48351698 -3.76461348 3.19429999
v 3.39238159 3.96292498 3.19429999
v 3.43201383 -3.88789589 3.19429999
v 3.33467613 4.07941714 3.19429999
v 3.37771456 -4.00740919 3.19429999
v 3.27332483 4.19187353 3.19429999
v 3.32062162 -4.12315337 3.19429999
v 3.20781429 4.29997653 3.19429999
v 3.25982272 -4.23480290 3.19429999
v 3.13814450 4.40372613 3.19429999
v 3.19441128 -4.34203322 3.19429999
v 3.06431547 4.50312314 3.19429999
v 3.12438487 -4.44484415 3.19429999
v 2.98632719 4.59816676 3.19429999
v 3.04974430 -4.54323608 3.19429999
v 2.90418048 4.68885779 3.19429999
v 2.97049038 -4.63720881 3.19429999
v 2.81787453 4.77519543 3.19429999
v 2.88662230 -4.72676215 3.19429999
v 2.72740933 4.85717966 3.19429999
v 2.79814005 -4.81189648 3.19429999
v 2.70504445 -4.89261163 3.19429999
v 2.63278489 4.93481051 3.19429999
v 2.60733388 -4.96890757 3.19429999
v 2.53400120 5.00808876 3.19429999
v 2.50500996 -5.04078411 3.19429999
v 2.43105827 5.07701362 3.19429999
v 2.39807188 -5.10824166 3.19429999
v 2.32395690 5.14158590 3.19429999
v 2.21198142 5.20137423 3.19429999
v 2.28651963 -5.17128001 3.19429999
v 2.09441695 5.25596432 3.19429999
v 2.16941171 -5.22957483 3.19429999
v 1.97126350 5.30535454 3.19429999
v 2.04580416 -5.28280057 3.19429999
v 1.84252188 5.34954651 3.19429999
v 1.91569859 -5.33095713 3.19429999
v 1.70819046 5.38853943 3.19429999
v 1.77909502 -5.37404461 3.19429999
v 1.56827086 5.42233248 3.19429999
v 1.63599182 -5.41206302 3.19429999
v 1.42276229 5.45092729 3.19429999
v 1.48639061 -5.44501234 3.19429999
v 1.27166472 5.47432304 3.19429999
v 1.33028976 -5.47289248 3.19429999
v 1.11497817 5.49251974 3.19429999
v 1.16769173 -5.49570344 3.19429999
v 0.95270345 5.50551738 3.19429999
v 0.99859405 -5.51344542 3.19429999
v 0.78483934 5.51331596 3.19429999
v 0.82299797 -5.52611822 3.19429999
v 0.61138624 5.51591468 3.19429999
v 0.64090347 -5.53372184 3.19429999
v 0.46162418 5.51351011 3.19429999
v 0.45231015 -5.53625638 3.19429999
v 0.31491616 5.50629642 3.19429999
v 0.30270407 -5.53362436 3.19429999
v 0.17126219 5.49427361 3.19429999
v 0.15647778 -5.52572829 3.19429999
v 0.03066265 5.47744166 3.19429999
v 0.01363168 -5.51256798 3.19429999
v -0.10688325 5.45579978 3.19429999
v -0.12583462 -5.49414372 3.19429999
v -0.24137470 5.42934958 3.19429999
v -0.26192032 -5.47045532 3.19429999
v -0.37281212 5.39808945 3.19429999
v -0.39462663 -5.44150287 3.19429999
v -0.50119549 5.36202100 3.19429999
v -0.52395233 -5.40728628 3.19429999
v -0.62652483 5.32114261 3.19429999
v -0.64989824 -5.36780565 3.19429999
v -0.74879972 5.27545509 3.19429999
v -0.77246436 -5.32306086 3.19429999
v -0.86802098 5.22495845 3.19429999
v -0.89165028 -5.27305204 3.19429999
v -0.98418779 5.16965268 3.19429999
v -1.00745601 -5.21777907 3.19429999
v -1.09726807 5.10992771 3.19429999
v -1.11988153 -5.15724205 3.19429999
v -1.20722851 5.04617347 3.19429999
v -1.22899834 -5.09209148 3.19429999
v -1.31406993 4.97838916 3.19429999
v -1.33486534 -5.02297674 3.19429999
v -1.41779150 4.90657476 3.19429999
v -1.43748292 -4.94989771 3.19429999
v -1.51839364 4.83073190 3.19429999
v -1.53685110 -4.87285420 3.19429999
v -1.61587675 4.75085897 3.19429999
v -1.63296946 -4.79184661 3.19429999
v -1.71024002 4.66695677 3.19429999
v -1.72583841 -4.70687454 3.19429999
v -1.80148386 4.57902448 3.19429999
v -1.81545754 -4.61793819 3.19429999
v -1.88960826 4.48706293 3.19429999
v -1.90182726 -4.52503756 3.19429999
v -1.97461324 4.39107211 3.19429999
v -1.98494758 -4.42817264 3.19429999
v -2.05649837 4.29105121 3.19429999
v -2.06481848 -4.32734345 3.19429999
v -2.13526447 4.18700104 3.19429999
v -2.14143957 -4.22254998 3.19429999
v -2.21087824 4.07918805 3.19429999
v -2.21481084 -4.11379203 3.19429999
v -2.28330800 3.96786652 3.19429999
v -2.28503059 -4.00155740 3.19429999
v -2.35255292 3.85303399 3.19429999
v -2.35219589 -3.88633312 3.19429999
v -2.41861343 3.73469292 3.19429999
v -2.41630675 -3.76811959 3.19429999
v -2.48148951 3.61284167 3.19429999
v -2.47736317 -3.64691639 3.19429999
v -2.54118117 3.48748106 3.19429999
v -2.53536514 -3.52272394 3.19429999
v -2.59768821 3.35861108 3.19429999
v -2.59031266 -3.39554183 3.19429999
v -2.65101082 3.22623174 3.19429999
v -2.64220594 -3.26537047 3.19429999
v -2.70114902 3.09034223 3.19429999
v -2.69104477 -3.13220965 3.19429999
v -2.74810279 2.95094335 3.19429999
v -2.73682916 -2.99605937 3.19429999
v -2.79187193 2.80803430 3.19429999
v -2.77955911 -2.85691963 3.19429999
v -2.83245666 2.66161670 3.19429999
v -2.81923481 -2.71479044 3.19429999
v -2.86982508 2.51207885 3.19429999
v -2.85585586 -2.56967179 3.19429999
v -2.90394409 2.35981150 3.19429999
v -2.88948705 -2.42221479 3.19429999
v -2.93481368 2.20481546 3.19429999
v -2.92019357 -2.27306768 3.19429999
v -2.96243387 2.04708991 3.19429999
v -2.94797582 -2.12223088 3.19429999
v -2.98680465 1.88663486 3.19429999
v -2.97283361 -1.96970398 3.19429999
v -3.00792581 1.72345030 3.19429999
v -2.99476692 -1.81548739 3.19429999
v -3.02579777 1.55753705 3.19429999
v -3.04042032 1.38889349 3.19429999
v -3.01377577 -1.65958029 3.19429999
v -3.05179325 1.21752123 3.19429999
v -3.02986014 -1.50198391 3.19429999
v -3.05991678 1.04341947 3.19429999
v -3.04302005 -1.34269702 3.19429999
v -3.06479089 0.86658820 3.19429999
v -3.05325569 -1.18172044 3.19429999
v -3.06641560 0.68702824 3.19429999
v -3.06056686 -1.01905375 3.19429999
v -3.06641560 -0.68865050 3.19429999
v -3.06495337 -0.85469738 3.19429999
f 1 2 3
f 4 5 6
f 7 8 4
f 9 10 7
f 11 12 9
f 13 14 11
f 15 16 13
f 17 18 15
f 19 20 17
f 21 22 19
f 23 24 21
f 25 26 23
f 27 28 25
f 29 30 27
f 31 32 29
f 33 34 31
f 35 36 33
f 37 38 35
f 39 40 37
f 41 42 39
f 43 44 41
f 45 46 43
f 47 48 45
f 49 50 47
f 51 52 49
f 53 54 51
f 55 56 53
f 57 58 55
f 59 60 57
f 61 62 59
f 63 64 61
f 65 66 63
f 67 68 65
f 69 70 67
f 71 72 69
f 73 74 71
f 75 76 73
f 77 78 75
f 79 80 77
f 81 82 79
f 83 84 81
f 85 86 83
f 87 88 85
f 89 90 87
f 91 92 89
f 93 94 91
f 95 96 93
f 97 98 95
f 99 100 97
f 101 102 99
f 103 104 101
f 105 106 103
f 107 108 105
f 109 110 107
f 111 112 109
f 113 114 111
f 115 116 113
f 117 118 115
f 119 120 117
f 121 122 119
f 123 124 121
f 125 126 123
f 127 128 125
f 129 130 127
f 131 132 129
f 133 134 131
f 135 136 133
f 137 138 135
f 139 140 137
f 141 142 139
f 143 144 141
f 145 146 143
f 147 148 145
f 149 150 147
f 151 152 149
f 153 154 151
f 155 156 153
f 157 158 155
f 159 160 157
f 161 162 159
f 163 164 161
f 165 166 163
f 167 168 165
f 169 170 167
f 171 172 169
f 173 174 171
f 1 3 173
f 4 6 175
f 9 7 4
f 13 11 9
f 17 15 13
f 21 19 17
f 25 23 21
f 29 27 25
f 33 31 29
f 37 35 33
f 41 39 37
f 45 43 41
f 49 47 45
f 53 51 49
f 57 55 53
f 61 59 57
f 65 63 61
f 69 67 65
f 73 71 69
f 77 75 73
f 81 79 77
f 85 83 81
f 89 87 85
f 93 91 89
f 97 95 93
f 101 99 97
f 105 103 101
f 109 107 105
f 113 111 109
f 117 115 113
f 121 119 117
f 125 123 121
f 129 127 125
f 133 131 129
f 137 135 133
f 141 139 137
f 145 143 141
f 149 147 145
f 153 151 149
f 157 155 153
f 161 159 157
f 165 163 161
f 169 167 165
f 173 171 169
f 176 1 173
f 4 175 177
f 13 9 4
f 21 17 13
f 29 25 21
f 37 33 29
f 45 41 37
f 53 49 45
f 61 57 53
f 69 65 61
f 77 73 69
f 85 81 77
f 93 89 85
f 101 97 93
f 109 105 101
f 117 113 109
f 125 121 117
f 133 129 125
f 141 137 133
f 149 145 141
f 157 153 149
f 165 161 157
f 173 169 165
f 178 176 173
f 4 177 179
f 21 13 4
f 37 29 21
f 53 45 37
f 69 61 53
f 85 77 69
f 101 93 85
f 117 109 101
f 133 125 117
f 149 141 133
f 165 157 149
f 178 173 165
f 4 179 180
f 37 21 4
f 69 53 37
f 101 85 69
f 133 117 101
f 165 149 133
f 181 178 165
f 4 180 182
f 183 181 165
f 4 182 184
f 185 183 165
f 4 184 186
f 187 185 165
f 4 186 188
f 189 187 165
f 4 188 190
f 191 189 165
f 4 190 192
f 193 191 165
f 4 192 194
f 195 193 165
f 4 194 196
f 197 195 165
f 4 196 198
f 199 197 165
f 4 198 200
f 201 199 165
f 4 200 202
f 203 201 165
f 4 202 204
f 205 203 165
f 4 204 206
f 207 205 165
f 4 206 208
f 209 207 165
f 4 208 210
f 211 209 165
f 37 4 210
f 212 211 165
f 37 210 213
f 214 212 165
f 37 213 215
f 216 214 165
f 37 215 217
f 218 216 165
f 37 217 219
f 218 165 133
f 37 219 220
f 221 218 133
f 37 220 222
f 223 221 133
f 37 222 224
f 225 223 133
f 37 224 226
f 227 225 133
f 37 226 228
f 229 227 133
f 37 228 230
f 231 229 133
f 37 230 232
f 233 231 133
f 37 232 234
f 235 233 133
f 37 234 236
f 237 235 133
f 37 236 238
f 239 237 133
f 37 238 240
f 241 239 133
f 37 240 242
f 243 241 133
f 37 242 244
f 245 243 133
f 37 244 246
f 247 245 133
f 37 246 248
f 249 247 133
f 37 248 250
f 251 249 133
f 37 250 252
f 253 251 133
f 37 252 254
f 255 253 133
f 37 254 256
f 257 255 133
f 37 256 258
f 259 257 133
f 37 258 260
f 261 259 133
f 37 260 262
f 263 261 133
f 37 262 264
f 265 263 133
f 37 264 266
f 267 265 133
f 37 266 268
f 269 267 133
f 37 268 270
f 271 269 133
f 37 270 272
f 271 133 101
f 69 37 272
f 273 271 101
f 69 272 274
f 275 273 101
f 69 274 276
f 277 275 101
f 69 276 278
f 279 277 101
f 69 278 280
f 281 279 101
f 69 280 282
f 283 281 101
f 69 282 284
f 285 283 101
f 69 284 286
f 287 285 101
f 69 286 288
f 289 287 101
f 69 288 290
f 291 289 101
f 69 290 292
f 293 291 101
f 69 292 294
f 295 293 101
f 69 294 296
f 297 295 101
f 69 296 298
f 299 297 101
f 69 298 300
f 301 299 101
f 69 300 302
f 303 301 101
f 69 302 304
f 305 303 101
f 69 304 306
f 307 305 101
f 69 306 308
f 309 307 101
f 69 308 310
f 311 309 101
f 69 310 312
f 313 311 101
f 69 312 314
f 315 313 101
f 69 314 316
f 317 315 101
f 69 316 318
f 319 317 101
f 69 318 320
f 321 319 101
f 69 320 322
f 323 321 101
f 69 322 324
f 325 323 101
f 69 324 326
f 327 325 101
f 69 326 328
f 327 101 69
f 69 328 329
f 330 327 69
f 69 329 331
f 332 330 69
f 69 331 333
f 334 332 69
f 69 333 335
f 336 334 69
f 69 335 337
f 338 336 69
f 69 337 339
f 340 338 69
f 69 339 340
f 341 342 343
f 344 345 346
f 346 347 348
f 348 349 350
f 350 351 352
f 352 353 354
f 354 355 356
f 356 357 358
f 358 359 360
f 360 361 362
f 362 363 364
f 364 365 366
f 366 367 368
f 368 369 370
f 370 371 372
f 372 373 374
f 374 375 376
f 376 377 378
f 378 379 380
f 380 381 382
f 382 383 384
f 384 385 386
f 386 387 388
f 388 389 390
f 390 391 392
f 392 393 394
f 394 395 396
f 396 397 398
f 398 399 400
f 400 401 402
f 402 403 404
f 404 405 406
f 406 407 408
f 408 409 410
f 410 411 412
f 412 413 414
f 414 415 416
f 416 417 418
f 418 419 420
f 420 421 422
f 422 423 424
f 424 425 426
f 426 427 428
f 428 429 430
f 430 431 432
f 432 433 434
f 434 435 436
f 436 437 438
f 438 439 440
f 440 441 442
f 442 443 444
f 444 445 446
f 446 447 448
f 448 449 450
f 450 451 452
f 452 453 454
f 454 455 456
f 456 457 458
f 458 459 460
f 460 461 462
f 462 463 464
f 464 465 466
f 466 467 468
f 468 469 470
f 470 471 472
f 472 473 474
f 474 475 476
f 476 477 478
f 478 479 480
f 480 481 482
f 482 483 484
f 484 485 486
f 486 487 488
f 488 489 490
f 490 491 492
f 492 493 494
f 494 495 496
f 496 497 498
f 498 499 500
f 500 501 502
f 502 503 504
f 504 505 506
f 506 507 508
f 508 509 510
f 510 511 512
f 512 513 514
f 514 341 343
f 515 344 346
f 346 348 350
f 350 352 354
f 354 356 358
f 358 360 362
f 362 364 366
f 366 368 370
f 370 372 374
f 374 376 378
f 378 380 382
f 382 384 386
f 386 388 390
f 390 392 394
f 394 396 398
f 398 400 402
f 402 404 406
f 406 408 410
f 410 412 414
f 414 416 418
f 418 420 422
f 422 424 426
f 426 428 430
f 430 432 434
f 434 436 438
f 438 440 442
f 442 444 446
f 446 448 450
f 450 452 454
f 454 456 458
f 458 460 462
f 462 464 466
f 466 468 470
f 470 472 474
f 474 476 478
f 478 480 482
f 482 484 486
f 486 488 490
f 490 492 494
f 494 496 498
f 498 500 502
f 502 504 506
f 506 508 510
f 510 512 514
f 514 343 516
f 517 515 346
f 346 350 354
f 354 358 362
f 362 366 370
f 370 374 378
f 378 382 386
f 386 390 394
f 394 398 402
f 402 406 410
f 410 414 418
f 418 422 426
f 426 430 434
f 434 438 442
f 442 446 450
f 450 454 458
f 458 462 466
f 466 470 474
f 474 478 482
f 482 486 490
f 490 494 498
f 498 502 506
f 506 510 514
f 514 516 518
f 519 517 346
f 346 354 362
f 362 370 378
f 378 386 394
f 394 402 410
f 410 418 426
f 426 434 442
f 442 450 458
f 458 466 474
f 474 482 490
f 490 498 506
f 506 514 518
f 520 519 346
f 346 362 378
f 378 394 410
f 410 426 442
f 442 458 474
f 474 490 506
f 506 518 521
f 522 520 346
f 506 521 523
f 524 522 346
f 506 523 525
f 526 524 346
f 506 525 527
f 528 526 346
f 506 527 529
f 530 528 346
f 506 529 531
f 532 530 346
f 506 531 533
f 534 532 346
f 506 533 535
f 536 534 346
f 506 535 537
f 538 536 346
f 506 537 539
f 540 538 346
f 506 539 541
f 542 540 346
f 506 541 543
f 544 542 346
f 506 543 545
f 546 544 346
f 506 545 547
f 548 546 346
f 506 547 549
f 550 548 346
f 506 549 551
f 550 346 378
f 506 551 552
f 553 550 378
f 506 552 554
f 555 553 378
f 506 554 556
f 557 555 378
f 506 556 558
f 559 557 378
f 474 506 558
f 560 559 378
f 474 558 561
f 562 560 378
f 474 561 563
f 564 562 378
f 474 563 565
f 566 564 378
f 474 565 567
f 568 566 378
f 474 567 569
f 570 568 378
f 474 569 571
f 572 570 378
f 474 571 573
f 574 572 378
f 474 573 575
f 576 574 378
f 474 575 577
f 578 576 378
f 474 577 579
f 580 578 378
f 474 579 581
f 582 580 378
f 474 581 583
f 584 582 378
f 474 583 585
f 586 584 378
f 474 585 587
f 588 586 378
f 474 587 589
f 590 588 378
f 474 589 591
f 592 590 378
f 474 591 593
f 594 592 378
f 474 593 595
f 596 594 378
f 474 595 597
f 598 596 378
f 474 597 599
f 600 598 378
f 474 599 601
f 602 600 378
f 474 601 603
f 604 602 378
f 474 603 605
f 606 604 378
f 474 605 607
f 608 606 378
f 474 607 609
f 610 608 378
f 474 609 611
f 612 610 378
f 442 474 611
f 612 378 410
f 442 611 613
f 614 612 410
f 442 613 615
f 616 614 410
f 442 615 617
f 618 616 410
f 442 617 619
f 620 618 410
f 442 619 621
f 622 620 410
f 442 621 623
f 624 622 410
f 442 623 625
f 626 624 410
f 442 625 627
f 628 626 410
f 442 627 629
f 630 628 410
f 442 629 631
f 632 630 410
f 442 631 633
f 634 632 410
f 442 633 635
f 636 634 410
f 442 635 637
f 638 636 410
f 442 637 639
f 640 638 410
f 442 639 641
f 642 640 410
f 442 641 643
f 644 642 410
f 442 643 645
f 646 644 410
f 442 645 647
f 648 646 410
f 442 647 649
f 650 648 410
f 442 649 651
f 652 650 410
f 442 651 653
f 654 652 410
f 442 653 655
f 656 654 410
f 442 655 657
f 658 656 410
f 442 657 659
f 660 658 410
f 442 659 661
f 662 660 410
f 442 661 663
f 664 662 410
f 442 663 665
f 666 664 410
f 442 665 667
f 668 666 410
f 410 442 667
f 669 668 410
f 410 667 670
f 671 669 410
f 410 670 672
f 673 671 410
f 410 672 674
f 675 673 410
f 410 674 676
f 677 675 410
f 410 676 678
f 679 677 410
f 410 678 680
f 680 679 410
f 1 176 343
f 176 516 343
f 176 178 516
f 178 518 516
f 178 181 518
f 181 521 518
f 181 183 521
f 183 523 521
f 183 185 523
f 185 525 523
f 185 187 525
f 187 527 525
f 187 189 527
f 189 529 527
f 189 191 529
f 191 531 529
f 191 193 531
f 193 533 531
f 193 195 533
f 195 535 533
f 195 197 535
f 197 537 535
f 197 199 537
f 199 539 537
f 199 201 539
f 201 541 539
f 201 203 541
f 203 543 541
f 203 205 543
f 205 545 543
f 205 207 545
f 207 547 545
f 207 209 547
f 209 549 547
f 209 211 549
f 211 551 549
f 211 212 551
f 212 552 551
f 212 214 552
f 214 554 552
f 214 216 554
f 216 556 554
f 216 218 556
f 218 558 556
f 218 221 558
f 221 561 558
f 221 223 561
f 223 563 561
f 223 225 563
f 225 565 563
f 225 227 565
f 227 567 565
f 227 229 567
f 229 569 567
f 229 231 569
f 231 571 569
f 231 233 571
f 233 573 571
f 233 235 573
f 235 575 573
f 235 237 575
f 237 577 575
f 237 239 577
f 239 579 577
f 239 241 579
f 241 581 579
f 241 243 581
f 243 583 581
f 243 245 583
f 245 585 583
f 245 247 585
f 247 587 585
f 247 249 587
f 249 589 587
f 249 251 589
f 251 591 589
f 251 253 591
f 253 593 591
f 253 255 593
f 255 595 593
f 255 257 595
f 257 597 595
f 257 259 597
f 259 599 597
f 259 261 599
f 261 601 599
f 261 263 601
f 263 603 601
f 263 265 603
f 265 605 603
f 265 267 605
f 267 607 605
f 267 269 607
f 269 609 607
f 269 271 609
f 271 611 609
f 271 273 611
f 273 613 611
f 273 275 613
f 275 615 613
f 275 277 615
f 277 617 615
f 277 279 617
f 279 619 617
f 279 281 619
f 281 621 619
f 281 283 621
f 283 623 621
f 283 285 623
f 285 625 623
f 285 287 625
f 287 627 625
f 287 289 627
f 289 629 627
f 289 291 629
f 291 631 629
f 291 293 631
f 293 633 631
f 293 295 633
f 295 635 633
f 295 297 635
f 297 637 635
f 297 299 637
f 299 639 637
f 299 301 639
f 301 641 639
f 301 303 641
f 303 643 641
f 303 305 643
f 305 645 643
f 305 307 645
f 307 647 645
f 307 309 647
f 309 649 647
f 309 311 649
f 311 651 649
f 311 313 651
f 313 653 651
f 313 315 653
f 315 655 653
f 315 317 655
f 317 657 655
f 317 319 657
f 319 659 657
f 319 321 659
f 321 661 659
f 321 323 661
f 323 663 661
f 323 325 663
f 325 665 663
f 325 327 665
f 327 667 665
f 327 330 667
f 330 670 667
f 330 332 670
f 332 672 670
f 332 334 672
f 334 674 672
f 334 336 674
f 336 676 674
f 336 338 676
f 338 678 676
f 338 340 678
f 340 680 678
f 340 339 680
f 339 679 680
f 339 337 679
f 337 677 679
f 337 335 677
f 335 675 677
f 335 333 675
f 333 673 675
f 333 331 673
f 331 671 673
f 331 329 671
f 329 669 671
f 329 328 669
f 328 668 669
f 328 326 668
f 326 666 668
f 326 324 666
f 324 664 666
f 324 322 664
f 322 662 664
f 322 320 662
f 320 660 662
f 320 318 660
f 318 658 660
f 318 316 658
f 316 656 658
f 316 314 656
f 314 654 656
f 314 312 654
f 312 652 654
f 312 310 652
f 310 650 652
f 310 308 650
f 308 648 650
f 308 306 648
f 306 646 648
f 306 304 646
f 304 644 646
f 304 302 644
f 302 642 644
f 302 300 642
f 300 640 642
f 300 298 640
f 298 638 640
f 298 296 638
f 296 636 638
f 296 294 636
f 294 634 636
f 294 292 634
f 292 632 634
f 292 290 632
f 290 630 632
f 290 288 630
f 288 628 630
f 288 286 628
f 286 626 628
f 286 284 626
f 284 624 626
f 284 282 624
f 282 622 624
f 282 280 622
f 280 620 622
f 280 278 620
f 278 618 620
f 278 276 618
f 276 616 618
f 276 274 616
f 274 614 616
f 274 272 614
f 272 612 614
f 272 270 612
f 270 610 612
f 270 268 610
f 268 608 610
f 268 266 608
f 266 606 608
f 266 264 606
f 264 604 606
f 264 262 604
f 262 602 604
f 262 260 602
f 260 600 602
f 260 258 600
f 258 598 600
f 258 256 598
f 256 596 598
f 256 254 596
f 254 594 596
f 254 252 594
f 252 592 594
f 252 250 592
f 250 590 592
f 250 248 590
f 248 588 590
f 248 246 588
f 246 586 588
f 246 244 586
f 244 584 586
f 244 242 584
f 242 582 584
f 242 240 582
f 240 580 582
f 240 238 580
f 238 578 580
f 238 236 578
f 236 576 578
f 236 234 576
f 234 574 576
f 234 232 574
f 232 572 574
f 232 230 572
f 230 570 572
f 230 228 570
f 228 568 570
f 228 226 568
f 226 566 568
f 226 224 566
f 224 564 566
f 224 222 564
f 222 562 564
f 222 220 562
f 220 560 562
f 220 219 560
f 219 559 560
f 219 217 559
f 217 557 559
f 217 215 557
f 215 555 557
f 215 213 555
f 213 553 555
f 213 210 553
f 210 550 553
f 210 208 550
f 208 548 550
f 208 206 548
f 206 546 548
f 206 204 546
f 204 544 546
f 204 202 544
f 202 542 544
f 202 200 542
f 200 540 542
f 200 198 540
f 198 538 540
f 198 196 538
f 196 536 538
f 196 194 536
f 194 534 536
f 194 192 534
f 192 532 534
f 192 190 532
f 190 530 532
f 190 188 530
f 188 528 530
f 188 186 528
f 186 526 528
f 186 184 526
f 184 524 526
f 184 182 524
f 182 522 524
f 182 180 522
f 180 520 522
f 180 179 520
f 179 519 520
f 179 177 519
f 177 517 519
f 177 175 517
f 175 515 517
f 175 6 515
f 6 344 515
f 6 5 344
f 5 345 344
f 5 4 345
f 4 346 345
f 4 8 346
f 8 347 346
f 8 7 347
f 7 348 347
f 7 10 348
f 10 349 348
f 10 9 349
f 9 350 349
f 9 12 350
f 12 351 350
f 12 11 351
f 11 352 351
f 11 14 352
f 14 353 352
f 14 13 353
f 13 354 353
f 13 16 354
f 16 355 354
f 16 15 355
f 15 356 355
f 15 18 356
f 18 357 356
f 18 17 357
f 17 358 357
f 17 20 358
f 20 359 358
f 20 19 359
f 19 360 359
f 19 22 360
f 22 361 360
f 22 21 361
f 21 362 361
f 21 24 362
f 24 363 362
f 24 23 363
f 23 364 363
f 23 26 364
f 26 365 364
f 26 25 365
f 25 366 365
f 25 28 366
f 28 367 366
f 28 27 367
f 27 368 367
f 27 30 368
f 30 369 368
f 30 29 369
f 29 370 369
f 29 32 370
f 32 371 370
f 32 31 371
f 31 372 371
f 31 34 372
f 34 373 372
f 34 33 373
f 33 374 373
f 33 36 374
f 36 375 374
f 36 35 375
f 35 376 375
f 35 38 376
f 38 377 376
f 38 37 377
f 37 378 377
f 37 40 378
f 40 379 378
f 40 39 379
f 39 380 379
f 39 42 380
f 42 381 380
f 42 41 381
f 41 382 381
f 41 44 382
f 44 383 382
f 44 43 383
f 43 384 383
f 43 46 384
f 46 385 384
f 46 45 385
f 45 386 385
f 45 48 386
f 48 387 386
f 48 47 387
f 47 388 387
f 47 50 388
f 50 389 388
f 50 49 389
f 49 390 389
f 49 52 390
f 52 391 390
f 52 51 391
f 51 392 391
f 51 54 392
f 54 393 392
f 54 53 393
f 53 394 393
f 53 56 394
f 56 395 394
f 56 55 395
f 55 396 395
f 55 58 396
f 58 397 396
f 58 57 397
f 57 398 397
f 57 60 398
f 60 399 398
f 60 59 399
f 59 400 399
f 59 62 400
f 62 401 400
f 62 61 401
f 61 402 401
f 61 64 402
f 64 403 402
f 64 63 403
f 63 404 403
f 63 66 404
f 66 405 404
f 66 65 405
f 65 406 405
f 65 68 406
f 68 407 406
f 68 67 407
f 67 408 407
f 67 70 408
f 70 409 408
f 70 69 409
f 69 410 409
f 69 72 410
f 72 411 410
f 72 71 411
f 71 412 411
f 71 74 412
f 74 413 412
f 74 73 413
f 73 414 413
f 73 76 414
f 76 415 414
f 76 75 415
f 75 416 415
f 75 78 416
f 78 417 416
f 78 77 417
f 77 418 417
f 77 80 418
f 80 419 418
f 80 79 419
f 79 420 419
f 79 82 420
f 82 421 420
f 82 81 421
f 81 422 421
f 81 84 422
f 84 423 422
f 84 83 423
f 83 424 423
f 83 86 424
f 86 425 424
f 86 85 425
f 85 426 425
f 85 88 426
f 88 427 426
f 88 87 427
f 87 428 427
f 87 90 428
f 90 429 428
f 90 89 429
f 89 430 429
f 89 92 430
f 92 431 430
f 92 91 431
f 91 432 431
f 91 94 432
f 94 433 432
f 94 93 433
f 93 434 433
f 93 96 434
f 96 435 434
f 96 95 435
f 95 436 435
f 95 98 436
f 98 437 436
f 98 97 437
f 97 438 437
f 97 100 438
f 100 439 438
f 100 99 439
f 99 440 439
f 99 102 440
f 102 441 440
f 102 101 441
f 101 442 441
f 101 104 442
f 104 443 442
f 104 103 443
f 103 444 443
f 103 106 444
f 106 445 444
f 106 105 445
f 105 446 445
f 105 108 446
f 108 447 446
f 108 107 447
f 107 448 447
f 107 110 448
f 110 449 448
f 110 109 449
f 109 450 449
f 109 112 450
f 112 451 450
f 112 111 451
f 111 452 451
f 111 114 452
f 114 453 452
f 114 113 453
f 113 454 453
f 113 116 454
f 116 455 454
f 116 115 455
f 115 456 455
f 115 118 456
f 118 457 456
f 118 117 457
f 117 458 457
f 117 120 458
f 120 459 458
f 120 119 459
f 119 460 459
f 119 122 460
f 122 461 460
f 122 121 461
f 121 462 461
f 121 124 462
f 124 463 462
f 124 123 463
f 123 464 463
f 123 126 464
f 126 465 464
f 126 125 465
f 125 466 465
f 125 128 466
f 128 467 466
f 128 127 467
f 127 468 467
f 127 130 468
f 130 469 468
f 130 129 469
f 129 470 469
f 129 132 470
f 132 471 470
f 132 131 471
f 131 472 471
f 131 134 472
f 134 473 472
f 134 133 473
f 133 474 473
f 133 136 474
f 136 475 474
f 136 135 475
f 135 476 475
f 135 138 476
f 138 477 476
f 138 137 477
f 137 478 477
f 137 140 478
f 140 479 478
f 140 139 479
f 139 480 479
f 139 142 480
f 142 481 480
f 142 141 481
f 141 482 481
f 141 144 482
f 144 483 482
f 144 143 483
f 143 484 483
f 143 146 484
f 146 485 484
f 146 145 485
f 145 486 485
f 145 148 486
f 148 487 486
f 148 147 487
f 147 488 487
f 147 150 488
f 150 489 488
f 150 149 489
f 149 490 489
f 149 152 490
f 152 491 490
f 152 151 491
f 151 492 491
f 151 154 492
f 154 493 492
f 154 153 493
f 153 494 493
f 153 156 494
f 156 495 494
f 156 155 495
f 155 496 495
f 155 158 496
f 158 497 496
f 158 157 497
f 157 498 497
f 157 160 498
f 160 499 498
f 160 159 499
f 159 500 499
f 159 162 500
f 162 501 500
f 162 161 501
f 161 502 501
f 161 164 502
f 164 503 502
f 164 163 503
f 163 504 503
f 163 166 504
f 166 505 504
f 166 165 505
f 165 506 505
f 165 168 506
f 168 507 506
f 168 167 507
f 167 508 507
f 167 170 508
f 170 509 508
f 170 169 509
f 169 510 509
f 169 172 510
f 172 511 510
f 172 171 511
f 171 512 511
f 171 174 512
f 174 513 512
f 174 173 513
f 173 514 513
f 173 3 514
f 3 341 514
f 3 2 341
f 2 342 341
f 2 1 342
f 1 343 342

