# https://github.com/mikedh/trimesh

o sca_A.stl
v 0.38051112 6.91346151 -3.28204991
v 0.35162908 5.67306490 -3.28204991
v -4.28296663 -7.08653849 -3.28204991
v -6.17719643 -7.08653849 -3.28204991
v -0.84067394 6.91346151 -3.28204991
v -4.28296663 -7.08653849 3.28204991
v 0.35162908 5.67306490 3.28204991
v 0.38051112 6.91346151 3.28204991
v -0.84067394 6.91346151 3.28204991
v -6.17719643 -7.08653849 3.28204991
v 6.14011533 -7.08653849 -3.28204991
v 4.23626330 -7.08653849 -3.28204991
v -0.40796846 5.67306490 -3.28204991
v -0.43680667 6.91346151 -3.28204991
v 0.78433498 6.91346151 -3.28204991
v -0.40796846 5.67306490 3.28204991
v 4.23626330 -7.08653849 3.28204991
v 6.14011533 -7.08653849 3.28204991
v 0.78433498 6.91346151 3.28204991
v -0.43680667 6.91346151 3.28204991
v -3.86950714 -1.90383165 -3.28204991
v 3.99588629 -1.90383165 -3.28204991
v 3.99588629 -3.42307931 -3.28204991
v -3.86950714 -3.42307931 -3.28204991
v 3.99588629 -3.42307931 3.28204991
v 3.99588629 -1.90383165 3.28204991
v -3.86950714 -1.90383165 3.28204991
v -3.86950714 -3.42307931 3.28204991
f 1 2 3
f 4 5 1
f 1 3 4
f 6 7 8
f 8 9 10
f 10 6 8
f 1 5 8
f 5 9 8
f 5 4 9
f 4 10 9
f 4 3 10
f 3 6 10
f 3 2 6
f 2 7 6
f 2 1 7
f 1 8 7
f 11 12 13
f 14 15 11
f 11 13 14
f 16 17 18
f 18 19 20
f 20 16 18
f 11 15 18
f 15 19 18
f 15 14 19
f 14 20 19
f 14 13 20
f 13 16 20
f 13 12 16
f 12 17 16
f 12 11 17
f 11 18 17
f 21 22 23
f 23 24 21
f 25 26 27
f 27 28 25
f 21 24 27
f 24 28 27
f 24 23 28
f 23 25 28
f 23 22 25
f 22 26 25
f 22 21 26
f 21 27 26

