# https://github.com/mikedh/trimesh

o sca_S.stl
v -5.01972439 -2.61117814 -3.19429999
v -3.22293069 -2.61117814 -3.19429999
v -3.22104604 -2.72675965 -3.19429999
v -5.00737668 -2.94430765 -3.19429999
v -5.01663745 -2.77946508 -3.19429999
v -4.97033341 -3.26365966 -3.19429999
v -4.99194198 -3.10570584 -3.19429999
v -4.90859472 -3.56923398 -3.19429999
v -4.94255100 -3.41816891 -3.19429999
v -4.82216051 -3.86103059 -3.19429999
v -4.86846451 -3.71685447 -3.19429999
v -4.71103079 -4.13904970 -3.19429999
v -4.76968254 -4.00176233 -3.19429999
v -4.57520566 -4.40329111 -3.19429999
v -4.64620517 -4.27289269 -3.19429999
v -4.41871428 -4.65375644 -3.19429999
v -4.49903959 -4.53024596 -3.19429999
v -4.24558602 -4.89044418 -3.19429999
v -4.33422972 -4.77382255 -3.19429999
v -4.05582088 -5.11335421 -3.19429999
v -4.15278307 -5.00362143 -3.19429999
v -3.84941897 -5.32248674 -3.19429999
v -3.95469965 -5.21964271 -3.19429999
v -3.62638028 -5.51784158 -3.19429999
v -3.73997925 -5.42188640 -3.19429999
v -3.38670461 -5.69941881 -3.19429999
v -3.50862207 -5.61035238 -3.19429999
v -3.13402988 -5.86682785 -3.19429999
v -3.26153693 -5.78494297 -3.19429999
v -2.87199726 -6.01967959 -3.19429999
v -3.00418346 -5.94507339 -3.19429999
v -2.60060654 -6.15797412 -3.19429999
v -2.73747169 -6.09064650 -3.19429999
v -2.31985752 -6.28171143 -3.19429999
v -2.46140181 -6.22166243 -3.19429999
v -2.02975060 -6.39089150 -3.19429999
v -2.17597364 -6.33812113 -3.19429999
v -1.73028538 -6.48551435 -3.19429999
v -1.88118757 -6.44002258 -3.19429999
v -1.42523158 -6.56557976 -3.19429999
v -1.57798594 -6.52736673 -3.19429999
v -1.11835934 -6.63108783 -3.19429999
v -1.27202271 -6.60015347 -3.19429999
v -0.80966782 -6.68203855 -3.19429999
v -0.96424104 -6.65838285 -3.19429999
v -0.49915786 -6.71843191 -3.19429999
v -0.65464010 -6.70205490 -3.19429999
v -0.18682864 -6.74026794 -3.19429999
v -0.34322071 -6.73116960 -3.19429999
v 0.12731945 -6.74754661 -3.19429999
v -0.02998205 -6.74572694 -3.19429999
v 0.48047060 -6.74039791 -3.19429999
v 0.30529248 -6.74575944 -3.19429999
v 0.82244176 -6.71895181 -3.19429999
v 0.65285343 -6.73146203 -3.19429999
v 1.15323292 -6.68320830 -3.19429999
v 0.98923479 -6.70286723 -3.19429999
v 1.47284326 -6.63316739 -3.19429999
v 1.31443533 -6.65997502 -3.19429999
v 1.78127481 -6.56882908 -3.19429999
v 1.62845669 -6.60278541 -3.19429999
v 2.07852515 -6.49019336 -3.19429999
v 1.93129764 -6.53129840 -3.19429999
v 2.36331157 -6.39830003 -3.19429999
v 2.22264055 -6.44577392 -3.19429999
v 2.63431967 -6.29418888 -3.19429999
v 2.50053740 -6.34777169 -3.19429999
v 2.89154946 -6.17785993 -3.19429999
v 2.76465676 -6.23755164 -3.19429999
v 3.13500095 -6.04931314 -3.19429999
v 3.01499780 -6.11511375 -3.19429999
v 3.36467493 -5.90854855 -3.19429999
v 3.25156053 -5.98045804 -3.19429999
v 3.58057060 -5.75556612 -3.19429999
v 3.47434496 -5.83358456 -3.19429999
v 3.78150518 -5.59101656 -3.19429999
v 3.68305212 -5.67465617 -3.19429999
v 3.96632350 -5.41554873 -3.19429999
v 3.87592897 -5.50464745 -3.19429999
v 4.13502637 -5.22916247 -3.19429999
v 4.05268957 -5.32372040 -3.19429999
v 4.28761378 -5.03185799 -3.19429999
v 4.21333471 -5.13187503 -3.19429999
v 4.42408494 -4.82363499 -3.19429999
v 4.35786359 -4.92911124 -3.19429999
v 4.54443984 -4.60449376 -3.19429999
v 4.48627702 -4.71542923 -3.19429999
v 4.64739252 -4.37547555 -3.19429999
v 4.59825575 -4.49108935 -3.19429999
v 4.73162616 -4.13761914 -3.19429999
v 4.69184851 -4.25765215 -3.19429999
v 4.79714077 -3.89092435 -3.19429999
v 4.76672304 -4.01537654 -3.19429999
v 4.84393714 -3.63539135 -3.19429999
v 4.82287934 -3.76426275 -3.19429999
v 4.87201530 -3.37102017 -3.19429999
v 4.86031661 -3.50431056 -3.19429999
v 4.88137441 -3.09781059 -3.19429999
v 4.87903483 -3.23552018 -3.19429999
v 4.87396494 -2.83720750 -3.19429999
v 4.87952225 -2.96637155 -3.19429999
v 4.85173654 -2.58570317 -3.19429999
v 4.86470331 -2.71031804 -3.19429999
v 4.81468839 -2.34329759 -3.19429999
v 4.83506463 -2.46336329 -3.19429999
v 4.76282131 -2.10999117 -3.19429999
v 4.79060702 -2.22550689 -3.19429999
v 4.69613448 -1.88578310 -3.19429999
v 4.73133047 -1.99674964 -3.19429999
v 4.61462953 -1.67067419 -3.19429999
v 4.65723417 -1.77709115 -3.19429999
v 4.51792953 -1.46374608 -3.19429999
v 4.56822958 -1.56629990 -3.19429999
v 4.40563236 -1.26409867 -3.19429999
v 4.46373099 -1.36301234 -3.19429999
v 4.27773720 -1.07173198 -3.19429999
v 4.34363442 -1.16700549 -3.19429999
v 4.13424488 -0.88664599 -3.19429999
v 4.20794069 -0.97827895 -3.19429999
v 3.97515377 -0.70884072 -3.19429999
v 4.05664897 -0.79683311 -3.19429999
v 3.80046630 -0.53831615 -3.19429999
v 3.88976009 -0.62266839 -3.19429999
v 3.60979092 -0.37415961 -3.19429999
v 3.70717574 -0.45555571 -3.19429999
v 3.40274014 -0.21545965 -3.19429999
v 3.50831266 -0.29412786 -3.19429999
v 3.17931315 -0.06221625 -3.19429999
v 3.29307418 -0.13815578 -3.19429999
v 2.93950994 0.08557098 -3.19429999
v 3.06145868 0.01235933 -3.19429999
v 2.68333052 0.22790204 -3.19429999
v 2.81346777 0.15741868 -3.19429999
v 2.41077570 0.36477653 -3.19429999
v 2.54909983 0.29702146 -3.19429999
v 2.12118016 0.49682930 -3.19429999
v 2.26818672 0.43132282 -3.19429999
v 1.81390945 0.62472120 -3.19429999
v 1.96975440 0.56129516 -3.19429999
v 1.48896439 0.74845467 -3.19429999
v 1.65364611 0.68710825 -3.19429999
v 1.14634335 0.86802809 -3.19429999
v 1.31986347 0.80876129 -3.19429999
v 0.78604796 0.98344144 -3.19429999
v 0.96840526 0.92625426 -3.19429999
v 0.40807700 1.09469555 -3.19429999
v 0.59927188 1.03958800 -3.19429999
v 4.84393714 3.13483111 -3.19429999
v 3.04712228 3.13483111 -3.19429999
v 3.04484769 3.26152155 -3.19429999
v 4.82833998 3.48693880 -3.19429999
v 4.84003785 3.31176230 -3.19429999
v 4.78154685 3.83202614 -3.19429999
v 4.80884270 3.66035981 -3.19429999
v 4.70355857 4.17009313 -3.19429999
v 4.74645241 4.00193698 -3.19429999
v 4.59437515 4.50113977 -3.19429999
v 4.65286615 4.33649379 -3.19429999
v 4.45399657 4.82516606 -3.19429999
v 4.52808475 4.66403026 -3.19429999
v 4.28242204 5.14217200 -3.19429999
v 4.37210900 4.98454637 -3.19429999
v 4.08108454 5.44580174 -3.19429999
v 4.18529474 5.29645642 -3.19429999
v 3.85141380 5.72967183 -3.19429999
v 3.96979062 5.59020715 -3.19429999
v 3.59341146 5.99378224 -3.19429999
v 3.72595408 5.86419740 -3.19429999
v 3.30707670 6.23813381 -3.19429999
v 3.45378594 6.11842799 -3.19429999
v 2.99241034 6.46272491 -3.19429999
v 3.15328538 6.35289891 -3.19429999
v 2.64941074 6.66755634 -3.19429999
v 2.82445159 6.56761018 -3.19429999
v 2.27936387 6.84627470 -3.19429999
v 2.46760463 6.76097769 -3.19429999
v 1.88358330 6.99249978 -3.19429999
v 2.08469091 6.92344900 -3.19429999
v 1.46206821 7.10622994 -3.19429999
v 1.67604267 7.05342621 -3.19429999
v 1.01481902 7.18746519 -3.19429999
v 1.24166073 7.15090932 -3.19429999
v 0.54183531 7.23620634 -3.19429999
v 0.78154387 7.21589752 -3.19429999
v 0.04311749 7.25245339 -3.19429999
v 0.29569331 7.24839162 -3.19429999
v -0.30079560 7.24465643 -3.19429999
v -0.13020361 7.25050374 -3.19429999
v -0.63379310 7.22126392 -3.19429999
v -0.46865890 7.23490982 -3.19429999
v -0.95587421 7.18227588 -3.19429999
v -0.79619821 7.20371874 -3.19429999
v -1.26703934 7.12769229 -3.19429999
v -1.11282153 7.15693211 -3.19429999
v -1.56728888 7.05751316 -3.19429999
v -1.41852846 7.09455156 -3.19429999
v -1.85662203 6.97173848 -3.19429999
v -1.71331980 7.01657547 -3.19429999
v -2.13386169 6.87204333 -3.19429999
v -1.99689906 6.92341894 -3.19429999
v -2.39784335 6.76012959 -3.19429999
v -2.26750952 6.81761409 -3.19429999
v -2.64856783 6.63599645 -3.19429999
v -2.52486279 6.69959065 -3.19429999
v -2.88603471 6.49964470 -3.19429999
v -2.76895847 6.56934780 -3.19429999
v -3.11024400 6.35107437 -3.19429999
v -2.99979655 6.42688716 -3.19429999
v -3.32119590 6.19028544 -3.19429999
v -3.21737705 6.27220713 -3.19429999
v -3.51759024 6.01859149 -3.19429999
v -3.42137521 6.10564075 -3.19429999
v -3.69812746 5.83727929 -3.19429999
v -3.60984099 5.92913767 -3.19429999
v -3.86280755 5.64634964 -3.19429999
v -3.78244965 5.74301715 -3.19429999
v -4.01163033 5.44580012 -3.19429999
v -3.93920098 5.54727757 -3.19429999
v -4.14459588 5.23563316 -3.19429999
v -4.08009519 5.34191892 -3.19429999
v -4.26170421 5.01584794 -3.19429999
v -4.20513219 5.12694283 -3.19429999
v -4.36178573 4.78786121 -3.19429999
v -4.31401951 4.90269861 -3.19429999
v -4.44367046 4.55311896 -3.19429999
v -4.40500268 4.67133412 -3.19429999
v -4.50735869 4.31162200 -3.19429999
v -4.47778916 4.43321492 -3.19429999
v -4.55285023 4.06336870 -3.19429999
v -4.53237905 4.18833938 -3.19429999
v -4.58014517 3.80836069 -3.19429999
v -4.56877234 3.93670914 -3.19429999
v -4.58924352 3.54659716 -3.19429999
v -4.58696893 3.67832337 -3.19429999
v -4.58066518 3.28638116 -3.19429999
v -4.58709891 3.41525438 -3.19429999
v -4.55493005 3.03604418 -3.19429999
v -4.56994223 3.15997830 -3.19429999
v -4.51203835 2.79558540 -3.19429999
v -4.53562876 2.91458042 -3.19429999
v -4.45198986 2.56500564 -3.19429999
v -4.48415872 2.67906075 -3.19429999
v -4.37478469 2.34430409 -3.19429999
v -4.41553189 2.45342009 -3.19429999
v -4.28042284 2.13348156 -3.19429999
v -4.32974838 2.23765846 -3.19429999
v -4.16994250 1.93149824 -3.19429999
v -4.22706733 2.03151507 -3.19429999
v -4.04438499 1.73731268 -3.19429999
v -4.10904835 1.83343023 -3.19429999
v -3.90374992 1.55092653 -3.19429999
v -3.97595201 1.64314478 -3.19429999
v -3.74803758 1.37233895 -3.19429999
v -3.82777851 1.46065792 -3.19429999
v -3.57724798 1.20155078 -3.19429999
v -3.66452754 1.28597045 -3.19429999
v -3.39138092 1.03856118 -3.19429999
v -3.48619911 1.11908075 -3.19429999
v -3.19147783 0.88246034 -3.19429999
v -3.29305418 0.95976299 -3.19429999
v -2.97857709 0.73233841 -3.19429999
v -3.08665227 0.80665242 -3.19429999
v -2.75267852 0.58819621 -3.19429999
v -2.86725251 0.65951995 -3.19429999
v -2.51378230 0.45003373 -3.19429999
v -2.63485512 0.51836801 -3.19429999
v -2.26188845 0.31785017 -3.19429999
v -2.38946008 0.38319418 -3.19429999
v -1.99699655 0.19164553 -3.19429999
v -2.13106720 0.25400049 -3.19429999
v -1.72014357 0.07037917 -3.19429999
v -1.85993481 0.13052534 -3.19429999
v -1.43237460 -0.04698992 -3.19429999
v -1.57762363 0.01120742 -3.19429999
v -1.13368924 -0.16046216 -3.19429999
v -1.28439647 -0.10421325 -3.19429999
v -0.82408749 -0.27003714 -3.19429999
v -0.98025291 -0.21573706 -3.19429999
v -0.50356975 -0.37571527 -3.19429999
v -0.66519337 -0.32336362 -3.19429999
v -0.17213562 -0.47749653 -3.19429999
v -0.33921703 -0.42709291 -3.19429999
v -3.21539206 -2.83954667 -3.19429999
v 3.03802474 3.38580823 -3.19429999
v -3.20596898 -2.94953961 -3.19429999
v 3.02665262 3.50769116 -3.19429999
v -0.01379065 -0.52422427 -3.19429999
v -3.19277637 -3.05673764 -3.19429999
v 3.01073132 3.62716953 -3.19429999
v 0.13994016 -0.57082203 -3.19429999
v -3.17581466 -3.16114118 -3.19429999
v 0.26936253 1.13381764 -3.19429999
v 2.99026085 3.74424415 -3.19429999
v 0.28905720 -0.61728981 -3.19429999
v -3.15508383 -3.26275044 -3.19429999
v 2.96524202 3.85891501 -3.19429999
v -3.13058348 -3.36156500 -3.19429999
v 0.13396246 1.17319967 -3.19429999
v 2.93567402 3.97118131 -3.19429999
v 0.43356050 -0.66362721 -3.19429999
v -3.10231381 -3.45758526 -3.19429999
v 0.00187638 1.21284166 -3.19429999
v 2.90155684 4.08104387 -3.19429999
v 0.57344963 -0.70983463 -3.19429999
v -3.07027504 -3.55081104 -3.19429999
v -0.12689489 1.25274442 -3.19429999
v 2.86289129 4.18850267 -3.19429999
v 0.70872460 -0.75591167 -3.19429999
v -3.03446695 -3.64124232 -3.19429999
v -0.25235177 1.29290794 -3.19429999
v 2.81967658 4.29355772 -3.19429999
v 0.83938540 -0.80185873 -3.19429999
v -2.99488954 -3.72887911 -3.19429999
v -0.37449465 1.33333060 -3.19429999
v 2.77191269 4.39620820 -3.19429999
v 0.96543245 -0.84767582 -3.19429999
v -2.95154302 -3.81372141 -3.19429999
v -0.49332273 1.37401484 -3.19429999
v 2.71960044 4.49645412 -3.19429999
v 1.08686534 -0.89336252 -3.19429999
v -2.90491378 -3.89596337 -3.19429999
v -0.60883682 1.41495821 -3.19429999
v 2.66266671 4.59374471 -3.19429999
v 1.20368488 -0.93891884 -3.19429999
v -2.85549005 -3.97580117 -3.19429999
v -0.72103611 1.45616236 -3.19429999
v 2.60105465 4.68752431 -3.19429999
v 1.31589026 -0.98434560 -3.19429999
v -2.80327183 -4.05323420 -3.19429999
v -0.82992140 1.49762645 -3.19429999
v 2.53476506 4.77779535 -3.19429999
v 1.42348147 -1.02964197 -3.19429999
v -2.74825912 -4.12826287 -3.19429999
v -0.93549188 1.53935132 -3.19429999
v 2.46379632 4.86455622 -3.19429999
v 1.52687363 -1.07506790 -3.19429999
v -2.69045191 -4.20088698 -3.19429999
v -1.03774838 1.58133613 -3.19429999
v 2.38814843 4.94780773 -3.19429999
v 1.62649811 -1.12088418 -3.19429999
v -2.62985021 -4.27110673 -3.19429999
v -1.13685904 1.62377586 -3.19429999
v 2.30782302 5.02754988 -3.19429999
v 1.72235326 -1.16708998 -3.19429999
v -2.56645422 -4.33892192 -3.19429999
v -1.23297984 1.66686547 -3.19429999
v 2.22281845 5.10378185 -3.19429999
v 1.81443992 -1.21368570 -3.19429999
v -2.50026354 -4.40433275 -3.19429999
v -1.32611077 1.71060416 -3.19429999
v 2.13313636 5.17650446 -3.19429999
v 1.90275807 -1.26067095 -3.19429999
v -2.43127856 -4.46733901 -3.19429999
v -1.41625224 1.75499272 -3.19429999
v -2.35949910 -4.52794071 -3.19429999
v -1.50340345 1.80003036 -3.19429999
v 2.03877512 5.24571770 -3.19429999
v -2.28492473 -4.58613805 -3.19429999
v -1.58756520 1.84571787 -3.19429999
v 1.93973554 5.31142077 -3.19429999
v -1.66873709 1.89205446 -3.19429999
v 1.83601762 5.37361529 -3.19429999
v -2.20755628 -4.64193103 -3.19429999
v -1.74691911 1.93904093 -3.19429999
v 1.72762137 5.43229963 -3.19429999
v -2.12788075 -4.69531863 -3.19429999
v -1.82211127 1.98667728 -3.19429999
v 1.61440868 5.48685642 -3.19429999
v -2.04638595 -4.74630167 -3.19429999
v -1.89431357 2.03496270 -3.19429999
v 1.49625769 5.53666987 -3.19429999
v -1.96307149 -4.79488015 -3.19429999
v -1.96352600 2.08389719 -3.19429999
v 1.37316842 5.58173919 -3.19429999
v -1.87793735 -4.84105406 -3.19429999
v -2.02974897 2.13348156 -3.19429999
v 1.24514004 5.62206436 -3.19429999
v -1.79098355 -4.88482361 -3.19429999
v 1.11217256 5.65764540 -3.19429999
v -1.70221088 -4.92618850 -3.19429999
v 0.97426679 5.68848230 -3.19429999
v -1.61161815 -4.96514882 -3.19429999
v 0.83142191 5.71457507 -3.19429999
v -1.51920614 -5.00170468 -3.19429999
v 0.68363874 5.73592369 -3.19429999
v -1.42497447 -5.03585598 -3.19429999
v 0.53091648 5.75252818 -3.19429999
v -1.32892354 -5.06760272 -3.19429999
v 0.37325551 5.76438852 -3.19429999
v -1.23105294 -5.09694499 -3.19429999
v 0.21065585 5.77150392 -3.19429999
v -1.13136266 -5.12388260 -3.19429999
v 0.04311749 5.77387599 -3.19429999
v -1.03039943 -5.14854572 -3.19429999
v -0.11519458 5.77186135 -3.19429999
v -0.92872214 -5.17106424 -3.19429999
v -0.26882790 5.76581745 -3.19429999
v -0.82633080 -5.19143814 -3.19429999
v -0.41778167 5.75574347 -3.19429999
v -0.72322580 -5.20966733 -3.19429999
v -0.56205588 5.74164021 -3.19429999
v -0.61940675 -5.22575201 -3.19429999
v -0.70165134 5.72350688 -3.19429999
v -0.51487323 -5.23969198 -3.19429999
v -0.83656725 5.70134428 -3.19429999
v -0.40962606 -5.25148744 -3.19429999
v -0.96680360 5.67515241 -3.19429999
v -0.30366523 -5.26113819 -3.19429999
v -1.09236081 5.64493046 -3.19429999
v -0.19698995 -5.26864432 -3.19429999
v -1.21323886 5.61067924 -3.19429999
v -0.08960101 -5.27400585 -3.19429999
v -1.32943776 5.57239876 -3.19429999
v 0.01850239 -5.27722277 -3.19429999
v -1.44095710 5.53008819 -3.19429999
v 0.12731945 -5.27829507 -3.19429999
v -1.54779730 5.48374835 -3.19429999
v 0.28284027 -5.27647540 -3.19429999
v -1.65005623 5.43397146 -3.19429999
v 0.43433183 -5.27101639 -3.19429999
v -1.74783098 5.38133345 -3.19429999
v 0.58179371 -5.26191794 -3.19429999
v -1.84112194 5.32583597 -3.19429999
v 0.72522591 -5.24918015 -3.19429999
v 0.86462885 -5.23280293 -3.19429999
v -1.92992832 5.26747819 -3.19429999
v 1.00000211 -5.21278636 -3.19429999
v -2.01425051 5.20626011 -3.19429999
v 1.13134570 -5.18913045 -3.19429999
v -2.09408851 5.14218256 -3.19429999
v 1.25866002 -5.16183520 -3.19429999
v -2.16944233 5.07524390 -3.19429999
v 1.38194426 -5.13090051 -3.19429999
v -2.24031196 5.00544577 -3.19429999
v 1.50119923 -5.09632649 -3.19429999
v -2.30669740 4.93278815 -3.19429999
v -2.36859866 4.85726942 -3.19429999
v 1.61642494 -5.05811312 -3.19429999
v -2.42601554 4.77889122 -3.19429999
v 1.72762137 -5.01626031 -3.19429999
v -2.47894842 4.69765272 -3.19429999
v 1.83462525 -4.97102883 -3.19429999
v -2.52752690 4.61401615 -3.19429999
v 1.93727493 -4.92267782 -3.19429999
v -2.57188135 4.52842913 -3.19429999
v 2.03557039 -4.87120736 -3.19429999
v -2.61201156 4.44089246 -3.19429999
v 2.12951165 -4.81661748 -3.19429999
v -2.64791734 4.35140452 -3.19429999
v 2.21909788 -4.75890816 -3.19429999
v -2.67959908 4.25996694 -3.19429999
v 2.30433072 -4.69807921 -3.19429999
v -2.70705660 4.16657890 -3.19429999
v 2.38520853 -4.63413102 -3.19429999
v -2.73028968 4.07124121 -3.19429999
v 2.46173295 -4.56706320 -3.19429999
v -2.74929873 3.97395225 -3.19429999
v 2.53390234 -4.49687594 -3.19429999
v -2.76408354 3.87471364 -3.19429999
v 2.60171753 -4.42356925 -3.19429999
v -2.77464412 3.77352377 -3.19429999
v 2.66517851 -4.34714293 -3.19429999
v -2.78098047 3.67038424 -3.19429999
v 2.72428527 -4.26759737 -3.19429999
v -2.78309259 3.56529508 -3.19429999
v 2.77884287 -4.18525712 -3.19429999
v -2.78182532 3.49410294 -3.19429999
v 2.82865632 -4.10044732 -3.19429999
v -2.77802351 3.42401560 -3.19429999
v 2.87372483 -4.01316816 -3.19429999
v -2.77168716 3.35503225 -3.19429999
v 2.91405000 -3.92341926 -3.19429999
v -2.76281607 3.28715370 -3.19429999
v 2.94963104 -3.83120100 -3.19429999
v -2.75141064 3.22037995 -3.19429999
v 2.98046794 -3.73651299 -3.19429999
v -2.73747047 3.15471019 -3.19429999
v 3.00656071 -3.63935543 -3.19429999
v -2.72099596 3.09014441 -3.19429999
v 3.02790933 -3.53972852 -3.19429999
v -2.70198671 3.02668344 -3.19429999
v 3.04451381 -3.43763186 -3.19429999
v -2.68044292 2.96432726 -3.19429999
v 3.05637416 -3.33306584 -3.19429999
v -2.65636459 2.90307507 -3.19429999
v 3.06349037 -3.22603007 -3.19429999
v -2.62975171 2.84292687 -3.19429999
v 3.06586244 -3.11652475 -3.19429999
v -2.60060430 2.78388346 -3.19429999
v 3.06485512 -3.03772697 -3.19429999
v -2.56876049 2.72574989 -3.19429999
v 3.06183317 -2.96042351 -3.19429999
v -2.53405720 2.66833201 -3.19429999
v 3.05679577 -2.88461436 -3.19429999
v -2.49649443 2.61162818 -3.19429999
v 3.04974455 -2.81029995 -3.19429999
v -2.45607197 2.55564003 -3.19429999
v 3.04067789 -2.73747986 -3.19429999
v -2.41279003 2.50036757 -3.19429999
v 3.02959659 -2.66615409 -3.19429999
v -2.36664861 2.44580997 -3.19429999
v 3.01650065 -2.59632306 -3.19429999
v -2.31764751 2.39196725 -3.19429999
v 3.00138927 -2.52798634 -3.19429999
v -2.26578693 2.33883940 -3.19429999
v 2.98426407 -2.46114394 -3.19429999
v -2.21106686 2.28642723 -3.19429999
v 2.96512342 -2.39579628 -3.19429999
v -2.15348691 2.23473074 -3.19429999
v 2.94396813 -2.33194294 -3.19429999
v -2.09304789 2.18374831 -3.19429999
v 2.92079822 -2.26958391 -3.19429999
v 2.89512707 -2.20846414 -3.19429999
v 2.86646564 -2.14831878 -3.19429999
v 1.98730690 -1.30804654 -3.19429999
v 2.83481558 -2.08914865 -3.19429999
v 2.06808724 -1.35581165 -3.19429999
v 2.80017687 -2.03095334 -3.19429999
v 2.76254870 -1.97373245 -3.19429999
v 2.14509907 -1.40396668 -3.19429999
v 2.72193189 -1.91748678 -3.19429999
v 2.21834239 -1.45251124 -3.19429999
v 2.67832643 -1.86221595 -3.19429999
v 2.28781721 -1.50144573 -3.19429999
v 2.63173070 -1.80791993 -3.19429999
v 2.35352272 -1.55077015 -3.19429999
v 2.58214715 -1.75459874 -3.19429999
v 2.41546054 -1.60048450 -3.19429999
v 2.52957332 -1.70225277 -3.19429999
v 2.47401165 -1.65088123 -3.19429999
v -3.22104604 -2.72675965 3.19429999
v -3.22293069 -2.61117814 3.19429999
v -5.01972439 -2.61117814 3.19429999
v -5.01663745 -2.77946508 3.19429999
v -5.00737668 -2.94430765 3.19429999
v -4.99194198 -3.10570584 3.19429999
v -4.97033341 -3.26365966 3.19429999
v -4.94255100 -3.41816891 3.19429999
v -4.90859472 -3.56923398 3.19429999
v -4.86846451 -3.71685447 3.19429999
v -4.82216051 -3.86103059 3.19429999
v -4.76968254 -4.00176233 3.19429999
v -4.71103079 -4.13904970 3.19429999
v -4.64620517 -4.27289269 3.19429999
v -4.57520566 -4.40329111 3.19429999
v -4.49903959 -4.53024596 3.19429999
v -4.41871428 -4.65375644 3.19429999
v -4.33422972 -4.77382255 3.19429999
v -4.24558602 -4.89044418 3.19429999
v -4.15278307 -5.00362143 3.19429999
v -4.05582088 -5.11335421 3.19429999
v -3.95469965 -5.21964271 3.19429999
v -3.84941897 -5.32248674 3.19429999
v -3.73997925 -5.42188640 3.19429999
v -3.62638028 -5.51784158 3.19429999
v -3.50862207 -5.61035238 3.19429999
v -3.38670461 -5.69941881 3.19429999
v -3.26153693 -5.78494297 3.19429999
v -3.13402988 -5.86682785 3.19429999
v -3.00418346 -5.94507339 3.19429999
v -2.87199726 -6.01967959 3.19429999
v -2.73747169 -6.09064650 3.19429999
v -2.60060654 -6.15797412 3.19429999
v -2.46140181 -6.22166243 3.19429999
v -2.31985752 -6.28171143 3.19429999
v -2.17597364 -6.33812113 3.19429999
v -2.02975060 -6.39089150 3.19429999
v -1.88118757 -6.44002258 3.19429999
v -1.73028538 -6.48551435 3.19429999
v -1.57798594 -6.52736673 3.19429999
v -1.42523158 -6.56557976 3.19429999
v -1.27202271 -6.60015347 3.19429999
v -1.11835934 -6.63108783 3.19429999
v -0.96424104 -6.65838285 3.19429999
v -0.80966782 -6.68203855 3.19429999
v -0.65464010 -6.70205490 3.19429999
v -0.49915786 -6.71843191 3.19429999
v -0.34322071 -6.73116960 3.19429999
v -0.18682864 -6.74026794 3.19429999
v -0.02998205 -6.74572694 3.19429999
v 0.12731945 -6.74754661 3.19429999
v 0.30529248 -6.74575944 3.19429999
v 0.48047060 -6.74039791 3.19429999
v 0.65285343 -6.73146203 3.19429999
v 0.82244176 -6.71895181 3.19429999
v 0.98923479 -6.70286723 3.19429999
v 1.15323292 -6.68320830 3.19429999
v 1.31443533 -6.65997502 3.19429999
v 1.47284326 -6.63316739 3.19429999
v 1.62845669 -6.60278541 3.19429999
v 1.78127481 -6.56882908 3.19429999
v 1.93129764 -6.53129840 3.19429999
v 2.07852515 -6.49019336 3.19429999
v 2.22264055 -6.44577392 3.19429999
v 2.36331157 -6.39830003 3.19429999
v 2.50053740 -6.34777169 3.19429999
v 2.63431967 -6.29418888 3.19429999
v 2.76465676 -6.23755164 3.19429999
v 2.89154946 -6.17785993 3.19429999
v 3.01499780 -6.11511375 3.19429999
v 3.13500095 -6.04931314 3.19429999
v 3.25156053 -5.98045804 3.19429999
v 3.36467493 -5.90854855 3.19429999
v 3.47434496 -5.83358456 3.19429999
v 3.58057060 -5.75556612 3.19429999
v 3.68305212 -5.67465617 3.19429999
v 3.78150518 -5.59101656 3.19429999
v 3.87592897 -5.50464745 3.19429999
v 3.96632350 -5.41554873 3.19429999
v 4.05268957 -5.32372040 3.19429999
v 4.13502637 -5.22916247 3.19429999
v 4.21333471 -5.13187503 3.19429999
v 4.28761378 -5.03185799 3.19429999
v 4.35786359 -4.92911124 3.19429999
v 4.42408494 -4.82363499 3.19429999
v 4.48627702 -4.71542923 3.19429999
v 4.54443984 -4.60449376 3.19429999
v 4.59825575 -4.49108935 3.19429999
v 4.64739252 -4.37547555 3.19429999
v 4.69184851 -4.25765215 3.19429999
v 4.73162616 -4.13761914 3.19429999
v 4.76672304 -4.01537654 3.19429999
v 4.79714077 -3.89092435 3.19429999
v 4.82287934 -3.76426275 3.19429999
v 4.84393714 -3.63539135 3.19429999
v 4.86031661 -3.50431056 3.19429999
v 4.87201530 -3.37102017 3.19429999
v 4.87903483 -3.23552018 3.19429999
v 4.88137441 -3.09781059 3.19429999
v 4.87952225 -2.96637155 3.19429999
v 4.87396494 -2.83720750 3.19429999
v 4.86470331 -2.71031804 3.19429999
v 4.85173654 -2.58570317 3.19429999
v 4.83506463 -2.46336329 3.19429999
v 4.81468839 -2.34329759 3.19429999
v 4.79060702 -2.22550689 3.19429999
v 4.76282131 -2.10999117 3.19429999
v 4.73133047 -1.99674964 3.19429999
v 4.69613448 -1.88578310 3.19429999
v 4.65723417 -1.77709115 3.19429999
v 4.61462953 -1.67067419 3.19429999
v 4.56822958 -1.56629990 3.19429999
v 4.51792953 -1.46374608 3.19429999
v 4.46373099 -1.36301234 3.19429999
v 4.40563236 -1.26409867 3.19429999
v 4.34363442 -1.16700549 3.19429999
v 4.27773720 -1.07173198 3.19429999
v 4.20794069 -0.97827895 3.19429999
v 4.13424488 -0.88664599 3.19429999
v 4.05664897 -0.79683311 3.19429999
v 3.97515377 -0.70884072 3.19429999
v 3.88976009 -0.62266839 3.19429999
v 3.80046630 -0.53831615 3.19429999
v 3.70717574 -0.45555571 3.19429999
v 3.60979092 -0.37415961 3.19429999
v 3.50831266 -0.29412786 3.19429999
v 3.40274014 -0.21545965 3.19429999
v 3.29307418 -0.13815578 3.19429999
v 3.17931315 -0.06221625 3.19429999
v 3.06145868 0.01235933 3.19429999
v 2.93950994 0.08557098 3.19429999
v 2.81346777 0.15741868 3.19429999
v 2.68333052 0.22790204 3.19429999
v 2.54909983 0.29702146 3.19429999
v 2.41077570 0.36477653 3.19429999
v 2.26818672 0.43132282 3.19429999
v 2.12118016 0.49682930 3.19429999
v 1.96975440 0.56129516 3.19429999
v 1.81390945 0.62472120 3.19429999
v 1.65364611 0.68710825 3.19429999
v 1.48896439 0.74845467 3.19429999
v 1.31986347 0.80876129 3.19429999
v 1.14634335 0.86802809 3.19429999
v 0.96840526 0.92625426 3.19429999
v 0.78604796 0.98344144 3.19429999
v 0.59927188 1.03958800 3.19429999
v 0.40807700 1.09469555 3.19429999
v 3.04484769 3.26152155 3.19429999
v 3.04712228 3.13483111 3.19429999
v 4.84393714 3.13483111 3.19429999
v 4.84003785 3.31176230 3.19429999
v 4.82833998 3.48693880 3.19429999
v 4.80884270 3.66035981 3.19429999
v 4.78154685 3.83202614 3.19429999
v 4.74645241 4.00193698 3.19429999
v 4.70355857 4.17009313 3.19429999
v 4.65286615 4.33649379 3.19429999
v 4.59437515 4.50113977 3.19429999
v 4.52808475 4.66403026 3.19429999
v 4.45399657 4.82516606 3.19429999
v 4.37210900 4.98454637 3.19429999
v 4.28242204 5.14217200 3.19429999
v 4.18529474 5.29645642 3.19429999
v 4.08108454 5.44580174 3.19429999
v 3.96979062 5.59020715 3.19429999
v 3.85141380 5.72967183 3.19429999
v 3.72595408 5.86419740 3.19429999
v 3.59341146 5.99378224 3.19429999
v 3.45378594 6.11842799 3.19429999
v 3.30707670 6.23813381 3.19429999
v 3.15328538 6.35289891 3.19429999
v 2.99241034 6.46272491 3.19429999
v 2.82445159 6.56761018 3.19429999
v 2.64941074 6.66755634 3.19429999
v 2.46760463 6.76097769 3.19429999
v 2.27936387 6.84627470 3.19429999
v 2.08469091 6.92344900 3.19429999
v 1.88358330 6.99249978 3.19429999
v 1.67604267 7.05342621 3.19429999
v 1.46206821 7.10622994 3.19429999
v 1.24166073 7.15090932 3.19429999
v 1.01481902 7.18746519 3.19429999
v 0.78154387 7.21589752 3.19429999
v 0.54183531 7.23620634 3.19429999
v 0.29569331 7.24839162 3.19429999
v 0.04311749 7.25245339 3.19429999
v -0.13020361 7.25050374 3.19429999
v -0.30079560 7.24465643 3.19429999
v -0.46865890 7.23490982 3.19429999
v -0.63379310 7.22126392 3.19429999
v -0.79619821 7.20371874 3.19429999
v -0.95587421 7.18227588 3.19429999
v -1.11282153 7.15693211 3.19429999
v -1.26703934 7.12769229 3.19429999
v -1.41852846 7.09455156 3.19429999
v -1.56728888 7.05751316 3.19429999
v -1.71331980 7.01657547 3.19429999
v -1.85662203 6.97173848 3.19429999
v -1.99689906 6.92341894 3.19429999
v -2.13386169 6.87204333 3.19429999
v -2.26750952 6.81761409 3.19429999
v -2.39784335 6.76012959 3.19429999
v -2.52486279 6.69959065 3.19429999
v -2.64856783 6.63599645 3.19429999
v -2.76895847 6.56934780 3.19429999
v -2.88603471 6.49964470 3.19429999
v -2.99979655 6.42688716 3.19429999
v -3.11024400 6.35107437 3.19429999
v -3.21737705 6.27220713 3.19429999
v -3.32119590 6.19028544 3.19429999
v -3.42137521 6.10564075 3.19429999
v -3.51759024 6.01859149 3.19429999
v -3.60984099 5.92913767 3.19429999
v -3.69812746 5.83727929 3.19429999
v -3.78244965 5.74301715 3.19429999
v -3.86280755 5.64634964 3.19429999
v -3.93920098 5.54727757 3.19429999
v -4.01163033 5.44580012 3.19429999
v -4.08009519 5.34191892 3.19429999
v -4.14459588 5.23563316 3.19429999
v -4.20513219 5.12694283 3.19429999
v -4.26170421 5.01584794 3.19429999
v -4.31401951 4.90269861 3.19429999
v -4.36178573 4.78786121 3.19429999
v -4.40500268 4.67133412 3.19429999
v -4.44367046 4.55311896 3.19429999
v -4.47778916 4.43321492 3.19429999
v -4.50735869 4.31162200 3.19429999
v -4.53237905 4.18833938 3.19429999
v -4.55285023 4.06336870 3.19429999
v -4.56877234 3.93670914 3.19429999
v -4.58014517 3.80836069 3.19429999
v -4.58696893 3.67832337 3.19429999
v -4.58924352 3.54659716 3.19429999
v -4.58709891 3.41525438 3.19429999
v -4.58066518 3.28638116 3.19429999
v -4.56994223 3.15997830 3.19429999
v -4.55493005 3.03604418 3.19429999
v -4.53562876 2.91458042 3.19429999
v -4.51203835 2.79558540 3.19429999
v -4.48415872 2.67906075 3.19429999
v -4.45198986 2.56500564 3.19429999
v -4.41553189 2.45342009 3.19429999
v -4.37478469 2.34430409 3.19429999
v -4.32974838 2.23765846 3.19429999
v -4.28042284 2.13348156 3.19429999
v -4.22706733 2.03151507 3.19429999
v -4.16994250 1.93149824 3.19429999
v -4.10904835 1.83343023 3.19429999
v -4.04438499 1.73731268 3.19429999
v -3.97595201 1.64314478 3.19429999
v -3.90374992 1.55092653 3.19429999
v -3.82777851 1.46065792 3.19429999
v -3.74803758 1.37233895 3.19429999
v -3.66452754 1.28597045 3.19429999
v -3.57724798 1.20155078 3.19429999
v -3.48619911 1.11908075 3.19429999
v -3.39138092 1.03856118 3.19429999
v -3.29305418 0.95976299 3.19429999
v -3.19147783 0.88246034 3.19429999
v -3.08665227 0.80665242 3.19429999
v -2.97857709 0.73233841 3.19429999
v -2.86725251 0.65951995 3.19429999
v -2.75267852 0.58819621 3.19429999
v -2.63485512 0.51836801 3.19429999
v -2.51378230 0.45003373 3.19429999
v -2.38946008 0.38319418 3.19429999
v -2.26188845 0.31785017 3.19429999
v -2.13106720 0.25400049 3.19429999
v -1.99699655 0.19164553 3.19429999
v -1.85993481 0.13052534 3.19429999
v -1.72014357 0.07037917 3.19429999
v -1.57762363 0.01120742 3.19429999
v -1.43237460 -0.04698992 3.19429999
v -1.28439647 -0.10421325 3.19429999
v -1.13368924 -0.16046216 3.19429999
v -0.98025291 -0.21573706 3.19429999
v -0.82408749 -0.27003714 3.19429999
v -0.66519337 -0.32336362 3.19429999
v -0.50356975 -0.37571527 3.19429999
v -0.33921703 -0.42709291 3.19429999
v -0.17213562 -0.47749653 3.19429999
v -3.21539206 -2.83954667 3.19429999
v 3.03802474 3.38580823 3.19429999
v -3.20596898 -2.94953961 3.19429999
v 3.02665262 3.50769116 3.19429999
v -0.01379065 -0.52422427 3.19429999
v -3.19277637 -3.05673764 3.19429999
v 3.01073132 3.62716953 3.19429999
v 0.13994016 -0.57082203 3.19429999
v -3.17581466 -3.16114118 3.19429999
v 0.26936253 1.13381764 3.19429999
v 2.99026085 3.74424415 3.19429999
v 0.28905720 -0.61728981 3.19429999
v -3.15508383 -3.26275044 3.19429999
v 2.96524202 3.85891501 3.19429999
v -3.13058348 -3.36156500 3.19429999
v 0.13396246 1.17319967 3.19429999
v 2.93567402 3.97118131 3.19429999
v 0.43356050 -0.66362721 3.19429999
v -3.10231381 -3.45758526 3.19429999
v 0.00187638 1.21284166 3.19429999
v 2.90155684 4.08104387 3.19429999
v 0.57344963 -0.70983463 3.19429999
v -3.07027504 -3.55081104 3.19429999
v -0.12689489 1.25274442 3.19429999
v 2.86289129 4.18850267 3.19429999
v 0.70872460 -0.75591167 3.19429999
v -3.03446695 -3.64124232 3.19429999
v -0.25235177 1.29290794 3.19429999
v 2.81967658 4.29355772 3.19429999
v 0.83938540 -0.80185873 3.19429999
v -2.99488954 -3.72887911 3.19429999
v -0.37449465 1.33333060 3.19429999
v 2.77191269 4.39620820 3.19429999
v 0.96543245 -0.84767582 3.19429999
v -2.95154302 -3.81372141 3.19429999
v -0.49332273 1.37401484 3.19429999
v 2.71960044 4.49645412 3.19429999
v 1.08686534 -0.89336252 3.19429999
v -2.90491378 -3.89596337 3.19429999
v -0.60883682 1.41495821 3.19429999
v 2.66266671 4.59374471 3.19429999
v 1.20368488 -0.93891884 3.19429999
v -2.85549005 -3.97580117 3.19429999
v -0.72103611 1.45616236 3.19429999
v 2.60105465 4.68752431 3.19429999
v 1.31589026 -0.98434560 3.19429999
v -2.80327183 -4.05323420 3.19429999
v -0.82992140 1.49762645 3.19429999
v 2.53476506 4.77779535 3.19429999
v 1.42348147 -1.02964197 3.19429999
v -2.74825912 -4.12826287 3.19429999
v -0.93549188 1.53935132 3.19429999
v 2.46379632 4.86455622 3.19429999
v 1.52687363 -1.07506790 3.19429999
v -2.69045191 -4.20088698 3.19429999
v -1.03774838 1.58133613 3.19429999
v 2.38814843 4.94780773 3.19429999
v 1.62649811 -1.12088418 3.19429999
v -2.62985021 -4.27110673 3.19429999
v -1.13685904 1.62377586 3.19429999
v 2.30782302 5.02754988 3.19429999
v 1.72235326 -1.16708998 3.19429999
v -2.56645422 -4.33892192 3.19429999
v -1.23297984 1.66686547 3.19429999
v 2.22281845 5.10378185 3.19429999
v 1.81443992 -1.21368570 3.19429999
v -2.50026354 -4.40433275 3.19429999
v -1.32611077 1.71060416 3.19429999
v 2.13313636 5.17650446 3.19429999
v 1.90275807 -1.26067095 3.19429999
v -2.43127856 -4.46733901 3.19429999
v -1.41625224 1.75499272 3.19429999
v -2.35949910 -4.52794071 3.19429999
v -1.50340345 1.80003036 3.19429999
v 2.03877512 5.24571770 3.19429999
v -2.28492473 -4.58613805 3.19429999
v -1.58756520 1.84571787 3.19429999
v 1.93973554 5.31142077 3.19429999
v -1.66873709 1.89205446 3.19429999
v 1.83601762 5.37361529 3.19429999
v -2.20755628 -4.64193103 3.19429999
v -1.74691911 1.93904093 3.19429999
v 1.72762137 5.43229963 3.19429999
v -2.12788075 -4.69531863 3.19429999
v -1.82211127 1.98667728 3.19429999
v 1.61440868 5.48685642 3.19429999
v -2.04638595 -4.74630167 3.19429999
v -1.89431357 2.03496270 3.19429999
v 1.49625769 5.53666987 3.19429999
v -1.96307149 -4.79488015 3.19429999
v -1.96352600 2.08389719 3.19429999
v 1.37316842 5.58173919 3.19429999
v -1.87793735 -4.84105406 3.19429999
v -2.02974897 2.13348156 3.19429999
v 1.24514004 5.62206436 3.19429999
v -1.79098355 -4.88482361 3.19429999
v 1.11217256 5.65764540 3.19429999
v -1.70221088 -4.92618850 3.19429999
v 0.97426679 5.68848230 3.19429999
v -1.61161815 -4.96514882 3.19429999
v 0.83142191 5.71457507 3.19429999
v -1.51920614 -5.00170468 3.19429999
v 0.68363874 5.73592369 3.19429999
v -1.42497447 -5.03585598 3.19429999
v 0.53091648 5.75252818 3.19429999
v -1.32892354 -5.06760272 3.19429999
v 0.37325551 5.76438852 3.19429999
v -1.23105294 -5.09694499 3.19429999
v 0.21065585 5.77150392 3.19429999
v -1.13136266 -5.12388260 3.19429999
v 0.04311749 5.77387599 3.19429999
v -1.03039943 -5.14854572 3.19429999
v -0.11519458 5.77186135 3.19429999
v -0.92872214 -5.17106424 3.19429999
v -0.26882790 5.76581745 3.19429999
v -0.82633080 -5.19143814 3.19429999
v -0.41778167 5.75574347 3.19429999
v -0.72322580 -5.20966733 3.19429999
v -0.56205588 5.74164021 3.19429999
v -0.61940675 -5.22575201 3.19429999
v -0.70165134 5.72350688 3.19429999
v -0.51487323 -5.23969198 3.19429999
v -0.83656725 5.70134428 3.19429999
v -0.40962606 -5.25148744 3.19429999
v -0.96680360 5.67515241 3.19429999
v -0.30366523 -5.26113819 3.19429999
v -1.09236081 5.64493046 3.19429999
v -0.19698995 -5.26864432 3.19429999
v -1.21323886 5.61067924 3.19429999
v -0.08960101 -5.27400585 3.19429999
v -1.32943776 5.57239876 3.19429999
v 0.01850239 -5.27722277 3.19429999
v -1.44095710 5.53008819 3.19429999
v 0.12731945 -5.27829507 3.19429999
v -1.54779730 5.48374835 3.19429999
v 0.28284027 -5.27647540 3.19429999
v -1.65005623 5.43397146 3.19429999
v 0.43433183 -5.27101639 3.19429999
v -1.74783098 5.38133345 3.19429999
v 0.58179371 -5.26191794 3.19429999
v -1.84112194 5.32583597 3.19429999
v 0.72522591 -5.24918015 3.19429999
v 0.86462885 -5.23280293 3.19429999
v -1.92992832 5.26747819 3.19429999
v 1.00000211 -5.21278636 3.19429999
v -2.01425051 5.20626011 3.19429999
v 1.13134570 -5.18913045 3.19429999
v -2.09408851 5.14218256 3.19429999
v 1.25866002 -5.16183520 3.19429999
v -2.16944233 5.07524390 3.19429999
v 1.38194426 -5.13090051 3.19429999
v -2.24031196 5.00544577 3.19429999
v 1.50119923 -5.09632649 3.19429999
v -2.30669740 4.93278815 3.19429999
v -2.36859866 4.85726942 3.19429999
v 1.61642494 -5.05811312 3.19429999
v -2.42601554 4.77889122 3.19429999
v 1.72762137 -5.01626031 3.19429999
v -2.47894842 4.69765272 3.19429999
v 1.83462525 -4.97102883 3.19429999
v -2.52752690 4.61401615 3.19429999
v 1.93727493 -4.92267782 3.19429999
v -2.57188135 4.52842913 3.19429999
v 2.03557039 -4.87120736 3.19429999
v -2.61201156 4.44089246 3.19429999
v 2.12951165 -4.81661748 3.19429999
v -2.64791734 4.35140452 3.19429999
v 2.21909788 -4.75890816 3.19429999
v -2.67959908 4.25996694 3.19429999
v 2.30433072 -4.69807921 3.19429999
v -2.70705660 4.16657890 3.19429999
v 2.38520853 -4.63413102 3.19429999
v -2.73028968 4.07124121 3.19429999
v 2.46173295 -4.56706320 3.19429999
v -2.74929873 3.97395225 3.19429999
v 2.53390234 -4.49687594 3.19429999
v -2.76408354 3.87471364 3.19429999
v 2.60171753 -4.42356925 3.19429999
v -2.77464412 3.77352377 3.19429999
v 2.66517851 -4.34714293 3.19429999
v -2.78098047 3.67038424 3.19429999
v 2.72428527 -4.26759737 3.19429999
v -2.78309259 3.56529508 3.19429999
v 2.77884287 -4.18525712 3.19429999
v -2.78182532 3.49410294 3.19429999
v 2.82865632 -4.10044732 3.19429999
v -2.77802351 3.42401560 3.19429999
v 2.87372483 -4.01316816 3.19429999
v -2.77168716 3.35503225 3.19429999
v 2.91405000 -3.92341926 3.19429999
v -2.76281607 3.28715370 3.19429999
v 2.94963104 -3.83120100 3.19429999
v -2.75141064 3.22037995 3.19429999
v 2.98046794 -3.73651299 3.19429999
v -2.73747047 3.15471019 3.19429999
v 3.00656071 -3.63935543 3.19429999
v -2.72099596 3.09014441 3.19429999
v 3.02790933 -3.53972852 3.19429999
v -2.70198671 3.02668344 3.19429999
v 3.04451381 -3.43763186 3.19429999
v -2.68044292 2.96432726 3.19429999
v 3.05637416 -3.33306584 3.19429999
v -2.65636459 2.90307507 3.19429999
v 3.06349037 -3.22603007 3.19429999
v -2.62975171 2.84292687 3.19429999
v 3.06586244 -3.11652475 3.19429999
v -2.60060430 2.78388346 3.19429999
v 3.06485512 -3.03772697 3.19429999
v -2.56876049 2.72574989 3.19429999
v 3.06183317 -2.96042351 3.19429999
v -2.53405720 2.66833201 3.19429999
v 3.05679577 -2.88461436 3.19429999
v -2.49649443 2.61162818 3.19429999
v 3.04974455 -2.81029995 3.19429999
v -2.45607197 2.55564003 3.19429999
v 3.04067789 -2.73747986 3.19429999
v -2.41279003 2.50036757 3.19429999
v 3.02959659 -2.66615409 3.19429999
v -2.36664861 2.44580997 3.19429999
v 3.01650065 -2.59632306 3.19429999
v -2.31764751 2.39196725 3.19429999
v 3.00138927 -2.52798634 3.19429999
v -2.26578693 2.33883940 3.19429999
v 2.98426407 -2.46114394 3.19429999
v -2.21106686 2.28642723 3.19429999
v 2.96512342 -2.39579628 3.19429999
v -2.15348691 2.23473074 3.19429999
v 2.94396813 -2.33194294 3.19429999
v -2.09304789 2.18374831 3.19429999
v 2.92079822 -2.26958391 3.19429999
v 2.89512707 -2.20846414 3.19429999
v 2.86646564 -2.14831878 3.19429999
v 1.98730690 -1.30804654 3.19429999
v 2.83481558 -2.08914865 3.19429999
v 2.06808724 -1.35581165 3.19429999
v 2.80017687 -2.03095334 3.19429999
v 2.76254870 -1.97373245 3.19429999
v 2.14509907 -1.40396668 3.19429999
v 2.72193189 -1.91748678 3.19429999
v 2.21834239 -1.45251124 3.19429999
v 2.67832643 -1.86221595 3.19429999
v 2.28781721 -1.50144573 3.19429999
v 2.63173070 -1.80791993 3.19429999
v 2.35352272 -1.55077015 3.19429999
v 2.58214715 -1.75459874 3.19429999
v 2.41546054 -1.60048450 3.19429999
v 2.52957332 -1.70225277 3.19429999
v 2.47401165 -1.65088123 3.19429999
f 1 2 3
f 4 5 1
f 6 7 4
f 8 9 6
f 10 11 8
f 12 13 10
f 14 15 12
f 16 17 14
f 18 19 16
f 20 21 18
f 22 23 20
f 24 25 22
f 26 27 24
f 28 29 26
f 30 31 28
f 32 33 30
f 34 35 32
f 36 37 34
f 38 39 36
f 40 41 38
f 42 43 40
f 44 45 42
f 46 47 44
f 48 49 46
f 50 51 48
f 52 53 50
f 54 55 52
f 56 57 54
f 58 59 56
f 60 61 58
f 62 63 60
f 64 65 62
f 66 67 64
f 68 69 66
f 70 71 68
f 72 73 70
f 74 75 72
f 76 77 74
f 78 79 76
f 80 81 78
f 82 83 80
f 84 85 82
f 86 87 84
f 88 89 86
f 90 91 88
f 92 93 90
f 94 95 92
f 96 97 94
f 98 99 96
f 100 101 98
f 102 103 100
f 104 105 102
f 106 107 104
f 108 109 106
f 110 111 108
f 112 113 110
f 114 115 112
f 116 117 114
f 118 119 116
f 120 121 118
f 122 123 120
f 124 125 122
f 126 127 124
f 128 129 126
f 130 131 128
f 132 133 130
f 134 135 132
f 136 137 134
f 138 139 136
f 140 141 138
f 142 143 140
f 144 145 142
f 146 147 144
f 148 149 150
f 151 152 148
f 153 154 151
f 155 156 153
f 157 158 155
f 159 160 157
f 161 162 159
f 163 164 161
f 165 166 163
f 167 168 165
f 169 170 167
f 171 172 169
f 173 174 171
f 175 176 173
f 177 178 175
f 179 180 177
f 181 182 179
f 183 184 181
f 185 186 183
f 187 188 185
f 189 190 187
f 191 192 189
f 193 194 191
f 195 196 193
f 197 198 195
f 199 200 197
f 201 202 199
f 203 204 201
f 205 206 203
f 207 208 205
f 209 210 207
f 211 212 209
f 213 214 211
f 215 216 213
f 217 218 215
f 219 220 217
f 221 222 219
f 223 224 221
f 225 226 223
f 227 228 225
f 229 230 227
f 231 232 229
f 233 234 231
f 235 236 233
f 237 238 235
f 239 240 237
f 241 242 239
f 243 244 241
f 245 246 243
f 247 248 245
f 249 250 247
f 251 252 249
f 253 254 251
f 255 256 253
f 257 258 255
f 259 260 257
f 261 262 259
f 263 264 261
f 265 266 263
f 267 268 265
f 269 270 267
f 271 272 269
f 273 274 271
f 275 276 273
f 277 278 275
f 279 280 277
f 281 282 279
f 1 3 283
f 6 4 1
f 10 8 6
f 14 12 10
f 18 16 14
f 22 20 18
f 26 24 22
f 30 28 26
f 34 32 30
f 38 36 34
f 42 40 38
f 46 44 42
f 50 48 46
f 54 52 50
f 58 56 54
f 62 60 58
f 66 64 62
f 70 68 66
f 74 72 70
f 78 76 74
f 82 80 78
f 86 84 82
f 90 88 86
f 94 92 90
f 98 96 94
f 102 100 98
f 106 104 102
f 110 108 106
f 114 112 110
f 118 116 114
f 122 120 118
f 126 124 122
f 130 128 126
f 134 132 130
f 138 136 134
f 142 140 138
f 146 144 142
f 148 150 284
f 153 151 148
f 157 155 153
f 161 159 157
f 165 163 161
f 169 167 165
f 173 171 169
f 177 175 173
f 181 179 177
f 185 183 181
f 189 187 185
f 193 191 189
f 197 195 193
f 201 199 197
f 205 203 201
f 209 207 205
f 213 211 209
f 217 215 213
f 221 219 217
f 225 223 221
f 229 227 225
f 233 231 229
f 237 235 233
f 241 239 237
f 245 243 241
f 249 247 245
f 253 251 249
f 257 255 253
f 261 259 257
f 265 263 261
f 269 267 265
f 273 271 269
f 277 275 273
f 281 279 277
f 1 283 285
f 10 6 1
f 18 14 10
f 26 22 18
f 34 30 26
f 42 38 34
f 50 46 42
f 58 54 50
f 66 62 58
f 74 70 66
f 82 78 74
f 90 86 82
f 98 94 90
f 106 102 98
f 114 110 106
f 122 118 114
f 130 126 122
f 138 134 130
f 146 142 138
f 148 284 286
f 157 153 148
f 165 161 157
f 173 169 165
f 181 177 173
f 189 185 181
f 197 193 189
f 205 201 197
f 213 209 205
f 221 217 213
f 229 225 221
f 237 233 229
f 245 241 237
f 253 249 245
f 261 257 253
f 269 265 261
f 277 273 269
f 287 281 277
f 1 285 288
f 18 10 1
f 34 26 18
f 50 42 34
f 66 58 50
f 82 74 66
f 98 90 82
f 114 106 98
f 130 122 114
f 146 138 130
f 148 286 289
f 165 157 148
f 181 173 165
f 197 189 181
f 213 205 197
f 229 221 213
f 245 237 229
f 261 253 245
f 277 269 261
f 290 287 277
f 1 288 291
f 34 18 1
f 66 50 34
f 98 82 66
f 130 114 98
f 292 146 130
f 148 289 293
f 181 165 148
f 213 197 181
f 245 229 213
f 277 261 245
f 294 290 277
f 1 291 295
f 292 130 98
f 148 293 296
f 294 277 245
f 1 295 297
f 298 292 98
f 148 296 299
f 300 294 245
f 1 297 301
f 302 298 98
f 148 299 303
f 304 300 245
f 1 301 305
f 306 302 98
f 148 303 307
f 308 304 245
f 1 305 309
f 310 306 98
f 148 307 311
f 312 308 245
f 1 309 313
f 314 310 98
f 148 311 315
f 316 312 245
f 1 313 317
f 318 314 98
f 148 315 319
f 320 316 245
f 1 317 321
f 322 318 98
f 148 319 323
f 324 320 245
f 1 321 325
f 326 322 98
f 148 323 327
f 328 324 245
f 1 325 329
f 330 326 98
f 148 327 331
f 332 328 245
f 1 329 333
f 334 330 98
f 148 331 335
f 336 332 245
f 1 333 337
f 338 334 98
f 148 335 339
f 340 336 245
f 1 337 341
f 342 338 98
f 148 339 343
f 344 340 245
f 1 341 345
f 346 342 98
f 148 343 347
f 348 344 245
f 1 345 349
f 350 346 98
f 148 347 351
f 352 348 245
f 1 349 353
f 354 350 98
f 181 148 351
f 1 353 355
f 356 354 98
f 181 351 357
f 1 355 358
f 359 356 98
f 181 357 360
f 34 1 358
f 361 359 98
f 181 360 362
f 34 358 363
f 364 361 98
f 181 362 365
f 34 363 366
f 367 364 98
f 181 365 368
f 34 366 369
f 370 367 98
f 181 368 371
f 34 369 372
f 373 370 98
f 181 371 374
f 34 372 375
f 376 373 98
f 181 374 377
f 34 375 378
f 181 377 379
f 34 378 380
f 181 379 381
f 34 380 382
f 181 381 383
f 34 382 384
f 181 383 385
f 34 384 386
f 181 385 387
f 34 386 388
f 181 387 389
f 34 388 390
f 181 389 391
f 34 390 392
f 181 391 393
f 34 392 394
f 181 393 395
f 34 394 396
f 181 395 397
f 34 396 398
f 181 397 399
f 34 398 400
f 181 399 401
f 34 400 402
f 181 401 403
f 34 402 404
f 181 403 405
f 34 404 406
f 181 405 407
f 34 406 408
f 181 407 409
f 34 408 410
f 181 409 411
f 34 410 412
f 181 411 413
f 34 412 414
f 181 413 415
f 34 414 416
f 181 415 417
f 34 416 418
f 181 417 419
f 34 418 420
f 181 419 421
f 34 420 422
f 181 421 423
f 34 422 424
f 213 181 423
f 34 424 425
f 213 423 426
f 34 425 427
f 213 426 428
f 34 427 429
f 213 428 430
f 34 429 431
f 213 430 432
f 34 431 433
f 213 432 434
f 34 433 435
f 213 434 436
f 66 34 435
f 213 436 437
f 66 435 438
f 213 437 439
f 66 438 440
f 213 439 441
f 66 440 442
f 213 441 443
f 66 442 444
f 213 443 445
f 66 444 446
f 213 445 447
f 66 446 448
f 213 447 449
f 66 448 450
f 213 449 451
f 66 450 452
f 213 451 453
f 66 452 454
f 213 453 455
f 66 454 456
f 213 455 457
f 66 456 458
f 213 457 459
f 66 458 460
f 213 459 461
f 66 460 462
f 213 461 463
f 66 462 464
f 213 463 465
f 66 464 466
f 213 465 467
f 66 466 468
f 213 467 469
f 66 468 470
f 213 469 471
f 66 470 472
f 213 471 473
f 66 472 474
f 213 473 475
f 66 474 476
f 213 475 477
f 66 476 478
f 213 477 479
f 66 478 480
f 213 479 481
f 66 480 482
f 213 481 483
f 98 66 482
f 245 213 483
f 98 482 484
f 245 483 485
f 98 484 486
f 245 485 487
f 98 486 488
f 245 487 489
f 98 488 490
f 245 489 491
f 98 490 492
f 245 491 493
f 98 492 494
f 245 493 495
f 98 494 496
f 245 495 497
f 98 496 498
f 245 497 499
f 98 498 500
f 245 499 501
f 98 500 502
f 245 501 503
f 98 502 504
f 245 503 505
f 98 504 506
f 245 505 507
f 98 506 508
f 245 507 509
f 98 508 510
f 245 509 511
f 98 510 512
f 245 511 376
f 98 512 513
f 352 245 376
f 98 513 514
f 515 352 376
f 98 514 516
f 517 515 376
f 98 516 518
f 517 376 98
f 98 518 519
f 520 517 98
f 98 519 521
f 522 520 98
f 98 521 523
f 524 522 98
f 98 523 525
f 526 524 98
f 98 525 527
f 528 526 98
f 98 527 529
f 530 528 98
f 98 529 530
f 531 532 533
f 533 534 535
f 535 536 537
f 537 538 539
f 539 540 541
f 541 542 543
f 543 544 545
f 545 546 547
f 547 548 549
f 549 550 551
f 551 552 553
f 553 554 555
f 555 556 557
f 557 558 559
f 559 560 561
f 561 562 563
f 563 564 565
f 565 566 567
f 567 568 569
f 569 570 571
f 571 572 573
f 573 574 575
f 575 576 577
f 577 578 579
f 579 580 581
f 581 582 583
f 583 584 585
f 585 586 587
f 587 588 589
f 589 590 591
f 591 592 593
f 593 594 595
f 595 596 597
f 597 598 599
f 599 600 601
f 601 602 603
f 603 604 605
f 605 606 607
f 607 608 609
f 609 610 611
f 611 612 613
f 613 614 615
f 615 616 617
f 617 618 619
f 619 620 621
f 621 622 623
f 623 624 625
f 625 626 627
f 627 628 629
f 629 630 631
f 631 632 633
f 633 634 635
f 635 636 637
f 637 638 639
f 639 640 641
f 641 642 643
f 643 644 645
f 645 646 647
f 647 648 649
f 649 650 651
f 651 652 653
f 653 654 655
f 655 656 657
f 657 658 659
f 659 660 661
f 661 662 663
f 663 664 665
f 665 666 667
f 667 668 669
f 669 670 671
f 671 672 673
f 673 674 675
f 675 676 677
f 678 679 680
f 680 681 682
f 682 683 684
f 684 685 686
f 686 687 688
f 688 689 690
f 690 691 692
f 692 693 694
f 694 695 696
f 696 697 698
f 698 699 700
f 700 701 702
f 702 703 704
f 704 705 706
f 706 707 708
f 708 709 710
f 710 711 712
f 712 713 714
f 714 715 716
f 716 717 718
f 718 719 720
f 720 721 722
f 722 723 724
f 724 725 726
f 726 727 728
f 728 729 730
f 730 731 732
f 732 733 734
f 734 735 736
f 736 737 738
f 738 739 740
f 740 741 742
f 742 743 744
f 744 745 746
f 746 747 748
f 748 749 750
f 750 751 752
f 752 753 754
f 754 755 756
f 756 757 758
f 758 759 760
f 760 761 762
f 762 763 764
f 764 765 766
f 766 767 768
f 768 769 770
f 770 771 772
f 772 773 774
f 774 775 776
f 776 777 778
f 778 779 780
f 780 781 782
f 782 783 784
f 784 785 786
f 786 787 788
f 788 789 790
f 790 791 792
f 792 793 794
f 794 795 796
f 796 797 798
f 798 799 800
f 800 801 802
f 802 803 804
f 804 805 806
f 806 807 808
f 808 809 810
f 810 811 812
f 813 531 533
f 533 535 537
f 537 539 541
f 541 543 545
f 545 547 549
f 549 551 553
f 553 555 557
f 557 559 561
f 561 563 565
f 565 567 569
f 569 571 573
f 573 575 577
f 577 579 581
f 581 583 585
f 585 587 589
f 589 591 593
f 593 595 597
f 597 599 601
f 601 603 605
f 605 607 609
f 609 611 613
f 613 615 617
f 617 619 621
f 621 623 625
f 625 627 629
f 629 631 633
f 633 635 637
f 637 639 641
f 641 643 645
f 645 647 649
f 649 651 653
f 653 655 657
f 657 659 661
f 661 663 665
f 665 667 669
f 669 671 673
f 673 675 677
f 814 678 680
f 680 682 684
f 684 686 688
f 688 690 692
f 692 694 696
f 696 698 700
f 700 702 704
f 704 706 708
f 708 710 712
f 712 714 716
f 716 718 720
f 720 722 724
f 724 726 728
f 728 730 732
f 732 734 736
f 736 738 740
f 740 742 744
f 744 746 748
f 748 750 752
f 752 754 756
f 756 758 760
f 760 762 764
f 764 766 768
f 768 770 772
f 772 774 776
f 776 778 780
f 780 782 784
f 784 786 788
f 788 790 792
f 792 794 796
f 796 798 800
f 800 802 804
f 804 806 808
f 808 810 812
f 815 813 533
f 533 537 541
f 541 545 549
f 549 553 557
f 557 561 565
f 565 569 573
f 573 577 581
f 581 585 589
f 589 593 597
f 597 601 605
f 605 609 613
f 613 617 621
f 621 625 629
f 629 633 637
f 637 641 645
f 645 649 653
f 653 657 661
f 661 665 669
f 669 673 677
f 816 814 680
f 680 684 688
f 688 692 696
f 696 700 704
f 704 708 712
f 712 716 720
f 720 724 728
f 728 732 736
f 736 740 744
f 744 748 752
f 752 756 760
f 760 764 768
f 768 772 776
f 776 780 784
f 784 788 792
f 792 796 800
f 800 804 808
f 808 812 817
f 818 815 533
f 533 541 549
f 549 557 565
f 565 573 581
f 581 589 597
f 597 605 613
f 613 621 629
f 629 637 645
f 645 653 661
f 661 669 677
f 819 816 680
f 680 688 696
f 696 704 712
f 712 720 728
f 728 736 744
f 744 752 760
f 760 768 776
f 776 784 792
f 792 800 808
f 808 817 820
f 821 818 533
f 533 549 565
f 565 581 597
f 597 613 629
f 629 645 661
f 661 677 822
f 823 819 680
f 680 696 712
f 712 728 744
f 744 760 776
f 776 792 808
f 808 820 824
f 825 821 533
f 629 661 822
f 826 823 680
f 776 808 824
f 827 825 533
f 629 822 828
f 829 826 680
f 776 824 830
f 831 827 533
f 629 828 832
f 833 829 680
f 776 830 834
f 835 831 533
f 629 832 836
f 837 833 680
f 776 834 838
f 839 835 533
f 629 836 840
f 841 837 680
f 776 838 842
f 843 839 533
f 629 840 844
f 845 841 680
f 776 842 846
f 847 843 533
f 629 844 848
f 849 845 680
f 776 846 850
f 851 847 533
f 629 848 852
f 853 849 680
f 776 850 854
f 855 851 533
f 629 852 856
f 857 853 680
f 776 854 858
f 859 855 533
f 629 856 860
f 861 857 680
f 776 858 862
f 863 859 533
f 629 860 864
f 865 861 680
f 776 862 866
f 867 863 533
f 629 864 868
f 869 865 680
f 776 866 870
f 871 867 533
f 629 868 872
f 873 869 680
f 776 870 874
f 875 871 533
f 629 872 876
f 877 873 680
f 776 874 878
f 879 875 533
f 629 876 880
f 881 877 680
f 776 878 882
f 883 879 533
f 629 880 884
f 881 680 712
f 885 883 533
f 629 884 886
f 887 881 712
f 888 885 533
f 629 886 889
f 890 887 712
f 888 533 565
f 629 889 891
f 892 890 712
f 893 888 565
f 629 891 894
f 895 892 712
f 896 893 565
f 629 894 897
f 898 895 712
f 899 896 565
f 629 897 900
f 901 898 712
f 902 899 565
f 629 900 903
f 904 901 712
f 905 902 565
f 629 903 906
f 907 904 712
f 908 905 565
f 909 907 712
f 910 908 565
f 911 909 712
f 912 910 565
f 913 911 712
f 914 912 565
f 915 913 712
f 916 914 565
f 917 915 712
f 918 916 565
f 919 917 712
f 920 918 565
f 921 919 712
f 922 920 565
f 923 921 712
f 924 922 565
f 925 923 712
f 926 924 565
f 927 925 712
f 928 926 565
f 929 927 712
f 930 928 565
f 931 929 712
f 932 930 565
f 933 931 712
f 934 932 565
f 935 933 712
f 936 934 565
f 937 935 712
f 938 936 565
f 939 937 712
f 940 938 565
f 941 939 712
f 942 940 565
f 943 941 712
f 944 942 565
f 945 943 712
f 946 944 565
f 947 945 712
f 948 946 565
f 949 947 712
f 950 948 565
f 951 949 712
f 952 950 565
f 953 951 712
f 954 952 565
f 953 712 744
f 955 954 565
f 956 953 744
f 957 955 565
f 958 956 744
f 959 957 565
f 960 958 744
f 961 959 565
f 962 960 744
f 963 961 565
f 964 962 744
f 965 963 565
f 966 964 744
f 965 565 597
f 967 966 744
f 968 965 597
f 969 967 744
f 970 968 597
f 971 969 744
f 972 970 597
f 973 971 744
f 974 972 597
f 975 973 744
f 976 974 597
f 977 975 744
f 978 976 597
f 979 977 744
f 980 978 597
f 981 979 744
f 982 980 597
f 983 981 744
f 984 982 597
f 985 983 744
f 986 984 597
f 987 985 744
f 988 986 597
f 989 987 744
f 990 988 597
f 991 989 744
f 992 990 597
f 993 991 744
f 994 992 597
f 995 993 744
f 996 994 597
f 997 995 744
f 998 996 597
f 999 997 744
f 1000 998 597
f 1001 999 744
f 1002 1000 597
f 1003 1001 744
f 1004 1002 597
f 1005 1003 744
f 1006 1004 597
f 1007 1005 744
f 1008 1006 597
f 1009 1007 744
f 1010 1008 597
f 1011 1009 744
f 1012 1010 597
f 1013 1011 744
f 1012 597 629
f 1013 744 776
f 1014 1012 629
f 1015 1013 776
f 1016 1014 629
f 1017 1015 776
f 1018 1016 629
f 1019 1017 776
f 1020 1018 629
f 1021 1019 776
f 1022 1020 629
f 1023 1021 776
f 1024 1022 629
f 1025 1023 776
f 1026 1024 629
f 1027 1025 776
f 1028 1026 629
f 1029 1027 776
f 1030 1028 629
f 1031 1029 776
f 1032 1030 629
f 1033 1031 776
f 1034 1032 629
f 1035 1033 776
f 1036 1034 629
f 1037 1035 776
f 1038 1036 629
f 1039 1037 776
f 1040 1038 629
f 1041 1039 776
f 1042 1040 629
f 906 1041 776
f 1043 1042 629
f 906 776 882
f 1044 1043 629
f 906 882 1045
f 1046 1044 629
f 906 1045 1047
f 1048 1046 629
f 629 906 1047
f 1049 1048 629
f 629 1047 1050
f 1051 1049 629
f 629 1050 1052
f 1053 1051 629
f 629 1052 1054
f 1055 1053 629
f 629 1054 1056
f 1057 1055 629
f 629 1056 1058
f 1059 1057 629
f 629 1058 1060
f 1060 1059 629
f 486 484 1016
f 484 1014 1016
f 484 482 1014
f 482 1012 1014
f 482 480 1012
f 480 1010 1012
f 480 478 1010
f 478 1008 1010
f 478 476 1008
f 476 1006 1008
f 476 474 1006
f 474 1004 1006
f 474 472 1004
f 472 1002 1004
f 472 470 1002
f 470 1000 1002
f 470 468 1000
f 468 998 1000
f 468 466 998
f 466 996 998
f 466 464 996
f 464 994 996
f 464 462 994
f 462 992 994
f 462 460 992
f 460 990 992
f 460 458 990
f 458 988 990
f 458 456 988
f 456 986 988
f 456 454 986
f 454 984 986
f 454 452 984
f 452 982 984
f 452 450 982
f 450 980 982
f 450 448 980
f 448 978 980
f 448 446 978
f 446 976 978
f 446 444 976
f 444 974 976
f 444 442 974
f 442 972 974
f 442 440 972
f 440 970 972
f 440 438 970
f 438 968 970
f 438 435 968
f 435 965 968
f 435 433 965
f 433 963 965
f 433 431 963
f 431 961 963
f 431 429 961
f 429 959 961
f 429 427 959
f 427 957 959
f 427 425 957
f 425 955 957
f 425 424 955
f 424 954 955
f 424 422 954
f 422 952 954
f 422 420 952
f 420 950 952
f 420 418 950
f 418 948 950
f 418 416 948
f 416 946 948
f 416 414 946
f 414 944 946
f 414 412 944
f 412 942 944
f 412 410 942
f 410 940 942
f 410 408 940
f 408 938 940
f 408 406 938
f 406 936 938
f 406 404 936
f 404 934 936
f 404 402 934
f 402 932 934
f 402 400 932
f 400 930 932
f 400 398 930
f 398 928 930
f 398 396 928
f 396 926 928
f 396 394 926
f 394 924 926
f 394 392 924
f 392 922 924
f 392 390 922
f 390 920 922
f 390 388 920
f 388 918 920
f 388 386 918
f 386 916 918
f 386 384 916
f 384 914 916
f 384 382 914
f 382 912 914
f 382 380 912
f 380 910 912
f 380 378 910
f 378 908 910
f 378 375 908
f 375 905 908
f 375 372 905
f 372 902 905
f 372 369 902
f 369 899 902
f 369 366 899
f 366 896 899
f 366 363 896
f 363 893 896
f 363 358 893
f 358 888 893
f 358 355 888
f 355 885 888
f 355 353 885
f 353 883 885
f 353 349 883
f 349 879 883
f 349 345 879
f 345 875 879
f 345 341 875
f 341 871 875
f 341 337 871
f 337 867 871
f 337 333 867
f 333 863 867
f 333 329 863
f 329 859 863
f 329 325 859
f 325 855 859
f 325 321 855
f 321 851 855
f 321 317 851
f 317 847 851
f 317 313 847
f 313 843 847
f 313 309 843
f 309 839 843
f 309 305 839
f 305 835 839
f 305 301 835
f 301 831 835
f 301 297 831
f 297 827 831
f 297 295 827
f 295 825 827
f 295 291 825
f 291 821 825
f 291 288 821
f 288 818 821
f 288 285 818
f 285 815 818
f 285 283 815
f 283 813 815
f 283 3 813
f 3 531 813
f 3 2 531
f 2 532 531
f 2 1 532
f 1 533 532
f 1 5 533
f 5 534 533
f 5 4 534
f 4 535 534
f 4 7 535
f 7 536 535
f 7 6 536
f 6 537 536
f 6 9 537
f 9 538 537
f 9 8 538
f 8 539 538
f 8 11 539
f 11 540 539
f 11 10 540
f 10 541 540
f 10 13 541
f 13 542 541
f 13 12 542
f 12 543 542
f 12 15 543
f 15 544 543
f 15 14 544
f 14 545 544
f 14 17 545
f 17 546 545
f 17 16 546
f 16 547 546
f 16 19 547
f 19 548 547
f 19 18 548
f 18 549 548
f 18 21 549
f 21 550 549
f 21 20 550
f 20 551 550
f 20 23 551
f 23 552 551
f 23 22 552
f 22 553 552
f 22 25 553
f 25 554 553
f 25 24 554
f 24 555 554
f 24 27 555
f 27 556 555
f 27 26 556
f 26 557 556
f 26 29 557
f 29 558 557
f 29 28 558
f 28 559 558
f 28 31 559
f 31 560 559
f 31 30 560
f 30 561 560
f 30 33 561
f 33 562 561
f 33 32 562
f 32 563 562
f 32 35 563
f 35 564 563
f 35 34 564
f 34 565 564
f 34 37 565
f 37 566 565
f 37 36 566
f 36 567 566
f 36 39 567
f 39 568 567
f 39 38 568
f 38 569 568
f 38 41 569
f 41 570 569
f 41 40 570
f 40 571 570
f 40 43 571
f 43 572 571
f 43 42 572
f 42 573 572
f 42 45 573
f 45 574 573
f 45 44 574
f 44 575 574
f 44 47 575
f 47 576 575
f 47 46 576
f 46 577 576
f 46 49 577
f 49 578 577
f 49 48 578
f 48 579 578
f 48 51 579
f 51 580 579
f 51 50 580
f 50 581 580
f 50 53 581
f 53 582 581
f 53 52 582
f 52 583 582
f 52 55 583
f 55 584 583
f 55 54 584
f 54 585 584
f 54 57 585
f 57 586 585
f 57 56 586
f 56 587 586
f 56 59 587
f 59 588 587
f 59 58 588
f 58 589 588
f 58 61 589
f 61 590 589
f 61 60 590
f 60 591 590
f 60 63 591
f 63 592 591
f 63 62 592
f 62 593 592
f 62 65 593
f 65 594 593
f 65 64 594
f 64 595 594
f 64 67 595
f 67 596 595
f 67 66 596
f 66 597 596
f 66 69 597
f 69 598 597
f 69 68 598
f 68 599 598
f 68 71 599
f 71 600 599
f 71 70 600
f 70 601 600
f 70 73 601
f 73 602 601
f 73 72 602
f 72 603 602
f 72 75 603
f 75 604 603
f 75 74 604
f 74 605 604
f 74 77 605
f 77 606 605
f 77 76 606
f 76 607 606
f 76 79 607
f 79 608 607
f 79 78 608
f 78 609 608
f 78 81 609
f 81 610 609
f 81 80 610
f 80 611 610
f 80 83 611
f 83 612 611
f 83 82 612
f 82 613 612
f 82 85 613
f 85 614 613
f 85 84 614
f 84 615 614
f 84 87 615
f 87 616 615
f 87 86 616
f 86 617 616
f 86 89 617
f 89 618 617
f 89 88 618
f 88 619 618
f 88 91 619
f 91 620 619
f 91 90 620
f 90 621 620
f 90 93 621
f 93 622 621
f 93 92 622
f 92 623 622
f 92 95 623
f 95 624 623
f 95 94 624
f 94 625 624
f 94 97 625
f 97 626 625
f 97 96 626
f 96 627 626
f 96 99 627
f 99 628 627
f 99 98 628
f 98 629 628
f 98 101 629
f 101 630 629
f 101 100 630
f 100 631 630
f 100 103 631
f 103 632 631
f 103 102 632
f 102 633 632
f 102 105 633
f 105 634 633
f 105 104 634
f 104 635 634
f 104 107 635
f 107 636 635
f 107 106 636
f 106 637 636
f 106 109 637
f 109 638 637
f 109 108 638
f 108 639 638
f 108 111 639
f 111 640 639
f 111 110 640
f 110 641 640
f 110 113 641
f 113 642 641
f 113 112 642
f 112 643 642
f 112 115 643
f 115 644 643
f 115 114 644
f 114 645 644
f 114 117 645
f 117 646 645
f 117 116 646
f 116 647 646
f 116 119 647
f 119 648 647
f 119 118 648
f 118 649 648
f 118 121 649
f 121 650 649
f 121 120 650
f 120 651 650
f 120 123 651
f 123 652 651
f 123 122 652
f 122 653 652
f 122 125 653
f 125 654 653
f 125 124 654
f 124 655 654
f 124 127 655
f 127 656 655
f 127 126 656
f 126 657 656
f 126 129 657
f 129 658 657
f 129 128 658
f 128 659 658
f 128 131 659
f 131 660 659
f 131 130 660
f 130 661 660
f 130 133 661
f 133 662 661
f 133 132 662
f 132 663 662
f 132 135 663
f 135 664 663
f 135 134 664
f 134 665 664
f 134 137 665
f 137 666 665
f 137 136 666
f 136 667 666
f 136 139 667
f 139 668 667
f 139 138 668
f 138 669 668
f 138 141 669
f 141 670 669
f 141 140 670
f 140 671 670
f 140 143 671
f 143 672 671
f 143 142 672
f 142 673 672
f 142 145 673
f 145 674 673
f 145 144 674
f 144 675 674
f 144 147 675
f 147 676 675
f 147 146 676
f 146 677 676
f 146 292 677
f 292 822 677
f 292 298 822
f 298 828 822
f 298 302 828
f 302 832 828
f 302 306 832
f 306 836 832
f 306 310 836
f 310 840 836
f 310 314 840
f 314 844 840
f 314 318 844
f 318 848 844
f 318 322 848
f 322 852 848
f 322 326 852
f 326 856 852
f 326 330 856
f 330 860 856
f 330 334 860
f 334 864 860
f 334 338 864
f 338 868 864
f 338 342 868
f 342 872 868
f 342 346 872
f 346 876 872
f 346 350 876
f 350 880 876
f 350 354 880
f 354 884 880
f 354 356 884
f 356 886 884
f 356 359 886
f 359 889 886
f 359 361 889
f 361 891 889
f 361 364 891
f 364 894 891
f 364 367 894
f 367 897 894
f 367 370 897
f 370 900 897
f 370 373 900
f 373 903 900
f 373 376 903
f 376 906 903
f 376 511 906
f 511 1041 906
f 511 509 1041
f 509 1039 1041
f 509 507 1039
f 507 1037 1039
f 507 505 1037
f 505 1035 1037
f 505 503 1035
f 503 1033 1035
f 503 501 1033
f 501 1031 1033
f 501 499 1031
f 499 1029 1031
f 499 497 1029
f 497 1027 1029
f 497 495 1027
f 495 1025 1027
f 495 493 1025
f 493 1023 1025
f 493 491 1023
f 491 1021 1023
f 491 489 1021
f 489 1019 1021
f 489 487 1019
f 487 1017 1019
f 487 485 1017
f 485 1015 1017
f 485 483 1015
f 483 1013 1015
f 483 481 1013
f 481 1011 1013
f 481 479 1011
f 479 1009 1011
f 479 477 1009
f 477 1007 1009
f 477 475 1007
f 475 1005 1007
f 475 473 1005
f 473 1003 1005
f 473 471 1003
f 471 1001 1003
f 471 469 1001
f 469 999 1001
f 469 467 999
f 467 997 999
f 467 465 997
f 465 995 997
f 465 463 995
f 463 993 995
f 463 461 993
f 461 991 993
f 461 459 991
f 459 989 991
f 459 457 989
f 457 987 989
f 457 455 987
f 455 985 987
f 455 453 985
f 453 983 985
f 453 451 983
f 451 981 983
f 451 449 981
f 449 979 981
f 449 447 979
f 447 977 979
f 447 445 977
f 445 975 977
f 445 443 975
f 443 973 975
f 443 441 973
f 441 971 973
f 441 439 971
f 439 969 971
f 439 437 969
f 437 967 969
f 437 436 967
f 436 966 967
f 436 434 966
f 434 964 966
f 434 432 964
f 432 962 964
f 432 430 962
f 430 960 962
f 430 428 960
f 428 958 960
f 428 426 958
f 426 956 958
f 426 423 956
f 423 953 956
f 423 421 953
f 421 951 953
f 421 419 951
f 419 949 951
f 419 417 949
f 417 947 949
f 417 415 947
f 415 945 947
f 415 413 945
f 413 943 945
f 413 411 943
f 411 941 943
f 411 409 941
f 409 939 941
f 409 407 939
f 407 937 939
f 407 405 937
f 405 935 937
f 405 403 935
f 403 933 935
f 403 401 933
f 401 931 933
f 401 399 931
f 399 929 931
f 399 397 929
f 397 927 929
f 397 395 927
f 395 925 927
f 395 393 925
f 393 923 925
f 393 391 923
f 391 921 923
f 391 389 921
f 389 919 921
f 389 387 919
f 387 917 919
f 387 385 917
f 385 915 917
f 385 383 915
f 383 913 915
f 383 381 913
f 381 911 913
f 381 379 911
f 379 909 911
f 379 377 909
f 377 907 909
f 377 374 907
f 374 904 907
f 374 371 904
f 371 901 904
f 371 368 901
f 368 898 901
f 368 365 898
f 365 895 898
f 365 362 895
f 362 892 895
f 362 360 892
f 360 890 892
f 360 357 890
f 357 887 890
f 357 351 887
f 351 881 887
f 351 347 881
f 347 877 881
f 347 343 877
f 343 873 877
f 343 339 873
f 339 869 873
f 339 335 869
f 335 865 869
f 335 331 865
f 331 861 865
f 331 327 861
f 327 857 861
f 327 323 857
f 323 853 857
f 323 319 853
f 319 849 853
f 319 315 849
f 315 845 849
f 315 311 845
f 311 841 845
f 311 307 841
f 307 837 841
f 307 303 837
f 303 833 837
f 303 299 833
f 299 829 833
f 299 296 829
f 296 826 829
f 296 293 826
f 293 823 826
f 293 289 823
f 289 819 823
f 289 286 819
f 286 816 819
f 286 284 816
f 284 814 816
f 284 150 814
f 150 678 814
f 150 149 678
f 149 679 678
f 149 148 679
f 148 680 679
f 148 152 680
f 152 681 680
f 152 151 681
f 151 682 681
f 151 154 682
f 154 683 682
f 154 153 683
f 153 684 683
f 153 156 684
f 156 685 684
f 156 155 685
f 155 686 685
f 155 158 686
f 158 687 686
f 158 157 687
f 157 688 687
f 157 160 688
f 160 689 688
f 160 159 689
f 159 690 689
f 159 162 690
f 162 691 690
f 162 161 691
f 161 692 691
f 161 164 692
f 164 693 692
f 164 163 693
f 163 694 693
f 163 166 694
f 166 695 694
f 166 165 695
f 165 696 695
f 165 168 696
f 168 697 696
f 168 167 697
f 167 698 697
f 167 170 698
f 170 699 698
f 170 169 699
f 169 700 699
f 169 172 700
f 172 701 700
f 172 171 701
f 171 702 701
f 171 174 702
f 174 703 702
f 174 173 703
f 173 704 703
f 173 176 704
f 176 705 704
f 176 175 705
f 175 706 705
f 175 178 706
f 178 707 706
f 178 177 707
f 177 708 707
f 177 180 708
f 180 709 708
f 180 179 709
f 179 710 709
f 179 182 710
f 182 711 710
f 182 181 711
f 181 712 711
f 181 184 712
f 184 713 712
f 184 183 713
f 183 714 713
f 183 186 714
f 186 715 714
f 186 185 715
f 185 716 715
f 185 188 716
f 188 717 716
f 188 187 717
f 187 718 717
f 187 190 718
f 190 719 718
f 190 189 719
f 189 720 719
f 189 192 720
f 192 721 720
f 192 191 721
f 191 722 721
f 191 194 722
f 194 723 722
f 194 193 723
f 193 724 723
f 193 196 724
f 196 725 724
f 196 195 725
f 195 726 725
f 195 198 726
f 198 727 726
f 198 197 727
f 197 728 727
f 197 200 728
f 200 729 728
f 200 199 729
f 199 730 729
f 199 202 730
f 202 731 730
f 202 201 731
f 201 732 731
f 201 204 732
f 204 733 732
f 204 203 733
f 203 734 733
f 203 206 734
f 206 735 734
f 206 205 735
f 205 736 735
f 205 208 736
f 208 737 736
f 208 207 737
f 207 738 737
f 207 210 738
f 210 739 738
f 210 209 739
f 209 740 739
f 209 212 740
f 212 741 740
f 212 211 741
f 211 742 741
f 211 214 742
f 214 743 742
f 214 213 743
f 213 744 743
f 213 216 744
f 216 745 744
f 216 215 745
f 215 746 745
f 215 218 746
f 218 747 746
f 218 217 747
f 217 748 747
f 217 220 748
f 220 749 748
f 220 219 749
f 219 750 749
f 219 222 750
f 222 751 750
f 222 221 751
f 221 752 751
f 221 224 752
f 224 753 752
f 224 223 753
f 223 754 753
f 223 226 754
f 226 755 754
f 226 225 755
f 225 756 755
f 225 228 756
f 228 757 756
f 228 227 757
f 227 758 757
f 227 230 758
f 230 759 758
f 230 229 759
f 229 760 759
f 229 232 760
f 232 761 760
f 232 231 761
f 231 762 761
f 231 234 762
f 234 763 762
f 234 233 763
f 233 764 763
f 233 236 764
f 236 765 764
f 236 235 765
f 235 766 765
f 235 238 766
f 238 767 766
f 238 237 767
f 237 768 767
f 237 240 768
f 240 769 768
f 240 239 769
f 239 770 769
f 239 242 770
f 242 771 770
f 242 241 771
f 241 772 771
f 241 244 772
f 244 773 772
f 244 243 773
f 243 774 773
f 243 246 774
f 246 775 774
f 246 245 775
f 245 776 775
f 245 248 776
f 248 777 776
f 248 247 777
f 247 778 777
f 247 250 778
f 250 779 778
f 250 249 779
f 249 780 779
f 249 252 780
f 252 781 780
f 252 251 781
f 251 782 781
f 251 254 782
f 254 783 782
f 254 253 783
f 253 784 783
f 253 256 784
f 256 785 784
f 256 255 785
f 255 786 785
f 255 258 786
f 258 787 786
f 258 257 787
f 257 788 787
f 257 260 788
f 260 789 788
f 260 259 789
f 259 790 789
f 259 262 790
f 262 791 790
f 262 261 791
f 261 792 791
f 261 264 792
f 264 793 792
f 264 263 793
f 263 794 793
f 263 266 794
f 266 795 794
f 266 265 795
f 265 796 795
f 265 268 796
f 268 797 796
f 268 267 797
f 267 798 797
f 267 270 798
f 270 799 798
f 270 269 799
f 269 800 799
f 269 272 800
f 272 801 800
f 272 271 801
f 271 802 801
f 271 274 802
f 274 803 802
f 274 273 803
f 273 804 803
f 273 276 804
f 276 805 804
f 276 275 805
f 275 806 805
f 275 278 806
f 278 807 806
f 278 277 807
f 277 808 807
f 277 280 808
f 280 809 808
f 280 279 809
f 279 810 809
f 279 282 810
f 282 811 810
f 282 281 811
f 281 812 811
f 281 287 812
f 287 817 812
f 287 290 817
f 290 820 817
f 290 294 820
f 294 824 820
f 294 300 824
f 300 830 824
f 300 304 830
f 304 834 830
f 304 308 834
f 308 838 834
f 308 312 838
f 312 842 838
f 312 316 842
f 316 846 842
f 316 320 846
f 320 850 846
f 320 324 850
f 324 854 850
f 324 328 854
f 328 858 854
f 328 332 858
f 332 862 858
f 332 336 862
f 336 866 862
f 336 340 866
f 340 870 866
f 340 344 870
f 344 874 870
f 344 348 874
f 348 878 874
f 348 352 878
f 352 882 878
f 352 515 882
f 515 1045 882
f 515 517 1045
f 517 1047 1045
f 517 520 1047
f 520 1050 1047
f 520 522 1050
f 522 1052 1050
f 522 524 1052
f 524 1054 1052
f 524 526 1054
f 526 1056 1054
f 526 528 1056
f 528 1058 1056
f 528 530 1058
f 530 1060 1058
f 530 529 1060
f 529 1059 1060
f 529 527 1059
f 527 1057 1059
f 527 525 1057
f 525 1055 1057
f 525 523 1055
f 523 1053 1055
f 523 521 1053
f 521 1051 1053
f 521 519 1051
f 519 1049 1051
f 519 518 1049
f 518 1048 1049
f 518 516 1048
f 516 1046 1048
f 516 514 1046
f 514 1044 1046
f 514 513 1044
f 513 1043 1044
f 513 512 1043
f 512 1042 1043
f 512 510 1042
f 510 1040 1042
f 510 508 1040
f 508 1038 1040
f 508 506 1038
f 506 1036 1038
f 506 504 1036
f 504 1034 1036
f 504 502 1034
f 502 1032 1034
f 502 500 1032
f 500 1030 1032
f 500 498 1030
f 498 1028 1030
f 498 496 1028
f 496 1026 1028
f 496 494 1026
f 494 1024 1026
f 494 492 1024
f 492 1022 1024
f 492 490 1022
f 490 1020 1022
f 490 488 1020
f 488 1018 1020
f 488 486 1018
f 486 1016 1018

