# https://github.com/mikedh/trimesh

o V.obj
v 5.18959967 -1.67530676 -9.33021848
v 5.18960129 1.68718617 -9.33021848
v 5.18959967 7.29134510 6.68832503
v 5.18959805 -4.17382176 6.68832746
v 5.18959805 -7.25610856 6.68832746
v 5.18959967 3.88215007 6.68832503
v 5.18959967 -0.13416417 -5.26720619
v 5.18959967 -0.20421610 -5.26720619
v -5.18846654 7.29134510 6.68832503
v -5.18846492 1.68718617 -9.33021848
v -5.18846492 -1.67530676 -9.33021848
v -5.18846654 -7.25610856 6.68832746
v -5.18846654 -4.17382176 6.68832746
v -5.18846492 -0.13416417 -5.26720619
v -5.18846654 3.88215007 6.68832503
v -5.18846492 -0.20421610 -5.26720619
v 5.18960048 0.00593970 -9.33021848
v 5.18959967 2.80801917 -1.32094673
v 5.18960048 4.48926564 -1.32094673
v 5.18959886 -2.92456426 -1.32094551
v 5.18959886 -4.46570766 -1.32094551
v 5.18959805 -5.71496516 6.68832746
v 5.18959967 5.58674759 6.68832503
v 5.18959967 -0.90473546 -7.29871234
v 5.18959967 3.57859047 0.71055942
v 5.18959967 1.87399295 0.71055942
v 5.18959967 -0.93976143 -7.29871234
v 5.18959886 -2.18901893 0.71056063
v 5.18959967 -0.16919014 -5.26720619
v 0.00056738 4.48926564 -1.32094673
v 0.00056657 7.29134510 6.68832503
v 0.00056738 0.00593970 -9.33021848
v 0.00056819 1.68718617 -9.33021848
v -5.18846573 4.48926564 -1.32094673
v 0.00056738 -1.67530676 -9.33021848
v 0.00056657 -4.46570766 -1.32094551
v -5.18846573 2.80801917 -1.32094673
v -5.18846492 0.00593970 -9.33021848
v 0.00056576 -5.71496516 6.68832746
v 0.00056576 -7.25610856 6.68832746
v -5.18846573 -4.46570766 -1.32094551
v 0.00056576 -4.17382176 6.68832746
v 0.00056657 -2.18901893 0.71056063
v -5.18846573 -2.92456426 -1.32094551
v -5.18846654 -5.71496516 6.68832746
v 0.00056738 1.87399295 0.71055942
v 0.00056738 -0.13416417 -5.26720619
v -5.18846573 3.57859047 0.71055942
v -5.18846492 -0.90473546 -7.29871234
v 0.00056657 5.58674759 6.68832503
v 0.00056657 3.88215007 6.68832503
v -5.18846654 5.58674759 6.68832503
v -5.18846573 1.87399295 0.71055942
v 0.00056738 -0.16919014 -5.26720619
v 0.00056738 -0.20421610 -5.26720619
v -5.18846492 -0.93976143 -7.29871234
v -5.18846573 -2.18901893 0.71056063
v -5.18846492 -0.16919014 -5.26720619
v 5.18960008 -0.83468353 -9.33021848
v 5.18960089 0.84656294 -9.33021848
v 5.18959967 0.56635621 -5.32558260
v 5.18959967 5.04968214 2.68368915
v 5.18960008 1.40697944 -5.32558260
v 5.18960089 3.08822590 -5.32558260
v 5.18960008 5.89030537 2.68368915
v 5.18960048 2.24760267 -5.32558260
v 5.18960008 3.64864240 -1.32094673
v 5.18959927 -2.29993551 -5.32558199
v 5.18959846 -3.54919301 2.68369098
v 5.18959927 -3.07050721 -5.32558199
v 5.18959846 -5.86090811 2.68369098
v 5.18959886 -3.69513596 -1.32094551
v 5.18959805 -4.94439346 6.68832746
v 5.18959805 -6.48553686 6.68832746
v 5.18959846 -4.31976471 2.68369098
v 5.18959846 -5.09033641 2.68369098
v 5.18959967 6.43904634 6.68832503
v 5.18959967 4.73444883 6.68832503
v 5.18959967 -1.29002111 -8.31446541
v 5.18959967 -0.51944982 -6.28295926
v 5.18959967 0.95164185 -4.30982953
v 5.18959967 5.43496778 3.69944222
v 5.18959967 1.72221315 -2.27832339
v 5.18959967 3.19330482 -0.30519365
v 5.18959967 4.58266903 3.69944222
v 5.18959967 1.33692750 -3.29407646
v 5.18959967 2.87807151 3.69944222
v 5.18959967 0.86991439 -2.27832339
v 5.18959967 3.73037027 3.69944222
v 5.18959967 2.72629171 0.71055942
v 5.18959967 -1.30753410 -8.31446541
v 5.18959967 -0.57198877 -6.28295926
v 5.18959927 -1.93216284 -4.30982892
v 5.18959967 -0.92224845 -7.29871234
v 5.18959846 -3.18142034 3.69944405
v 5.18959927 -1.19661752 -2.27832278
v 5.18959886 -2.55679159 -0.30519244
v 5.18959927 -1.56439018 -3.29407585
v 5.18959967 -0.15167715 -5.26720619
v 5.18959967 -0.18670312 -5.26720619
v 5.18959967 -0.53696280 -6.28295926
v 5.18959967 -0.55447578 -6.28295926
v 2.59508434 3.08822590 -5.32558260
v -2.59394958 5.89030537 2.68368915
v 2.59508393 4.48926564 -1.32094673
v 2.59508312 7.29134510 6.68832503
v -2.59394999 7.29134510 6.68832503
v 2.59508353 5.89030537 2.68368915
v 0.00056697 5.89030537 2.68368915
v 2.59508353 -0.83468353 -9.33021848
v -2.59394877 0.84656294 -9.33021848
v 2.59508393 0.00593970 -9.33021848
v 2.59508474 1.68718617 -9.33021848
v -2.59394837 1.68718617 -9.33021848
v 2.59508434 0.84656294 -9.33021848
v 0.00056778 3.08822590 -5.32558260
v 0.00056778 0.84656294 -9.33021848
v -5.18846613 5.89030537 2.68368915
v -5.18846532 3.08822590 -5.32558260
v -2.59394918 4.48926564 -1.32094673
v -2.59394877 3.08822590 -5.32558260
v 2.59508353 -1.67530676 -9.33021848
v -2.59394877 -1.67530676 -9.33021848
v 2.59508312 -3.07050721 -5.32558199
v 0.00056738 -0.83468353 -9.33021848
v 2.59508231 -5.86090811 2.68369098
v -2.59394918 -3.07050721 -5.32558199
v 2.59508271 -4.46570766 -1.32094551
v 0.00056697 -3.07050721 -5.32558199
v -5.18846613 5.04968214 2.68368915
v -5.18846532 0.56635621 -5.32558260
v -5.18846573 3.64864240 -1.32094673
v -5.18846492 0.84656294 -9.33021848
v -5.18846492 -0.83468353 -9.33021848
v -2.59394877 0.00593970 -9.33021848
v -5.18846532 2.24760267 -5.32558260
v -2.59394877 -0.83468353 -9.33021848
v -5.18846532 1.40697944 -5.32558260
v 2.59508190 -4.94439346 6.68832746
v -2.59395039 -6.48553686 6.68832746
v 2.59508190 -5.71496516 6.68832746
v 2.59508190 -7.25610856 6.68832746
v -2.59395039 -7.25610856 6.68832746
v 2.59508190 -6.48553686 6.68832746
v 0.00056616 -5.86090811 2.68369098
v 0.00056576 -6.48553686 6.68832746
v -5.18846532 -3.07050721 -5.32558199
v -5.18846613 -5.86090811 2.68369098
v -2.59394958 -4.46570766 -1.32094551
v -2.59394999 -5.86090811 2.68369098
v 2.59508190 -4.17382176 6.68832746
v -2.59395039 -4.17382176 6.68832746
v 2.59508231 -3.18142034 3.69944405
v 0.00056576 -4.94439346 6.68832746
v 2.59508312 -1.19661752 -2.27832278
v -2.59394999 -3.18142034 3.69944405
v 2.59508271 -2.18901893 0.71056063
v 0.00056616 -3.18142034 3.69944405
v -5.18846532 -2.29993551 -5.32558199
v -5.18846613 -3.54919301 2.68369098
v -5.18846573 -3.69513596 -1.32094551
v -5.18846654 -6.48553686 6.68832746
v -5.18846654 -4.94439346 6.68832746
v -2.59395039 -5.71496516 6.68832746
v -5.18846613 -5.09033641 2.68369098
v -2.59395039 -4.94439346 6.68832746
v -5.18846613 -4.31976471 2.68369098
v 2.59508353 2.87807151 3.69944222
v -2.59394877 0.86991439 -2.27832339
v 2.59508353 1.87399295 0.71055942
v 2.59508353 -0.13416417 -5.26720619
v -2.59394877 -0.13416417 -5.26720619
v 2.59508353 0.86991439 -2.27832339
v 0.00056738 0.86991439 -2.27832339
v -5.18846613 5.43496778 3.69944222
v -5.18846532 1.72221315 -2.27832339
v -5.18846573 3.19330482 -0.30519365
v -5.18846492 -1.29002111 -8.31446541
v -5.18846492 -0.51944982 -6.28295926
v -5.18846532 0.95164185 -4.30982953
v -5.18846532 1.33692750 -3.29407646
v 2.59508312 6.43904634 6.68832503
v -2.59394999 4.73444883 6.68832503
v 2.59508312 5.58674759 6.68832503
v 0.00056657 6.43904634 6.68832503
v 2.59508312 3.88215007 6.68832503
v -2.59394999 3.88215007 6.68832503
v 2.59508312 4.73444883 6.68832503
v 0.00056697 2.87807151 3.69944222
v 0.00056657 4.73444883 6.68832503
v -5.18846654 6.43904634 6.68832503
v -5.18846654 4.73444883 6.68832503
v -2.59394999 6.43904634 6.68832503
v -5.18846613 4.58266903 3.69944222
v -2.59394999 5.58674759 6.68832503
v -5.18846532 0.86991439 -2.27832339
v -5.18846613 2.87807151 3.69944222
v -2.59394918 1.87399295 0.71055942
v -5.18846573 2.72629171 0.71055942
v -2.59394958 2.87807151 3.69944222
v -5.18846613 3.73037027 3.69944222
v 2.59508353 -0.15167715 -5.26720619
v -2.59394877 -0.18670312 -5.26720619
v 2.59508353 -0.16919014 -5.26720619
v 0.00056738 -0.15167715 -5.26720619
v 2.59508353 -0.20421610 -5.26720619
v -2.59394877 -0.20421610 -5.26720619
v 2.59508353 -0.18670312 -5.26720619
v 0.00056697 -1.19661752 -2.27832278
v 0.00056738 -0.18670312 -5.26720619
v -5.18846492 -1.30753410 -8.31446541
v -5.18846492 -0.57198877 -6.28295926
v -5.18846532 -1.93216284 -4.30982892
v -5.18846492 -0.92224845 -7.29871234
v -5.18846613 -3.18142034 3.69944405
v -5.18846532 -1.19661752 -2.27832278
v -2.59394958 -2.18901893 0.71056063
v -5.18846573 -2.55679159 -0.30519244
v -2.59394918 -1.19661752 -2.27832278
v -5.18846532 -1.56439018 -3.29407585
v -5.18846492 -0.15167715 -5.26720619
v -5.18846492 -0.18670312 -5.26720619
v -2.59394877 -0.15167715 -5.26720619
v -5.18846492 -0.53696280 -6.28295926
v -2.59394877 -0.16919014 -5.26720619
v -5.18846492 -0.55447578 -6.28295926
v 5.18959988 -1.25499514 -9.33021848
v 5.18960028 -0.41437191 -9.33021848
v 5.18960109 1.26687455 -9.33021848
v 5.18960069 0.42625132 -9.33021848
v 5.18959967 -0.55447527 -7.32790055
v 5.18959967 1.68718769 -3.32326467
v 5.18959988 -0.13416366 -7.32790055
v 5.18959967 6.17051362 4.68600709
v 5.18959967 3.92885066 0.68137121
v 5.18960028 0.70645958 -7.32790055
v 5.18959988 2.10749931 -3.32326467
v 5.18960008 0.28614796 -7.32790055
v 5.18959988 0.98666782 -5.32558260
v 5.18960109 2.38770604 -7.32790055
v 5.18960069 3.78874577 -3.32326467
v 5.18960089 1.96739442 -7.32790055
v 5.18959988 6.59082524 4.68600709
v 5.18960028 5.18978551 0.68137121
v 5.18959988 5.46999375 2.68368915
v 5.18960048 1.12677119 -7.32790055
v 5.18960048 3.36843416 -3.32326467
v 5.18960069 1.54708281 -7.32790055
v 5.18960028 1.82729105 -5.32558260
v 5.18960069 2.66791429 -5.32558260
v 5.18959988 3.22833079 -1.32094673
v 5.18960028 4.06895402 -1.32094673
v 5.18959988 4.34916227 0.68137121
v 5.18960008 2.52781092 -3.32326467
v 5.18960008 4.76947389 0.68137121
v 5.18960028 2.94812254 -3.32326467
v 5.18959947 -1.98762113 -7.32790024
v 5.18959907 -2.61224988 -3.32326375
v 5.18959825 -3.86150738 4.68600922
v 5.18959866 -3.23687863 0.68137273
v 5.18959947 -2.37290698 -7.32790024
v 5.18959907 -3.76810743 -3.32326375
v 5.18959927 -2.68522136 -5.32558199
v 5.18959825 -6.55850833 4.68600922
v 5.18959866 -5.16330788 0.68137273
v 5.18959886 -3.30985011 -1.32094551
v 5.18959886 -4.08042181 -1.32094551
v 5.18959907 -2.99753573 -3.32326375
v 5.18959907 -3.38282158 -3.32326375
v 5.18959805 -4.55910761 6.68832746
v 5.18959805 -5.32967931 6.68832746
v 5.18959825 -4.24679323 4.68600922
v 5.18959805 -6.87082271 6.68832746
v 5.18959805 -6.10025101 6.68832746
v 5.18959825 -6.17322248 4.68600922
v 5.18959866 -3.62216448 0.68137273
v 5.18959825 -5.01736493 4.68600922
v 5.18959846 -3.93447886 2.68369098
v 5.18959866 -4.00745033 0.68137273
v 5.18959825 -4.63207908 4.68600922
v 5.18959866 -4.77802203 0.68137273
v 5.18959825 -5.40265078 4.68600922
v 5.18959846 -5.47562226 2.68369098
v 5.18959866 -4.39273618 0.68137273
v 5.18959825 -5.78793663 4.68600922
v 5.18959846 -4.70505056 2.68369098
v 5.18959967 6.86519573 6.68832503
v 5.18959967 6.01289697 6.68832503
v 5.18959967 4.30829946 6.68832503
v 5.18959967 5.16059821 6.68832503
v 5.18959967 -1.48266394 -8.82234194
v 5.18959967 -1.09737829 -7.80658887
v 5.18959967 -0.36183245 -6.82002401
v 5.18959967 -0.32680699 -5.77508273
v 5.18959967 -0.71209264 -6.79083580
v 5.18959967 1.87983052 -2.81538813
v 5.18959967 0.02345320 -5.80427094
v 5.18959967 0.75899903 -4.81770607
v 5.18959967 -0.16918962 -6.31214747
v 5.18959967 6.36315645 5.19388362
v 5.18959967 4.50677913 2.20500082
v 5.18959967 5.24232496 3.19156569
v 5.18959967 5.93700706 5.19388362
v 5.18959967 0.79402450 -3.77276479
v 5.18959967 2.65040181 -0.78388199
v 5.18959967 0.60138167 -4.28064133
v 5.18959967 3.00066200 -0.81307019
v 5.18959967 3.38594764 0.20268288
v 5.18959967 4.12149348 1.18924774
v 5.18959967 2.07247334 -2.30751160
v 5.18959967 4.31413631 1.69712428
v 5.18959967 5.08470831 5.19388362
v 5.18959967 4.08062975 2.20500082
v 5.18959967 5.51085769 5.19388362
v 5.18959967 5.00881841 3.69944222
v 5.18959967 0.21609602 -5.29639440
v 5.18959967 2.45775899 -1.29175852
v 5.18959967 0.40873885 -4.78851787
v 5.18959967 1.14428468 -3.80195300
v 5.18959967 1.52957033 -2.78619992
v 5.18959967 2.26511616 -1.79963506
v 5.18959967 3.38011079 5.19388362
v 5.18959967 2.37603223 2.20500082
v 5.18959967 3.80626018 5.19388362
v 5.18959967 0.36787511 -3.77276479
v 5.18959967 1.37195367 -0.78388199
v 5.18959967 1.29606378 -2.27832339
v 5.18959967 4.65855893 5.19388362
v 5.18959967 2.80218162 2.20500082
v 5.18959967 4.23240955 5.19388362
v 5.18959967 4.15651965 3.69944222
v 5.18959967 3.30422090 3.69944222
v 5.18959967 3.15244109 0.71055942
v 5.18959967 2.30014234 0.71055942
v 5.18959967 2.22425243 -0.78388199
v 5.18959967 3.65448037 2.20500082
v 5.18959967 1.79810306 -0.78388199
v 5.18959967 3.22833099 2.20500082
v 5.18959967 -1.49142043 -8.82234194
v 5.18959967 -1.12364776 -7.80658887
v 5.18959947 -1.80373480 -6.82002370
v 5.18959967 -1.29877760 -8.31446541
v 5.18959967 -0.38810244 -5.77508273
v 5.18959967 -0.75587510 -6.79083580
v 5.18959907 -2.42836355 -2.81538722
v 5.18959947 -1.43596213 -5.80427063
v 5.18959927 -2.11604918 -4.81770546
v 5.18959947 -1.61984847 -6.31214717
v 5.18959967 -0.91349196 -7.29871234
v 5.18959967 -0.93100494 -7.29871234
v 5.18959967 -1.10613478 -7.80658887
v 5.18959967 -1.11489127 -7.80658887
v 5.18959825 -3.67762105 5.19388575
v 5.18959866 -2.68521963 2.20500234
v 5.18959846 -3.36530667 3.19156751
v 5.18959947 -0.70041681 -3.77276449
v 5.18959907 -1.69281822 -0.78388107
v 5.18959947 -0.88430314 -4.28064102
v 5.18959886 -2.74067793 -0.81306897
v 5.18959886 -2.37290526 0.20268410
v 5.18959866 -3.05299230 1.18924927
v 5.18959907 -2.24447722 -2.30751068
v 5.18959866 -2.86910596 1.69712580
v 5.18959947 -1.25207580 -5.29639409
v 5.18959907 -1.87670455 -1.29175761
v 5.18959947 -1.06818947 -4.78851756
v 5.18959927 -1.74827651 -3.80195239
v 5.18959927 -1.38050385 -2.78619932
v 5.18959907 -2.06059088 -1.79963414
v 5.18959967 -0.14292066 -5.26720619
v 5.18959967 -0.16043364 -5.26720619
v 5.18959967 -0.33556348 -5.77508273
v 5.18959967 -0.19545961 -5.26720619
v 5.18959967 -0.17794663 -5.26720619
v 5.18959967 -0.37934594 -5.77508273
v 5.18959967 -0.72084913 -6.79083580
v 5.18959967 -0.35307647 -5.77508273
v 5.18959967 -0.52820631 -6.28295926
v 5.18959967 -0.72960562 -6.79083580
v 5.18959967 -0.34431998 -5.77508273
v 5.18959967 -0.74711861 -6.79083580
v 5.18959967 -0.36183296 -5.77508273
v 5.18959967 -0.56323228 -6.28295926
v 5.18959967 -0.73836212 -6.79083580
v 5.18959967 -0.37058945 -5.77508273
v 5.18959967 -0.54571929 -6.28295926
v 3.89234282 2.38770604 -7.32790055
v 1.29782586 3.78874577 -3.32326467
v 3.89234261 3.08822590 -5.32558260
v -3.89120806 6.59082524 4.68600709
v -1.29669110 5.18978551 0.68137121
v 3.89234221 4.48926564 -1.32094673
v 1.29782565 4.48926564 -1.32094673
v 3.89234241 3.78874577 -3.32326467
v 2.59508413 3.78874577 -3.32326467
v 3.89234140 7.29134510 6.68832503
v 1.29782484 7.29134510 6.68832503
v 3.89234160 6.59082524 4.68600709
v -3.89120826 7.29134510 6.68832503
v -1.29669171 7.29134510 6.68832503
v -2.59394978 6.59082524 4.68600709
v 3.89234200 5.18978551 0.68137121
v 1.29782505 6.59082524 4.68600709
v 3.89234180 5.89030537 2.68368915
v 2.59508373 5.18978551 0.68137121
v 2.59508332 6.59082524 4.68600709
v 0.00056717 5.18978551 0.68137121
v 0.00056677 6.59082524 4.68600709
v -1.29669130 5.89030537 2.68368915
v 1.29782545 5.18978551 0.68137121
v -1.29669151 6.59082524 4.68600709
v 1.29782525 5.89030537 2.68368915
v 3.89234160 -1.25499514 -9.33021848
v 1.29782545 -0.41437191 -9.33021848
v 3.89234180 -0.83468353 -9.33021848
v -3.89120684 1.26687455 -9.33021848
v -1.29669070 0.42625132 -9.33021848
v 3.89234221 0.00593970 -9.33021848
v 1.29782565 0.00593970 -9.33021848
v 3.89234200 -0.41437191 -9.33021848
v 2.59508373 -0.41437191 -9.33021848
v 3.89234302 1.68718617 -9.33021848
v 1.29782646 1.68718617 -9.33021848
v 3.89234282 1.26687455 -9.33021848
v 2.59508454 2.38770604 -7.32790055
v -3.89120664 1.68718617 -9.33021848
v -1.29669009 1.68718617 -9.33021848
v -2.59394857 1.26687455 -9.33021848
v 3.89234241 0.42625132 -9.33021848
v 1.29782626 1.26687455 -9.33021848
v 3.89234261 0.84656294 -9.33021848
v 2.59508413 0.42625132 -9.33021848
v 2.59508454 1.26687455 -9.33021848
v 0.00056758 3.78874577 -3.32326467
v 0.00056799 2.38770604 -7.32790055
v 1.29782606 3.08822590 -5.32558260
v 1.29782626 2.38770604 -7.32790055
v 0.00056758 0.42625132 -9.33021848
v 0.00056799 1.26687455 -9.33021848
v -1.29669049 0.84656294 -9.33021848
v 1.29782586 0.42625132 -9.33021848
v -1.29669029 1.26687455 -9.33021848
v 1.29782606 0.84656294 -9.33021848
v -5.18846634 6.59082524 4.68600709
v -5.18846593 5.18978551 0.68137121
v -3.89120786 5.89030537 2.68368915
v -5.18846512 2.38770604 -7.32790055
v -5.18846553 3.78874577 -3.32326467
v -3.89120684 2.38770604 -7.32790055
v -1.29669090 4.48926564 -1.32094673
v -3.89120745 4.48926564 -1.32094673
v -2.59394938 5.18978551 0.68137121
v -1.29669070 3.78874577 -3.32326467
v -3.89120766 5.18978551 0.68137121
v -1.29669029 2.38770604 -7.32790055
v -3.89120725 3.78874577 -3.32326467
v -2.59394857 2.38770604 -7.32790055
v -1.29669049 3.08822590 -5.32558260
v -3.89120705 3.08822590 -5.32558260
v -2.59394897 3.78874577 -3.32326467
v 3.89234160 -1.67530676 -9.33021848
v 1.29782545 -1.67530676 -9.33021848
v 3.89234140 -2.37290698 -7.32790024
v 2.59508353 -1.25499514 -9.33021848
v -3.89120684 -1.67530676 -9.33021848
v -1.29669070 -1.67530676 -9.33021848
v 3.89234099 -3.76810743 -3.32326375
v 1.29782525 -2.37290698 -7.32790024
v 3.89234119 -3.07050721 -5.32558199
v 2.59508332 -2.37290698 -7.32790024
v 0.00056738 -0.41437191 -9.33021848
v 0.00056738 -1.25499514 -9.33021848
v 1.29782545 -0.83468353 -9.33021848
v 1.29782545 -1.25499514 -9.33021848
v 3.89234018 -6.55850833 4.68600922
v 1.29782444 -5.16330788 0.68137273
v 3.89234038 -5.86090811 2.68369098
v -3.89120705 -2.37290698 -7.32790024
v -1.29669130 -3.76810743 -3.32326375
v -2.59394897 -2.37290698 -7.32790024
v 3.89234079 -4.46570766 -1.32094551
v 1.29782464 -4.46570766 -1.32094551
v 3.89234059 -5.16330788 0.68137273
v 2.59508292 -3.76810743 -3.32326375
v 2.59508251 -5.16330788 0.68137273
v 0.00056717 -2.37290698 -7.32790024
v 0.00056677 -3.76810743 -3.32326375
v -1.29669090 -2.37290698 -7.32790024
v 1.29782505 -3.07050721 -5.32558199
v -1.29669110 -3.07050721 -5.32558199
v 1.29782484 -3.76810743 -3.32326375
v -5.18846634 6.17051362 4.68600709
v -5.18846593 3.92885066 0.68137121
v -5.18846613 5.46999375 2.68368915
v -5.18846512 -0.55447527 -7.32790055
v -5.18846553 1.68718769 -3.32326467
v -5.18846573 4.06895402 -1.32094673
v -5.18846573 3.22833079 -1.32094673
v -5.18846593 4.76947389 0.68137121
v -5.18846593 4.34916227 0.68137121
v -5.18846492 1.26687455 -9.33021848
v -5.18846492 0.42625132 -9.33021848
v -3.89120684 0.84656294 -9.33021848
v -5.18846512 1.96739442 -7.32790055
v -5.18846492 -1.25499514 -9.33021848
v -5.18846492 -0.41437191 -9.33021848
v -3.89120684 -1.25499514 -9.33021848
v -5.18846512 -0.13416366 -7.32790055
v -1.29669070 0.00593970 -9.33021848
v -3.89120684 0.00593970 -9.33021848
v -2.59394877 0.42625132 -9.33021848
v -1.29669070 -0.41437191 -9.33021848
v -3.89120684 0.42625132 -9.33021848
v -5.18846553 3.36843416 -3.32326467
v -5.18846512 1.12677119 -7.32790055
v -5.18846532 2.66791429 -5.32558260
v -5.18846553 2.94812254 -3.32326467
v -5.18846512 1.54708281 -7.32790055
v -1.29669070 -1.25499514 -9.33021848
v -3.89120684 -0.41437191 -9.33021848
v -2.59394877 -1.25499514 -9.33021848
v -1.29669070 -0.83468353 -9.33021848
v -3.89120684 -0.83468353 -9.33021848
v -2.59394877 -0.41437191 -9.33021848
v -5.18846553 2.10749931 -3.32326467
v -5.18846512 0.70645958 -7.32790055
v -5.18846532 0.98666782 -5.32558260
v -5.18846553 2.52781092 -3.32326467
v -5.18846512 0.28614796 -7.32790055
v -5.18846532 1.82729105 -5.32558260
v 3.89233998 -4.55910761 6.68832746
v 1.29782383 -5.32967931 6.68832746
v 3.89233998 -4.94439346 6.68832746
v -3.89120847 -6.87082271 6.68832746
v -1.29669232 -6.10025101 6.68832746
v 3.89233998 -5.71496516 6.68832746
v 1.29782383 -5.71496516 6.68832746
v 3.89233998 -5.32967931 6.68832746
v 2.59508190 -5.32967931 6.68832746
v 3.89233998 -7.25610856 6.68832746
v 1.29782383 -7.25610856 6.68832746
v 3.89233998 -6.87082271 6.68832746
v 2.59508211 -6.55850833 4.68600922
v -3.89120847 -7.25610856 6.68832746
v -1.29669232 -7.25610856 6.68832746
v -2.59395039 -6.87082271 6.68832746
v 3.89233998 -6.10025101 6.68832746
v 1.29782383 -6.87082271 6.68832746
v 3.89233998 -6.48553686 6.68832746
v 2.59508190 -6.10025101 6.68832746
v 2.59508190 -6.87082271 6.68832746
v 0.00056636 -5.16330788 0.68137273
v 0.00056596 -6.55850833 4.68600922
v 1.29782424 -5.86090811 2.68369098
v 1.29782403 -6.55850833 4.68600922
v 0.00056576 -6.10025101 6.68832746
v 0.00056576 -6.87082271 6.68832746
v -1.29669232 -6.48553686 6.68832746
v 1.29782383 -6.10025101 6.68832746
v -1.29669232 -6.87082271 6.68832746
v 1.29782383 -6.48553686 6.68832746
v -5.18846512 -2.37290698 -7.32790024
v -5.18846553 -3.76810743 -3.32326375
v -3.89120725 -3.07050721 -5.32558199
v -5.18846634 -6.55850833 4.68600922
v -5.18846593 -5.16330788 0.68137273
v -3.89120826 -6.55850833 4.68600922
v -1.29669151 -4.46570766 -1.32094551
v -3.89120766 -4.46570766 -1.32094551
v -2.59394938 -3.76810743 -3.32326375
v -1.29669171 -5.16330788 0.68137273
v -3.89120745 -3.76810743 -3.32326375
v -1.29669212 -6.55850833 4.68600922
v -3.89120786 -5.16330788 0.68137273
v -2.59395019 -6.55850833 4.68600922
v -1.29669191 -5.86090811 2.68369098
v -3.89120806 -5.86090811 2.68369098
v -2.59394978 -5.16330788 0.68137273
v 3.89233998 -4.17382176 6.68832746
v 1.29782383 -4.17382176 6.68832746
v 3.89234018 -3.67762105 5.19388575
v 2.59508190 -4.55910761 6.68832746
v -3.89120847 -4.17382176 6.68832746
v -1.29669232 -4.17382176 6.68832746
v 3.89234059 -2.68521963 2.20500234
v 1.29782403 -3.67762105 5.19388575
v 3.89234038 -3.18142034 3.69944405
v 2.59508211 -3.67762105 5.19388575
v 0.00056576 -5.32967931 6.68832746
v 0.00056576 -4.55910761 6.68832746
v 1.29782383 -4.94439346 6.68832746
v 1.29782383 -4.55910761 6.68832746
v 3.89234140 -0.70041681 -3.77276449
v 1.29782484 -1.69281822 -0.78388107
v 3.89234119 -1.19661752 -2.27832278
v -3.89120826 -3.67762105 5.19388575
v -1.29669171 -2.68521963 2.20500234
v -2.59395019 -3.67762105 5.19388575
v 3.89234079 -2.18901893 0.71056063
v 1.29782464 -2.18901893 0.71056063
v 3.89234099 -1.69281822 -0.78388107
v 2.59508251 -2.68521963 2.20500234
v 2.59508292 -1.69281822 -0.78388107
v 0.00056596 -3.67762105 5.19388575
v 0.00056636 -2.68521963 2.20500234
v -1.29669212 -3.67762105 5.19388575
v 1.29782424 -3.18142034 3.69944405
v -1.29669191 -3.18142034 3.69944405
v 1.29782444 -2.68521963 2.20500234
v -5.18846512 -1.98762113 -7.32790024
v -5.18846553 -2.61224988 -3.32326375
v -5.18846532 -2.68522136 -5.32558199
v -5.18846634 -3.86150738 4.68600922
v -5.18846593 -3.23687863 0.68137273
v -5.18846573 -4.08042181 -1.32094551
v -5.18846573 -3.30985011 -1.32094551
v -5.18846553 -3.38282158 -3.32326375
v -5.18846553 -2.99753573 -3.32326375
v -5.18846654 -6.87082271 6.68832746
v -5.18846654 -6.10025101 6.68832746
v -3.89120847 -6.48553686 6.68832746
v -5.18846634 -6.17322248 4.68600922
v -5.18846654 -4.55910761 6.68832746
v -5.18846654 -5.32967931 6.68832746
v -3.89120847 -4.55910761 6.68832746
v -5.18846634 -4.24679323 4.68600922
v -1.29669232 -5.71496516 6.68832746
v -3.89120847 -5.71496516 6.68832746
v -2.59395039 -6.10025101 6.68832746
v -1.29669232 -5.32967931 6.68832746
v -3.89120847 -6.10025101 6.68832746
v -5.18846593 -4.77802203 0.68137273
v -5.18846634 -5.40265078 4.68600922
v -5.18846613 -5.47562226 2.68369098
v -5.18846593 -4.39273618 0.68137273
v -5.18846634 -5.78793663 4.68600922
v -1.29669232 -4.55910761 6.68832746
v -3.89120847 -5.32967931 6.68832746
v -2.59395039 -4.55910761 6.68832746
v -1.29669232 -4.94439346 6.68832746
v -3.89120847 -4.94439346 6.68832746
v -2.59395039 -5.32967931 6.68832746
v -5.18846593 -3.62216448 0.68137273
v -5.18846634 -5.01736493 4.68600922
v -5.18846613 -3.93447886 2.68369098
v -5.18846593 -4.00745033 0.68137273
v -5.18846634 -4.63207908 4.68600922
v -5.18846613 -4.70505056 2.68369098
v 3.89234160 3.38011079 5.19388362
v 1.29782545 2.37603223 2.20500082
v 3.89234160 2.87807151 3.69944222
v -3.89120684 0.36787511 -3.77276479
v -1.29669070 1.37195367 -0.78388199
v 3.89234160 1.87399295 0.71055942
v 1.29782545 1.87399295 0.71055942
v 3.89234160 2.37603223 2.20500082
v 2.59508353 2.37603223 2.20500082
v 3.89234160 -0.13416417 -5.26720619
v 1.29782545 -0.13416417 -5.26720619
v 3.89234160 0.36787511 -3.77276479
v -3.89120684 -0.13416417 -5.26720619
v -1.29669070 -0.13416417 -5.26720619
v -2.59394877 0.36787511 -3.77276479
v 3.89234160 1.37195367 -0.78388199
v 1.29782545 0.36787511 -3.77276479
v 3.89234160 0.86991439 -2.27832339
v 2.59508353 1.37195367 -0.78388199
v 2.59508353 0.36787511 -3.77276479
v 0.00056738 1.37195367 -0.78388199
v 0.00056738 0.36787511 -3.77276479
v -1.29669070 0.86991439 -2.27832339
v 1.29782545 1.37195367 -0.78388199
v -1.29669070 0.36787511 -3.77276479
v 1.29782545 0.86991439 -2.27832339
v -5.18846634 6.36315645 5.19388362
v -5.18846593 4.50677913 2.20500082
v -5.18846613 5.24232496 3.19156569
v -5.18846512 0.79402450 -3.77276479
v -5.18846553 2.65040181 -0.78388199
v -5.18846573 3.00066200 -0.81307019
v -5.18846573 3.38594764 0.20268288
v -5.18846593 4.12149348 1.18924774
v -5.18846593 4.31413631 1.69712428
v -5.18846492 -1.48266394 -8.82234194
v -5.18846492 -1.09737829 -7.80658887
v -5.18846512 -0.36183245 -6.82002401
v -5.18846492 -0.32680699 -5.77508273
v -5.18846492 -0.71209264 -6.79083580
v -5.18846512 0.60138167 -4.28064133
v -5.18846553 1.87983052 -2.81538813
v -5.18846512 0.02345320 -5.80427094
v -5.18846532 0.75899903 -4.81770607
v -5.18846553 2.07247334 -2.30751160
v -5.18846512 -0.16918962 -6.31214747
v -5.18846553 2.45775899 -1.29175852
v -5.18846512 0.21609602 -5.29639440
v -5.18846532 1.52957033 -2.78619992
v -5.18846553 2.26511616 -1.79963506
v -5.18846512 0.40873885 -4.78851787
v -5.18846532 1.14428468 -3.80195300
v 3.89234140 6.86519573 6.68832503
v 1.29782484 6.01289697 6.68832503
v 3.89234140 6.43904634 6.68832503
v 2.59508312 6.86519573 6.68832503
v -3.89120826 4.30829946 6.68832503
v -1.29669171 5.16059821 6.68832503
v 3.89234140 5.58674759 6.68832503
v 1.29782484 5.58674759 6.68832503
v 3.89234140 6.01289697 6.68832503
v 2.59508312 6.01289697 6.68832503
v 0.00056657 6.86519573 6.68832503
v 0.00056657 6.01289697 6.68832503
v 1.29782484 6.86519573 6.68832503
v 1.29782484 6.43904634 6.68832503
v 3.89234140 3.88215007 6.68832503
v 1.29782484 3.88215007 6.68832503
v 3.89234140 4.30829946 6.68832503
v 2.59508332 3.38011079 5.19388362
v -3.89120826 3.88215007 6.68832503
v -1.29669171 3.88215007 6.68832503
v -2.59394999 4.30829946 6.68832503
v 3.89234140 5.16059821 6.68832503
v 1.29782484 4.30829946 6.68832503
v 3.89234140 4.73444883 6.68832503
v 2.59508312 5.16059821 6.68832503
v 2.59508312 4.30829946 6.68832503
v 0.00056717 2.37603223 2.20500082
v 0.00056677 3.38011079 5.19388362
v 1.29782525 2.87807151 3.69944222
v 1.29782505 3.38011079 5.19388362
v 0.00056657 5.16059821 6.68832503
v 0.00056657 4.30829946 6.68832503
v -1.29669171 4.73444883 6.68832503
v 1.29782484 5.16059821 6.68832503
v -1.29669171 4.30829946 6.68832503
v 1.29782484 4.73444883 6.68832503
v -5.18846654 6.86519573 6.68832503
v -5.18846654 6.01289697 6.68832503
v -3.89120826 6.86519573 6.68832503
v -5.18846634 5.93700706 5.19388362
v -5.18846654 4.30829946 6.68832503
v -5.18846654 5.16059821 6.68832503
v -3.89120826 4.73444883 6.68832503
v -1.29669171 6.86519573 6.68832503
v -3.89120826 6.01289697 6.68832503
v -2.59394999 6.86519573 6.68832503
v -1.29669171 6.43904634 6.68832503
v -3.89120826 6.43904634 6.68832503
v -5.18846593 4.08062975 2.20500082
v -5.18846634 5.08470831 5.19388362
v -5.18846613 5.00881841 3.69944222
v -5.18846634 5.51085769 5.19388362
v -1.29669171 5.58674759 6.68832503
v -3.89120826 5.58674759 6.68832503
v -2.59394999 5.16059821 6.68832503
v -1.29669171 6.01289697 6.68832503
v -3.89120826 5.16059821 6.68832503
v -2.59394999 6.01289697 6.68832503
v -5.18846512 0.36787511 -3.77276479
v -5.18846553 1.37195367 -0.78388199
v -3.89120705 0.86991439 -2.27832339
v -5.18846532 1.29606378 -2.27832339
v -5.18846634 3.38011079 5.19388362
v -5.18846593 2.37603223 2.20500082
v -3.89120806 3.38011079 5.19388362
v -5.18846634 3.80626018 5.19388362
v -1.29669090 1.87399295 0.71055942
v -3.89120745 1.87399295 0.71055942
v -2.59394897 1.37195367 -0.78388199
v -1.29669110 2.37603223 2.20500082
v -3.89120725 1.37195367 -0.78388199
v -5.18846573 3.15244109 0.71055942
v -5.18846573 2.30014234 0.71055942
v -5.18846553 2.22425243 -0.78388199
v -5.18846593 3.65448037 2.20500082
v -5.18846553 1.79810306 -0.78388199
v -1.29669151 3.38011079 5.19388362
v -3.89120766 2.37603223 2.20500082
v -2.59394978 3.38011079 5.19388362
v -1.29669130 2.87807151 3.69944222
v -3.89120786 2.87807151 3.69944222
v -2.59394938 2.37603223 2.20500082
v -5.18846634 4.65855893 5.19388362
v -5.18846593 2.80218162 2.20500082
v -5.18846634 4.23240955 5.19388362
v -5.18846613 4.15651965 3.69944222
v -5.18846613 3.30422090 3.69944222
v -5.18846593 3.22833099 2.20500082
v 3.89234160 -0.14292066 -5.26720619
v 1.29782545 -0.16043364 -5.26720619
v 3.89234160 -0.15167715 -5.26720619
v 2.59508353 -0.14292066 -5.26720619
v -3.89120684 -0.19545961 -5.26720619
v -1.29669070 -0.17794663 -5.26720619
v 3.89234160 -0.16919014 -5.26720619
v 1.29782545 -0.16919014 -5.26720619
v 3.89234160 -0.16043364 -5.26720619
v 2.59508353 -0.16043364 -5.26720619
v 0.00056738 -0.14292066 -5.26720619
v 0.00056738 -0.16043364 -5.26720619
v 1.29782545 -0.14292066 -5.26720619
v 1.29782545 -0.15167715 -5.26720619
v 3.89234160 -0.20421610 -5.26720619
v 1.29782545 -0.20421610 -5.26720619
v 3.89234160 -0.19545961 -5.26720619
v 2.59508332 -0.70041681 -3.77276449
v -3.89120684 -0.20421610 -5.26720619
v -1.29669070 -0.20421610 -5.26720619
v -2.59394877 -0.19545961 -5.26720619
v 3.89234160 -0.17794663 -5.26720619
v 1.29782545 -0.19545961 -5.26720619
v 3.89234160 -0.18670312 -5.26720619
v 2.59508353 -0.17794663 -5.26720619
v 2.59508353 -0.19545961 -5.26720619
v 0.00056677 -1.69281822 -0.78388107
v 0.00056717 -0.70041681 -3.77276449
v 1.29782505 -1.19661752 -2.27832278
v 1.29782525 -0.70041681 -3.77276449
v 0.00056738 -0.17794663 -5.26720619
v 0.00056738 -0.19545961 -5.26720619
v -1.29669070 -0.18670312 -5.26720619
v 1.29782545 -0.17794663 -5.26720619
v -1.29669070 -0.19545961 -5.26720619
v 1.29782545 -0.18670312 -5.26720619
v -5.18846492 -1.49142043 -8.82234194
v -5.18846492 -1.12364776 -7.80658887
v -5.18846512 -1.80373480 -6.82002370
v -5.18846492 -1.29877760 -8.31446541
v -5.18846492 -0.38810244 -5.77508273
v -5.18846492 -0.75587510 -6.79083580
v -5.18846553 -2.42836355 -2.81538722
v -5.18846512 -1.43596213 -5.80427063
v -5.18846532 -2.11604918 -4.81770546
v -5.18846512 -1.61984847 -6.31214717
v -5.18846492 -0.91349196 -7.29871234
v -5.18846492 -0.93100494 -7.29871234
v -5.18846492 -1.10613478 -7.80658887
v -5.18846492 -1.11489127 -7.80658887
v -5.18846634 -3.67762105 5.19388575
v -5.18846593 -2.68521963 2.20500234
v -3.89120806 -3.18142034 3.69944405
v -5.18846613 -3.36530667 3.19156751
v -5.18846512 -0.70041681 -3.77276449
v -5.18846553 -1.69281822 -0.78388107
v -3.89120705 -0.70041681 -3.77276449
v -5.18846512 -0.88430314 -4.28064102
v -1.29669151 -2.18901893 0.71056063
v -3.89120766 -2.18901893 0.71056063
v -2.59394978 -2.68521963 2.20500234
v -1.29669130 -1.69281822 -0.78388107
v -3.89120786 -2.68521963 2.20500234
v -5.18846573 -2.74067793 -0.81306897
v -5.18846573 -2.37290526 0.20268410
v -5.18846593 -3.05299230 1.18924927
v -5.18846553 -2.24447722 -2.30751068
v -5.18846593 -2.86910596 1.69712580
v -1.29669090 -0.70041681 -3.77276449
v -3.89120745 -1.69281822 -0.78388107
v -2.59394897 -0.70041681 -3.77276449
v -1.29669110 -1.19661752 -2.27832278
v -3.89120725 -1.19661752 -2.27832278
v -2.59394938 -1.69281822 -0.78388107
v -5.18846512 -1.25207580 -5.29639409
v -5.18846553 -1.87670455 -1.29175761
v -5.18846512 -1.06818947 -4.78851756
v -5.18846532 -1.74827651 -3.80195239
v -5.18846532 -1.38050385 -2.78619932
v -5.18846553 -2.06059088 -1.79963414
v -5.18846492 -0.14292066 -5.26720619
v -5.18846492 -0.16043364 -5.26720619
v -3.89120684 -0.14292066 -5.26720619
v -5.18846492 -0.33556348 -5.77508273
v -5.18846492 -0.19545961 -5.26720619
v -5.18846492 -0.17794663 -5.26720619
v -3.89120684 -0.18670312 -5.26720619
v -5.18846492 -0.37934594 -5.77508273
v -1.29669070 -0.14292066 -5.26720619
v -3.89120684 -0.16043364 -5.26720619
v -2.59394877 -0.14292066 -5.26720619
v -1.29669070 -0.15167715 -5.26720619
v -3.89120684 -0.15167715 -5.26720619
v -5.18846492 -0.72084913 -6.79083580
v -5.18846492 -0.35307647 -5.77508273
v -5.18846492 -0.52820631 -6.28295926
v -5.18846492 -0.72960562 -6.79083580
v -5.18846492 -0.34431998 -5.77508273
v -1.29669070 -0.16919014 -5.26720619
v -3.89120684 -0.16919014 -5.26720619
v -2.59394877 -0.17794663 -5.26720619
v -1.29669070 -0.16043364 -5.26720619
v -3.89120684 -0.17794663 -5.26720619
v -2.59394877 -0.16043364 -5.26720619
v -5.18846492 -0.74711861 -6.79083580
v -5.18846492 -0.36183296 -5.77508273
v -5.18846492 -0.56323228 -6.28295926
v -5.18846492 -0.73836212 -6.79083580
v -5.18846492 -0.37058945 -5.77508273
v -5.18846492 -0.54571929 -6.28295926
f 1 227 231
f 227 59 233
f 231 233 61
f 227 233 231
f 59 228 238
f 228 17 236
f 238 236 63
f 228 236 238
f 61 239 232
f 239 63 237
f 232 237 18
f 239 237 232
f 59 238 233
f 238 63 239
f 233 239 61
f 238 239 233
f 17 230 246
f 230 60 248
f 246 248 66
f 230 248 246
f 60 229 242
f 229 2 240
f 242 240 64
f 229 240 242
f 66 250 247
f 250 64 241
f 247 241 19
f 250 241 247
f 60 242 248
f 242 64 250
f 248 250 66
f 242 250 248
f 18 251 235
f 251 67 253
f 235 253 62
f 251 253 235
f 67 252 255
f 252 19 244
f 255 244 65
f 252 244 255
f 62 245 234
f 245 65 243
f 234 243 3
f 245 243 234
f 67 255 253
f 255 65 245
f 253 245 62
f 255 245 253
f 17 246 236
f 246 66 249
f 236 249 63
f 246 249 236
f 66 247 256
f 247 19 252
f 256 252 67
f 247 252 256
f 63 254 237
f 254 67 251
f 237 251 18
f 254 251 237
f 66 256 249
f 256 67 254
f 249 254 63
f 256 254 249
f 4 270 259
f 270 73 272
f 259 272 69
f 270 272 259
f 73 271 280
f 271 22 277
f 280 277 75
f 271 277 280
f 69 278 260
f 278 75 276
f 260 276 20
f 278 276 260
f 73 280 272
f 280 75 278
f 272 278 69
f 280 278 272
f 22 274 282
f 274 74 285
f 282 285 76
f 274 285 282
f 74 273 275
f 273 5 264
f 275 264 71
f 273 264 275
f 76 283 281
f 283 71 265
f 281 265 21
f 283 265 281
f 74 275 285
f 275 71 283
f 285 283 76
f 275 283 285
f 20 266 258
f 266 72 268
f 258 268 68
f 266 268 258
f 72 267 269
f 267 21 262
f 269 262 70
f 267 262 269
f 68 263 257
f 263 70 261
f 257 261 1
f 263 261 257
f 72 269 268
f 269 70 263
f 268 263 68
f 269 263 268
f 22 282 277
f 282 76 286
f 277 286 75
f 282 286 277
f 76 281 284
f 281 21 267
f 284 267 72
f 281 267 284
f 75 279 276
f 279 72 266
f 276 266 20
f 279 266 276
f 76 284 286
f 284 72 279
f 286 279 75
f 284 279 286
f 3 287 300
f 287 77 303
f 300 303 82
f 287 303 300
f 77 288 314
f 288 23 312
f 314 312 85
f 288 312 314
f 82 315 301
f 315 85 313
f 301 313 25
f 315 313 301
f 77 314 303
f 314 85 315
f 303 315 82
f 314 315 303
f 23 290 328
f 290 78 330
f 328 330 89
f 290 330 328
f 78 289 324
f 289 6 322
f 324 322 87
f 289 322 324
f 89 332 329
f 332 87 323
f 329 323 26
f 332 323 329
f 78 324 330
f 324 87 332
f 330 332 89
f 324 332 330
f 25 333 305
f 333 90 335
f 305 335 83
f 333 335 305
f 90 334 337
f 334 26 326
f 337 326 88
f 334 326 337
f 83 327 304
f 327 88 325
f 304 325 7
f 327 325 304
f 90 337 335
f 337 88 327
f 335 327 83
f 337 327 335
f 23 328 312
f 328 89 331
f 312 331 85
f 328 331 312
f 89 329 338
f 329 26 334
f 338 334 90
f 329 334 338
f 85 336 313
f 336 90 333
f 313 333 25
f 336 333 313
f 89 338 331
f 338 90 336
f 331 336 85
f 338 336 331
f 8 356 343
f 356 96 358
f 343 358 92
f 356 358 343
f 96 357 368
f 357 28 365
f 368 365 98
f 357 365 368
f 92 366 344
f 366 98 364
f 344 364 27
f 366 364 344
f 96 368 358
f 368 98 366
f 358 366 92
f 368 366 358
f 28 354 360
f 354 95 363
f 360 363 97
f 354 363 360
f 95 353 355
f 353 4 259
f 355 259 69
f 353 259 355
f 97 361 359
f 361 69 260
f 359 260 20
f 361 260 359
f 95 355 363
f 355 69 361
f 363 361 97
f 355 361 363
f 27 346 340
f 346 93 348
f 340 348 91
f 346 348 340
f 93 345 347
f 345 20 258
f 347 258 68
f 345 258 347
f 91 341 339
f 341 68 257
f 339 257 1
f 341 257 339
f 93 347 348
f 347 68 341
f 348 341 91
f 347 341 348
f 28 360 365
f 360 97 369
f 365 369 98
f 360 369 365
f 97 359 362
f 359 20 345
f 362 345 93
f 359 345 362
f 98 367 364
f 367 93 346
f 364 346 27
f 367 346 364
f 97 362 369
f 362 93 367
f 369 367 98
f 362 367 369
f 1 231 291
f 231 61 293
f 291 293 79
f 231 293 291
f 61 232 298
f 232 18 296
f 298 296 81
f 232 296 298
f 79 299 292
f 299 81 297
f 292 297 24
f 299 297 292
f 61 298 293
f 298 81 299
f 293 299 79
f 298 299 293
f 18 235 307
f 235 62 309
f 307 309 84
f 235 309 307
f 62 234 302
f 234 3 300
f 302 300 82
f 234 300 302
f 84 311 308
f 311 82 301
f 308 301 25
f 311 301 308
f 62 302 309
f 302 82 311
f 309 311 84
f 302 311 309
f 24 316 295
f 316 86 318
f 295 318 80
f 316 318 295
f 86 317 320
f 317 25 305
f 320 305 83
f 317 305 320
f 80 306 294
f 306 83 304
f 294 304 7
f 306 304 294
f 86 320 318
f 320 83 306
f 318 306 80
f 320 306 318
f 18 307 296
f 307 84 310
f 296 310 81
f 307 310 296
f 84 308 321
f 308 25 317
f 321 317 86
f 308 317 321
f 81 319 297
f 319 86 316
f 297 316 24
f 319 316 297
f 84 321 310
f 321 86 319
f 310 319 81
f 321 319 310
f 7 370 294
f 370 99 372
f 294 372 80
f 370 372 294
f 99 371 380
f 371 29 377
f 380 377 101
f 371 377 380
f 80 378 295
f 378 101 376
f 295 376 24
f 378 376 295
f 99 380 372
f 380 101 378
f 372 378 80
f 380 378 372
f 29 374 382
f 374 100 385
f 382 385 102
f 374 385 382
f 100 373 375
f 373 8 343
f 375 343 92
f 373 343 375
f 102 383 381
f 383 92 344
f 381 344 27
f 383 344 381
f 100 375 385
f 375 92 383
f 385 383 102
f 375 383 385
f 24 349 292
f 349 94 351
f 292 351 79
f 349 351 292
f 94 350 352
f 350 27 340
f 352 340 91
f 350 340 352
f 79 342 291
f 342 91 339
f 291 339 1
f 342 339 291
f 94 352 351
f 352 91 342
f 351 342 79
f 352 342 351
f 29 382 377
f 382 102 386
f 377 386 101
f 382 386 377
f 102 381 384
f 381 27 350
f 384 350 94
f 381 350 384
f 101 379 376
f 379 94 349
f 376 349 24
f 379 349 376
f 102 384 386
f 384 94 379
f 386 379 101
f 384 379 386
f 9 444 492
f 444 118 494
f 492 494 130
f 444 494 492
f 118 445 499
f 445 34 497
f 499 497 132
f 445 497 499
f 130 500 493
f 500 132 498
f 493 498 37
f 500 498 493
f 118 499 494
f 499 132 500
f 494 500 130
f 499 500 494
f 34 448 514
f 448 119 516
f 514 516 136
f 448 516 514
f 119 447 504
f 447 10 501
f 504 501 133
f 447 501 504
f 136 518 515
f 518 133 502
f 515 502 38
f 518 502 515
f 119 504 516
f 504 133 518
f 516 518 136
f 504 518 516
f 37 525 496
f 525 138 527
f 496 527 131
f 525 527 496
f 138 526 529
f 526 38 506
f 529 506 134
f 526 506 529
f 131 508 495
f 508 134 505
f 495 505 11
f 508 505 495
f 138 529 527
f 529 134 508
f 527 508 131
f 529 508 527
f 34 514 497
f 514 136 517
f 497 517 132
f 514 517 497
f 136 515 530
f 515 38 526
f 530 526 138
f 515 526 530
f 132 528 498
f 528 138 525
f 498 525 37
f 528 525 498
f 136 530 517
f 530 138 528
f 517 528 132
f 530 528 517
f 11 562 610
f 562 147 612
f 610 612 159
f 562 612 610
f 147 563 617
f 563 41 615
f 617 615 161
f 563 615 617
f 159 618 611
f 618 161 616
f 611 616 44
f 618 616 611
f 147 617 612
f 617 161 618
f 612 618 159
f 617 618 612
f 41 566 632
f 566 148 634
f 632 634 165
f 566 634 632
f 148 565 622
f 565 12 619
f 622 619 162
f 565 619 622
f 165 636 633
f 636 162 620
f 633 620 45
f 636 620 633
f 148 622 634
f 622 162 636
f 634 636 165
f 622 636 634
f 44 643 614
f 643 167 645
f 614 645 160
f 643 645 614
f 167 644 647
f 644 45 624
f 647 624 163
f 644 624 647
f 160 626 613
f 626 163 623
f 613 623 13
f 626 623 613
f 167 647 645
f 647 163 626
f 645 626 160
f 647 626 645
f 41 632 615
f 632 165 635
f 615 635 161
f 632 635 615
f 165 633 648
f 633 45 644
f 648 644 167
f 633 644 648
f 161 646 616
f 646 167 643
f 616 643 44
f 646 643 616
f 165 648 635
f 648 167 646
f 635 646 161
f 648 646 635
f 14 759 678
f 759 196 762
f 678 762 176
f 759 762 678
f 196 760 776
f 760 53 773
f 776 773 199
f 760 773 776
f 176 774 679
f 774 199 772
f 679 772 48
f 774 772 679
f 196 776 762
f 776 199 774
f 762 774 176
f 776 774 762
f 53 764 784
f 764 197 787
f 784 787 201
f 764 787 784
f 197 763 766
f 763 15 741
f 766 741 192
f 763 741 766
f 201 785 783
f 785 192 742
f 783 742 52
f 785 742 783
f 197 766 787
f 766 192 785
f 787 785 201
f 766 785 787
f 48 749 676
f 749 194 751
f 676 751 175
f 749 751 676
f 194 750 752
f 750 52 738
f 752 738 191
f 750 738 752
f 175 740 675
f 740 191 737
f 675 737 9
f 740 737 675
f 194 752 751
f 752 191 740
f 751 740 175
f 752 740 751
f 53 784 773
f 784 201 788
f 773 788 199
f 784 788 773
f 201 783 786
f 783 52 750
f 786 750 194
f 783 750 786
f 199 775 772
f 775 194 749
f 772 749 48
f 775 749 772
f 201 786 788
f 786 194 775
f 788 775 199
f 786 775 788
f 11 610 825
f 610 159 827
f 825 827 211
f 610 827 825
f 159 611 833
f 611 44 831
f 833 831 213
f 611 831 833
f 211 834 826
f 834 213 832
f 826 832 56
f 834 832 826
f 159 833 827
f 833 213 834
f 827 834 211
f 833 834 827
f 44 614 852
f 614 160 854
f 852 854 218
f 614 854 852
f 160 613 842
f 613 13 839
f 842 839 215
f 613 839 842
f 218 856 853
f 856 215 840
f 853 840 57
f 856 840 853
f 160 842 854
f 842 215 856
f 854 856 218
f 842 856 854
f 56 863 830
f 863 220 865
f 830 865 212
f 863 865 830
f 220 864 867
f 864 57 844
f 867 844 216
f 864 844 867
f 212 846 829
f 846 216 843
f 829 843 16
f 846 843 829
f 220 867 865
f 867 216 846
f 865 846 212
f 867 846 865
f 44 852 831
f 852 218 855
f 831 855 213
f 852 855 831
f 218 853 868
f 853 57 864
f 868 864 220
f 853 864 868
f 213 866 832
f 866 220 863
f 832 863 56
f 866 863 832
f 218 868 855
f 868 220 866
f 855 866 213
f 868 866 855
f 14 678 687
f 678 176 689
f 687 689 179
f 678 689 687
f 176 679 697
f 679 48 695
f 697 695 181
f 679 695 697
f 179 699 688
f 699 181 696
f 688 696 49
f 699 696 688
f 176 697 689
f 697 181 699
f 689 699 179
f 697 699 689
f 48 676 681
f 676 175 683
f 681 683 177
f 676 683 681
f 175 675 677
f 675 9 492
f 677 492 130
f 675 492 677
f 177 682 680
f 682 130 493
f 680 493 37
f 682 493 680
f 175 677 683
f 677 130 682
f 683 682 177
f 677 682 683
f 49 691 685
f 691 180 694
f 685 694 178
f 691 694 685
f 180 690 692
f 690 37 496
f 692 496 131
f 690 496 692
f 178 686 684
f 686 131 495
f 684 495 11
f 686 495 684
f 180 692 694
f 692 131 686
f 694 686 178
f 692 686 694
f 48 681 695
f 681 177 698
f 695 698 181
f 681 698 695
f 177 680 693
f 680 37 690
f 693 690 180
f 680 690 693
f 181 700 696
f 700 180 691
f 696 691 49
f 700 691 696
f 177 693 698
f 693 180 700
f 698 700 181
f 693 700 698
f 11 825 684
f 825 211 828
f 684 828 178
f 825 828 684
f 211 826 838
f 826 56 836
f 838 836 214
f 826 836 838
f 178 837 685
f 837 214 835
f 685 835 49
f 837 835 685
f 211 838 828
f 838 214 837
f 828 837 178
f 838 837 828
f 56 830 893
f 830 212 895
f 893 895 226
f 830 895 893
f 212 829 876
f 829 16 873
f 876 873 222
f 829 873 876
f 226 897 894
f 897 222 874
f 894 874 58
f 897 874 894
f 212 876 895
f 876 222 897
f 895 897 226
f 876 897 895
f 49 882 688
f 882 224 884
f 688 884 179
f 882 884 688
f 224 883 886
f 883 58 870
f 886 870 221
f 883 870 886
f 179 872 687
f 872 221 869
f 687 869 14
f 872 869 687
f 224 886 884
f 886 221 872
f 884 872 179
f 886 872 884
f 56 893 836
f 893 226 896
f 836 896 214
f 893 896 836
f 226 894 898
f 894 58 883
f 898 883 224
f 894 883 898
f 214 885 835
f 885 224 882
f 835 882 49
f 885 882 835
f 226 898 896
f 898 224 885
f 896 885 214
f 898 885 896
f 1 261 461
f 261 70 463
f 461 463 122
f 261 463 461
f 70 262 469
f 262 21 467
f 469 467 124
f 262 467 469
f 122 470 462
f 470 124 468
f 462 468 35
f 470 468 462
f 70 469 463
f 469 124 470
f 463 470 122
f 469 470 463
f 21 265 481
f 265 71 483
f 481 483 128
f 265 483 481
f 71 264 477
f 264 5 475
f 477 475 126
f 264 475 477
f 128 485 482
f 485 126 476
f 482 476 36
f 485 476 482
f 71 477 483
f 477 126 485
f 483 485 128
f 477 485 483
f 35 486 466
f 486 129 488
f 466 488 123
f 486 488 466
f 129 487 490
f 487 36 479
f 490 479 127
f 487 479 490
f 123 480 465
f 480 127 478
f 465 478 11
f 480 478 465
f 129 490 488
f 490 127 480
f 488 480 123
f 490 480 488
f 21 481 467
f 481 128 484
f 467 484 124
f 481 484 467
f 128 482 491
f 482 36 487
f 491 487 129
f 482 487 491
f 124 489 468
f 489 129 486
f 468 486 35
f 489 486 468
f 128 491 484
f 491 129 489
f 484 489 124
f 491 489 484
f 5 540 475
f 540 142 543
f 475 543 126
f 540 543 475
f 142 541 555
f 541 40 553
f 555 553 145
f 541 553 555
f 126 554 476
f 554 145 552
f 476 552 36
f 554 552 476
f 142 555 543
f 555 145 554
f 543 554 126
f 555 554 543
f 40 545 573
f 545 143 575
f 573 575 150
f 545 575 573
f 143 544 567
f 544 12 565
f 567 565 148
f 544 565 567
f 150 577 574
f 577 148 566
f 574 566 41
f 577 566 574
f 143 567 575
f 567 148 577
f 575 577 150
f 567 577 575
f 36 568 479
f 568 149 570
f 479 570 127
f 568 570 479
f 149 569 572
f 569 41 563
f 572 563 147
f 569 563 572
f 127 564 478
f 564 147 562
f 478 562 11
f 564 562 478
f 149 572 570
f 572 147 564
f 570 564 127
f 572 564 570
f 40 573 553
f 573 150 576
f 553 576 145
f 573 576 553
f 150 574 578
f 574 41 569
f 578 569 149
f 574 569 578
f 145 571 552
f 571 149 568
f 552 568 36
f 571 568 552
f 150 578 576
f 578 149 571
f 576 571 145
f 578 571 576
f 5 273 540
f 273 74 542
f 540 542 142
f 273 542 540
f 74 274 549
f 274 22 547
f 549 547 144
f 274 547 549
f 142 551 541
f 551 144 548
f 541 548 40
f 551 548 541
f 74 549 542
f 549 144 551
f 542 551 142
f 549 551 542
f 22 271 536
f 271 73 538
f 536 538 141
f 271 538 536
f 73 270 533
f 270 4 531
f 533 531 139
f 270 531 533
f 141 539 537
f 539 139 532
f 537 532 39
f 539 532 537
f 73 533 538
f 533 139 539
f 538 539 141
f 533 539 538
f 40 557 545
f 557 146 560
f 545 560 143
f 557 560 545
f 146 556 558
f 556 39 535
f 558 535 140
f 556 535 558
f 143 546 544
f 546 140 534
f 544 534 12
f 546 534 544
f 146 558 560
f 558 140 546
f 560 546 143
f 558 546 560
f 22 536 547
f 536 141 550
f 547 550 144
f 536 550 547
f 141 537 559
f 537 39 556
f 559 556 146
f 537 556 559
f 144 561 548
f 561 146 557
f 548 557 40
f 561 557 548
f 141 559 550
f 559 146 561
f 550 561 144
f 559 561 550
f 4 579 531
f 579 151 582
f 531 582 139
f 579 582 531
f 151 580 592
f 580 42 590
f 592 590 154
f 580 590 592
f 139 591 532
f 591 154 589
f 532 589 39
f 591 589 532
f 151 592 582
f 592 154 591
f 582 591 139
f 592 591 582
f 42 584 637
f 584 152 639
f 637 639 166
f 584 639 637
f 152 583 625
f 583 13 623
f 625 623 163
f 583 623 625
f 166 641 638
f 641 163 624
f 638 624 45
f 641 624 638
f 152 625 639
f 625 163 641
f 639 641 166
f 625 641 639
f 39 627 535
f 627 164 629
f 535 629 140
f 627 629 535
f 164 628 631
f 628 45 620
f 631 620 162
f 628 620 631
f 140 621 534
f 621 162 619
f 534 619 12
f 621 619 534
f 164 631 629
f 631 162 621
f 629 621 140
f 631 621 629
f 42 637 590
f 637 166 640
f 590 640 154
f 637 640 590
f 166 638 642
f 638 45 628
f 642 628 164
f 638 628 642
f 154 630 589
f 630 164 627
f 589 627 39
f 630 627 589
f 166 642 640
f 642 164 630
f 640 630 154
f 642 630 640
f 4 353 579
f 353 95 581
f 579 581 151
f 353 581 579
f 95 354 587
f 354 28 585
f 587 585 153
f 354 585 587
f 151 588 580
f 588 153 586
f 580 586 42
f 588 586 580
f 95 587 581
f 587 153 588
f 581 588 151
f 587 588 581
f 28 357 599
f 357 96 601
f 599 601 157
f 357 601 599
f 96 356 595
f 356 8 593
f 595 593 155
f 356 593 595
f 157 603 600
f 603 155 594
f 600 594 43
f 603 594 600
f 96 595 601
f 595 155 603
f 601 603 157
f 595 603 601
f 42 604 584
f 604 158 606
f 584 606 152
f 604 606 584
f 158 605 608
f 605 43 597
f 608 597 156
f 605 597 608
f 152 598 583
f 598 156 596
f 583 596 13
f 598 596 583
f 158 608 606
f 608 156 598
f 606 598 152
f 608 598 606
f 28 599 585
f 599 157 602
f 585 602 153
f 599 602 585
f 157 600 609
f 600 43 605
f 609 605 158
f 600 605 609
f 153 607 586
f 607 158 604
f 586 604 42
f 607 604 586
f 157 609 602
f 609 158 607
f 602 607 153
f 609 607 602
f 8 803 593
f 803 206 806
f 593 806 155
f 803 806 593
f 206 804 818
f 804 55 816
f 818 816 209
f 804 816 818
f 155 817 594
f 817 209 815
f 594 815 43
f 817 815 594
f 206 818 806
f 818 209 817
f 806 817 155
f 818 817 806
f 55 808 857
f 808 207 859
f 857 859 219
f 808 859 857
f 207 807 845
f 807 16 843
f 845 843 216
f 807 843 845
f 219 861 858
f 861 216 844
f 858 844 57
f 861 844 858
f 207 845 859
f 845 216 861
f 859 861 219
f 845 861 859
f 43 847 597
f 847 217 849
f 597 849 156
f 847 849 597
f 217 848 851
f 848 57 840
f 851 840 215
f 848 840 851
f 156 841 596
f 841 215 839
f 596 839 13
f 841 839 596
f 217 851 849
f 851 215 841
f 849 841 156
f 851 841 849
f 55 857 816
f 857 219 860
f 816 860 209
f 857 860 816
f 219 858 862
f 858 57 848
f 862 848 217
f 858 848 862
f 209 850 815
f 850 217 847
f 815 847 43
f 850 847 815
f 219 862 860
f 862 217 850
f 860 850 209
f 862 850 860
f 8 373 803
f 373 100 805
f 803 805 206
f 373 805 803
f 100 374 812
f 374 29 810
f 812 810 208
f 374 810 812
f 206 814 804
f 814 208 811
f 804 811 55
f 814 811 804
f 100 812 805
f 812 208 814
f 805 814 206
f 812 814 805
f 29 371 795
f 371 99 797
f 795 797 204
f 371 797 795
f 99 370 791
f 370 7 789
f 791 789 202
f 370 789 791
f 204 798 796
f 798 202 790
f 796 790 54
f 798 790 796
f 99 791 797
f 791 202 798
f 797 798 204
f 791 798 797
f 55 820 808
f 820 210 823
f 808 823 207
f 820 823 808
f 210 819 821
f 819 54 794
f 821 794 203
f 819 794 821
f 207 809 807
f 809 203 793
f 807 793 16
f 809 793 807
f 210 821 823
f 821 203 809
f 823 809 207
f 821 809 823
f 29 795 810
f 795 204 813
f 810 813 208
f 795 813 810
f 204 796 822
f 796 54 819
f 822 819 210
f 796 819 822
f 208 824 811
f 824 210 820
f 811 820 55
f 824 820 811
f 204 822 813
f 822 210 824
f 813 824 208
f 822 824 813
f 7 658 789
f 658 171 792
f 789 792 202
f 658 792 789
f 171 659 801
f 659 47 799
f 801 799 205
f 659 799 801
f 202 802 790
f 802 205 800
f 790 800 54
f 802 800 790
f 171 801 792
f 801 205 802
f 792 802 202
f 801 802 792
f 47 662 877
f 662 172 879
f 877 879 223
f 662 879 877
f 172 661 871
f 661 14 869
f 871 869 221
f 661 869 871
f 223 881 878
f 881 221 870
f 878 870 58
f 881 870 878
f 172 871 879
f 871 221 881
f 879 881 223
f 871 881 879
f 54 887 794
f 887 225 889
f 794 889 203
f 887 889 794
f 225 888 891
f 888 58 874
f 891 874 222
f 888 874 891
f 203 875 793
f 875 222 873
f 793 873 16
f 875 873 793
f 225 891 889
f 891 222 875
f 889 875 203
f 891 875 889
f 47 877 799
f 877 223 880
f 799 880 205
f 877 880 799
f 223 878 892
f 878 58 888
f 892 888 225
f 878 888 892
f 205 890 800
f 890 225 887
f 800 887 54
f 890 887 800
f 223 892 880
f 892 225 890
f 880 890 205
f 892 890 880
f 7 325 658
f 325 88 660
f 658 660 171
f 325 660 658
f 88 326 666
f 326 26 664
f 666 664 173
f 326 664 666
f 171 668 659
f 668 173 665
f 659 665 47
f 668 665 659
f 88 666 660
f 666 173 668
f 660 668 171
f 666 668 660
f 26 323 654
f 323 87 656
f 654 656 170
f 323 656 654
f 87 322 651
f 322 6 649
f 651 649 168
f 322 649 651
f 170 657 655
f 657 168 650
f 655 650 46
f 657 650 655
f 87 651 656
f 651 168 657
f 656 657 170
f 651 657 656
f 47 670 662
f 670 174 673
f 662 673 172
f 670 673 662
f 174 669 671
f 669 46 653
f 671 653 169
f 669 653 671
f 172 663 661
f 663 169 652
f 661 652 14
f 663 652 661
f 174 671 673
f 671 169 663
f 673 663 172
f 671 663 673
f 26 654 664
f 654 170 667
f 664 667 173
f 654 667 664
f 170 655 672
f 655 46 669
f 672 669 174
f 655 669 672
f 173 674 665
f 674 174 670
f 665 670 47
f 674 670 665
f 170 672 667
f 672 174 674
f 667 674 173
f 672 674 667
f 6 715 649
f 715 186 718
f 649 718 168
f 715 718 649
f 186 716 730
f 716 51 728
f 730 728 189
f 716 728 730
f 168 729 650
f 729 189 727
f 650 727 46
f 729 727 650
f 186 730 718
f 730 189 729
f 718 729 168
f 730 729 718
f 51 720 777
f 720 187 779
f 777 779 200
f 720 779 777
f 187 719 765
f 719 15 763
f 765 763 197
f 719 763 765
f 200 781 778
f 781 197 764
f 778 764 53
f 781 764 778
f 187 765 779
f 765 197 781
f 779 781 200
f 765 781 779
f 46 767 653
f 767 198 769
f 653 769 169
f 767 769 653
f 198 768 771
f 768 53 760
f 771 760 196
f 768 760 771
f 169 761 652
f 761 196 759
f 652 759 14
f 761 759 652
f 198 771 769
f 771 196 761
f 769 761 169
f 771 761 769
f 51 777 728
f 777 200 780
f 728 780 189
f 777 780 728
f 200 778 782
f 778 53 768
f 782 768 198
f 778 768 782
f 189 770 727
f 770 198 767
f 727 767 46
f 770 767 727
f 200 782 780
f 782 198 770
f 780 770 189
f 782 770 780
f 6 289 715
f 289 78 717
f 715 717 186
f 289 717 715
f 78 290 724
f 290 23 722
f 724 722 188
f 290 722 724
f 186 726 716
f 726 188 723
f 716 723 51
f 726 723 716
f 78 724 717
f 724 188 726
f 717 726 186
f 724 726 717
f 23 288 707
f 288 77 709
f 707 709 184
f 288 709 707
f 77 287 703
f 287 3 701
f 703 701 182
f 287 701 703
f 184 710 708
f 710 182 702
f 708 702 50
f 710 702 708
f 77 703 709
f 703 182 710
f 709 710 184
f 703 710 709
f 51 732 720
f 732 190 735
f 720 735 187
f 732 735 720
f 190 731 733
f 731 50 706
f 733 706 183
f 731 706 733
f 187 721 719
f 721 183 705
f 719 705 15
f 721 705 719
f 190 733 735
f 733 183 721
f 735 721 187
f 733 721 735
f 23 707 722
f 707 184 725
f 722 725 188
f 707 725 722
f 184 708 734
f 708 50 731
f 734 731 190
f 708 731 734
f 188 736 723
f 736 190 732
f 723 732 51
f 736 732 723
f 184 734 725
f 734 190 736
f 725 736 188
f 734 736 725
f 3 396 701
f 396 106 704
f 701 704 182
f 396 704 701
f 106 397 713
f 397 31 711
f 713 711 185
f 397 711 713
f 182 714 702
f 714 185 712
f 702 712 50
f 714 712 702
f 106 713 704
f 713 185 714
f 704 714 182
f 713 714 704
f 31 400 744
f 400 107 746
f 744 746 193
f 400 746 744
f 107 399 739
f 399 9 737
f 739 737 191
f 399 737 739
f 193 748 745
f 748 191 738
f 745 738 52
f 748 738 745
f 107 739 746
f 739 191 748
f 746 748 193
f 739 748 746
f 50 753 706
f 753 195 755
f 706 755 183
f 753 755 706
f 195 754 757
f 754 52 742
f 757 742 192
f 754 742 757
f 183 743 705
f 743 192 741
f 705 741 15
f 743 741 705
f 195 757 755
f 757 192 743
f 755 743 183
f 757 743 755
f 31 744 711
f 744 193 747
f 711 747 185
f 744 747 711
f 193 745 758
f 745 52 754
f 758 754 195
f 745 754 758
f 185 756 712
f 756 195 753
f 712 753 50
f 756 753 712
f 193 758 747
f 758 195 756
f 747 756 185
f 758 756 747
f 3 243 396
f 243 65 398
f 396 398 106
f 243 398 396
f 65 244 404
f 244 19 402
f 404 402 108
f 244 402 404
f 106 406 397
f 406 108 403
f 397 403 31
f 406 403 397
f 65 404 398
f 404 108 406
f 398 406 106
f 404 406 398
f 19 241 392
f 241 64 394
f 392 394 105
f 241 394 392
f 64 240 389
f 240 2 387
f 389 387 103
f 240 387 389
f 105 395 393
f 395 103 388
f 393 388 30
f 395 388 393
f 64 389 394
f 389 103 395
f 394 395 105
f 389 395 394
f 31 408 400
f 408 109 411
f 400 411 107
f 408 411 400
f 109 407 409
f 407 30 391
f 409 391 104
f 407 391 409
f 107 401 399
f 401 104 390
f 399 390 9
f 401 390 399
f 109 409 411
f 409 104 401
f 411 401 107
f 409 401 411
f 19 392 402
f 392 105 405
f 402 405 108
f 392 405 402
f 105 393 410
f 393 30 407
f 410 407 109
f 393 407 410
f 108 412 403
f 412 109 408
f 403 408 31
f 412 408 403
f 105 410 405
f 410 109 412
f 405 412 108
f 410 412 405
f 2 422 387
f 422 113 425
f 387 425 103
f 422 425 387
f 113 423 437
f 423 33 435
f 437 435 116
f 423 435 437
f 103 436 388
f 436 116 434
f 388 434 30
f 436 434 388
f 113 437 425
f 437 116 436
f 425 436 103
f 437 436 425
f 33 427 455
f 427 114 457
f 455 457 121
f 427 457 455
f 114 426 449
f 426 10 447
f 449 447 119
f 426 447 449
f 121 459 456
f 459 119 448
f 456 448 34
f 459 448 456
f 114 449 457
f 449 119 459
f 457 459 121
f 449 459 457
f 30 450 391
f 450 120 452
f 391 452 104
f 450 452 391
f 120 451 454
f 451 34 445
f 454 445 118
f 451 445 454
f 104 446 390
f 446 118 444
f 390 444 9
f 446 444 390
f 120 454 452
f 454 118 446
f 452 446 104
f 454 446 452
f 33 455 435
f 455 121 458
f 435 458 116
f 455 458 435
f 121 456 460
f 456 34 451
f 460 451 120
f 456 451 460
f 116 453 434
f 453 120 450
f 434 450 30
f 453 450 434
f 121 460 458
f 460 120 453
f 458 453 116
f 460 453 458
f 2 229 422
f 229 60 424
f 422 424 113
f 229 424 422
f 60 230 431
f 230 17 429
f 431 429 115
f 230 429 431
f 113 433 423
f 433 115 430
f 423 430 33
f 433 430 423
f 60 431 424
f 431 115 433
f 424 433 113
f 431 433 424
f 17 228 418
f 228 59 420
f 418 420 112
f 228 420 418
f 59 227 415
f 227 1 413
f 415 413 110
f 227 413 415
f 112 421 419
f 421 110 414
f 419 414 32
f 421 414 419
f 59 415 420
f 415 110 421
f 420 421 112
f 415 421 420
f 33 439 427
f 439 117 442
f 427 442 114
f 439 442 427
f 117 438 440
f 438 32 417
f 440 417 111
f 438 417 440
f 114 428 426
f 428 111 416
f 426 416 10
f 428 416 426
f 117 440 442
f 440 111 428
f 442 428 114
f 440 428 442
f 17 418 429
f 418 112 432
f 429 432 115
f 418 432 429
f 112 419 441
f 419 32 438
f 441 438 117
f 419 438 441
f 115 443 430
f 443 117 439
f 430 439 33
f 443 439 430
f 112 441 432
f 441 117 443
f 432 443 115
f 441 443 432
f 1 461 413
f 461 122 464
f 413 464 110
f 461 464 413
f 122 462 474
f 462 35 472
f 474 472 125
f 462 472 474
f 110 473 414
f 473 125 471
f 414 471 32
f 473 471 414
f 122 474 464
f 474 125 473
f 464 473 110
f 474 473 464
f 35 466 519
f 466 123 521
f 519 521 137
f 466 521 519
f 123 465 507
f 465 11 505
f 507 505 134
f 465 505 507
f 137 523 520
f 523 134 506
f 520 506 38
f 523 506 520
f 123 507 521
f 507 134 523
f 521 523 137
f 507 523 521
f 32 509 417
f 509 135 511
f 417 511 111
f 509 511 417
f 135 510 513
f 510 38 502
f 513 502 133
f 510 502 513
f 111 503 416
f 503 133 501
f 416 501 10
f 503 501 416
f 135 513 511
f 513 133 503
f 511 503 111
f 513 503 511
f 35 519 472
f 519 137 522
f 472 522 125
f 519 522 472
f 137 520 524
f 520 38 510
f 524 510 135
f 520 510 524
f 125 512 471
f 512 135 509
f 471 509 32
f 512 509 471
f 137 524 522
f 524 135 512
f 522 512 125
f 524 512 522

